ISO-10303-21;
HEADER;
/* Generated by software containing ST-Developer
 * from STEP Tools, Inc. (www.steptools.com) 
 */
/* OPTION: using custom renumber hook */

FILE_DESCRIPTION(
/* description */ ('STEP AP242 Edition 2',
'CAx-IF Rec.Pracs.---Representation and Presentation of Product Manufa
cturing Information (PMI)---4.0---2014-10-13',
'CAx-IF Rec.Pracs.---3D Tessellated Geometry---0.4---2014-09-14','2;1',
'CAx-IF Rec.Pracs.---User Defined Attributes---1.5---2016-08-15'),
/* implementation_level */ '2;1');

FILE_NAME(
/* name */ 'Main - Ambu Bag',
/* time_stamp */ '2026-05-15T18:25:36Z',
/* author */ (''),
/* organization */ (''),
/* preprocessor_version */ 'ST-DEVELOPER v20',
/* originating_system */ 'ONSHAPE BY PTC INC, 1.215',
/* authorisation */ '  ');

FILE_SCHEMA (('AP242_MANAGED_MODEL_BASED_3D_ENGINEERING_MIM_LF { 1 0 10303 442 3 1 4 }'));
ENDSEC;

DATA;
#10=SHAPE_REPRESENTATION_RELATIONSHIP('','',#245,#11);
#11=ADVANCED_BREP_SHAPE_REPRESENTATION('',(#243),#431);
#12=DEGENERATE_TOROIDAL_SURFACE('',#258,0.172914630542352,0.237505840948837,
 .F.);
#13=DEGENERATE_TOROIDAL_SURFACE('',#260,0.105766981538627,0.162887175442085,
 .F.);
#14=DEGENERATE_TOROIDAL_SURFACE('',#280,0.105766981538627,0.163887175442085,
 .F.);
#15=DEGENERATE_TOROIDAL_SURFACE('',#282,0.172914630542352,0.238505840948837,
 .F.);
#16=TOROIDAL_SURFACE('',#256,0.0363827730850346,0.0155900911814255);
#17=TOROIDAL_SURFACE('',#262,0.0281985471481947,0.0182522107483554);
#18=TOROIDAL_SURFACE('',#264,0.0444034229300173,0.0118572255159154);
#19=TOROIDAL_SURFACE('',#266,0.0715171597796621,0.0424014648633864);
#20=TOROIDAL_SURFACE('',#274,0.0715171597796621,0.0414014648633864);
#21=TOROIDAL_SURFACE('',#276,0.0444034229300173,0.0108572255159154);
#22=TOROIDAL_SURFACE('',#278,0.0281985471481947,0.0192522107483554);
#23=TOROIDAL_SURFACE('',#284,0.0363827730850346,0.0165900911814255);
#24=CONICAL_SURFACE('',#254,0.0467746512707569,0.841199120214993);
#25=CONICAL_SURFACE('',#286,0.0474412207003254,0.841199120214992);
#26=PLANE('',#250);
#27=PLANE('',#270);
#28=ORIENTED_EDGE('',*,*,#68,.F.);
#29=ORIENTED_EDGE('',*,*,#69,.T.);
#30=ORIENTED_EDGE('',*,*,#68,.T.);
#31=ORIENTED_EDGE('',*,*,#70,.F.);
#32=ORIENTED_EDGE('',*,*,#70,.T.);
#33=ORIENTED_EDGE('',*,*,#71,.F.);
#34=ORIENTED_EDGE('',*,*,#71,.T.);
#35=ORIENTED_EDGE('',*,*,#72,.F.);
#36=ORIENTED_EDGE('',*,*,#72,.T.);
#37=ORIENTED_EDGE('',*,*,#73,.F.);
#38=ORIENTED_EDGE('',*,*,#73,.T.);
#39=ORIENTED_EDGE('',*,*,#74,.F.);
#40=ORIENTED_EDGE('',*,*,#74,.T.);
#41=ORIENTED_EDGE('',*,*,#75,.F.);
#42=ORIENTED_EDGE('',*,*,#75,.T.);
#43=ORIENTED_EDGE('',*,*,#76,.F.);
#44=ORIENTED_EDGE('',*,*,#76,.T.);
#45=ORIENTED_EDGE('',*,*,#77,.F.);
#46=ORIENTED_EDGE('',*,*,#77,.T.);
#47=ORIENTED_EDGE('',*,*,#78,.F.);
#48=ORIENTED_EDGE('',*,*,#78,.T.);
#49=ORIENTED_EDGE('',*,*,#79,.F.);
#50=ORIENTED_EDGE('',*,*,#79,.T.);
#51=ORIENTED_EDGE('',*,*,#80,.F.);
#52=ORIENTED_EDGE('',*,*,#81,.F.);
#53=ORIENTED_EDGE('',*,*,#80,.T.);
#54=ORIENTED_EDGE('',*,*,#82,.F.);
#55=ORIENTED_EDGE('',*,*,#81,.T.);
#56=ORIENTED_EDGE('',*,*,#83,.F.);
#57=ORIENTED_EDGE('',*,*,#82,.T.);
#58=ORIENTED_EDGE('',*,*,#84,.F.);
#59=ORIENTED_EDGE('',*,*,#83,.T.);
#60=ORIENTED_EDGE('',*,*,#85,.F.);
#61=ORIENTED_EDGE('',*,*,#84,.T.);
#62=ORIENTED_EDGE('',*,*,#86,.F.);
#63=ORIENTED_EDGE('',*,*,#85,.T.);
#64=ORIENTED_EDGE('',*,*,#87,.F.);
#65=ORIENTED_EDGE('',*,*,#86,.T.);
#66=ORIENTED_EDGE('',*,*,#69,.F.);
#67=ORIENTED_EDGE('',*,*,#87,.T.);
#68=EDGE_CURVE('',#88,#88,#108,.T.);
#69=EDGE_CURVE('',#89,#89,#109,.T.);
#70=EDGE_CURVE('',#90,#90,#110,.T.);
#71=EDGE_CURVE('',#91,#91,#111,.T.);
#72=EDGE_CURVE('',#92,#92,#112,.T.);
#73=EDGE_CURVE('',#93,#93,#113,.T.);
#74=EDGE_CURVE('',#94,#94,#114,.T.);
#75=EDGE_CURVE('',#95,#95,#115,.T.);
#76=EDGE_CURVE('',#96,#96,#116,.T.);
#77=EDGE_CURVE('',#97,#97,#117,.T.);
#78=EDGE_CURVE('',#98,#98,#118,.T.);
#79=EDGE_CURVE('',#99,#99,#119,.T.);
#80=EDGE_CURVE('',#100,#100,#120,.T.);
#81=EDGE_CURVE('',#101,#101,#121,.T.);
#82=EDGE_CURVE('',#102,#102,#122,.T.);
#83=EDGE_CURVE('',#103,#103,#123,.T.);
#84=EDGE_CURVE('',#104,#104,#124,.T.);
#85=EDGE_CURVE('',#105,#105,#125,.T.);
#86=EDGE_CURVE('',#106,#106,#126,.T.);
#87=EDGE_CURVE('',#107,#107,#127,.T.);
#88=VERTEX_POINT('',#372);
#89=VERTEX_POINT('',#374);
#90=VERTEX_POINT('',#377);
#91=VERTEX_POINT('',#380);
#92=VERTEX_POINT('',#383);
#93=VERTEX_POINT('',#386);
#94=VERTEX_POINT('',#389);
#95=VERTEX_POINT('',#392);
#96=VERTEX_POINT('',#395);
#97=VERTEX_POINT('',#398);
#98=VERTEX_POINT('',#401);
#99=VERTEX_POINT('',#404);
#100=VERTEX_POINT('',#407);
#101=VERTEX_POINT('',#410);
#102=VERTEX_POINT('',#413);
#103=VERTEX_POINT('',#416);
#104=VERTEX_POINT('',#419);
#105=VERTEX_POINT('',#422);
#106=VERTEX_POINT('',#425);
#107=VERTEX_POINT('',#428);
#108=CIRCLE('',#248,0.0216318019245966);
#109=CIRCLE('',#249,0.0216318019245966);
#110=CIRCLE('',#251,0.0206318019245966);
#111=CIRCLE('',#253,0.0206318019245966);
#112=CIRCLE('',#255,0.0467746512707569);
#113=CIRCLE('',#257,0.0507080496364509);
#114=CIRCLE('',#259,0.0507080496364508);
#115=CIRCLE('',#261,0.0438985374143721);
#116=CIRCLE('',#263,0.039654975048328);
#117=CIRCLE('',#265,0.0334908716285348);
#118=CIRCLE('',#267,0.0300364807898637);
#119=CIRCLE('',#269,0.0300364807898636);
#120=CIRCLE('',#271,0.0310364807898636);
#121=CIRCLE('',#273,0.0310364807898636);
#122=CIRCLE('',#275,0.0344003765716232);
#123=CIRCLE('',#277,0.0401742669554752);
#124=CIRCLE('',#279,0.0447920687076781);
#125=CIRCLE('',#281,0.0516600500637515);
#126=CIRCLE('',#283,0.0516393015950879);
#127=CIRCLE('',#285,0.0474412207003254);
#128=EDGE_LOOP('',(#28));
#129=EDGE_LOOP('',(#29));
#130=EDGE_LOOP('',(#30));
#131=EDGE_LOOP('',(#31));
#132=EDGE_LOOP('',(#32));
#133=EDGE_LOOP('',(#33));
#134=EDGE_LOOP('',(#34));
#135=EDGE_LOOP('',(#35));
#136=EDGE_LOOP('',(#36));
#137=EDGE_LOOP('',(#37));
#138=EDGE_LOOP('',(#38));
#139=EDGE_LOOP('',(#39));
#140=EDGE_LOOP('',(#40));
#141=EDGE_LOOP('',(#41));
#142=EDGE_LOOP('',(#42));
#143=EDGE_LOOP('',(#43));
#144=EDGE_LOOP('',(#44));
#145=EDGE_LOOP('',(#45));
#146=EDGE_LOOP('',(#46));
#147=EDGE_LOOP('',(#47));
#148=EDGE_LOOP('',(#48));
#149=EDGE_LOOP('',(#49));
#150=EDGE_LOOP('',(#50));
#151=EDGE_LOOP('',(#51));
#152=EDGE_LOOP('',(#52));
#153=EDGE_LOOP('',(#53));
#154=EDGE_LOOP('',(#54));
#155=EDGE_LOOP('',(#55));
#156=EDGE_LOOP('',(#56));
#157=EDGE_LOOP('',(#57));
#158=EDGE_LOOP('',(#58));
#159=EDGE_LOOP('',(#59));
#160=EDGE_LOOP('',(#60));
#161=EDGE_LOOP('',(#61));
#162=EDGE_LOOP('',(#62));
#163=EDGE_LOOP('',(#63));
#164=EDGE_LOOP('',(#64));
#165=EDGE_LOOP('',(#65));
#166=EDGE_LOOP('',(#66));
#167=EDGE_LOOP('',(#67));
#168=FACE_BOUND('',#128,.T.);
#169=FACE_BOUND('',#129,.T.);
#170=FACE_BOUND('',#130,.T.);
#171=FACE_BOUND('',#131,.T.);
#172=FACE_BOUND('',#132,.T.);
#173=FACE_BOUND('',#133,.T.);
#174=FACE_BOUND('',#134,.T.);
#175=FACE_BOUND('',#135,.T.);
#176=FACE_BOUND('',#136,.T.);
#177=FACE_BOUND('',#137,.T.);
#178=FACE_BOUND('',#138,.T.);
#179=FACE_BOUND('',#139,.T.);
#180=FACE_BOUND('',#140,.T.);
#181=FACE_BOUND('',#141,.T.);
#182=FACE_BOUND('',#142,.T.);
#183=FACE_BOUND('',#143,.T.);
#184=FACE_BOUND('',#144,.T.);
#185=FACE_BOUND('',#145,.T.);
#186=FACE_BOUND('',#146,.T.);
#187=FACE_BOUND('',#147,.T.);
#188=FACE_BOUND('',#148,.T.);
#189=FACE_BOUND('',#149,.T.);
#190=FACE_BOUND('',#150,.T.);
#191=FACE_BOUND('',#151,.T.);
#192=FACE_BOUND('',#152,.T.);
#193=FACE_BOUND('',#153,.T.);
#194=FACE_BOUND('',#154,.T.);
#195=FACE_BOUND('',#155,.T.);
#196=FACE_BOUND('',#156,.T.);
#197=FACE_BOUND('',#157,.T.);
#198=FACE_BOUND('',#158,.T.);
#199=FACE_BOUND('',#159,.T.);
#200=FACE_BOUND('',#160,.T.);
#201=FACE_BOUND('',#161,.T.);
#202=FACE_BOUND('',#162,.T.);
#203=FACE_BOUND('',#163,.T.);
#204=FACE_BOUND('',#164,.T.);
#205=FACE_BOUND('',#165,.T.);
#206=FACE_BOUND('',#166,.T.);
#207=FACE_BOUND('',#167,.T.);
#208=CYLINDRICAL_SURFACE('',#247,0.0216318019245966);
#209=CYLINDRICAL_SURFACE('',#252,0.0206318019245966);
#210=CYLINDRICAL_SURFACE('',#268,0.0300364807898636);
#211=CYLINDRICAL_SURFACE('',#272,0.0310364807898636);
#212=ADVANCED_FACE('',(#168,#169),#208,.T.);
#213=ADVANCED_FACE('',(#170,#171),#26,.T.);
#214=ADVANCED_FACE('',(#172,#173),#209,.F.);
#215=ADVANCED_FACE('',(#174,#175),#24,.F.);
#216=ADVANCED_FACE('',(#176,#177),#16,.F.);
#217=ADVANCED_FACE('',(#178,#179),#12,.T.);
#218=ADVANCED_FACE('',(#180,#181),#13,.T.);
#219=ADVANCED_FACE('',(#182,#183),#17,.F.);
#220=ADVANCED_FACE('',(#184,#185),#18,.T.);
#221=ADVANCED_FACE('',(#186,#187),#19,.T.);
#222=ADVANCED_FACE('',(#188,#189),#210,.F.);
#223=ADVANCED_FACE('',(#190,#191),#27,.T.);
#224=ADVANCED_FACE('',(#192,#193),#211,.T.);
#225=ADVANCED_FACE('',(#194,#195),#20,.F.);
#226=ADVANCED_FACE('',(#196,#197),#21,.F.);
#227=ADVANCED_FACE('',(#198,#199),#22,.T.);
#228=ADVANCED_FACE('',(#200,#201),#14,.F.);
#229=ADVANCED_FACE('',(#202,#203),#15,.F.);
#230=ADVANCED_FACE('',(#204,#205),#23,.T.);
#231=ADVANCED_FACE('',(#206,#207),#25,.T.);
#232=CLOSED_SHELL('',(#212,#213,#214,#215,#216,#217,#218,#219,#220,#221,
#222,#223,#224,#225,#226,#227,#228,#229,#230,#231));
#233=STYLED_ITEM('',(#234),#243);
#234=PRESENTATION_STYLE_ASSIGNMENT((#235));
#235=SURFACE_STYLE_USAGE(.BOTH.,#236);
#236=SURFACE_SIDE_STYLE('',(#239,#237));
#237=SURFACE_STYLE_RENDERING_WITH_PROPERTIES(.CONSTANT_SHADING.,#242,(#238));
#238=SURFACE_STYLE_TRANSPARENT(0.752941176470588);
#239=SURFACE_STYLE_FILL_AREA(#240);
#240=FILL_AREA_STYLE('',(#241));
#241=FILL_AREA_STYLE_COLOUR('',#242);
#242=COLOUR_RGB('',0.843137254901961,0.815686274509804,0.752941176470588);
#243=MANIFOLD_SOLID_BREP('Ambu Bag',#232);
#244=SHAPE_DEFINITION_REPRESENTATION(#436,#245);
#245=SHAPE_REPRESENTATION('Ambu Bag',(#246),#431);
#246=AXIS2_PLACEMENT_3D('',#369,#287,#288);
#247=AXIS2_PLACEMENT_3D('',#370,#289,#290);
#248=AXIS2_PLACEMENT_3D('',#371,#291,#292);
#249=AXIS2_PLACEMENT_3D('',#373,#293,#294);
#250=AXIS2_PLACEMENT_3D('',#375,#295,#296);
#251=AXIS2_PLACEMENT_3D('',#376,#297,#298);
#252=AXIS2_PLACEMENT_3D('',#378,#299,#300);
#253=AXIS2_PLACEMENT_3D('',#379,#301,#302);
#254=AXIS2_PLACEMENT_3D('',#381,#303,#304);
#255=AXIS2_PLACEMENT_3D('',#382,#305,#306);
#256=AXIS2_PLACEMENT_3D('',#384,#307,#308);
#257=AXIS2_PLACEMENT_3D('',#385,#309,#310);
#258=AXIS2_PLACEMENT_3D('',#387,#311,#312);
#259=AXIS2_PLACEMENT_3D('',#388,#313,#314);
#260=AXIS2_PLACEMENT_3D('',#390,#315,#316);
#261=AXIS2_PLACEMENT_3D('',#391,#317,#318);
#262=AXIS2_PLACEMENT_3D('',#393,#319,#320);
#263=AXIS2_PLACEMENT_3D('',#394,#321,#322);
#264=AXIS2_PLACEMENT_3D('',#396,#323,#324);
#265=AXIS2_PLACEMENT_3D('',#397,#325,#326);
#266=AXIS2_PLACEMENT_3D('',#399,#327,#328);
#267=AXIS2_PLACEMENT_3D('',#400,#329,#330);
#268=AXIS2_PLACEMENT_3D('',#402,#331,#332);
#269=AXIS2_PLACEMENT_3D('',#403,#333,#334);
#270=AXIS2_PLACEMENT_3D('',#405,#335,#336);
#271=AXIS2_PLACEMENT_3D('',#406,#337,#338);
#272=AXIS2_PLACEMENT_3D('',#408,#339,#340);
#273=AXIS2_PLACEMENT_3D('',#409,#341,#342);
#274=AXIS2_PLACEMENT_3D('',#411,#343,#344);
#275=AXIS2_PLACEMENT_3D('',#412,#345,#346);
#276=AXIS2_PLACEMENT_3D('',#414,#347,#348);
#277=AXIS2_PLACEMENT_3D('',#415,#349,#350);
#278=AXIS2_PLACEMENT_3D('',#417,#351,#352);
#279=AXIS2_PLACEMENT_3D('',#418,#353,#354);
#280=AXIS2_PLACEMENT_3D('',#420,#355,#356);
#281=AXIS2_PLACEMENT_3D('',#421,#357,#358);
#282=AXIS2_PLACEMENT_3D('',#423,#359,#360);
#283=AXIS2_PLACEMENT_3D('',#424,#361,#362);
#284=AXIS2_PLACEMENT_3D('',#426,#363,#364);
#285=AXIS2_PLACEMENT_3D('',#427,#365,#366);
#286=AXIS2_PLACEMENT_3D('',#429,#367,#368);
#287=DIRECTION('',(0.,0.,1.));
#288=DIRECTION('',(1.,0.,0.));
#289=DIRECTION('',(-1.,0.,0.));
#290=DIRECTION('',(0.,0.,1.));
#291=DIRECTION('',(-1.,0.,0.));
#292=DIRECTION('',(0.,0.,1.));
#293=DIRECTION('',(-1.,0.,0.));
#294=DIRECTION('',(0.,0.,1.));
#295=DIRECTION('',(-1.,0.,0.));
#296=DIRECTION('',(0.,0.,1.));
#297=DIRECTION('',(-1.,0.,0.));
#298=DIRECTION('',(0.,0.,1.));
#299=DIRECTION('',(-1.,0.,0.));
#300=DIRECTION('',(0.,0.,1.));
#301=DIRECTION('',(-1.,0.,0.));
#302=DIRECTION('',(0.,0.,1.));
#303=DIRECTION('',(1.,0.,0.));
#304=DIRECTION('',(0.,0.,-1.));
#305=DIRECTION('',(-1.,0.,0.));
#306=DIRECTION('',(0.,0.,1.));
#307=DIRECTION('',(-1.,0.,0.));
#308=DIRECTION('',(0.,0.,1.));
#309=DIRECTION('',(-1.,0.,0.));
#310=DIRECTION('',(0.,0.,1.));
#311=DIRECTION('',(-1.,0.,0.));
#312=DIRECTION('',(0.,0.,1.));
#313=DIRECTION('',(-1.,0.,0.));
#314=DIRECTION('',(0.,0.,1.));
#315=DIRECTION('',(-1.,0.,0.));
#316=DIRECTION('',(0.,0.,1.));
#317=DIRECTION('',(-1.,0.,0.));
#318=DIRECTION('',(0.,0.,1.));
#319=DIRECTION('',(-1.,0.,0.));
#320=DIRECTION('',(0.,0.,1.));
#321=DIRECTION('',(-1.,0.,0.));
#322=DIRECTION('',(0.,0.,1.));
#323=DIRECTION('',(-1.,0.,0.));
#324=DIRECTION('',(0.,0.,1.));
#325=DIRECTION('',(-1.,0.,0.));
#326=DIRECTION('',(0.,0.,1.));
#327=DIRECTION('',(-1.,0.,0.));
#328=DIRECTION('',(0.,0.,1.));
#329=DIRECTION('',(-1.,0.,0.));
#330=DIRECTION('',(0.,0.,1.));
#331=DIRECTION('',(-1.,0.,0.));
#332=DIRECTION('',(0.,0.,1.));
#333=DIRECTION('',(-1.,0.,0.));
#334=DIRECTION('',(0.,0.,1.));
#335=DIRECTION('',(1.,0.,0.));
#336=DIRECTION('',(0.,0.,-1.));
#337=DIRECTION('',(-1.,0.,0.));
#338=DIRECTION('',(0.,0.,1.));
#339=DIRECTION('',(-1.,0.,0.));
#340=DIRECTION('',(0.,0.,1.));
#341=DIRECTION('',(-1.,0.,0.));
#342=DIRECTION('',(0.,0.,1.));
#343=DIRECTION('',(-1.,0.,0.));
#344=DIRECTION('',(0.,0.,1.));
#345=DIRECTION('',(-1.,0.,0.));
#346=DIRECTION('',(0.,0.,1.));
#347=DIRECTION('',(-1.,0.,0.));
#348=DIRECTION('',(0.,0.,1.));
#349=DIRECTION('',(-1.,0.,0.));
#350=DIRECTION('',(0.,0.,1.));
#351=DIRECTION('',(-1.,0.,0.));
#352=DIRECTION('',(0.,0.,1.));
#353=DIRECTION('',(-1.,0.,0.));
#354=DIRECTION('',(0.,0.,1.));
#355=DIRECTION('',(-1.,0.,0.));
#356=DIRECTION('',(0.,0.,1.));
#357=DIRECTION('',(-1.,0.,0.));
#358=DIRECTION('',(0.,0.,1.));
#359=DIRECTION('',(-1.,0.,0.));
#360=DIRECTION('',(0.,0.,1.));
#361=DIRECTION('',(-1.,0.,0.));
#362=DIRECTION('',(0.,0.,1.));
#363=DIRECTION('',(-1.,0.,0.));
#364=DIRECTION('',(0.,0.,1.));
#365=DIRECTION('',(-1.,0.,0.));
#366=DIRECTION('',(0.,0.,1.));
#367=DIRECTION('',(1.,0.,0.));
#368=DIRECTION('',(0.,0.,-1.));
#369=CARTESIAN_POINT('',(0.,0.,0.));
#370=CARTESIAN_POINT('',(0.0894088337512289,0.128065077571287,0.));
#371=CARTESIAN_POINT('',(0.0894088337512289,0.128065077571287,0.));
#372=CARTESIAN_POINT('',(0.0894088337512289,0.128065077571287,0.0216318019245966));
#373=CARTESIAN_POINT('',(0.100961541883657,0.128065077571287,0.));
#374=CARTESIAN_POINT('',(0.100961541883657,0.128065077571287,0.0216318019245966));
#375=CARTESIAN_POINT('',(0.0894088337512289,0.148696879495884,0.));
#376=CARTESIAN_POINT('',(0.0894088337512289,0.128065077571287,0.));
#377=CARTESIAN_POINT('',(0.0894088337512289,0.128065077571287,0.0206318019245966));
#378=CARTESIAN_POINT('',(0.0894088337512289,0.128065077571287,0.));
#379=CARTESIAN_POINT('',(0.101408833751229,0.128065077571287,0.));
#380=CARTESIAN_POINT('',(0.101408833751229,0.128065077571287,0.0206318019245966));
#381=CARTESIAN_POINT('',(0.12478557118692,0.128065077571287,0.));
#382=CARTESIAN_POINT('',(0.12478557118692,0.128065077571287,0.));
#383=CARTESIAN_POINT('',(0.12478557118692,0.128065077571287,0.0467746512707569));
#384=CARTESIAN_POINT('',(0.136407094788336,0.128065077571287,0.));
#385=CARTESIAN_POINT('',(0.130255883950574,0.128065077571287,0.));
#386=CARTESIAN_POINT('',(0.130255883950574,0.128065077571287,0.0507080496364509));
#387=CARTESIAN_POINT('',(0.210267891764796,0.128065077571287,0.));
#388=CARTESIAN_POINT('',(0.290279899579019,0.128065077571287,0.));
#389=CARTESIAN_POINT('',(0.290279899579019,0.128065077571287,0.0507080496364508));
#390=CARTESIAN_POINT('',(0.245027313550606,0.128065077571287,0.));
#391=CARTESIAN_POINT('',(0.309311560143608,0.128065077571287,0.));
#392=CARTESIAN_POINT('',(0.309311560143608,0.128065077571287,0.0438985374143721));
#393=CARTESIAN_POINT('',(0.300002773818619,0.128065077571287,0.));
#394=CARTESIAN_POINT('',(0.31421169555714,0.128065077571287,0.));
#395=CARTESIAN_POINT('',(0.31421169555714,0.128065077571287,0.039654975048328));
#396=CARTESIAN_POINT('',(0.325076594988343,0.128065077571287,0.));
#397=CARTESIAN_POINT('',(0.320438705271264,0.128065077571287,0.));
#398=CARTESIAN_POINT('',(0.320438705271264,0.128065077571287,0.0334908716285348));
#399=CARTESIAN_POINT('',(0.339197320145727,0.128065077571287,0.));
#400=CARTESIAN_POINT('',(0.330408833751229,0.128065077571287,0.));
#401=CARTESIAN_POINT('',(0.330408833751229,0.128065077571287,0.0300364807898637));
#402=CARTESIAN_POINT('',(0.0894088337512289,0.128065077571287,0.));
#403=CARTESIAN_POINT('',(0.341408833751229,0.128065077571287,0.));
#404=CARTESIAN_POINT('',(0.341408833751229,0.128065077571287,0.0300364807898636));
#405=CARTESIAN_POINT('',(0.341408833751229,0.159101558361151,0.));
#406=CARTESIAN_POINT('',(0.341408833751229,0.128065077571287,0.));
#407=CARTESIAN_POINT('',(0.341408833751229,0.128065077571287,0.0310364807898636));
#408=CARTESIAN_POINT('',(0.0894088337512289,0.128065077571287,0.));
#409=CARTESIAN_POINT('',(0.330514237665461,0.128065077571287,0.));
#410=CARTESIAN_POINT('',(0.330514237665461,0.128065077571287,0.0310364807898636));
#411=CARTESIAN_POINT('',(0.339197320145727,0.128065077571287,0.));
#412=CARTESIAN_POINT('',(0.320855409200527,0.128065077571287,0.));
#413=CARTESIAN_POINT('',(0.320855409200527,0.128065077571287,0.0344003765716232));
#414=CARTESIAN_POINT('',(0.325076594988343,0.128065077571287,0.));
#415=CARTESIAN_POINT('',(0.315076915711164,0.128065077571287,0.));
#416=CARTESIAN_POINT('',(0.315076915711164,0.128065077571287,0.0401742669554752));
#417=CARTESIAN_POINT('',(0.300002773818619,0.128065077571287,0.));
#418=CARTESIAN_POINT('',(0.309765081996199,0.128065077571287,0.));
#419=CARTESIAN_POINT('',(0.309765081996199,0.128065077571287,0.0447920687076781));
#420=CARTESIAN_POINT('',(0.245027313550606,0.128065077571287,0.));
#421=CARTESIAN_POINT('',(0.290587559327471,0.128065077571287,0.));
#422=CARTESIAN_POINT('',(0.290587559327471,0.128065077571287,0.0516600500637515));
#423=CARTESIAN_POINT('',(0.210267891764796,0.128065077571287,0.));
#424=CARTESIAN_POINT('',(0.129890234867335,0.128065077571287,0.));
#425=CARTESIAN_POINT('',(0.129890234867335,0.128065077571287,0.0516393015950879));
#426=CARTESIAN_POINT('',(0.136407094788336,0.128065077571287,0.));
#427=CARTESIAN_POINT('',(0.124040128234331,0.128065077571287,0.));
#428=CARTESIAN_POINT('',(0.124040128234331,0.128065077571287,0.0474412207003254));
#429=CARTESIAN_POINT('',(0.124040128234331,0.128065077571287,0.));
#430=MECHANICAL_DESIGN_GEOMETRIC_PRESENTATION_REPRESENTATION('',(#233),
#431);
#431=(
GEOMETRIC_REPRESENTATION_CONTEXT(3)
GLOBAL_UNCERTAINTY_ASSIGNED_CONTEXT((#432))
GLOBAL_UNIT_ASSIGNED_CONTEXT((#435,#434,#433))
REPRESENTATION_CONTEXT('Ambu Bag','TOP_LEVEL_ASSEMBLY_PART')
);
#432=UNCERTAINTY_MEASURE_WITH_UNIT(LENGTH_MEASURE(1.E-8),#435,
'DISTANCE_ACCURACY_VALUE','Maximum Tolerance applied to model');
#433=(
NAMED_UNIT(*)
SI_UNIT($,.STERADIAN.)
SOLID_ANGLE_UNIT()
);
#434=(
NAMED_UNIT(*)
PLANE_ANGLE_UNIT()
SI_UNIT($,.RADIAN.)
);
#435=(
LENGTH_UNIT()
NAMED_UNIT(*)
SI_UNIT($,.METRE.)
);
#436=PRODUCT_DEFINITION_SHAPE('','',#437);
#437=PRODUCT_DEFINITION('','',#439,#438);
#438=PRODUCT_DEFINITION_CONTEXT('',#445,'design');
#439=PRODUCT_DEFINITION_FORMATION_WITH_SPECIFIED_SOURCE('','',#441,
 .NOT_KNOWN.);
#440=PRODUCT_RELATED_PRODUCT_CATEGORY('','',(#441));
#441=PRODUCT('Ambu Bag','Ambu Bag','Ambu Bag',(#443));
#442=PRODUCT_CATEGORY('','');
#443=PRODUCT_CONTEXT('',#445,'mechanical');
#444=APPLICATION_PROTOCOL_DEFINITION('international standard',
'ap242_managed_model_based_3d_engineering',2020,#445);
#445=APPLICATION_CONTEXT('managed model based 3d engineering');
ENDSEC;
END-ISO-10303-21;
