ISO-10303-21;
HEADER;
/* Generated by software containing ST-Developer
 * from STEP Tools, Inc. (www.steptools.com) 
 */
/* OPTION: using custom renumber hook */

FILE_DESCRIPTION(
/* description */ ('STEP AP242 Edition 2',
'CAx-IF Rec.Pracs.---Representation and Presentation of Product Manufa
cturing Information (PMI)---4.0---2014-10-13',
'CAx-IF Rec.Pracs.---3D Tessellated Geometry---0.4---2014-09-14','2;1',
'CAx-IF Rec.Pracs.---User Defined Attributes---1.5---2016-08-15'),
/* implementation_level */ '2;1');

FILE_NAME(
/* name */ 'Main - Ambu Support Small',
/* time_stamp */ '2026-05-15T18:25:36Z',
/* author */ (''),
/* organization */ (''),
/* preprocessor_version */ 'ST-DEVELOPER v20',
/* originating_system */ 'ONSHAPE BY PTC INC, 1.215',
/* authorisation */ '  ');

FILE_SCHEMA (('AP242_MANAGED_MODEL_BASED_3D_ENGINEERING_MIM_LF { 1 0 10303 442 3 1 4 }'));
ENDSEC;

DATA;
#10=SHAPE_REPRESENTATION_RELATIONSHIP('','',#553,#11);
#11=ADVANCED_BREP_SHAPE_REPRESENTATION('',(#551),#927);
#12=CYLINDRICAL_SURFACE('',#566,0.0216317957);
#13=CYLINDRICAL_SURFACE('',#597,0.00254);
#14=CYLINDRICAL_SURFACE('',#598,0.00254);
#15=CYLINDRICAL_SURFACE('',#599,0.00254);
#16=CYLINDRICAL_SURFACE('',#600,0.00254);
#17=CYLINDRICAL_SURFACE('',#601,0.00254);
#18=CYLINDRICAL_SURFACE('',#602,0.00254);
#19=CYLINDRICAL_SURFACE('',#603,0.00254);
#20=CYLINDRICAL_SURFACE('',#604,0.00254);
#21=CYLINDRICAL_SURFACE('',#605,0.00254);
#22=CYLINDRICAL_SURFACE('',#606,0.00254);
#23=CYLINDRICAL_SURFACE('',#607,0.00254);
#24=CYLINDRICAL_SURFACE('',#608,0.00254);
#25=CIRCLE('',#557,0.00254);
#26=CIRCLE('',#558,0.00254);
#27=CIRCLE('',#561,0.00254);
#28=CIRCLE('',#567,0.0216317957);
#29=CIRCLE('',#568,0.0216317957);
#30=CIRCLE('',#574,0.00254);
#31=CIRCLE('',#576,0.00254);
#32=CIRCLE('',#577,0.00254);
#33=CIRCLE('',#578,0.00254);
#34=CIRCLE('',#579,0.00254);
#35=CIRCLE('',#580,0.00254);
#36=CIRCLE('',#581,0.00254);
#37=CIRCLE('',#582,0.00254);
#38=CIRCLE('',#583,0.00254);
#39=CIRCLE('',#584,0.00254);
#40=CIRCLE('',#585,0.00254);
#41=CIRCLE('',#587,0.00254);
#42=CIRCLE('',#588,0.00254);
#43=CIRCLE('',#589,0.00254);
#44=CIRCLE('',#590,0.00254);
#45=CIRCLE('',#591,0.00254);
#46=CIRCLE('',#592,0.00254);
#47=CIRCLE('',#593,0.00254);
#48=CIRCLE('',#594,0.00254);
#49=CIRCLE('',#595,0.00254);
#50=CIRCLE('',#596,0.00254);
#51=ORIENTED_EDGE('',*,*,#203,.T.);
#52=ORIENTED_EDGE('',*,*,#204,.F.);
#53=ORIENTED_EDGE('',*,*,#205,.F.);
#54=ORIENTED_EDGE('',*,*,#206,.T.);
#55=ORIENTED_EDGE('',*,*,#207,.F.);
#56=ORIENTED_EDGE('',*,*,#208,.F.);
#57=ORIENTED_EDGE('',*,*,#209,.T.);
#58=ORIENTED_EDGE('',*,*,#210,.F.);
#59=ORIENTED_EDGE('',*,*,#211,.F.);
#60=ORIENTED_EDGE('',*,*,#204,.T.);
#61=ORIENTED_EDGE('',*,*,#212,.F.);
#62=ORIENTED_EDGE('',*,*,#213,.F.);
#63=ORIENTED_EDGE('',*,*,#214,.T.);
#64=ORIENTED_EDGE('',*,*,#210,.T.);
#65=ORIENTED_EDGE('',*,*,#215,.F.);
#66=ORIENTED_EDGE('',*,*,#216,.F.);
#67=ORIENTED_EDGE('',*,*,#217,.T.);
#68=ORIENTED_EDGE('',*,*,#218,.T.);
#69=ORIENTED_EDGE('',*,*,#213,.T.);
#70=ORIENTED_EDGE('',*,*,#219,.T.);
#71=ORIENTED_EDGE('',*,*,#220,.T.);
#72=ORIENTED_EDGE('',*,*,#221,.F.);
#73=ORIENTED_EDGE('',*,*,#222,.T.);
#74=ORIENTED_EDGE('',*,*,#223,.T.);
#75=ORIENTED_EDGE('',*,*,#224,.T.);
#76=ORIENTED_EDGE('',*,*,#225,.F.);
#77=ORIENTED_EDGE('',*,*,#226,.T.);
#78=ORIENTED_EDGE('',*,*,#227,.F.);
#79=ORIENTED_EDGE('',*,*,#228,.T.);
#80=ORIENTED_EDGE('',*,*,#229,.T.);
#81=ORIENTED_EDGE('',*,*,#230,.T.);
#82=ORIENTED_EDGE('',*,*,#231,.T.);
#83=ORIENTED_EDGE('',*,*,#232,.T.);
#84=ORIENTED_EDGE('',*,*,#233,.F.);
#85=ORIENTED_EDGE('',*,*,#234,.T.);
#86=ORIENTED_EDGE('',*,*,#235,.T.);
#87=ORIENTED_EDGE('',*,*,#236,.T.);
#88=ORIENTED_EDGE('',*,*,#237,.F.);
#89=ORIENTED_EDGE('',*,*,#238,.T.);
#90=ORIENTED_EDGE('',*,*,#239,.F.);
#91=ORIENTED_EDGE('',*,*,#240,.T.);
#92=ORIENTED_EDGE('',*,*,#241,.T.);
#93=ORIENTED_EDGE('',*,*,#242,.T.);
#94=ORIENTED_EDGE('',*,*,#243,.F.);
#95=ORIENTED_EDGE('',*,*,#244,.T.);
#96=ORIENTED_EDGE('',*,*,#245,.T.);
#97=ORIENTED_EDGE('',*,*,#246,.T.);
#98=ORIENTED_EDGE('',*,*,#247,.F.);
#99=ORIENTED_EDGE('',*,*,#248,.T.);
#100=ORIENTED_EDGE('',*,*,#249,.T.);
#101=ORIENTED_EDGE('',*,*,#250,.T.);
#102=ORIENTED_EDGE('',*,*,#251,.F.);
#103=ORIENTED_EDGE('',*,*,#252,.T.);
#104=ORIENTED_EDGE('',*,*,#253,.T.);
#105=ORIENTED_EDGE('',*,*,#254,.T.);
#106=ORIENTED_EDGE('',*,*,#255,.F.);
#107=ORIENTED_EDGE('',*,*,#256,.F.);
#108=ORIENTED_EDGE('',*,*,#257,.T.);
#109=ORIENTED_EDGE('',*,*,#258,.T.);
#110=ORIENTED_EDGE('',*,*,#206,.F.);
#111=ORIENTED_EDGE('',*,*,#229,.F.);
#112=ORIENTED_EDGE('',*,*,#259,.T.);
#113=ORIENTED_EDGE('',*,*,#231,.F.);
#114=ORIENTED_EDGE('',*,*,#260,.T.);
#115=ORIENTED_EDGE('',*,*,#235,.F.);
#116=ORIENTED_EDGE('',*,*,#261,.T.);
#117=ORIENTED_EDGE('',*,*,#239,.T.);
#118=ORIENTED_EDGE('',*,*,#262,.T.);
#119=ORIENTED_EDGE('',*,*,#243,.T.);
#120=ORIENTED_EDGE('',*,*,#263,.T.);
#121=ORIENTED_EDGE('',*,*,#247,.T.);
#122=ORIENTED_EDGE('',*,*,#264,.T.);
#123=ORIENTED_EDGE('',*,*,#251,.T.);
#124=ORIENTED_EDGE('',*,*,#265,.T.);
#125=ORIENTED_EDGE('',*,*,#256,.T.);
#126=ORIENTED_EDGE('',*,*,#205,.T.);
#127=ORIENTED_EDGE('',*,*,#211,.T.);
#128=ORIENTED_EDGE('',*,*,#214,.F.);
#129=ORIENTED_EDGE('',*,*,#218,.F.);
#130=ORIENTED_EDGE('',*,*,#266,.T.);
#131=ORIENTED_EDGE('',*,*,#219,.F.);
#132=ORIENTED_EDGE('',*,*,#267,.T.);
#133=ORIENTED_EDGE('',*,*,#223,.F.);
#134=ORIENTED_EDGE('',*,*,#268,.T.);
#135=ORIENTED_EDGE('',*,*,#233,.T.);
#136=ORIENTED_EDGE('',*,*,#269,.T.);
#137=ORIENTED_EDGE('',*,*,#227,.T.);
#138=ORIENTED_EDGE('',*,*,#270,.T.);
#139=ORIENTED_EDGE('',*,*,#225,.T.);
#140=ORIENTED_EDGE('',*,*,#271,.T.);
#141=ORIENTED_EDGE('',*,*,#221,.T.);
#142=ORIENTED_EDGE('',*,*,#272,.T.);
#143=ORIENTED_EDGE('',*,*,#216,.T.);
#144=ORIENTED_EDGE('',*,*,#212,.T.);
#145=ORIENTED_EDGE('',*,*,#209,.F.);
#146=ORIENTED_EDGE('',*,*,#203,.F.);
#147=ORIENTED_EDGE('',*,*,#258,.F.);
#148=ORIENTED_EDGE('',*,*,#273,.T.);
#149=ORIENTED_EDGE('',*,*,#253,.F.);
#150=ORIENTED_EDGE('',*,*,#274,.T.);
#151=ORIENTED_EDGE('',*,*,#249,.F.);
#152=ORIENTED_EDGE('',*,*,#275,.T.);
#153=ORIENTED_EDGE('',*,*,#245,.F.);
#154=ORIENTED_EDGE('',*,*,#276,.T.);
#155=ORIENTED_EDGE('',*,*,#241,.F.);
#156=ORIENTED_EDGE('',*,*,#277,.T.);
#157=ORIENTED_EDGE('',*,*,#237,.T.);
#158=ORIENTED_EDGE('',*,*,#278,.T.);
#159=ORIENTED_EDGE('',*,*,#208,.T.);
#160=ORIENTED_EDGE('',*,*,#255,.T.);
#161=ORIENTED_EDGE('',*,*,#207,.T.);
#162=ORIENTED_EDGE('',*,*,#215,.T.);
#163=ORIENTED_EDGE('',*,*,#259,.F.);
#164=ORIENTED_EDGE('',*,*,#228,.F.);
#165=ORIENTED_EDGE('',*,*,#269,.F.);
#166=ORIENTED_EDGE('',*,*,#232,.F.);
#167=ORIENTED_EDGE('',*,*,#260,.F.);
#168=ORIENTED_EDGE('',*,*,#234,.F.);
#169=ORIENTED_EDGE('',*,*,#278,.F.);
#170=ORIENTED_EDGE('',*,*,#236,.F.);
#171=ORIENTED_EDGE('',*,*,#261,.F.);
#172=ORIENTED_EDGE('',*,*,#238,.F.);
#173=ORIENTED_EDGE('',*,*,#277,.F.);
#174=ORIENTED_EDGE('',*,*,#240,.F.);
#175=ORIENTED_EDGE('',*,*,#262,.F.);
#176=ORIENTED_EDGE('',*,*,#242,.F.);
#177=ORIENTED_EDGE('',*,*,#276,.F.);
#178=ORIENTED_EDGE('',*,*,#244,.F.);
#179=ORIENTED_EDGE('',*,*,#263,.F.);
#180=ORIENTED_EDGE('',*,*,#246,.F.);
#181=ORIENTED_EDGE('',*,*,#275,.F.);
#182=ORIENTED_EDGE('',*,*,#248,.F.);
#183=ORIENTED_EDGE('',*,*,#264,.F.);
#184=ORIENTED_EDGE('',*,*,#250,.F.);
#185=ORIENTED_EDGE('',*,*,#274,.F.);
#186=ORIENTED_EDGE('',*,*,#252,.F.);
#187=ORIENTED_EDGE('',*,*,#265,.F.);
#188=ORIENTED_EDGE('',*,*,#254,.F.);
#189=ORIENTED_EDGE('',*,*,#273,.F.);
#190=ORIENTED_EDGE('',*,*,#257,.F.);
#191=ORIENTED_EDGE('',*,*,#266,.F.);
#192=ORIENTED_EDGE('',*,*,#217,.F.);
#193=ORIENTED_EDGE('',*,*,#272,.F.);
#194=ORIENTED_EDGE('',*,*,#220,.F.);
#195=ORIENTED_EDGE('',*,*,#267,.F.);
#196=ORIENTED_EDGE('',*,*,#222,.F.);
#197=ORIENTED_EDGE('',*,*,#271,.F.);
#198=ORIENTED_EDGE('',*,*,#224,.F.);
#199=ORIENTED_EDGE('',*,*,#268,.F.);
#200=ORIENTED_EDGE('',*,*,#226,.F.);
#201=ORIENTED_EDGE('',*,*,#270,.F.);
#202=ORIENTED_EDGE('',*,*,#230,.F.);
#203=EDGE_CURVE('',#279,#280,#331,.T.);
#204=EDGE_CURVE('',#281,#280,#332,.T.);
#205=EDGE_CURVE('',#282,#281,#333,.T.);
#206=EDGE_CURVE('',#282,#279,#334,.T.);
#207=EDGE_CURVE('',#283,#283,#25,.F.);
#208=EDGE_CURVE('',#284,#284,#26,.F.);
#209=EDGE_CURVE('',#280,#285,#335,.T.);
#210=EDGE_CURVE('',#286,#285,#336,.T.);
#211=EDGE_CURVE('',#281,#286,#337,.T.);
#212=EDGE_CURVE('',#287,#285,#338,.T.);
#213=EDGE_CURVE('',#288,#287,#339,.T.);
#214=EDGE_CURVE('',#288,#286,#340,.T.);
#215=EDGE_CURVE('',#289,#289,#27,.T.);
#216=EDGE_CURVE('',#290,#287,#341,.T.);
#217=EDGE_CURVE('',#290,#291,#342,.F.);
#218=EDGE_CURVE('',#291,#288,#343,.T.);
#219=EDGE_CURVE('',#292,#293,#344,.T.);
#220=EDGE_CURVE('',#293,#294,#345,.T.);
#221=EDGE_CURVE('',#295,#294,#346,.T.);
#222=EDGE_CURVE('',#295,#292,#347,.F.);
#223=EDGE_CURVE('',#296,#297,#348,.T.);
#224=EDGE_CURVE('',#297,#298,#349,.T.);
#225=EDGE_CURVE('',#299,#298,#350,.T.);
#226=EDGE_CURVE('',#299,#296,#351,.F.);
#227=EDGE_CURVE('',#300,#301,#352,.T.);
#228=EDGE_CURVE('',#300,#302,#353,.F.);
#229=EDGE_CURVE('',#302,#303,#354,.T.);
#230=EDGE_CURVE('',#303,#301,#355,.T.);
#231=EDGE_CURVE('',#304,#305,#356,.T.);
#232=EDGE_CURVE('',#305,#306,#357,.T.);
#233=EDGE_CURVE('',#307,#306,#358,.T.);
#234=EDGE_CURVE('',#307,#304,#359,.F.);
#235=EDGE_CURVE('',#308,#309,#28,.T.);
#236=EDGE_CURVE('',#309,#310,#360,.T.);
#237=EDGE_CURVE('',#311,#310,#29,.T.);
#238=EDGE_CURVE('',#311,#308,#361,.F.);
#239=EDGE_CURVE('',#312,#313,#362,.T.);
#240=EDGE_CURVE('',#312,#314,#363,.F.);
#241=EDGE_CURVE('',#314,#315,#364,.T.);
#242=EDGE_CURVE('',#315,#313,#365,.F.);
#243=EDGE_CURVE('',#316,#317,#366,.T.);
#244=EDGE_CURVE('',#316,#318,#367,.T.);
#245=EDGE_CURVE('',#318,#319,#368,.T.);
#246=EDGE_CURVE('',#319,#317,#369,.F.);
#247=EDGE_CURVE('',#320,#321,#370,.T.);
#248=EDGE_CURVE('',#320,#322,#371,.T.);
#249=EDGE_CURVE('',#322,#323,#372,.T.);
#250=EDGE_CURVE('',#323,#321,#373,.F.);
#251=EDGE_CURVE('',#324,#325,#374,.T.);
#252=EDGE_CURVE('',#324,#326,#375,.T.);
#253=EDGE_CURVE('',#326,#327,#376,.T.);
#254=EDGE_CURVE('',#327,#325,#377,.F.);
#255=EDGE_CURVE('',#328,#328,#30,.T.);
#256=EDGE_CURVE('',#329,#282,#378,.T.);
#257=EDGE_CURVE('',#329,#330,#379,.T.);
#258=EDGE_CURVE('',#330,#279,#380,.T.);
#259=EDGE_CURVE('',#302,#305,#31,.T.);
#260=EDGE_CURVE('',#304,#309,#32,.T.);
#261=EDGE_CURVE('',#308,#312,#33,.T.);
#262=EDGE_CURVE('',#313,#316,#34,.T.);
#263=EDGE_CURVE('',#317,#320,#35,.T.);
#264=EDGE_CURVE('',#321,#324,#36,.F.);
#265=EDGE_CURVE('',#325,#329,#37,.F.);
#266=EDGE_CURVE('',#291,#293,#38,.F.);
#267=EDGE_CURVE('',#292,#297,#39,.F.);
#268=EDGE_CURVE('',#296,#303,#40,.T.);
#269=EDGE_CURVE('',#306,#300,#41,.F.);
#270=EDGE_CURVE('',#301,#299,#42,.F.);
#271=EDGE_CURVE('',#298,#295,#43,.T.);
#272=EDGE_CURVE('',#294,#290,#44,.T.);
#273=EDGE_CURVE('',#330,#327,#45,.T.);
#274=EDGE_CURVE('',#326,#323,#46,.T.);
#275=EDGE_CURVE('',#322,#319,#47,.F.);
#276=EDGE_CURVE('',#318,#315,#48,.F.);
#277=EDGE_CURVE('',#314,#311,#49,.F.);
#278=EDGE_CURVE('',#310,#307,#50,.F.);
#279=VERTEX_POINT('',#772);
#280=VERTEX_POINT('',#773);
#281=VERTEX_POINT('',#775);
#282=VERTEX_POINT('',#777);
#283=VERTEX_POINT('',#781);
#284=VERTEX_POINT('',#783);
#285=VERTEX_POINT('',#785);
#286=VERTEX_POINT('',#787);
#287=VERTEX_POINT('',#791);
#288=VERTEX_POINT('',#793);
#289=VERTEX_POINT('',#797);
#290=VERTEX_POINT('',#799);
#291=VERTEX_POINT('',#801);
#292=VERTEX_POINT('',#805);
#293=VERTEX_POINT('',#806);
#294=VERTEX_POINT('',#808);
#295=VERTEX_POINT('',#810);
#296=VERTEX_POINT('',#814);
#297=VERTEX_POINT('',#815);
#298=VERTEX_POINT('',#817);
#299=VERTEX_POINT('',#819);
#300=VERTEX_POINT('',#823);
#301=VERTEX_POINT('',#824);
#302=VERTEX_POINT('',#826);
#303=VERTEX_POINT('',#828);
#304=VERTEX_POINT('',#832);
#305=VERTEX_POINT('',#833);
#306=VERTEX_POINT('',#835);
#307=VERTEX_POINT('',#837);
#308=VERTEX_POINT('',#841);
#309=VERTEX_POINT('',#842);
#310=VERTEX_POINT('',#844);
#311=VERTEX_POINT('',#846);
#312=VERTEX_POINT('',#850);
#313=VERTEX_POINT('',#851);
#314=VERTEX_POINT('',#853);
#315=VERTEX_POINT('',#855);
#316=VERTEX_POINT('',#859);
#317=VERTEX_POINT('',#860);
#318=VERTEX_POINT('',#862);
#319=VERTEX_POINT('',#864);
#320=VERTEX_POINT('',#868);
#321=VERTEX_POINT('',#869);
#322=VERTEX_POINT('',#871);
#323=VERTEX_POINT('',#873);
#324=VERTEX_POINT('',#877);
#325=VERTEX_POINT('',#878);
#326=VERTEX_POINT('',#880);
#327=VERTEX_POINT('',#882);
#328=VERTEX_POINT('',#886);
#329=VERTEX_POINT('',#888);
#330=VERTEX_POINT('',#890);
#331=LINE('',#771,#381);
#332=LINE('',#774,#382);
#333=LINE('',#776,#383);
#334=LINE('',#778,#384);
#335=LINE('',#784,#385);
#336=LINE('',#786,#386);
#337=LINE('',#788,#387);
#338=LINE('',#790,#388);
#339=LINE('',#792,#389);
#340=LINE('',#794,#390);
#341=LINE('',#798,#391);
#342=LINE('',#800,#392);
#343=LINE('',#802,#393);
#344=LINE('',#804,#394);
#345=LINE('',#807,#395);
#346=LINE('',#809,#396);
#347=LINE('',#811,#397);
#348=LINE('',#813,#398);
#349=LINE('',#816,#399);
#350=LINE('',#818,#400);
#351=LINE('',#820,#401);
#352=LINE('',#822,#402);
#353=LINE('',#825,#403);
#354=LINE('',#827,#404);
#355=LINE('',#829,#405);
#356=LINE('',#831,#406);
#357=LINE('',#834,#407);
#358=LINE('',#836,#408);
#359=LINE('',#838,#409);
#360=LINE('',#843,#410);
#361=LINE('',#847,#411);
#362=LINE('',#849,#412);
#363=LINE('',#852,#413);
#364=LINE('',#854,#414);
#365=LINE('',#856,#415);
#366=LINE('',#858,#416);
#367=LINE('',#861,#417);
#368=LINE('',#863,#418);
#369=LINE('',#865,#419);
#370=LINE('',#867,#420);
#371=LINE('',#870,#421);
#372=LINE('',#872,#422);
#373=LINE('',#874,#423);
#374=LINE('',#876,#424);
#375=LINE('',#879,#425);
#376=LINE('',#881,#426);
#377=LINE('',#883,#427);
#378=LINE('',#887,#428);
#379=LINE('',#889,#429);
#380=LINE('',#891,#430);
#381=VECTOR('',#613,1.);
#382=VECTOR('',#614,1.);
#383=VECTOR('',#615,1.);
#384=VECTOR('',#616,1.);
#385=VECTOR('',#623,1.);
#386=VECTOR('',#624,1.);
#387=VECTOR('',#625,1.);
#388=VECTOR('',#628,1.);
#389=VECTOR('',#629,1.);
#390=VECTOR('',#630,1.);
#391=VECTOR('',#635,1.);
#392=VECTOR('',#636,1.);
#393=VECTOR('',#637,1.);
#394=VECTOR('',#640,1.);
#395=VECTOR('',#641,1.);
#396=VECTOR('',#642,1.);
#397=VECTOR('',#643,1.);
#398=VECTOR('',#646,1.);
#399=VECTOR('',#647,1.);
#400=VECTOR('',#648,1.);
#401=VECTOR('',#649,1.);
#402=VECTOR('',#652,1.);
#403=VECTOR('',#653,1.);
#404=VECTOR('',#654,1.);
#405=VECTOR('',#655,1.);
#406=VECTOR('',#658,1.);
#407=VECTOR('',#659,1.);
#408=VECTOR('',#660,1.);
#409=VECTOR('',#661,1.);
#410=VECTOR('',#666,1.);
#411=VECTOR('',#669,1.);
#412=VECTOR('',#672,1.);
#413=VECTOR('',#673,1.);
#414=VECTOR('',#674,1.);
#415=VECTOR('',#675,1.);
#416=VECTOR('',#678,1.);
#417=VECTOR('',#679,1.);
#418=VECTOR('',#680,1.);
#419=VECTOR('',#681,1.);
#420=VECTOR('',#684,1.);
#421=VECTOR('',#685,1.);
#422=VECTOR('',#686,1.);
#423=VECTOR('',#687,1.);
#424=VECTOR('',#690,1.);
#425=VECTOR('',#691,1.);
#426=VECTOR('',#692,1.);
#427=VECTOR('',#693,1.);
#428=VECTOR('',#698,1.);
#429=VECTOR('',#699,1.);
#430=VECTOR('',#700,1.);
#431=EDGE_LOOP('',(#51,#52,#53,#54));
#432=EDGE_LOOP('',(#55));
#433=EDGE_LOOP('',(#56));
#434=EDGE_LOOP('',(#57,#58,#59,#60));
#435=EDGE_LOOP('',(#61,#62,#63,#64));
#436=EDGE_LOOP('',(#65));
#437=EDGE_LOOP('',(#66,#67,#68,#69));
#438=EDGE_LOOP('',(#70,#71,#72,#73));
#439=EDGE_LOOP('',(#74,#75,#76,#77));
#440=EDGE_LOOP('',(#78,#79,#80,#81));
#441=EDGE_LOOP('',(#82,#83,#84,#85));
#442=EDGE_LOOP('',(#86,#87,#88,#89));
#443=EDGE_LOOP('',(#90,#91,#92,#93));
#444=EDGE_LOOP('',(#94,#95,#96,#97));
#445=EDGE_LOOP('',(#98,#99,#100,#101));
#446=EDGE_LOOP('',(#102,#103,#104,#105));
#447=EDGE_LOOP('',(#106));
#448=EDGE_LOOP('',(#107,#108,#109,#110));
#449=EDGE_LOOP('',(#111,#112,#113,#114,#115,#116,#117,#118,#119,#120,#121,
#122,#123,#124,#125,#126,#127,#128,#129,#130,#131,#132,#133,#134));
#450=EDGE_LOOP('',(#135,#136,#137,#138,#139,#140,#141,#142,#143,#144,#145,
#146,#147,#148,#149,#150,#151,#152,#153,#154,#155,#156,#157,#158));
#451=EDGE_LOOP('',(#159));
#452=EDGE_LOOP('',(#160));
#453=EDGE_LOOP('',(#161));
#454=EDGE_LOOP('',(#162));
#455=EDGE_LOOP('',(#163,#164,#165,#166));
#456=EDGE_LOOP('',(#167,#168,#169,#170));
#457=EDGE_LOOP('',(#171,#172,#173,#174));
#458=EDGE_LOOP('',(#175,#176,#177,#178));
#459=EDGE_LOOP('',(#179,#180,#181,#182));
#460=EDGE_LOOP('',(#183,#184,#185,#186));
#461=EDGE_LOOP('',(#187,#188,#189,#190));
#462=EDGE_LOOP('',(#191,#192,#193,#194));
#463=EDGE_LOOP('',(#195,#196,#197,#198));
#464=EDGE_LOOP('',(#199,#200,#201,#202));
#465=FACE_BOUND('',#431,.T.);
#466=FACE_BOUND('',#432,.T.);
#467=FACE_BOUND('',#433,.T.);
#468=FACE_BOUND('',#434,.T.);
#469=FACE_BOUND('',#435,.T.);
#470=FACE_BOUND('',#436,.T.);
#471=FACE_BOUND('',#437,.T.);
#472=FACE_BOUND('',#438,.T.);
#473=FACE_BOUND('',#439,.T.);
#474=FACE_BOUND('',#440,.T.);
#475=FACE_BOUND('',#441,.T.);
#476=FACE_BOUND('',#442,.T.);
#477=FACE_BOUND('',#443,.T.);
#478=FACE_BOUND('',#444,.T.);
#479=FACE_BOUND('',#445,.T.);
#480=FACE_BOUND('',#446,.T.);
#481=FACE_BOUND('',#447,.T.);
#482=FACE_BOUND('',#448,.T.);
#483=FACE_BOUND('',#449,.T.);
#484=FACE_BOUND('',#450,.T.);
#485=FACE_BOUND('',#451,.T.);
#486=FACE_BOUND('',#452,.T.);
#487=FACE_BOUND('',#453,.T.);
#488=FACE_BOUND('',#454,.T.);
#489=FACE_BOUND('',#455,.T.);
#490=FACE_BOUND('',#456,.T.);
#491=FACE_BOUND('',#457,.T.);
#492=FACE_BOUND('',#458,.T.);
#493=FACE_BOUND('',#459,.T.);
#494=FACE_BOUND('',#460,.T.);
#495=FACE_BOUND('',#461,.T.);
#496=FACE_BOUND('',#462,.T.);
#497=FACE_BOUND('',#463,.T.);
#498=FACE_BOUND('',#464,.T.);
#499=PLANE('',#555);
#500=PLANE('',#556);
#501=PLANE('',#559);
#502=PLANE('',#560);
#503=PLANE('',#562);
#504=PLANE('',#563);
#505=PLANE('',#564);
#506=PLANE('',#565);
#507=PLANE('',#569);
#508=PLANE('',#570);
#509=PLANE('',#571);
#510=PLANE('',#572);
#511=PLANE('',#573);
#512=PLANE('',#575);
#513=PLANE('',#586);
#514=ADVANCED_FACE('',(#465),#499,.F.);
#515=ADVANCED_FACE('',(#466,#467,#468),#500,.F.);
#516=ADVANCED_FACE('',(#469),#501,.T.);
#517=ADVANCED_FACE('',(#470,#471),#502,.T.);
#518=ADVANCED_FACE('',(#472),#503,.T.);
#519=ADVANCED_FACE('',(#473),#504,.T.);
#520=ADVANCED_FACE('',(#474),#505,.T.);
#521=ADVANCED_FACE('',(#475),#506,.T.);
#522=ADVANCED_FACE('',(#476),#12,.F.);
#523=ADVANCED_FACE('',(#477),#507,.F.);
#524=ADVANCED_FACE('',(#478),#508,.F.);
#525=ADVANCED_FACE('',(#479),#509,.F.);
#526=ADVANCED_FACE('',(#480),#510,.F.);
#527=ADVANCED_FACE('',(#481,#482),#511,.F.);
#528=ADVANCED_FACE('',(#483),#512,.T.);
#529=ADVANCED_FACE('',(#484),#513,.F.);
#530=ADVANCED_FACE('',(#485,#486),#13,.F.);
#531=ADVANCED_FACE('',(#487,#488),#14,.F.);
#532=ADVANCED_FACE('',(#489),#15,.T.);
#533=ADVANCED_FACE('',(#490),#16,.T.);
#534=ADVANCED_FACE('',(#491),#17,.T.);
#535=ADVANCED_FACE('',(#492),#18,.T.);
#536=ADVANCED_FACE('',(#493),#19,.T.);
#537=ADVANCED_FACE('',(#494),#20,.F.);
#538=ADVANCED_FACE('',(#495),#21,.F.);
#539=ADVANCED_FACE('',(#496),#22,.F.);
#540=ADVANCED_FACE('',(#497),#23,.F.);
#541=ADVANCED_FACE('',(#498),#24,.T.);
#542=CLOSED_SHELL('',(#514,#515,#516,#517,#518,#519,#520,#521,#522,#523,
#524,#525,#526,#527,#528,#529,#530,#531,#532,#533,#534,#535,#536,#537,#538,
#539,#540,#541));
#543=STYLED_ITEM('',(#544),#551);
#544=PRESENTATION_STYLE_ASSIGNMENT((#545));
#545=SURFACE_STYLE_USAGE(.BOTH.,#546);
#546=SURFACE_SIDE_STYLE('',(#547));
#547=SURFACE_STYLE_FILL_AREA(#548);
#548=FILL_AREA_STYLE('',(#549));
#549=FILL_AREA_STYLE_COLOUR('',#550);
#550=COLOUR_RGB('',0.223529411764706,0.223529411764706,0.223529411764706);
#551=MANIFOLD_SOLID_BREP('Ambu Support Small',#542);
#552=SHAPE_DEFINITION_REPRESENTATION(#932,#553);
#553=SHAPE_REPRESENTATION('Ambu Support Small',(#554),#927);
#554=AXIS2_PLACEMENT_3D('',#769,#609,#610);
#555=AXIS2_PLACEMENT_3D('',#770,#611,#612);
#556=AXIS2_PLACEMENT_3D('',#779,#617,#618);
#557=AXIS2_PLACEMENT_3D('',#780,#619,#620);
#558=AXIS2_PLACEMENT_3D('',#782,#621,#622);
#559=AXIS2_PLACEMENT_3D('',#789,#626,#627);
#560=AXIS2_PLACEMENT_3D('',#795,#631,#632);
#561=AXIS2_PLACEMENT_3D('',#796,#633,#634);
#562=AXIS2_PLACEMENT_3D('',#803,#638,#639);
#563=AXIS2_PLACEMENT_3D('',#812,#644,#645);
#564=AXIS2_PLACEMENT_3D('',#821,#650,#651);
#565=AXIS2_PLACEMENT_3D('',#830,#656,#657);
#566=AXIS2_PLACEMENT_3D('',#839,#662,#663);
#567=AXIS2_PLACEMENT_3D('',#840,#664,#665);
#568=AXIS2_PLACEMENT_3D('',#845,#667,#668);
#569=AXIS2_PLACEMENT_3D('',#848,#670,#671);
#570=AXIS2_PLACEMENT_3D('',#857,#676,#677);
#571=AXIS2_PLACEMENT_3D('',#866,#682,#683);
#572=AXIS2_PLACEMENT_3D('',#875,#688,#689);
#573=AXIS2_PLACEMENT_3D('',#884,#694,#695);
#574=AXIS2_PLACEMENT_3D('',#885,#696,#697);
#575=AXIS2_PLACEMENT_3D('',#892,#701,#702);
#576=AXIS2_PLACEMENT_3D('',#893,#703,#704);
#577=AXIS2_PLACEMENT_3D('',#894,#705,#706);
#578=AXIS2_PLACEMENT_3D('',#895,#707,#708);
#579=AXIS2_PLACEMENT_3D('',#896,#709,#710);
#580=AXIS2_PLACEMENT_3D('',#897,#711,#712);
#581=AXIS2_PLACEMENT_3D('',#898,#713,#714);
#582=AXIS2_PLACEMENT_3D('',#899,#715,#716);
#583=AXIS2_PLACEMENT_3D('',#900,#717,#718);
#584=AXIS2_PLACEMENT_3D('',#901,#719,#720);
#585=AXIS2_PLACEMENT_3D('',#902,#721,#722);
#586=AXIS2_PLACEMENT_3D('',#903,#723,#724);
#587=AXIS2_PLACEMENT_3D('',#904,#725,#726);
#588=AXIS2_PLACEMENT_3D('',#905,#727,#728);
#589=AXIS2_PLACEMENT_3D('',#906,#729,#730);
#590=AXIS2_PLACEMENT_3D('',#907,#731,#732);
#591=AXIS2_PLACEMENT_3D('',#908,#733,#734);
#592=AXIS2_PLACEMENT_3D('',#909,#735,#736);
#593=AXIS2_PLACEMENT_3D('',#910,#737,#738);
#594=AXIS2_PLACEMENT_3D('',#911,#739,#740);
#595=AXIS2_PLACEMENT_3D('',#912,#741,#742);
#596=AXIS2_PLACEMENT_3D('',#913,#743,#744);
#597=AXIS2_PLACEMENT_3D('',#914,#745,#746);
#598=AXIS2_PLACEMENT_3D('',#915,#747,#748);
#599=AXIS2_PLACEMENT_3D('',#916,#749,#750);
#600=AXIS2_PLACEMENT_3D('',#917,#751,#752);
#601=AXIS2_PLACEMENT_3D('',#918,#753,#754);
#602=AXIS2_PLACEMENT_3D('',#919,#755,#756);
#603=AXIS2_PLACEMENT_3D('',#920,#757,#758);
#604=AXIS2_PLACEMENT_3D('',#921,#759,#760);
#605=AXIS2_PLACEMENT_3D('',#922,#761,#762);
#606=AXIS2_PLACEMENT_3D('',#923,#763,#764);
#607=AXIS2_PLACEMENT_3D('',#924,#765,#766);
#608=AXIS2_PLACEMENT_3D('',#925,#767,#768);
#609=DIRECTION('',(0.,0.,1.));
#610=DIRECTION('',(1.,0.,0.));
#611=DIRECTION('',(1.,0.,0.));
#612=DIRECTION('',(0.,0.,-1.));
#613=DIRECTION('',(0.,0.,-1.));
#614=DIRECTION('',(0.,1.,0.));
#615=DIRECTION('',(0.,0.,-1.));
#616=DIRECTION('',(0.,1.,0.));
#617=DIRECTION('',(0.,0.,1.));
#618=DIRECTION('',(1.,0.,0.));
#619=DIRECTION('',(0.,0.,1.));
#620=DIRECTION('',(1.,0.,0.));
#621=DIRECTION('',(0.,0.,1.));
#622=DIRECTION('',(1.,0.,0.));
#623=DIRECTION('',(1.,0.,0.));
#624=DIRECTION('',(0.,1.,0.));
#625=DIRECTION('',(1.,0.,0.));
#626=DIRECTION('',(1.,0.,0.));
#627=DIRECTION('',(0.,0.,-1.));
#628=DIRECTION('',(0.,0.,-1.));
#629=DIRECTION('',(0.,1.,0.));
#630=DIRECTION('',(0.,0.,-1.));
#631=DIRECTION('',(0.,0.,1.));
#632=DIRECTION('',(1.,0.,0.));
#633=DIRECTION('',(0.,0.,1.));
#634=DIRECTION('',(1.,0.,0.));
#635=DIRECTION('',(1.,0.,0.));
#636=DIRECTION('',(0.,1.,0.));
#637=DIRECTION('',(1.,0.,0.));
#638=DIRECTION('',(1.,0.,-1.70406148540068E-16));
#639=DIRECTION('',(-1.70406148540068E-16,0.,-1.));
#640=DIRECTION('',(-1.70406148540068E-16,0.,-1.));
#641=DIRECTION('',(0.,1.,0.));
#642=DIRECTION('',(-1.70406148540068E-16,0.,-1.));
#643=DIRECTION('',(0.,1.,0.));
#644=DIRECTION('',(0.,0.,-1.));
#645=DIRECTION('',(-1.,0.,0.));
#646=DIRECTION('',(-1.,0.,0.));
#647=DIRECTION('',(0.,1.,0.));
#648=DIRECTION('',(-1.,0.,0.));
#649=DIRECTION('',(0.,1.,0.));
#650=DIRECTION('',(1.,0.,-2.02112757647199E-16));
#651=DIRECTION('',(-2.02112757647199E-16,0.,-1.));
#652=DIRECTION('',(-2.02112757647199E-16,0.,-1.));
#653=DIRECTION('',(0.,1.,0.));
#654=DIRECTION('',(-2.02112757647199E-16,0.,-1.));
#655=DIRECTION('',(0.,1.,0.));
#656=DIRECTION('',(0.,0.,1.));
#657=DIRECTION('',(1.,0.,0.));
#658=DIRECTION('',(1.,0.,0.));
#659=DIRECTION('',(0.,1.,0.));
#660=DIRECTION('',(1.,0.,0.));
#661=DIRECTION('',(0.,1.,0.));
#662=DIRECTION('',(0.,1.,0.));
#663=DIRECTION('',(0.,0.,1.));
#664=DIRECTION('',(0.,-1.,0.));
#665=DIRECTION('',(0.,0.,-1.));
#666=DIRECTION('',(0.,1.,0.));
#667=DIRECTION('',(0.,-1.,0.));
#668=DIRECTION('',(0.,0.,-1.));
#669=DIRECTION('',(0.,1.,0.));
#670=DIRECTION('',(0.,0.,-1.));
#671=DIRECTION('',(-1.,0.,0.));
#672=DIRECTION('',(-1.,0.,0.));
#673=DIRECTION('',(0.,-1.,0.));
#674=DIRECTION('',(-1.,0.,0.));
#675=DIRECTION('',(0.,1.,0.));
#676=DIRECTION('',(1.,0.,2.02112757647199E-16));
#677=DIRECTION('',(2.02112757647199E-16,0.,-1.));
#678=DIRECTION('',(2.02112757647199E-16,0.,-1.));
#679=DIRECTION('',(0.,1.,0.));
#680=DIRECTION('',(2.02112757647199E-16,0.,-1.));
#681=DIRECTION('',(0.,1.,0.));
#682=DIRECTION('',(0.,0.,1.));
#683=DIRECTION('',(1.,0.,0.));
#684=DIRECTION('',(1.,0.,0.));
#685=DIRECTION('',(0.,1.,0.));
#686=DIRECTION('',(1.,0.,0.));
#687=DIRECTION('',(0.,1.,0.));
#688=DIRECTION('',(1.,0.,-1.70406148540068E-16));
#689=DIRECTION('',(-1.70406148540068E-16,0.,-1.));
#690=DIRECTION('',(-1.70406148540068E-16,0.,-1.));
#691=DIRECTION('',(0.,1.,0.));
#692=DIRECTION('',(-1.70406148540068E-16,0.,-1.));
#693=DIRECTION('',(0.,1.,0.));
#694=DIRECTION('',(0.,0.,-1.));
#695=DIRECTION('',(-1.,0.,0.));
#696=DIRECTION('',(0.,0.,1.));
#697=DIRECTION('',(1.,0.,0.));
#698=DIRECTION('',(-1.,0.,0.));
#699=DIRECTION('',(0.,1.,0.));
#700=DIRECTION('',(-1.,0.,0.));
#701=DIRECTION('',(0.,-1.,0.));
#702=DIRECTION('',(1.,0.,0.));
#703=DIRECTION('',(0.,-1.,0.));
#704=DIRECTION('',(0.,0.,-1.));
#705=DIRECTION('',(0.,-1.,0.));
#706=DIRECTION('',(0.,0.,-1.));
#707=DIRECTION('',(0.,-1.,0.));
#708=DIRECTION('',(0.,0.,-1.));
#709=DIRECTION('',(0.,-1.,0.));
#710=DIRECTION('',(0.,0.,-1.));
#711=DIRECTION('',(0.,-1.,0.));
#712=DIRECTION('',(0.,0.,-1.));
#713=DIRECTION('',(0.,-1.,0.));
#714=DIRECTION('',(0.,0.,-1.));
#715=DIRECTION('',(0.,-1.,0.));
#716=DIRECTION('',(0.,0.,-1.));
#717=DIRECTION('',(0.,-1.,0.));
#718=DIRECTION('',(0.,0.,-1.));
#719=DIRECTION('',(0.,-1.,0.));
#720=DIRECTION('',(0.,0.,-1.));
#721=DIRECTION('',(0.,-1.,0.));
#722=DIRECTION('',(0.,0.,-1.));
#723=DIRECTION('',(0.,-1.,0.));
#724=DIRECTION('',(1.,0.,0.));
#725=DIRECTION('',(0.,-1.,0.));
#726=DIRECTION('',(0.,0.,-1.));
#727=DIRECTION('',(0.,-1.,0.));
#728=DIRECTION('',(0.,0.,-1.));
#729=DIRECTION('',(0.,-1.,0.));
#730=DIRECTION('',(0.,0.,-1.));
#731=DIRECTION('',(0.,-1.,0.));
#732=DIRECTION('',(0.,0.,-1.));
#733=DIRECTION('',(0.,-1.,0.));
#734=DIRECTION('',(0.,0.,-1.));
#735=DIRECTION('',(0.,-1.,0.));
#736=DIRECTION('',(0.,0.,-1.));
#737=DIRECTION('',(0.,-1.,0.));
#738=DIRECTION('',(0.,0.,-1.));
#739=DIRECTION('',(0.,-1.,0.));
#740=DIRECTION('',(0.,0.,-1.));
#741=DIRECTION('',(0.,-1.,0.));
#742=DIRECTION('',(0.,0.,-1.));
#743=DIRECTION('',(0.,-1.,0.));
#744=DIRECTION('',(0.,0.,-1.));
#745=DIRECTION('',(0.,0.,1.));
#746=DIRECTION('',(1.,0.,0.));
#747=DIRECTION('',(0.,0.,1.));
#748=DIRECTION('',(1.,0.,0.));
#749=DIRECTION('',(0.,1.,0.));
#750=DIRECTION('',(0.,0.,1.));
#751=DIRECTION('',(0.,1.,0.));
#752=DIRECTION('',(0.,0.,1.));
#753=DIRECTION('',(0.,1.,0.));
#754=DIRECTION('',(0.,0.,1.));
#755=DIRECTION('',(0.,1.,0.));
#756=DIRECTION('',(0.,0.,1.));
#757=DIRECTION('',(0.,1.,0.));
#758=DIRECTION('',(0.,0.,1.));
#759=DIRECTION('',(0.,-1.,0.));
#760=DIRECTION('',(0.,0.,-1.));
#761=DIRECTION('',(0.,-1.,0.));
#762=DIRECTION('',(0.,0.,-1.));
#763=DIRECTION('',(0.,-1.,0.));
#764=DIRECTION('',(0.,0.,-1.));
#765=DIRECTION('',(0.,-1.,0.));
#766=DIRECTION('',(0.,0.,-1.));
#767=DIRECTION('',(0.,1.,0.));
#768=DIRECTION('',(0.,0.,1.));
#769=CARTESIAN_POINT('',(0.,0.,0.));
#770=CARTESIAN_POINT('',(-0.0419517957,-0.00508,-0.0686816));
#771=CARTESIAN_POINT('',(-0.0419517957,0.00508,-0.0686816));
#772=CARTESIAN_POINT('',(-0.0419517957,0.00508,-0.0648716));
#773=CARTESIAN_POINT('',(-0.0419517957,0.00508,-0.0724916));
#774=CARTESIAN_POINT('',(-0.0419517957,-0.00508,-0.0724916));
#775=CARTESIAN_POINT('',(-0.0419517957,-0.00508,-0.0724916));
#776=CARTESIAN_POINT('',(-0.0419517957,-0.00508,-0.0686816));
#777=CARTESIAN_POINT('',(-0.0419517957,-0.00508,-0.0648716));
#778=CARTESIAN_POINT('',(-0.0419517957,-0.00508,-0.0648716));
#779=CARTESIAN_POINT('',(-0.02097589785,-0.00508,-0.0724916));
#780=CARTESIAN_POINT('',(0.0356017957,1.55530143491714E-19,-0.0724916));
#781=CARTESIAN_POINT('',(0.0381417957,1.55530143491714E-19,-0.0724916));
#782=CARTESIAN_POINT('',(-0.0356017957,1.55530143491714E-19,-0.0724916));
#783=CARTESIAN_POINT('',(-0.0330617957,1.55530143491714E-19,-0.0724916));
#784=CARTESIAN_POINT('',(-0.02097589785,0.00508,-0.0724916));
#785=CARTESIAN_POINT('',(0.0419517957,0.00508,-0.0724916));
#786=CARTESIAN_POINT('',(0.0419517957,-0.00508,-0.0724916));
#787=CARTESIAN_POINT('',(0.0419517957,-0.00508,-0.0724916));
#788=CARTESIAN_POINT('',(-0.02097589785,-0.00508,-0.0724916));
#789=CARTESIAN_POINT('',(0.0419517957,-0.00508,-0.0686816));
#790=CARTESIAN_POINT('',(0.0419517957,0.00508,-0.0686816));
#791=CARTESIAN_POINT('',(0.0419517957,0.00508,-0.0648716));
#792=CARTESIAN_POINT('',(0.0419517957,-0.00508,-0.0648716));
#793=CARTESIAN_POINT('',(0.0419517957,-0.00508,-0.0648716));
#794=CARTESIAN_POINT('',(0.0419517957,-0.00508,-0.0686816));
#795=CARTESIAN_POINT('',(0.02732589785,-0.00508,-0.0648716));
#796=CARTESIAN_POINT('',(0.0356017957,1.55530143491714E-19,-0.0648716));
#797=CARTESIAN_POINT('',(0.0381417957,1.55530143491714E-19,-0.0648716));
#798=CARTESIAN_POINT('',(0.02732589785,0.00508,-0.0648716));
#799=CARTESIAN_POINT('',(0.01524,0.00508,-0.0648716));
#800=CARTESIAN_POINT('',(0.01524,-0.00508,-0.0648716));
#801=CARTESIAN_POINT('',(0.01524,-0.00508,-0.0648716));
#802=CARTESIAN_POINT('',(0.02732589785,-0.00508,-0.0648716));
#803=CARTESIAN_POINT('',(0.0127,-0.00508,-0.04960169785));
#804=CARTESIAN_POINT('',(0.0127,-0.00508,-0.04960169785));
#805=CARTESIAN_POINT('',(0.0127,-0.00508,-0.0368717957));
#806=CARTESIAN_POINT('',(0.0127,-0.00508,-0.0623316));
#807=CARTESIAN_POINT('',(0.0127,0.00508,-0.0623316));
#808=CARTESIAN_POINT('',(0.0127,0.00508,-0.0623316));
#809=CARTESIAN_POINT('',(0.0127,0.00508,-0.04960169785));
#810=CARTESIAN_POINT('',(0.0127,0.00508,-0.0368717957));
#811=CARTESIAN_POINT('',(0.0127,-0.00508,-0.0368717957));
#812=CARTESIAN_POINT('',(0.02097589785,-0.00508,-0.0343317957));
#813=CARTESIAN_POINT('',(0.02097589785,-0.00508,-0.0343317957));
#814=CARTESIAN_POINT('',(0.0267117957,-0.00508,-0.0343317957));
#815=CARTESIAN_POINT('',(0.01524,-0.00508,-0.0343317957));
#816=CARTESIAN_POINT('',(0.01524,0.00508,-0.0343317957));
#817=CARTESIAN_POINT('',(0.01524,0.00508,-0.0343317957));
#818=CARTESIAN_POINT('',(0.02097589785,0.00508,-0.0343317957));
#819=CARTESIAN_POINT('',(0.0267117957,0.00508,-0.0343317957));
#820=CARTESIAN_POINT('',(0.0267117957,-0.00508,-0.0343317957));
#821=CARTESIAN_POINT('',(0.0292517957,-0.00508,-0.01716589785));
#822=CARTESIAN_POINT('',(0.0292517957,0.00508,-0.01716589785));
#823=CARTESIAN_POINT('',(0.0292517957,0.00508,-0.00254));
#824=CARTESIAN_POINT('',(0.0292517957,0.00508,-0.0317917957));
#825=CARTESIAN_POINT('',(0.0292517957,-0.00508,-0.00254));
#826=CARTESIAN_POINT('',(0.0292517957,-0.00508,-0.00254));
#827=CARTESIAN_POINT('',(0.0292517957,-0.00508,-0.01716589785));
#828=CARTESIAN_POINT('',(0.0292517957,-0.00508,-0.0317917957));
#829=CARTESIAN_POINT('',(0.0292517957,-0.00508,-0.0317917957));
#830=CARTESIAN_POINT('',(0.0254417957,-0.00508,0.));
#831=CARTESIAN_POINT('',(0.0254417957,-0.00508,0.));
#832=CARTESIAN_POINT('',(0.0240379721973909,-0.00508,0.));
#833=CARTESIAN_POINT('',(0.0267117957,-0.00508,0.));
#834=CARTESIAN_POINT('',(0.0267117957,-0.00508,0.));
#835=CARTESIAN_POINT('',(0.0267117957,0.00508,0.));
#836=CARTESIAN_POINT('',(0.0254417957,0.00508,0.));
#837=CARTESIAN_POINT('',(0.0240379721973909,0.00508,0.));
#838=CARTESIAN_POINT('',(0.0240379721973909,-0.00508,0.));
#839=CARTESIAN_POINT('',(0.,-0.00508,-1.32456546819072E-18));
#840=CARTESIAN_POINT('',(0.,-0.00508,-1.32456546819072E-18));
#841=CARTESIAN_POINT('',(-0.0215120345244454,-0.00508,-0.00227309388842799));
#842=CARTESIAN_POINT('',(0.0215120345244454,-0.00508,-0.00227309388842799));
#843=CARTESIAN_POINT('',(0.0215120345244454,-0.00508,-0.00227309388842799));
#844=CARTESIAN_POINT('',(0.0215120345244454,0.00508,-0.00227309388842799));
#845=CARTESIAN_POINT('',(0.,0.00508,-1.32456546819072E-18));
#846=CARTESIAN_POINT('',(-0.0215120345244454,0.00508,-0.00227309388842799));
#847=CARTESIAN_POINT('',(-0.0215120345244454,-0.00508,-0.00227309388842799));
#848=CARTESIAN_POINT('',(-0.0254417957,-0.00508,0.));
#849=CARTESIAN_POINT('',(-0.0254417957,-0.00508,0.));
#850=CARTESIAN_POINT('',(-0.0240379721973909,-0.00508,0.));
#851=CARTESIAN_POINT('',(-0.0267117957,-0.00508,0.));
#852=CARTESIAN_POINT('',(-0.0240379721973909,0.00508,0.));
#853=CARTESIAN_POINT('',(-0.0240379721973909,0.00508,0.));
#854=CARTESIAN_POINT('',(-0.0254417957,0.00508,0.));
#855=CARTESIAN_POINT('',(-0.0267117957,0.00508,0.));
#856=CARTESIAN_POINT('',(-0.0267117957,-0.00508,0.));
#857=CARTESIAN_POINT('',(-0.0292517957,-0.00508,-0.01716589785));
#858=CARTESIAN_POINT('',(-0.0292517957,-0.00508,-0.01716589785));
#859=CARTESIAN_POINT('',(-0.0292517957,-0.00508,-0.00254));
#860=CARTESIAN_POINT('',(-0.0292517957,-0.00508,-0.0317917957));
#861=CARTESIAN_POINT('',(-0.0292517957,-0.00508,-0.00254));
#862=CARTESIAN_POINT('',(-0.0292517957,0.00508,-0.00254));
#863=CARTESIAN_POINT('',(-0.0292517957,0.00508,-0.01716589785));
#864=CARTESIAN_POINT('',(-0.0292517957,0.00508,-0.0317917957));
#865=CARTESIAN_POINT('',(-0.0292517957,-0.00508,-0.0317917957));
#866=CARTESIAN_POINT('',(-0.02097589785,-0.00508,-0.0343317957));
#867=CARTESIAN_POINT('',(-0.02097589785,-0.00508,-0.0343317957));
#868=CARTESIAN_POINT('',(-0.0267117957,-0.00508,-0.0343317957));
#869=CARTESIAN_POINT('',(-0.01524,-0.00508,-0.0343317957));
#870=CARTESIAN_POINT('',(-0.0267117957,-0.00508,-0.0343317957));
#871=CARTESIAN_POINT('',(-0.0267117957,0.00508,-0.0343317957));
#872=CARTESIAN_POINT('',(-0.02097589785,0.00508,-0.0343317957));
#873=CARTESIAN_POINT('',(-0.01524,0.00508,-0.0343317957));
#874=CARTESIAN_POINT('',(-0.01524,-0.00508,-0.0343317957));
#875=CARTESIAN_POINT('',(-0.0127,-0.00508,-0.04960169785));
#876=CARTESIAN_POINT('',(-0.0127,-0.00508,-0.04960169785));
#877=CARTESIAN_POINT('',(-0.0127,-0.00508,-0.0368717957));
#878=CARTESIAN_POINT('',(-0.0127,-0.00508,-0.0623316));
#879=CARTESIAN_POINT('',(-0.0127,0.00508,-0.0368717957));
#880=CARTESIAN_POINT('',(-0.0127,0.00508,-0.0368717957));
#881=CARTESIAN_POINT('',(-0.0127,0.00508,-0.04960169785));
#882=CARTESIAN_POINT('',(-0.0127,0.00508,-0.0623316));
#883=CARTESIAN_POINT('',(-0.0127,-0.00508,-0.0623316));
#884=CARTESIAN_POINT('',(-0.02732589785,-0.00508,-0.0648716));
#885=CARTESIAN_POINT('',(-0.0356017957,1.55530143491714E-19,-0.0648716));
#886=CARTESIAN_POINT('',(-0.0330617957,1.55530143491714E-19,-0.0648716));
#887=CARTESIAN_POINT('',(-0.02732589785,-0.00508,-0.0648716));
#888=CARTESIAN_POINT('',(-0.01524,-0.00508,-0.0648716));
#889=CARTESIAN_POINT('',(-0.01524,0.00508,-0.0648716));
#890=CARTESIAN_POINT('',(-0.01524,0.00508,-0.0648716));
#891=CARTESIAN_POINT('',(-0.02732589785,0.00508,-0.0648716));
#892=CARTESIAN_POINT('',(0.,-0.00508,0.));
#893=CARTESIAN_POINT('',(0.0267117957,-0.00508,-0.00254));
#894=CARTESIAN_POINT('',(0.0240379721973909,-0.00508,-0.00254));
#895=CARTESIAN_POINT('',(-0.0240379721973909,-0.00508,-0.00254));
#896=CARTESIAN_POINT('',(-0.0267117957,-0.00508,-0.00254));
#897=CARTESIAN_POINT('',(-0.0267117957,-0.00508,-0.0317917957));
#898=CARTESIAN_POINT('',(-0.01524,-0.00508,-0.0368717957));
#899=CARTESIAN_POINT('',(-0.01524,-0.00508,-0.0623316));
#900=CARTESIAN_POINT('',(0.01524,-0.00508,-0.0623316));
#901=CARTESIAN_POINT('',(0.01524,-0.00508,-0.0368717957));
#902=CARTESIAN_POINT('',(0.0267117957,-0.00508,-0.0317917957));
#903=CARTESIAN_POINT('',(0.,0.00508,0.));
#904=CARTESIAN_POINT('',(0.0267117957,0.00508,-0.00254));
#905=CARTESIAN_POINT('',(0.0267117957,0.00508,-0.0317917957));
#906=CARTESIAN_POINT('',(0.01524,0.00508,-0.0368717957));
#907=CARTESIAN_POINT('',(0.01524,0.00508,-0.0623316));
#908=CARTESIAN_POINT('',(-0.01524,0.00508,-0.0623316));
#909=CARTESIAN_POINT('',(-0.01524,0.00508,-0.0368717957));
#910=CARTESIAN_POINT('',(-0.0267117957,0.00508,-0.0317917957));
#911=CARTESIAN_POINT('',(-0.0267117957,0.00508,-0.00254));
#912=CARTESIAN_POINT('',(-0.0240379721973909,0.00508,-0.00254));
#913=CARTESIAN_POINT('',(0.0240379721973909,0.00508,-0.00254));
#914=CARTESIAN_POINT('',(-0.0356017957,1.55530143491714E-19,-0.0724936));
#915=CARTESIAN_POINT('',(0.0356017957,1.55530143491714E-19,-0.0724936));
#916=CARTESIAN_POINT('',(0.0267117957,-0.00508,-0.00254));
#917=CARTESIAN_POINT('',(0.0240379721973909,-0.00508,-0.00254));
#918=CARTESIAN_POINT('',(-0.0240379721973909,-0.00508,-0.00254));
#919=CARTESIAN_POINT('',(-0.0267117957,-0.00508,-0.00254));
#920=CARTESIAN_POINT('',(-0.0267117957,-0.00508,-0.0317917957));
#921=CARTESIAN_POINT('',(-0.01524,-0.00508,-0.0368717957));
#922=CARTESIAN_POINT('',(-0.01524,-0.00508,-0.0623316));
#923=CARTESIAN_POINT('',(0.01524,-0.00508,-0.0623316));
#924=CARTESIAN_POINT('',(0.01524,-0.00508,-0.0368717957));
#925=CARTESIAN_POINT('',(0.0267117957,-0.00508,-0.0317917957));
#926=MECHANICAL_DESIGN_GEOMETRIC_PRESENTATION_REPRESENTATION('',(#543),
#927);
#927=(
GEOMETRIC_REPRESENTATION_CONTEXT(3)
GLOBAL_UNCERTAINTY_ASSIGNED_CONTEXT((#928))
GLOBAL_UNIT_ASSIGNED_CONTEXT((#931,#930,#929))
REPRESENTATION_CONTEXT('Ambu Support Small','TOP_LEVEL_ASSEMBLY_PART')
);
#928=UNCERTAINTY_MEASURE_WITH_UNIT(LENGTH_MEASURE(1.E-8),#931,
'DISTANCE_ACCURACY_VALUE','Maximum Tolerance applied to model');
#929=(
NAMED_UNIT(*)
SI_UNIT($,.STERADIAN.)
SOLID_ANGLE_UNIT()
);
#930=(
NAMED_UNIT(*)
PLANE_ANGLE_UNIT()
SI_UNIT($,.RADIAN.)
);
#931=(
LENGTH_UNIT()
NAMED_UNIT(*)
SI_UNIT($,.METRE.)
);
#932=PRODUCT_DEFINITION_SHAPE('','',#933);
#933=PRODUCT_DEFINITION('','',#935,#934);
#934=PRODUCT_DEFINITION_CONTEXT('',#941,'design');
#935=PRODUCT_DEFINITION_FORMATION_WITH_SPECIFIED_SOURCE('','',#937,
 .NOT_KNOWN.);
#936=PRODUCT_RELATED_PRODUCT_CATEGORY('','',(#937));
#937=PRODUCT('Ambu Support Small','Ambu Support Small',
'Ambu Support Small',(#939));
#938=PRODUCT_CATEGORY('','');
#939=PRODUCT_CONTEXT('',#941,'mechanical');
#940=APPLICATION_PROTOCOL_DEFINITION('international standard',
'ap242_managed_model_based_3d_engineering',2020,#941);
#941=APPLICATION_CONTEXT('managed model based 3d engineering');
ENDSEC;
END-ISO-10303-21;
