ISO-10303-21;
HEADER;
/* Generated by software containing ST-Developer
 * from STEP Tools, Inc. (www.steptools.com) 
 */
/* OPTION: using custom renumber hook */

FILE_DESCRIPTION(
/* description */ ('STEP AP242 Edition 2',
'CAx-IF Rec.Pracs.---Representation and Presentation of Product Manufa
cturing Information (PMI)---4.0---2014-10-13',
'CAx-IF Rec.Pracs.---3D Tessellated Geometry---0.4---2014-09-14','2;1',
'CAx-IF Rec.Pracs.---User Defined Attributes---1.5---2016-08-15'),
/* implementation_level */ '2;1');

FILE_NAME(
/* name */ 'Main - Base',
/* time_stamp */ '2026-05-15T18:25:36Z',
/* author */ (''),
/* organization */ (''),
/* preprocessor_version */ 'ST-DEVELOPER v20',
/* originating_system */ 'ONSHAPE BY PTC INC, 1.215',
/* authorisation */ '  ');

FILE_SCHEMA (('AP242_MANAGED_MODEL_BASED_3D_ENGINEERING_MIM_LF { 1 0 10303 442 3 1 4 }'));
ENDSEC;

DATA;
#10=SHAPE_REPRESENTATION_RELATIONSHIP('','',#195,#11);
#11=ADVANCED_BREP_SHAPE_REPRESENTATION('',(#193),#313);
#12=CIRCLE('',#201,0.00254);
#13=CIRCLE('',#202,0.00254);
#14=CIRCLE('',#204,0.00254);
#15=CIRCLE('',#205,0.00254);
#16=CIRCLE('',#208,0.00254);
#17=CIRCLE('',#209,0.00254);
#18=CIRCLE('',#211,0.00254);
#19=CIRCLE('',#212,0.00254);
#20=CYLINDRICAL_SURFACE('',#200,0.00254);
#21=CYLINDRICAL_SURFACE('',#203,0.00254);
#22=CYLINDRICAL_SURFACE('',#207,0.00254);
#23=CYLINDRICAL_SURFACE('',#210,0.00254);
#24=ORIENTED_EDGE('',*,*,#64,.F.);
#25=ORIENTED_EDGE('',*,*,#65,.F.);
#26=ORIENTED_EDGE('',*,*,#66,.T.);
#27=ORIENTED_EDGE('',*,*,#67,.T.);
#28=ORIENTED_EDGE('',*,*,#68,.T.);
#29=ORIENTED_EDGE('',*,*,#69,.F.);
#30=ORIENTED_EDGE('',*,*,#70,.F.);
#31=ORIENTED_EDGE('',*,*,#65,.T.);
#32=ORIENTED_EDGE('',*,*,#71,.T.);
#33=ORIENTED_EDGE('',*,*,#72,.F.);
#34=ORIENTED_EDGE('',*,*,#73,.F.);
#35=ORIENTED_EDGE('',*,*,#69,.T.);
#36=ORIENTED_EDGE('',*,*,#74,.T.);
#37=ORIENTED_EDGE('',*,*,#75,.F.);
#38=ORIENTED_EDGE('',*,*,#76,.T.);
#39=ORIENTED_EDGE('',*,*,#77,.F.);
#40=ORIENTED_EDGE('',*,*,#78,.F.);
#41=ORIENTED_EDGE('',*,*,#67,.F.);
#42=ORIENTED_EDGE('',*,*,#79,.T.);
#43=ORIENTED_EDGE('',*,*,#72,.T.);
#44=ORIENTED_EDGE('',*,*,#80,.T.);
#45=ORIENTED_EDGE('',*,*,#81,.F.);
#46=ORIENTED_EDGE('',*,*,#82,.T.);
#47=ORIENTED_EDGE('',*,*,#83,.F.);
#48=ORIENTED_EDGE('',*,*,#80,.F.);
#49=ORIENTED_EDGE('',*,*,#66,.F.);
#50=ORIENTED_EDGE('',*,*,#70,.T.);
#51=ORIENTED_EDGE('',*,*,#73,.T.);
#52=ORIENTED_EDGE('',*,*,#79,.F.);
#53=ORIENTED_EDGE('',*,*,#76,.F.);
#54=ORIENTED_EDGE('',*,*,#74,.F.);
#55=ORIENTED_EDGE('',*,*,#82,.F.);
#56=ORIENTED_EDGE('',*,*,#81,.T.);
#57=ORIENTED_EDGE('',*,*,#64,.T.);
#58=ORIENTED_EDGE('',*,*,#78,.T.);
#59=ORIENTED_EDGE('',*,*,#71,.F.);
#60=ORIENTED_EDGE('',*,*,#68,.F.);
#61=ORIENTED_EDGE('',*,*,#77,.T.);
#62=ORIENTED_EDGE('',*,*,#75,.T.);
#63=ORIENTED_EDGE('',*,*,#83,.T.);
#64=EDGE_CURVE('',#84,#85,#100,.T.);
#65=EDGE_CURVE('',#86,#84,#101,.T.);
#66=EDGE_CURVE('',#86,#87,#102,.T.);
#67=EDGE_CURVE('',#87,#85,#103,.T.);
#68=EDGE_CURVE('',#84,#88,#104,.T.);
#69=EDGE_CURVE('',#89,#88,#105,.T.);
#70=EDGE_CURVE('',#86,#89,#106,.T.);
#71=EDGE_CURVE('',#88,#90,#107,.T.);
#72=EDGE_CURVE('',#91,#90,#108,.T.);
#73=EDGE_CURVE('',#89,#91,#109,.T.);
#74=EDGE_CURVE('',#92,#92,#12,.T.);
#75=EDGE_CURVE('',#93,#93,#13,.T.);
#76=EDGE_CURVE('',#94,#94,#14,.T.);
#77=EDGE_CURVE('',#95,#95,#15,.T.);
#78=EDGE_CURVE('',#85,#90,#110,.T.);
#79=EDGE_CURVE('',#87,#91,#111,.T.);
#80=EDGE_CURVE('',#96,#96,#16,.T.);
#81=EDGE_CURVE('',#97,#97,#17,.T.);
#82=EDGE_CURVE('',#98,#98,#18,.T.);
#83=EDGE_CURVE('',#99,#99,#19,.T.);
#84=VERTEX_POINT('',#268);
#85=VERTEX_POINT('',#269);
#86=VERTEX_POINT('',#271);
#87=VERTEX_POINT('',#273);
#88=VERTEX_POINT('',#277);
#89=VERTEX_POINT('',#279);
#90=VERTEX_POINT('',#283);
#91=VERTEX_POINT('',#285);
#92=VERTEX_POINT('',#289);
#93=VERTEX_POINT('',#291);
#94=VERTEX_POINT('',#294);
#95=VERTEX_POINT('',#296);
#96=VERTEX_POINT('',#302);
#97=VERTEX_POINT('',#304);
#98=VERTEX_POINT('',#307);
#99=VERTEX_POINT('',#309);
#100=LINE('',#267,#112);
#101=LINE('',#270,#113);
#102=LINE('',#272,#114);
#103=LINE('',#274,#115);
#104=LINE('',#276,#116);
#105=LINE('',#278,#117);
#106=LINE('',#280,#118);
#107=LINE('',#282,#119);
#108=LINE('',#284,#120);
#109=LINE('',#286,#121);
#110=LINE('',#298,#122);
#111=LINE('',#299,#123);
#112=VECTOR('',#219,1.);
#113=VECTOR('',#220,1.);
#114=VECTOR('',#221,1.);
#115=VECTOR('',#222,1.);
#116=VECTOR('',#225,1.);
#117=VECTOR('',#226,1.);
#118=VECTOR('',#227,1.);
#119=VECTOR('',#230,1.);
#120=VECTOR('',#231,1.);
#121=VECTOR('',#232,1.);
#122=VECTOR('',#247,1.);
#123=VECTOR('',#248,1.);
#124=EDGE_LOOP('',(#24,#25,#26,#27));
#125=EDGE_LOOP('',(#28,#29,#30,#31));
#126=EDGE_LOOP('',(#32,#33,#34,#35));
#127=EDGE_LOOP('',(#36));
#128=EDGE_LOOP('',(#37));
#129=EDGE_LOOP('',(#38));
#130=EDGE_LOOP('',(#39));
#131=EDGE_LOOP('',(#40,#41,#42,#43));
#132=EDGE_LOOP('',(#44));
#133=EDGE_LOOP('',(#45));
#134=EDGE_LOOP('',(#46));
#135=EDGE_LOOP('',(#47));
#136=EDGE_LOOP('',(#48));
#137=EDGE_LOOP('',(#49,#50,#51,#52));
#138=EDGE_LOOP('',(#53));
#139=EDGE_LOOP('',(#54));
#140=EDGE_LOOP('',(#55));
#141=EDGE_LOOP('',(#56));
#142=EDGE_LOOP('',(#57,#58,#59,#60));
#143=EDGE_LOOP('',(#61));
#144=EDGE_LOOP('',(#62));
#145=EDGE_LOOP('',(#63));
#146=FACE_BOUND('',#124,.T.);
#147=FACE_BOUND('',#125,.T.);
#148=FACE_BOUND('',#126,.T.);
#149=FACE_BOUND('',#127,.T.);
#150=FACE_BOUND('',#128,.T.);
#151=FACE_BOUND('',#129,.T.);
#152=FACE_BOUND('',#130,.T.);
#153=FACE_BOUND('',#131,.T.);
#154=FACE_BOUND('',#132,.T.);
#155=FACE_BOUND('',#133,.T.);
#156=FACE_BOUND('',#134,.T.);
#157=FACE_BOUND('',#135,.T.);
#158=FACE_BOUND('',#136,.T.);
#159=FACE_BOUND('',#137,.T.);
#160=FACE_BOUND('',#138,.T.);
#161=FACE_BOUND('',#139,.T.);
#162=FACE_BOUND('',#140,.T.);
#163=FACE_BOUND('',#141,.T.);
#164=FACE_BOUND('',#142,.T.);
#165=FACE_BOUND('',#143,.T.);
#166=FACE_BOUND('',#144,.T.);
#167=FACE_BOUND('',#145,.T.);
#168=PLANE('',#197);
#169=PLANE('',#198);
#170=PLANE('',#199);
#171=PLANE('',#206);
#172=PLANE('',#213);
#173=PLANE('',#214);
#174=ADVANCED_FACE('',(#146),#168,.T.);
#175=ADVANCED_FACE('',(#147),#169,.F.);
#176=ADVANCED_FACE('',(#148),#170,.F.);
#177=ADVANCED_FACE('',(#149,#150),#20,.F.);
#178=ADVANCED_FACE('',(#151,#152),#21,.F.);
#179=ADVANCED_FACE('',(#153),#171,.T.);
#180=ADVANCED_FACE('',(#154,#155),#22,.F.);
#181=ADVANCED_FACE('',(#156,#157),#23,.F.);
#182=ADVANCED_FACE('',(#158,#159,#160,#161,#162),#172,.T.);
#183=ADVANCED_FACE('',(#163,#164,#165,#166,#167),#173,.F.);
#184=CLOSED_SHELL('',(#174,#175,#176,#177,#178,#179,#180,#181,#182,#183));
#185=STYLED_ITEM('',(#186),#193);
#186=PRESENTATION_STYLE_ASSIGNMENT((#187));
#187=SURFACE_STYLE_USAGE(.BOTH.,#188);
#188=SURFACE_SIDE_STYLE('',(#189));
#189=SURFACE_STYLE_FILL_AREA(#190);
#190=FILL_AREA_STYLE('',(#191));
#191=FILL_AREA_STYLE_COLOUR('',#192);
#192=COLOUR_RGB('',0.223529411764706,0.223529411764706,0.223529411764706);
#193=MANIFOLD_SOLID_BREP('Base',#184);
#194=SHAPE_DEFINITION_REPRESENTATION(#318,#195);
#195=SHAPE_REPRESENTATION('Base',(#196),#313);
#196=AXIS2_PLACEMENT_3D('',#265,#215,#216);
#197=AXIS2_PLACEMENT_3D('',#266,#217,#218);
#198=AXIS2_PLACEMENT_3D('',#275,#223,#224);
#199=AXIS2_PLACEMENT_3D('',#281,#228,#229);
#200=AXIS2_PLACEMENT_3D('',#287,#233,#234);
#201=AXIS2_PLACEMENT_3D('',#288,#235,#236);
#202=AXIS2_PLACEMENT_3D('',#290,#237,#238);
#203=AXIS2_PLACEMENT_3D('',#292,#239,#240);
#204=AXIS2_PLACEMENT_3D('',#293,#241,#242);
#205=AXIS2_PLACEMENT_3D('',#295,#243,#244);
#206=AXIS2_PLACEMENT_3D('',#297,#245,#246);
#207=AXIS2_PLACEMENT_3D('',#300,#249,#250);
#208=AXIS2_PLACEMENT_3D('',#301,#251,#252);
#209=AXIS2_PLACEMENT_3D('',#303,#253,#254);
#210=AXIS2_PLACEMENT_3D('',#305,#255,#256);
#211=AXIS2_PLACEMENT_3D('',#306,#257,#258);
#212=AXIS2_PLACEMENT_3D('',#308,#259,#260);
#213=AXIS2_PLACEMENT_3D('',#310,#261,#262);
#214=AXIS2_PLACEMENT_3D('',#311,#263,#264);
#215=DIRECTION('',(0.,0.,1.));
#216=DIRECTION('',(1.,0.,0.));
#217=DIRECTION('',(1.,-7.80527998189789E-17,0.));
#218=DIRECTION('',(7.8052799818979E-17,1.,0.));
#219=DIRECTION('',(-7.80527998189789E-17,-1.,0.));
#220=DIRECTION('',(0.,0.,-1.));
#221=DIRECTION('',(-7.80527998189789E-17,-1.,0.));
#222=DIRECTION('',(0.,0.,-1.));
#223=DIRECTION('',(7.80527998189789E-17,-1.,0.));
#224=DIRECTION('',(1.,7.8052799818979E-17,0.));
#225=DIRECTION('',(-1.,-7.80527998189789E-17,0.));
#226=DIRECTION('',(0.,0.,-1.));
#227=DIRECTION('',(-1.,-7.80527998189789E-17,0.));
#228=DIRECTION('',(1.,-7.80527998189789E-17,0.));
#229=DIRECTION('',(7.80527998189789E-17,1.,0.));
#230=DIRECTION('',(-7.80527998189789E-17,-1.,0.));
#231=DIRECTION('',(0.,0.,-1.));
#232=DIRECTION('',(-7.80527998189789E-17,-1.,0.));
#233=DIRECTION('',(0.,0.,-1.));
#234=DIRECTION('',(-1.,0.,0.));
#235=DIRECTION('',(0.,0.,1.));
#236=DIRECTION('',(1.,0.,0.));
#237=DIRECTION('',(0.,0.,1.));
#238=DIRECTION('',(1.,0.,0.));
#239=DIRECTION('',(0.,0.,-1.));
#240=DIRECTION('',(-1.,0.,0.));
#241=DIRECTION('',(0.,0.,1.));
#242=DIRECTION('',(1.,0.,0.));
#243=DIRECTION('',(0.,0.,1.));
#244=DIRECTION('',(1.,0.,0.));
#245=DIRECTION('',(1.56105599637958E-16,-1.,0.));
#246=DIRECTION('',(1.,1.56105599637958E-16,0.));
#247=DIRECTION('',(-1.,-1.56105599637958E-16,0.));
#248=DIRECTION('',(-1.,-1.56105599637958E-16,0.));
#249=DIRECTION('',(0.,0.,-1.));
#250=DIRECTION('',(-1.,0.,0.));
#251=DIRECTION('',(0.,0.,1.));
#252=DIRECTION('',(1.,0.,0.));
#253=DIRECTION('',(0.,0.,1.));
#254=DIRECTION('',(1.,0.,0.));
#255=DIRECTION('',(0.,0.,-1.));
#256=DIRECTION('',(-1.,0.,0.));
#257=DIRECTION('',(0.,0.,1.));
#258=DIRECTION('',(1.,0.,0.));
#259=DIRECTION('',(0.,0.,1.));
#260=DIRECTION('',(1.,0.,0.));
#261=DIRECTION('',(0.,0.,1.));
#262=DIRECTION('',(1.,0.,0.));
#263=DIRECTION('',(0.,0.,1.));
#264=DIRECTION('',(1.,0.,0.));
#265=CARTESIAN_POINT('',(0.,0.,0.));
#266=CARTESIAN_POINT('',(0.0889,0.,0.003175));
#267=CARTESIAN_POINT('',(0.0889,0.,-0.003175));
#268=CARTESIAN_POINT('',(0.0889,0.0889,-0.003175));
#269=CARTESIAN_POINT('',(0.0889,-0.0889,-0.003175));
#270=CARTESIAN_POINT('',(0.0889,0.0889,0.003175));
#271=CARTESIAN_POINT('',(0.0889,0.0889,0.003175));
#272=CARTESIAN_POINT('',(0.0889,0.,0.003175));
#273=CARTESIAN_POINT('',(0.0889,-0.0889,0.003175));
#274=CARTESIAN_POINT('',(0.0889,-0.0889,0.003175));
#275=CARTESIAN_POINT('',(1.38777878078145E-17,0.0889,0.003175));
#276=CARTESIAN_POINT('',(1.38777878078145E-17,0.0889,-0.003175));
#277=CARTESIAN_POINT('',(-0.0889,0.0889,-0.003175));
#278=CARTESIAN_POINT('',(-0.0889,0.0889,0.003175));
#279=CARTESIAN_POINT('',(-0.0889,0.0889,0.003175));
#280=CARTESIAN_POINT('',(1.38777878078145E-17,0.0889,0.003175));
#281=CARTESIAN_POINT('',(-0.0889,2.77555756156289E-17,0.003175));
#282=CARTESIAN_POINT('',(-0.0889,2.77555756156289E-17,-0.003175));
#283=CARTESIAN_POINT('',(-0.0889,-0.0889,-0.003175));
#284=CARTESIAN_POINT('',(-0.0889,-0.0889,0.003175));
#285=CARTESIAN_POINT('',(-0.0889,-0.0889,0.003175));
#286=CARTESIAN_POINT('',(-0.0889,2.77555756156289E-17,0.003175));
#287=CARTESIAN_POINT('',(0.0722458804,-0.0574294,0.003175));
#288=CARTESIAN_POINT('',(0.0722458804,-0.0574294,0.003175));
#289=CARTESIAN_POINT('',(0.0747858804,-0.0574294,0.003175));
#290=CARTESIAN_POINT('',(0.0722458804,-0.0574294,-0.003175));
#291=CARTESIAN_POINT('',(0.0747858804,-0.0574294,-0.003175));
#292=CARTESIAN_POINT('',(-0.0806196,0.06985,0.003175));
#293=CARTESIAN_POINT('',(-0.0806196,0.06985,0.003175));
#294=CARTESIAN_POINT('',(-0.0780796,0.06985,0.003175));
#295=CARTESIAN_POINT('',(-0.0806196,0.06985,-0.003175));
#296=CARTESIAN_POINT('',(-0.0780796,0.06985,-0.003175));
#297=CARTESIAN_POINT('',(0.,-0.0889,0.003175));
#298=CARTESIAN_POINT('',(0.,-0.0889,-0.003175));
#299=CARTESIAN_POINT('',(0.,-0.0889,0.003175));
#300=CARTESIAN_POINT('',(-0.0806196,0.08255,0.003175));
#301=CARTESIAN_POINT('',(-0.0806196,0.08255,0.003175));
#302=CARTESIAN_POINT('',(-0.0780796,0.08255,0.003175));
#303=CARTESIAN_POINT('',(-0.0806196,0.08255,-0.003175));
#304=CARTESIAN_POINT('',(-0.0780796,0.08255,-0.003175));
#305=CARTESIAN_POINT('',(0.0722458804,0.0695706,0.003175));
#306=CARTESIAN_POINT('',(0.0722458804,0.0695706,0.003175));
#307=CARTESIAN_POINT('',(0.0747858804,0.0695706,0.003175));
#308=CARTESIAN_POINT('',(0.0722458804,0.0695706,-0.003175));
#309=CARTESIAN_POINT('',(0.0747858804,0.0695706,-0.003175));
#310=CARTESIAN_POINT('',(0.,0.,0.003175));
#311=CARTESIAN_POINT('',(0.,0.,-0.003175));
#312=MECHANICAL_DESIGN_GEOMETRIC_PRESENTATION_REPRESENTATION('',(#185),
#313);
#313=(
GEOMETRIC_REPRESENTATION_CONTEXT(3)
GLOBAL_UNCERTAINTY_ASSIGNED_CONTEXT((#314))
GLOBAL_UNIT_ASSIGNED_CONTEXT((#317,#316,#315))
REPRESENTATION_CONTEXT('Base','TOP_LEVEL_ASSEMBLY_PART')
);
#314=UNCERTAINTY_MEASURE_WITH_UNIT(LENGTH_MEASURE(1.E-8),#317,
'DISTANCE_ACCURACY_VALUE','Maximum Tolerance applied to model');
#315=(
NAMED_UNIT(*)
SI_UNIT($,.STERADIAN.)
SOLID_ANGLE_UNIT()
);
#316=(
NAMED_UNIT(*)
PLANE_ANGLE_UNIT()
SI_UNIT($,.RADIAN.)
);
#317=(
LENGTH_UNIT()
NAMED_UNIT(*)
SI_UNIT($,.METRE.)
);
#318=PRODUCT_DEFINITION_SHAPE('','',#319);
#319=PRODUCT_DEFINITION('','',#321,#320);
#320=PRODUCT_DEFINITION_CONTEXT('',#327,'design');
#321=PRODUCT_DEFINITION_FORMATION_WITH_SPECIFIED_SOURCE('','',#323,
 .NOT_KNOWN.);
#322=PRODUCT_RELATED_PRODUCT_CATEGORY('','',(#323));
#323=PRODUCT('Base','Base','Base',(#325));
#324=PRODUCT_CATEGORY('','');
#325=PRODUCT_CONTEXT('',#327,'mechanical');
#326=APPLICATION_PROTOCOL_DEFINITION('international standard',
'ap242_managed_model_based_3d_engineering',2020,#327);
#327=APPLICATION_CONTEXT('managed model based 3d engineering');
ENDSEC;
END-ISO-10303-21;
