ISO-10303-21;
HEADER;
/* Generated by software containing ST-Developer
 * from STEP Tools, Inc. (www.steptools.com) 
 */
/* OPTION: using custom renumber hook */

FILE_DESCRIPTION(
/* description */ ('STEP AP242 Edition 2',
'CAx-IF Rec.Pracs.---Representation and Presentation of Product Manufa
cturing Information (PMI)---4.0---2014-10-13',
'CAx-IF Rec.Pracs.---3D Tessellated Geometry---0.4---2014-09-14','2;1',
'CAx-IF Rec.Pracs.---User Defined Attributes---1.5---2016-08-15'),
/* implementation_level */ '2;1');

FILE_NAME(
/* name */ 'Main - CIM Motor',
/* time_stamp */ '2026-05-15T18:25:36Z',
/* author */ (''),
/* organization */ (''),
/* preprocessor_version */ 'ST-DEVELOPER v20',
/* originating_system */ 'ONSHAPE BY PTC INC, 1.215',
/* authorisation */ '  ');

FILE_SCHEMA (('AP242_MANAGED_MODEL_BASED_3D_ENGINEERING_MIM_LF { 1 0 10303 442 3 1 4 }'));
ENDSEC;

DATA;
#10=SHAPE_REPRESENTATION_RELATIONSHIP('','',#572,#11);
#11=ADVANCED_BREP_SHAPE_REPRESENTATION('',(#570),#893);
#12=TOROIDAL_SURFACE('',#632,0.00374600000000008,0.000254);
#13=TOROIDAL_SURFACE('',#633,0.0308770000000005,0.001);
#14=TOROIDAL_SURFACE('',#634,0.0308770000000005,0.001);
#15=TOROIDAL_SURFACE('',#635,0.0140368000000003,0.001);
#16=VERTEX_LOOP('',#239);
#17=VERTEX_LOOP('',#241);
#18=CONICAL_SURFACE('',#619,0.00431800000197444,0.785398163397448);
#19=CONICAL_SURFACE('',#622,0.00431800000197453,0.785398163397446);
#20=CONICAL_SURFACE('',#625,0.00201930000000003,1.0297442575);
#21=CONICAL_SURFACE('',#628,0.00201930000000003,1.0297442575);
#22=CONICAL_SURFACE('',#631,0.00952500000000019,0.785398162500006);
#23=OVER_RIDING_STYLED_ITEM('',(#428),#397,#426);
#24=OVER_RIDING_STYLED_ITEM('',(#429),#398,#426);
#25=OVER_RIDING_STYLED_ITEM('',(#430),#399,#426);
#26=OVER_RIDING_STYLED_ITEM('',(#431),#400,#426);
#27=OVER_RIDING_STYLED_ITEM('',(#432),#401,#426);
#28=OVER_RIDING_STYLED_ITEM('',(#433),#403,#426);
#29=OVER_RIDING_STYLED_ITEM('',(#434),#405,#426);
#30=OVER_RIDING_STYLED_ITEM('',(#435),#406,#426);
#31=OVER_RIDING_STYLED_ITEM('',(#436),#407,#426);
#32=OVER_RIDING_STYLED_ITEM('',(#437),#408,#426);
#33=OVER_RIDING_STYLED_ITEM('',(#438),#409,#426);
#34=OVER_RIDING_STYLED_ITEM('',(#439),#410,#426);
#35=OVER_RIDING_STYLED_ITEM('',(#440),#411,#426);
#36=OVER_RIDING_STYLED_ITEM('',(#441),#412,#426);
#37=OVER_RIDING_STYLED_ITEM('',(#442),#414,#426);
#38=OVER_RIDING_STYLED_ITEM('',(#443),#417,#426);
#39=OVER_RIDING_STYLED_ITEM('',(#444),#419,#426);
#40=OVER_RIDING_STYLED_ITEM('',(#445),#420,#426);
#41=OVER_RIDING_STYLED_ITEM('',(#446),#421,#426);
#42=OVER_RIDING_STYLED_ITEM('',(#447),#422,#426);
#43=OVER_RIDING_STYLED_ITEM('',(#448),#423,#426);
#44=OVER_RIDING_STYLED_ITEM('',(#449),#424,#426);
#45=PLANE('',#578);
#46=PLANE('',#579);
#47=PLANE('',#580);
#48=PLANE('',#581);
#49=PLANE('',#583);
#50=PLANE('',#585);
#51=PLANE('',#587);
#52=PLANE('',#589);
#53=PLANE('',#594);
#54=PLANE('',#597);
#55=PLANE('',#600);
#56=PLANE('',#603);
#57=B_SPLINE_CURVE_WITH_KNOTS('',3,(#779,#780,#781,#782,#783,#784,#785),
 .UNSPECIFIED.,.F.,.F.,(4,1,1,1,4),(0.,0.000823766244995383,0.00164753248999077,
0.00247129873498615,0.00329506497998153),.UNSPECIFIED.);
#58=B_SPLINE_CURVE_WITH_KNOTS('',3,(#794,#795,#796,#797,#798,#799,#800),
 .UNSPECIFIED.,.F.,.F.,(4,1,1,1,4),(-0.00164749319198396,-0.000823736658647502,
1.98746889516679E-8,0.000823776408025405,0.00164753294136186),
 .UNSPECIFIED.);
#59=CIRCLE('',#575,0.00105);
#60=CIRCLE('',#577,0.00105);
#61=CIRCLE('',#582,0.00211800000000005);
#62=CIRCLE('',#584,0.00211800000000005);
#63=CIRCLE('',#586,0.0140368000000003);
#64=CIRCLE('',#588,0.00374600000000008);
#65=CIRCLE('',#590,0.00952500000000019);
#66=CIRCLE('',#591,0.00201930000000003);
#67=CIRCLE('',#592,0.00201930000000003);
#68=CIRCLE('',#593,0.0308770000000005);
#69=CIRCLE('',#595,0.0318770000000005);
#70=CIRCLE('',#596,0.0320040000000005);
#71=CIRCLE('',#598,0.00400000000000007);
#72=CIRCLE('',#599,0.00850900000182338);
#73=CIRCLE('',#601,0.0318770000000005);
#74=CIRCLE('',#602,0.0320040000000005);
#75=CIRCLE('',#604,0.0150368000000003);
#76=CIRCLE('',#605,0.00431800000197446);
#77=CIRCLE('',#606,0.0043180000019745);
#78=CIRCLE('',#607,0.0308770000000005);
#79=CIRCLE('',#609,0.00400000000000007);
#80=CIRCLE('',#612,0.0318770000000005);
#81=CIRCLE('',#614,0.00952500000000019);
#82=CIRCLE('',#616,0.0318770000000005);
#83=CIRCLE('',#618,0.0150368000000003);
#84=CIRCLE('',#620,0.00431800000197444);
#85=CIRCLE('',#623,0.00431800000197453);
#86=CIRCLE('',#626,0.00201930000000003);
#87=CIRCLE('',#629,0.00201930000000003);
#88=ORIENTED_EDGE('',*,*,#166,.F.);
#89=ORIENTED_EDGE('',*,*,#167,.F.);
#90=ORIENTED_EDGE('',*,*,#168,.F.);
#91=ORIENTED_EDGE('',*,*,#169,.F.);
#92=ORIENTED_EDGE('',*,*,#170,.F.);
#93=ORIENTED_EDGE('',*,*,#171,.F.);
#94=ORIENTED_EDGE('',*,*,#172,.F.);
#95=ORIENTED_EDGE('',*,*,#173,.F.);
#96=ORIENTED_EDGE('',*,*,#174,.T.);
#97=ORIENTED_EDGE('',*,*,#171,.T.);
#98=ORIENTED_EDGE('',*,*,#175,.F.);
#99=ORIENTED_EDGE('',*,*,#167,.T.);
#100=ORIENTED_EDGE('',*,*,#175,.T.);
#101=ORIENTED_EDGE('',*,*,#170,.T.);
#102=ORIENTED_EDGE('',*,*,#176,.T.);
#103=ORIENTED_EDGE('',*,*,#168,.T.);
#104=ORIENTED_EDGE('',*,*,#177,.F.);
#105=ORIENTED_EDGE('',*,*,#172,.T.);
#106=ORIENTED_EDGE('',*,*,#174,.F.);
#107=ORIENTED_EDGE('',*,*,#166,.T.);
#108=ORIENTED_EDGE('',*,*,#178,.F.);
#109=ORIENTED_EDGE('',*,*,#179,.F.);
#110=ORIENTED_EDGE('',*,*,#180,.T.);
#111=ORIENTED_EDGE('',*,*,#181,.T.);
#112=ORIENTED_EDGE('',*,*,#182,.F.);
#113=ORIENTED_EDGE('',*,*,#183,.F.);
#114=ORIENTED_EDGE('',*,*,#184,.F.);
#115=ORIENTED_EDGE('',*,*,#185,.T.);
#116=ORIENTED_EDGE('',*,*,#186,.F.);
#117=ORIENTED_EDGE('',*,*,#187,.F.);
#118=ORIENTED_EDGE('',*,*,#188,.F.);
#119=ORIENTED_EDGE('',*,*,#189,.T.);
#120=ORIENTED_EDGE('',*,*,#190,.F.);
#121=ORIENTED_EDGE('',*,*,#191,.T.);
#122=ORIENTED_EDGE('',*,*,#192,.F.);
#123=ORIENTED_EDGE('',*,*,#193,.F.);
#124=ORIENTED_EDGE('',*,*,#194,.F.);
#125=ORIENTED_EDGE('',*,*,#195,.T.);
#126=ORIENTED_EDGE('',*,*,#188,.T.);
#127=ORIENTED_EDGE('',*,*,#169,.T.);
#128=ORIENTED_EDGE('',*,*,#176,.F.);
#129=ORIENTED_EDGE('',*,*,#173,.T.);
#130=ORIENTED_EDGE('',*,*,#177,.T.);
#131=ORIENTED_EDGE('',*,*,#196,.T.);
#132=ORIENTED_EDGE('',*,*,#191,.F.);
#133=ORIENTED_EDGE('',*,*,#187,.T.);
#134=ORIENTED_EDGE('',*,*,#186,.T.);
#135=ORIENTED_EDGE('',*,*,#197,.T.);
#136=ORIENTED_EDGE('',*,*,#182,.T.);
#137=ORIENTED_EDGE('',*,*,#198,.T.);
#138=ORIENTED_EDGE('',*,*,#190,.T.);
#139=ORIENTED_EDGE('',*,*,#199,.T.);
#140=ORIENTED_EDGE('',*,*,#192,.T.);
#141=ORIENTED_EDGE('',*,*,#200,.T.);
#142=ORIENTED_EDGE('',*,*,#201,.F.);
#143=ORIENTED_EDGE('',*,*,#179,.T.);
#144=ORIENTED_EDGE('',*,*,#193,.T.);
#145=ORIENTED_EDGE('',*,*,#201,.T.);
#146=ORIENTED_EDGE('',*,*,#202,.F.);
#147=ORIENTED_EDGE('',*,*,#178,.T.);
#148=ORIENTED_EDGE('',*,*,#194,.T.);
#149=ORIENTED_EDGE('',*,*,#202,.T.);
#150=ORIENTED_EDGE('',*,*,#203,.T.);
#151=ORIENTED_EDGE('',*,*,#183,.T.);
#152=ORIENTED_EDGE('',*,*,#203,.F.);
#153=ORIENTED_EDGE('',*,*,#204,.T.);
#154=ORIENTED_EDGE('',*,*,#184,.T.);
#155=ORIENTED_EDGE('',*,*,#204,.F.);
#156=ORIENTED_EDGE('',*,*,#198,.F.);
#157=ORIENTED_EDGE('',*,*,#189,.F.);
#158=ORIENTED_EDGE('',*,*,#181,.F.);
#159=ORIENTED_EDGE('',*,*,#196,.F.);
#160=ORIENTED_EDGE('',*,*,#195,.F.);
#161=ORIENTED_EDGE('',*,*,#199,.F.);
#162=ORIENTED_EDGE('',*,*,#185,.F.);
#163=ORIENTED_EDGE('',*,*,#197,.F.);
#164=ORIENTED_EDGE('',*,*,#180,.F.);
#165=ORIENTED_EDGE('',*,*,#200,.F.);
#166=EDGE_CURVE('',#205,#206,#242,.T.);
#167=EDGE_CURVE('',#207,#205,#59,.T.);
#168=EDGE_CURVE('',#208,#207,#243,.T.);
#169=EDGE_CURVE('',#206,#208,#57,.T.);
#170=EDGE_CURVE('',#209,#210,#244,.T.);
#171=EDGE_CURVE('',#211,#209,#60,.T.);
#172=EDGE_CURVE('',#212,#211,#245,.T.);
#173=EDGE_CURVE('',#210,#212,#58,.T.);
#174=EDGE_CURVE('',#205,#211,#246,.T.);
#175=EDGE_CURVE('',#207,#209,#247,.T.);
#176=EDGE_CURVE('',#210,#208,#248,.T.);
#177=EDGE_CURVE('',#212,#206,#249,.T.);
#178=EDGE_CURVE('',#213,#213,#61,.T.);
#179=EDGE_CURVE('',#214,#214,#62,.T.);
#180=EDGE_CURVE('',#215,#215,#63,.T.);
#181=EDGE_CURVE('',#216,#216,#64,.T.);
#182=EDGE_CURVE('',#217,#217,#65,.T.);
#183=EDGE_CURVE('',#218,#218,#66,.T.);
#184=EDGE_CURVE('',#219,#219,#67,.T.);
#185=EDGE_CURVE('',#220,#220,#68,.T.);
#186=EDGE_CURVE('',#221,#221,#69,.T.);
#187=EDGE_CURVE('',#222,#222,#70,.T.);
#188=EDGE_CURVE('',#223,#223,#71,.T.);
#189=EDGE_CURVE('',#224,#224,#72,.T.);
#190=EDGE_CURVE('',#225,#225,#73,.T.);
#191=EDGE_CURVE('',#226,#226,#74,.T.);
#192=EDGE_CURVE('',#227,#227,#75,.T.);
#193=EDGE_CURVE('',#228,#228,#76,.T.);
#194=EDGE_CURVE('',#229,#229,#77,.T.);
#195=EDGE_CURVE('',#230,#230,#78,.T.);
#196=EDGE_CURVE('',#231,#231,#79,.T.);
#197=EDGE_CURVE('',#232,#232,#80,.T.);
#198=EDGE_CURVE('',#233,#233,#81,.T.);
#199=EDGE_CURVE('',#234,#234,#82,.T.);
#200=EDGE_CURVE('',#235,#235,#83,.T.);
#201=EDGE_CURVE('',#236,#236,#84,.T.);
#202=EDGE_CURVE('',#237,#237,#85,.T.);
#203=EDGE_CURVE('',#238,#238,#86,.T.);
#204=EDGE_CURVE('',#240,#240,#87,.T.);
#205=VERTEX_POINT('',#773);
#206=VERTEX_POINT('',#774);
#207=VERTEX_POINT('',#776);
#208=VERTEX_POINT('',#778);
#209=VERTEX_POINT('',#788);
#210=VERTEX_POINT('',#789);
#211=VERTEX_POINT('',#791);
#212=VERTEX_POINT('',#793);
#213=VERTEX_POINT('',#810);
#214=VERTEX_POINT('',#813);
#215=VERTEX_POINT('',#816);
#216=VERTEX_POINT('',#819);
#217=VERTEX_POINT('',#822);
#218=VERTEX_POINT('',#824);
#219=VERTEX_POINT('',#826);
#220=VERTEX_POINT('',#828);
#221=VERTEX_POINT('',#831);
#222=VERTEX_POINT('',#833);
#223=VERTEX_POINT('',#836);
#224=VERTEX_POINT('',#838);
#225=VERTEX_POINT('',#841);
#226=VERTEX_POINT('',#843);
#227=VERTEX_POINT('',#846);
#228=VERTEX_POINT('',#848);
#229=VERTEX_POINT('',#850);
#230=VERTEX_POINT('',#852);
#231=VERTEX_POINT('',#855);
#232=VERTEX_POINT('',#859);
#233=VERTEX_POINT('',#862);
#234=VERTEX_POINT('',#865);
#235=VERTEX_POINT('',#868);
#236=VERTEX_POINT('',#871);
#237=VERTEX_POINT('',#875);
#238=VERTEX_POINT('',#879);
#239=VERTEX_POINT('',#880);
#240=VERTEX_POINT('',#884);
#241=VERTEX_POINT('',#885);
#242=LINE('',#772,#250);
#243=LINE('',#777,#251);
#244=LINE('',#787,#252);
#245=LINE('',#792,#253);
#246=LINE('',#802,#254);
#247=LINE('',#803,#255);
#248=LINE('',#805,#256);
#249=LINE('',#807,#257);
#250=VECTOR('',#640,1.);
#251=VECTOR('',#643,1.);
#252=VECTOR('',#646,1.);
#253=VECTOR('',#649,1.);
#254=VECTOR('',#652,1.);
#255=VECTOR('',#653,1.);
#256=VECTOR('',#656,1.);
#257=VECTOR('',#659,1.);
#258=EDGE_LOOP('',(#88,#89,#90,#91));
#259=EDGE_LOOP('',(#92,#93,#94,#95));
#260=EDGE_LOOP('',(#96,#97,#98,#99));
#261=EDGE_LOOP('',(#100,#101,#102,#103));
#262=EDGE_LOOP('',(#104,#105,#106,#107));
#263=EDGE_LOOP('',(#108));
#264=EDGE_LOOP('',(#109));
#265=EDGE_LOOP('',(#110));
#266=EDGE_LOOP('',(#111));
#267=EDGE_LOOP('',(#112));
#268=EDGE_LOOP('',(#113));
#269=EDGE_LOOP('',(#114));
#270=EDGE_LOOP('',(#115));
#271=EDGE_LOOP('',(#116));
#272=EDGE_LOOP('',(#117));
#273=EDGE_LOOP('',(#118));
#274=EDGE_LOOP('',(#119));
#275=EDGE_LOOP('',(#120));
#276=EDGE_LOOP('',(#121));
#277=EDGE_LOOP('',(#122));
#278=EDGE_LOOP('',(#123));
#279=EDGE_LOOP('',(#124));
#280=EDGE_LOOP('',(#125));
#281=EDGE_LOOP('',(#126));
#282=EDGE_LOOP('',(#127,#128,#129,#130));
#283=EDGE_LOOP('',(#131));
#284=EDGE_LOOP('',(#132));
#285=EDGE_LOOP('',(#133));
#286=EDGE_LOOP('',(#134));
#287=EDGE_LOOP('',(#135));
#288=EDGE_LOOP('',(#136));
#289=EDGE_LOOP('',(#137));
#290=EDGE_LOOP('',(#138));
#291=EDGE_LOOP('',(#139));
#292=EDGE_LOOP('',(#140));
#293=EDGE_LOOP('',(#141));
#294=EDGE_LOOP('',(#142));
#295=EDGE_LOOP('',(#143));
#296=EDGE_LOOP('',(#144));
#297=EDGE_LOOP('',(#145));
#298=EDGE_LOOP('',(#146));
#299=EDGE_LOOP('',(#147));
#300=EDGE_LOOP('',(#148));
#301=EDGE_LOOP('',(#149));
#302=EDGE_LOOP('',(#150));
#303=EDGE_LOOP('',(#151));
#304=EDGE_LOOP('',(#152));
#305=EDGE_LOOP('',(#153));
#306=EDGE_LOOP('',(#154));
#307=EDGE_LOOP('',(#155));
#308=EDGE_LOOP('',(#156));
#309=EDGE_LOOP('',(#157));
#310=EDGE_LOOP('',(#158));
#311=EDGE_LOOP('',(#159));
#312=EDGE_LOOP('',(#160));
#313=EDGE_LOOP('',(#161));
#314=EDGE_LOOP('',(#162));
#315=EDGE_LOOP('',(#163));
#316=EDGE_LOOP('',(#164));
#317=EDGE_LOOP('',(#165));
#318=FACE_BOUND('',#258,.T.);
#319=FACE_BOUND('',#259,.T.);
#320=FACE_BOUND('',#260,.T.);
#321=FACE_BOUND('',#261,.T.);
#322=FACE_BOUND('',#262,.T.);
#323=FACE_BOUND('',#263,.T.);
#324=FACE_BOUND('',#264,.T.);
#325=FACE_BOUND('',#265,.T.);
#326=FACE_BOUND('',#266,.T.);
#327=FACE_BOUND('',#267,.T.);
#328=FACE_BOUND('',#268,.T.);
#329=FACE_BOUND('',#269,.T.);
#330=FACE_BOUND('',#270,.T.);
#331=FACE_BOUND('',#271,.T.);
#332=FACE_BOUND('',#272,.T.);
#333=FACE_BOUND('',#273,.T.);
#334=FACE_BOUND('',#274,.T.);
#335=FACE_BOUND('',#275,.T.);
#336=FACE_BOUND('',#276,.T.);
#337=FACE_BOUND('',#277,.T.);
#338=FACE_BOUND('',#278,.T.);
#339=FACE_BOUND('',#279,.T.);
#340=FACE_BOUND('',#280,.T.);
#341=FACE_BOUND('',#281,.T.);
#342=FACE_BOUND('',#282,.T.);
#343=FACE_BOUND('',#283,.T.);
#344=FACE_BOUND('',#284,.T.);
#345=FACE_BOUND('',#285,.T.);
#346=FACE_BOUND('',#286,.T.);
#347=FACE_BOUND('',#287,.T.);
#348=FACE_BOUND('',#288,.T.);
#349=FACE_BOUND('',#289,.T.);
#350=FACE_BOUND('',#290,.T.);
#351=FACE_BOUND('',#291,.T.);
#352=FACE_BOUND('',#292,.T.);
#353=FACE_BOUND('',#293,.T.);
#354=FACE_BOUND('',#294,.T.);
#355=FACE_BOUND('',#295,.T.);
#356=FACE_BOUND('',#296,.T.);
#357=FACE_BOUND('',#297,.T.);
#358=FACE_BOUND('',#298,.T.);
#359=FACE_BOUND('',#299,.T.);
#360=FACE_BOUND('',#300,.T.);
#361=FACE_BOUND('',#301,.T.);
#362=FACE_BOUND('',#302,.T.);
#363=FACE_BOUND('',#16,.T.);
#364=FACE_BOUND('',#303,.T.);
#365=FACE_BOUND('',#304,.T.);
#366=FACE_BOUND('',#305,.T.);
#367=FACE_BOUND('',#17,.T.);
#368=FACE_BOUND('',#306,.T.);
#369=FACE_BOUND('',#307,.T.);
#370=FACE_BOUND('',#308,.T.);
#371=FACE_BOUND('',#309,.T.);
#372=FACE_BOUND('',#310,.T.);
#373=FACE_BOUND('',#311,.T.);
#374=FACE_BOUND('',#312,.T.);
#375=FACE_BOUND('',#313,.T.);
#376=FACE_BOUND('',#314,.T.);
#377=FACE_BOUND('',#315,.T.);
#378=FACE_BOUND('',#316,.T.);
#379=FACE_BOUND('',#317,.T.);
#380=CYLINDRICAL_SURFACE('',#574,0.00105);
#381=CYLINDRICAL_SURFACE('',#576,0.00105);
#382=CYLINDRICAL_SURFACE('',#608,0.00400000000000007);
#383=CYLINDRICAL_SURFACE('',#610,0.0320040000000005);
#384=CYLINDRICAL_SURFACE('',#611,0.0318770000000005);
#385=CYLINDRICAL_SURFACE('',#613,0.00952500000000019);
#386=CYLINDRICAL_SURFACE('',#615,0.0318770000000005);
#387=CYLINDRICAL_SURFACE('',#617,0.0150368000000003);
#388=CYLINDRICAL_SURFACE('',#621,0.00431800000197446);
#389=CYLINDRICAL_SURFACE('',#624,0.0043180000019745);
#390=CYLINDRICAL_SURFACE('',#627,0.00201930000000003);
#391=CYLINDRICAL_SURFACE('',#630,0.00201930000000003);
#392=ADVANCED_FACE('',(#318),#380,.F.);
#393=ADVANCED_FACE('',(#319),#381,.F.);
#394=ADVANCED_FACE('',(#320),#45,.T.);
#395=ADVANCED_FACE('',(#321),#46,.T.);
#396=ADVANCED_FACE('',(#322),#47,.F.);
#397=ADVANCED_FACE('',(#323),#48,.T.);
#398=ADVANCED_FACE('',(#324),#49,.T.);
#399=ADVANCED_FACE('',(#325),#50,.T.);
#400=ADVANCED_FACE('',(#326),#51,.T.);
#401=ADVANCED_FACE('',(#327,#328,#329,#330),#52,.T.);
#402=ADVANCED_FACE('',(#331,#332),#53,.T.);
#403=ADVANCED_FACE('',(#333,#334),#54,.T.);
#404=ADVANCED_FACE('',(#335,#336),#55,.T.);
#405=ADVANCED_FACE('',(#337,#338,#339,#340),#56,.T.);
#406=ADVANCED_FACE('',(#341,#342,#343),#382,.T.);
#407=ADVANCED_FACE('',(#344,#345),#383,.T.);
#408=ADVANCED_FACE('',(#346,#347),#384,.T.);
#409=ADVANCED_FACE('',(#348,#349),#385,.T.);
#410=ADVANCED_FACE('',(#350,#351),#386,.T.);
#411=ADVANCED_FACE('',(#352,#353),#387,.T.);
#412=ADVANCED_FACE('',(#354,#355),#18,.T.);
#413=ADVANCED_FACE('',(#356,#357),#388,.T.);
#414=ADVANCED_FACE('',(#358,#359),#19,.T.);
#415=ADVANCED_FACE('',(#360,#361),#389,.T.);
#416=ADVANCED_FACE('',(#362,#363),#20,.F.);
#417=ADVANCED_FACE('',(#364,#365),#390,.F.);
#418=ADVANCED_FACE('',(#366,#367),#21,.F.);
#419=ADVANCED_FACE('',(#368,#369),#391,.F.);
#420=ADVANCED_FACE('',(#370,#371),#22,.T.);
#421=ADVANCED_FACE('',(#372,#373),#12,.T.);
#422=ADVANCED_FACE('',(#374,#375),#13,.T.);
#423=ADVANCED_FACE('',(#376,#377),#14,.T.);
#424=ADVANCED_FACE('',(#378,#379),#15,.T.);
#425=CLOSED_SHELL('',(#392,#393,#394,#395,#396,#397,#398,#399,#400,#401,
#402,#403,#404,#405,#406,#407,#408,#409,#410,#411,#412,#413,#414,#415,#416,
#417,#418,#419,#420,#421,#422,#423,#424));
#426=STYLED_ITEM('',(#427),#570);
#427=PRESENTATION_STYLE_ASSIGNMENT((#450));
#428=PRESENTATION_STYLE_ASSIGNMENT((#451));
#429=PRESENTATION_STYLE_ASSIGNMENT((#452));
#430=PRESENTATION_STYLE_ASSIGNMENT((#453));
#431=PRESENTATION_STYLE_ASSIGNMENT((#454));
#432=PRESENTATION_STYLE_ASSIGNMENT((#455));
#433=PRESENTATION_STYLE_ASSIGNMENT((#456));
#434=PRESENTATION_STYLE_ASSIGNMENT((#457));
#435=PRESENTATION_STYLE_ASSIGNMENT((#458));
#436=PRESENTATION_STYLE_ASSIGNMENT((#459));
#437=PRESENTATION_STYLE_ASSIGNMENT((#460));
#438=PRESENTATION_STYLE_ASSIGNMENT((#461));
#439=PRESENTATION_STYLE_ASSIGNMENT((#462));
#440=PRESENTATION_STYLE_ASSIGNMENT((#463));
#441=PRESENTATION_STYLE_ASSIGNMENT((#464));
#442=PRESENTATION_STYLE_ASSIGNMENT((#465));
#443=PRESENTATION_STYLE_ASSIGNMENT((#466));
#444=PRESENTATION_STYLE_ASSIGNMENT((#467));
#445=PRESENTATION_STYLE_ASSIGNMENT((#468));
#446=PRESENTATION_STYLE_ASSIGNMENT((#469));
#447=PRESENTATION_STYLE_ASSIGNMENT((#470));
#448=PRESENTATION_STYLE_ASSIGNMENT((#471));
#449=PRESENTATION_STYLE_ASSIGNMENT((#472));
#450=SURFACE_STYLE_USAGE(.BOTH.,#473);
#451=SURFACE_STYLE_USAGE(.BOTH.,#474);
#452=SURFACE_STYLE_USAGE(.BOTH.,#475);
#453=SURFACE_STYLE_USAGE(.BOTH.,#476);
#454=SURFACE_STYLE_USAGE(.BOTH.,#477);
#455=SURFACE_STYLE_USAGE(.BOTH.,#478);
#456=SURFACE_STYLE_USAGE(.BOTH.,#479);
#457=SURFACE_STYLE_USAGE(.BOTH.,#480);
#458=SURFACE_STYLE_USAGE(.BOTH.,#481);
#459=SURFACE_STYLE_USAGE(.BOTH.,#482);
#460=SURFACE_STYLE_USAGE(.BOTH.,#483);
#461=SURFACE_STYLE_USAGE(.BOTH.,#484);
#462=SURFACE_STYLE_USAGE(.BOTH.,#485);
#463=SURFACE_STYLE_USAGE(.BOTH.,#486);
#464=SURFACE_STYLE_USAGE(.BOTH.,#487);
#465=SURFACE_STYLE_USAGE(.BOTH.,#488);
#466=SURFACE_STYLE_USAGE(.BOTH.,#489);
#467=SURFACE_STYLE_USAGE(.BOTH.,#490);
#468=SURFACE_STYLE_USAGE(.BOTH.,#491);
#469=SURFACE_STYLE_USAGE(.BOTH.,#492);
#470=SURFACE_STYLE_USAGE(.BOTH.,#493);
#471=SURFACE_STYLE_USAGE(.BOTH.,#494);
#472=SURFACE_STYLE_USAGE(.BOTH.,#495);
#473=SURFACE_SIDE_STYLE('',(#496));
#474=SURFACE_SIDE_STYLE('',(#497));
#475=SURFACE_SIDE_STYLE('',(#498));
#476=SURFACE_SIDE_STYLE('',(#499));
#477=SURFACE_SIDE_STYLE('',(#500));
#478=SURFACE_SIDE_STYLE('',(#501));
#479=SURFACE_SIDE_STYLE('',(#502));
#480=SURFACE_SIDE_STYLE('',(#503));
#481=SURFACE_SIDE_STYLE('',(#504));
#482=SURFACE_SIDE_STYLE('',(#505));
#483=SURFACE_SIDE_STYLE('',(#506));
#484=SURFACE_SIDE_STYLE('',(#507));
#485=SURFACE_SIDE_STYLE('',(#508));
#486=SURFACE_SIDE_STYLE('',(#509));
#487=SURFACE_SIDE_STYLE('',(#510));
#488=SURFACE_SIDE_STYLE('',(#511));
#489=SURFACE_SIDE_STYLE('',(#512));
#490=SURFACE_SIDE_STYLE('',(#513));
#491=SURFACE_SIDE_STYLE('',(#514));
#492=SURFACE_SIDE_STYLE('',(#515));
#493=SURFACE_SIDE_STYLE('',(#516));
#494=SURFACE_SIDE_STYLE('',(#517));
#495=SURFACE_SIDE_STYLE('',(#518));
#496=SURFACE_STYLE_FILL_AREA(#519);
#497=SURFACE_STYLE_FILL_AREA(#520);
#498=SURFACE_STYLE_FILL_AREA(#521);
#499=SURFACE_STYLE_FILL_AREA(#522);
#500=SURFACE_STYLE_FILL_AREA(#523);
#501=SURFACE_STYLE_FILL_AREA(#524);
#502=SURFACE_STYLE_FILL_AREA(#525);
#503=SURFACE_STYLE_FILL_AREA(#526);
#504=SURFACE_STYLE_FILL_AREA(#527);
#505=SURFACE_STYLE_FILL_AREA(#528);
#506=SURFACE_STYLE_FILL_AREA(#529);
#507=SURFACE_STYLE_FILL_AREA(#530);
#508=SURFACE_STYLE_FILL_AREA(#531);
#509=SURFACE_STYLE_FILL_AREA(#532);
#510=SURFACE_STYLE_FILL_AREA(#533);
#511=SURFACE_STYLE_FILL_AREA(#534);
#512=SURFACE_STYLE_FILL_AREA(#535);
#513=SURFACE_STYLE_FILL_AREA(#536);
#514=SURFACE_STYLE_FILL_AREA(#537);
#515=SURFACE_STYLE_FILL_AREA(#538);
#516=SURFACE_STYLE_FILL_AREA(#539);
#517=SURFACE_STYLE_FILL_AREA(#540);
#518=SURFACE_STYLE_FILL_AREA(#541);
#519=FILL_AREA_STYLE('',(#542));
#520=FILL_AREA_STYLE('',(#543));
#521=FILL_AREA_STYLE('',(#544));
#522=FILL_AREA_STYLE('',(#545));
#523=FILL_AREA_STYLE('',(#546));
#524=FILL_AREA_STYLE('',(#547));
#525=FILL_AREA_STYLE('',(#548));
#526=FILL_AREA_STYLE('',(#549));
#527=FILL_AREA_STYLE('',(#550));
#528=FILL_AREA_STYLE('',(#551));
#529=FILL_AREA_STYLE('',(#552));
#530=FILL_AREA_STYLE('',(#553));
#531=FILL_AREA_STYLE('',(#554));
#532=FILL_AREA_STYLE('',(#555));
#533=FILL_AREA_STYLE('',(#556));
#534=FILL_AREA_STYLE('',(#557));
#535=FILL_AREA_STYLE('',(#558));
#536=FILL_AREA_STYLE('',(#559));
#537=FILL_AREA_STYLE('',(#560));
#538=FILL_AREA_STYLE('',(#561));
#539=FILL_AREA_STYLE('',(#562));
#540=FILL_AREA_STYLE('',(#563));
#541=FILL_AREA_STYLE('',(#564));
#542=FILL_AREA_STYLE_COLOUR('',#565);
#543=FILL_AREA_STYLE_COLOUR('',#566);
#544=FILL_AREA_STYLE_COLOUR('',#566);
#545=FILL_AREA_STYLE_COLOUR('',#567);
#546=FILL_AREA_STYLE_COLOUR('',#568);
#547=FILL_AREA_STYLE_COLOUR('',#567);
#548=FILL_AREA_STYLE_COLOUR('',#567);
#549=FILL_AREA_STYLE_COLOUR('',#567);
#550=FILL_AREA_STYLE_COLOUR('',#568);
#551=FILL_AREA_STYLE_COLOUR('',#569);
#552=FILL_AREA_STYLE_COLOUR('',#567);
#553=FILL_AREA_STYLE_COLOUR('',#567);
#554=FILL_AREA_STYLE_COLOUR('',#567);
#555=FILL_AREA_STYLE_COLOUR('',#567);
#556=FILL_AREA_STYLE_COLOUR('',#566);
#557=FILL_AREA_STYLE_COLOUR('',#566);
#558=FILL_AREA_STYLE_COLOUR('',#567);
#559=FILL_AREA_STYLE_COLOUR('',#567);
#560=FILL_AREA_STYLE_COLOUR('',#567);
#561=FILL_AREA_STYLE_COLOUR('',#568);
#562=FILL_AREA_STYLE_COLOUR('',#567);
#563=FILL_AREA_STYLE_COLOUR('',#567);
#564=FILL_AREA_STYLE_COLOUR('',#567);
#565=COLOUR_RGB('',0.698039215686275,0.698039215686275,0.698039215686275);
#566=COLOUR_RGB('',0.0980392156862745,0.0980392156862745,0.0980392156862745);
#567=COLOUR_RGB('',0.898039215686275,0.917647058823529,0.929411764705882);
#568=COLOUR_RGB('',0.647058823529412,0.619607843137255,0.588235294117647);
#569=COLOUR_RGB('',0.192156862745098,0.203921568627451,0.203921568627451);
#570=MANIFOLD_SOLID_BREP('CIM Motor',#425);
#571=SHAPE_DEFINITION_REPRESENTATION(#898,#572);
#572=SHAPE_REPRESENTATION('CIM Motor',(#573),#893);
#573=AXIS2_PLACEMENT_3D('',#770,#636,#637);
#574=AXIS2_PLACEMENT_3D('',#771,#638,#639);
#575=AXIS2_PLACEMENT_3D('',#775,#641,#642);
#576=AXIS2_PLACEMENT_3D('',#786,#644,#645);
#577=AXIS2_PLACEMENT_3D('',#790,#647,#648);
#578=AXIS2_PLACEMENT_3D('',#801,#650,#651);
#579=AXIS2_PLACEMENT_3D('',#804,#654,#655);
#580=AXIS2_PLACEMENT_3D('',#806,#657,#658);
#581=AXIS2_PLACEMENT_3D('',#808,#660,#661);
#582=AXIS2_PLACEMENT_3D('',#809,#662,#663);
#583=AXIS2_PLACEMENT_3D('',#811,#664,#665);
#584=AXIS2_PLACEMENT_3D('',#812,#666,#667);
#585=AXIS2_PLACEMENT_3D('',#814,#668,#669);
#586=AXIS2_PLACEMENT_3D('',#815,#670,#671);
#587=AXIS2_PLACEMENT_3D('',#817,#672,#673);
#588=AXIS2_PLACEMENT_3D('',#818,#674,#675);
#589=AXIS2_PLACEMENT_3D('',#820,#676,#677);
#590=AXIS2_PLACEMENT_3D('',#821,#678,#679);
#591=AXIS2_PLACEMENT_3D('',#823,#680,#681);
#592=AXIS2_PLACEMENT_3D('',#825,#682,#683);
#593=AXIS2_PLACEMENT_3D('',#827,#684,#685);
#594=AXIS2_PLACEMENT_3D('',#829,#686,#687);
#595=AXIS2_PLACEMENT_3D('',#830,#688,#689);
#596=AXIS2_PLACEMENT_3D('',#832,#690,#691);
#597=AXIS2_PLACEMENT_3D('',#834,#692,#693);
#598=AXIS2_PLACEMENT_3D('',#835,#694,#695);
#599=AXIS2_PLACEMENT_3D('',#837,#696,#697);
#600=AXIS2_PLACEMENT_3D('',#839,#698,#699);
#601=AXIS2_PLACEMENT_3D('',#840,#700,#701);
#602=AXIS2_PLACEMENT_3D('',#842,#702,#703);
#603=AXIS2_PLACEMENT_3D('',#844,#704,#705);
#604=AXIS2_PLACEMENT_3D('',#845,#706,#707);
#605=AXIS2_PLACEMENT_3D('',#847,#708,#709);
#606=AXIS2_PLACEMENT_3D('',#849,#710,#711);
#607=AXIS2_PLACEMENT_3D('',#851,#712,#713);
#608=AXIS2_PLACEMENT_3D('',#853,#714,#715);
#609=AXIS2_PLACEMENT_3D('',#854,#716,#717);
#610=AXIS2_PLACEMENT_3D('',#856,#718,#719);
#611=AXIS2_PLACEMENT_3D('',#857,#720,#721);
#612=AXIS2_PLACEMENT_3D('',#858,#722,#723);
#613=AXIS2_PLACEMENT_3D('',#860,#724,#725);
#614=AXIS2_PLACEMENT_3D('',#861,#726,#727);
#615=AXIS2_PLACEMENT_3D('',#863,#728,#729);
#616=AXIS2_PLACEMENT_3D('',#864,#730,#731);
#617=AXIS2_PLACEMENT_3D('',#866,#732,#733);
#618=AXIS2_PLACEMENT_3D('',#867,#734,#735);
#619=AXIS2_PLACEMENT_3D('',#869,#736,#737);
#620=AXIS2_PLACEMENT_3D('',#870,#738,#739);
#621=AXIS2_PLACEMENT_3D('',#872,#740,#741);
#622=AXIS2_PLACEMENT_3D('',#873,#742,#743);
#623=AXIS2_PLACEMENT_3D('',#874,#744,#745);
#624=AXIS2_PLACEMENT_3D('',#876,#746,#747);
#625=AXIS2_PLACEMENT_3D('',#877,#748,#749);
#626=AXIS2_PLACEMENT_3D('',#878,#750,#751);
#627=AXIS2_PLACEMENT_3D('',#881,#752,#753);
#628=AXIS2_PLACEMENT_3D('',#882,#754,#755);
#629=AXIS2_PLACEMENT_3D('',#883,#756,#757);
#630=AXIS2_PLACEMENT_3D('',#886,#758,#759);
#631=AXIS2_PLACEMENT_3D('',#887,#760,#761);
#632=AXIS2_PLACEMENT_3D('',#888,#762,#763);
#633=AXIS2_PLACEMENT_3D('',#889,#764,#765);
#634=AXIS2_PLACEMENT_3D('',#890,#766,#767);
#635=AXIS2_PLACEMENT_3D('',#891,#768,#769);
#636=DIRECTION('',(0.,0.,1.));
#637=DIRECTION('',(1.,0.,0.));
#638=DIRECTION('',(-1.,0.,0.));
#639=DIRECTION('',(0.,0.,1.));
#640=DIRECTION('',(1.,0.,0.));
#641=DIRECTION('',(1.,0.,0.));
#642=DIRECTION('',(0.,0.,-1.));
#643=DIRECTION('',(-1.,0.,0.));
#644=DIRECTION('',(1.,0.,0.));
#645=DIRECTION('',(0.,0.,-1.));
#646=DIRECTION('',(1.,0.,0.));
#647=DIRECTION('',(1.,0.,0.));
#648=DIRECTION('',(0.,0.,-1.));
#649=DIRECTION('',(-1.,0.,0.));
#650=DIRECTION('',(1.,0.,0.));
#651=DIRECTION('',(0.,0.,-1.));
#652=DIRECTION('',(0.,0.,1.));
#653=DIRECTION('',(0.,0.,1.));
#654=DIRECTION('',(0.,1.,0.));
#655=DIRECTION('',(0.,0.,1.));
#656=DIRECTION('',(0.,0.,-1.));
#657=DIRECTION('',(0.,1.,0.));
#658=DIRECTION('',(0.,0.,1.));
#659=DIRECTION('',(0.,0.,-1.));
#660=DIRECTION('',(0.,0.,-1.));
#661=DIRECTION('',(-1.,0.,0.));
#662=DIRECTION('',(0.,0.,1.));
#663=DIRECTION('',(1.,0.,0.));
#664=DIRECTION('',(0.,0.,-1.));
#665=DIRECTION('',(-1.,0.,0.));
#666=DIRECTION('',(0.,0.,1.));
#667=DIRECTION('',(1.,0.,0.));
#668=DIRECTION('',(0.,0.,-1.));
#669=DIRECTION('',(-1.,0.,0.));
#670=DIRECTION('',(0.,0.,-1.));
#671=DIRECTION('',(-1.,0.,0.));
#672=DIRECTION('',(0.,0.,1.));
#673=DIRECTION('',(1.,0.,0.));
#674=DIRECTION('',(0.,0.,1.));
#675=DIRECTION('',(1.,0.,0.));
#676=DIRECTION('',(0.,0.,1.));
#677=DIRECTION('',(1.,0.,0.));
#678=DIRECTION('',(0.,0.,1.));
#679=DIRECTION('',(1.,0.,0.));
#680=DIRECTION('',(0.,0.,1.));
#681=DIRECTION('',(1.,0.,0.));
#682=DIRECTION('',(0.,0.,1.));
#683=DIRECTION('',(1.,0.,0.));
#684=DIRECTION('',(0.,0.,1.));
#685=DIRECTION('',(1.,0.,0.));
#686=DIRECTION('',(0.,0.,1.));
#687=DIRECTION('',(1.,0.,0.));
#688=DIRECTION('',(0.,0.,1.));
#689=DIRECTION('',(1.,0.,0.));
#690=DIRECTION('',(0.,0.,-1.));
#691=DIRECTION('',(-1.,0.,0.));
#692=DIRECTION('',(0.,0.,1.));
#693=DIRECTION('',(1.,0.,0.));
#694=DIRECTION('',(0.,0.,1.));
#695=DIRECTION('',(1.,0.,0.));
#696=DIRECTION('',(0.,0.,1.));
#697=DIRECTION('',(1.,0.,0.));
#698=DIRECTION('',(0.,0.,-1.));
#699=DIRECTION('',(-1.,0.,0.));
#700=DIRECTION('',(0.,0.,-1.));
#701=DIRECTION('',(-1.,0.,0.));
#702=DIRECTION('',(0.,0.,-1.));
#703=DIRECTION('',(-1.,0.,0.));
#704=DIRECTION('',(0.,0.,-1.));
#705=DIRECTION('',(-1.,0.,0.));
#706=DIRECTION('',(0.,0.,-1.));
#707=DIRECTION('',(-1.,0.,0.));
#708=DIRECTION('',(0.,0.,-1.));
#709=DIRECTION('',(-1.,0.,0.));
#710=DIRECTION('',(0.,0.,-1.));
#711=DIRECTION('',(-1.,0.,0.));
#712=DIRECTION('',(0.,0.,-1.));
#713=DIRECTION('',(-1.,0.,0.));
#714=DIRECTION('',(0.,0.,-1.));
#715=DIRECTION('',(-1.,0.,0.));
#716=DIRECTION('',(0.,0.,-1.));
#717=DIRECTION('',(1.,0.,0.));
#718=DIRECTION('',(0.,0.,-1.));
#719=DIRECTION('',(-1.,0.,0.));
#720=DIRECTION('',(0.,0.,-1.));
#721=DIRECTION('',(-1.,0.,0.));
#722=DIRECTION('',(0.,0.,-1.));
#723=DIRECTION('',(1.,0.,0.));
#724=DIRECTION('',(0.,0.,-1.));
#725=DIRECTION('',(-1.,0.,0.));
#726=DIRECTION('',(0.,0.,-1.));
#727=DIRECTION('',(1.,0.,0.));
#728=DIRECTION('',(0.,0.,-1.));
#729=DIRECTION('',(-1.,0.,0.));
#730=DIRECTION('',(0.,0.,1.));
#731=DIRECTION('',(-1.,0.,0.));
#732=DIRECTION('',(0.,0.,1.));
#733=DIRECTION('',(1.,0.,0.));
#734=DIRECTION('',(0.,0.,1.));
#735=DIRECTION('',(-1.,0.,0.));
#736=DIRECTION('',(0.,0.,1.));
#737=DIRECTION('',(1.,0.,0.));
#738=DIRECTION('',(0.,0.,1.));
#739=DIRECTION('',(1.,0.,0.));
#740=DIRECTION('',(0.,0.,1.));
#741=DIRECTION('',(1.,0.,0.));
#742=DIRECTION('',(0.,0.,1.));
#743=DIRECTION('',(1.,0.,0.));
#744=DIRECTION('',(0.,0.,1.));
#745=DIRECTION('',(1.,0.,0.));
#746=DIRECTION('',(0.,0.,1.));
#747=DIRECTION('',(1.,0.,0.));
#748=DIRECTION('',(0.,0.,1.));
#749=DIRECTION('',(1.,0.,0.));
#750=DIRECTION('',(0.,0.,1.));
#751=DIRECTION('',(1.,0.,0.));
#752=DIRECTION('',(0.,0.,1.));
#753=DIRECTION('',(1.,0.,0.));
#754=DIRECTION('',(0.,0.,1.));
#755=DIRECTION('',(1.,0.,0.));
#756=DIRECTION('',(0.,0.,1.));
#757=DIRECTION('',(1.,0.,0.));
#758=DIRECTION('',(0.,0.,1.));
#759=DIRECTION('',(1.,0.,0.));
#760=DIRECTION('',(0.,0.,-1.));
#761=DIRECTION('',(-1.,0.,0.));
#762=DIRECTION('',(0.,0.,1.));
#763=DIRECTION('',(1.,0.,0.));
#764=DIRECTION('',(0.,0.,-1.));
#765=DIRECTION('',(-1.,0.,0.));
#766=DIRECTION('',(0.,0.,1.));
#767=DIRECTION('',(1.,0.,0.));
#768=DIRECTION('',(0.,0.,-1.));
#769=DIRECTION('',(-1.,0.,0.));
#770=CARTESIAN_POINT('',(0.,0.,0.));
#771=CARTESIAN_POINT('',(0.03836,0.1092962,0.0271));
#772=CARTESIAN_POINT('',(0.03836,0.1103462,0.0271));
#773=CARTESIAN_POINT('',(0.03836,0.1103462,0.0271));
#774=CARTESIAN_POINT('',(0.0394197279696892,0.1103462,0.0271));
#775=CARTESIAN_POINT('',(0.03836,0.1092962,0.0271));
#776=CARTESIAN_POINT('',(0.03836,0.1082462,0.0271));
#777=CARTESIAN_POINT('',(0.03836,0.1082462,0.0271));
#778=CARTESIAN_POINT('',(0.0394197279696892,0.1082462,0.0271));
#779=CARTESIAN_POINT('',(0.0394197279696892,0.1103462,0.0271));
#780=CARTESIAN_POINT('',(0.0394197279696892,0.1103462,0.026821357147839));
#781=CARTESIAN_POINT('',(0.0394910425592887,0.110119430110436,0.0262797833506649));
#782=CARTESIAN_POINT('',(0.0395944492857839,0.109295982924233,0.0259352658073598));
#783=CARTESIAN_POINT('',(0.0394911602972713,0.108473717188553,0.0262791534210569));
#784=CARTESIAN_POINT('',(0.0394197279696892,0.1082462,0.026821372573375));
#785=CARTESIAN_POINT('',(0.0394197279696892,0.1082462,0.0271));
#786=CARTESIAN_POINT('',(0.03836,0.1092962,0.0451));
#787=CARTESIAN_POINT('',(0.03836,0.1082462,0.0451));
#788=CARTESIAN_POINT('',(0.03836,0.1082462,0.0451));
#789=CARTESIAN_POINT('',(0.0394197279696892,0.1082462,0.0451));
#790=CARTESIAN_POINT('',(0.03836,0.1092962,0.0451));
#791=CARTESIAN_POINT('',(0.03836,0.1103462,0.0451));
#792=CARTESIAN_POINT('',(0.03836,0.1103462,0.0451));
#793=CARTESIAN_POINT('',(0.0394197279696892,0.1103462,0.0451));
#794=CARTESIAN_POINT('',(0.0394197279696892,0.1082462,0.0451));
#795=CARTESIAN_POINT('',(0.0394197279696892,0.1082462,0.045378642852161));
#796=CARTESIAN_POINT('',(0.0394910425592887,0.108472969889564,0.0459202166493351));
#797=CARTESIAN_POINT('',(0.0395944492857839,0.109296417075767,0.0462647341926402));
#798=CARTESIAN_POINT('',(0.0394911602972713,0.110118682811447,0.0459208465789431));
#799=CARTESIAN_POINT('',(0.0394197279696892,0.1103462,0.0453786274266251));
#800=CARTESIAN_POINT('',(0.0394197279696892,0.1103462,0.0451));
#801=CARTESIAN_POINT('',(0.03836,0.1092962,0.0164984772078548));
#802=CARTESIAN_POINT('',(0.03836,0.1103462,0.0164984772078548));
#803=CARTESIAN_POINT('',(0.03836,0.1082462,0.0164984772078548));
#804=CARTESIAN_POINT('',(0.03836,0.1082462,0.0164984772078548));
#805=CARTESIAN_POINT('',(0.0394197279696892,0.1082462,0.054614));
#806=CARTESIAN_POINT('',(0.03836,0.1103462,0.0164984772078548));
#807=CARTESIAN_POINT('',(0.0394197279696892,0.1103462,0.054614));
#808=CARTESIAN_POINT('',(0.0562850906808812,0.120503559639096,-0.0978026999980238));
#809=CARTESIAN_POINT('',(0.04676735963712,0.127903290682857,-0.0978026999980236));
#810=CARTESIAN_POINT('',(0.04888535963712,0.127903290682857,-0.0978026999980236));
#811=CARTESIAN_POINT('',(0.0562850906808812,0.120503559639096,-0.0978026999980238));
#812=CARTESIAN_POINT('',(0.0541670906808811,0.120503559639096,-0.0978026999980238));
#813=CARTESIAN_POINT('',(0.0562850906808811,0.120503559639096,-0.0978026999980238));
#814=CARTESIAN_POINT('',(0.03556,0.1092962,-0.100317299999998));
#815=CARTESIAN_POINT('',(0.03556,0.1092962,-0.100317299999998));
#816=CARTESIAN_POINT('',(0.0215231999999997,0.1092962,-0.100317299999998));
#817=CARTESIAN_POINT('',(0.03556,0.1092962,0.054614));
#818=CARTESIAN_POINT('',(0.03556,0.1092962,0.054614));
#819=CARTESIAN_POINT('',(0.0393060000000001,0.1092962,0.054614));
#820=CARTESIAN_POINT('',(0.03556,0.1092962,0.01905));
#821=CARTESIAN_POINT('',(0.03556,0.1092962,0.01905));
#822=CARTESIAN_POINT('',(0.0450850000000002,0.1092962,0.01905));
#823=CARTESIAN_POINT('',(0.06096,0.1092962,0.01905));
#824=CARTESIAN_POINT('',(0.0629793,0.1092962,0.01905));
#825=CARTESIAN_POINT('',(0.0101599999999994,0.1092962,0.01905));
#826=CARTESIAN_POINT('',(0.0121792999999994,0.1092962,0.01905));
#827=CARTESIAN_POINT('',(0.03556,0.1092962,0.01905));
#828=CARTESIAN_POINT('',(0.0664370000000005,0.1092962,0.01905));
#829=CARTESIAN_POINT('',(0.067564,0.1092962,0.0108204000000007));
#830=CARTESIAN_POINT('',(0.03556,0.1092962,0.0108204000000007));
#831=CARTESIAN_POINT('',(0.0674370000000005,0.1092962,0.0108204000000007));
#832=CARTESIAN_POINT('',(0.03556,0.1092962,0.0108204000000007));
#833=CARTESIAN_POINT('',(0.0035559999999995,0.1092962,0.0108204000000007));
#834=CARTESIAN_POINT('',(0.03556,0.1092962,0.023114));
#835=CARTESIAN_POINT('',(0.03556,0.1092962,0.023114));
#836=CARTESIAN_POINT('',(0.0395600000000001,0.1092962,0.023114));
#837=CARTESIAN_POINT('',(0.03556,0.1092962,0.023114));
#838=CARTESIAN_POINT('',(0.0440690000018234,0.1092962,0.023114));
#839=CARTESIAN_POINT('',(0.03556,0.1092962,-0.087325199999998));
#840=CARTESIAN_POINT('',(0.03556,0.1092962,-0.087325199999998));
#841=CARTESIAN_POINT('',(0.0036829999999995,0.1092962,-0.087325199999998));
#842=CARTESIAN_POINT('',(0.03556,0.1092962,-0.087325199999998));
#843=CARTESIAN_POINT('',(0.0035559999999995,0.1092962,-0.087325199999998));
#844=CARTESIAN_POINT('',(0.03556,0.1092962,-0.095554799999998));
#845=CARTESIAN_POINT('',(0.03556,0.1092962,-0.095554799999998));
#846=CARTESIAN_POINT('',(0.0205231999999997,0.1092962,-0.095554799999998));
#847=CARTESIAN_POINT('',(0.0541670906808811,0.120503559639096,-0.095554799999998));
#848=CARTESIAN_POINT('',(0.0498490906789066,0.120503559639096,-0.095554799999998));
#849=CARTESIAN_POINT('',(0.04676735963712,0.127903290682857,-0.095554799999998));
#850=CARTESIAN_POINT('',(0.0424493596351455,0.127903290682857,-0.095554799999998));
#851=CARTESIAN_POINT('',(0.03556,0.1092962,-0.095554799999998));
#852=CARTESIAN_POINT('',(0.0046829999999995,0.1092962,-0.095554799999998));
#853=CARTESIAN_POINT('',(0.03556,0.1092962,0.054614));
#854=CARTESIAN_POINT('',(0.03556,0.1092962,0.05436));
#855=CARTESIAN_POINT('',(0.0395600000000001,0.1092962,0.05436));
#856=CARTESIAN_POINT('',(0.03556,0.1092962,0.0108204000000007));
#857=CARTESIAN_POINT('',(0.03556,0.1092962,0.01905));
#858=CARTESIAN_POINT('',(0.03556,0.1092962,0.01805));
#859=CARTESIAN_POINT('',(0.0674370000000005,0.1092962,0.01805));
#860=CARTESIAN_POINT('',(0.03556,0.1092962,0.023114));
#861=CARTESIAN_POINT('',(0.03556,0.1092962,0.0220979999999996));
#862=CARTESIAN_POINT('',(0.0450850000000002,0.1092962,0.0220979999999996));
#863=CARTESIAN_POINT('',(0.03556,0.1092962,0.01905));
#864=CARTESIAN_POINT('',(0.03556,0.1092962,-0.094554799999998));
#865=CARTESIAN_POINT('',(0.0036829999999995,0.1092962,-0.094554799999998));
#866=CARTESIAN_POINT('',(0.03556,0.1092962,-0.100317299999998));
#867=CARTESIAN_POINT('',(0.03556,0.1092962,-0.099317299999998));
#868=CARTESIAN_POINT('',(0.0205231999999997,0.1092962,-0.099317299999998));
#869=CARTESIAN_POINT('',(0.0541670906808811,0.120503559639096,-0.0956026999960494));
#870=CARTESIAN_POINT('',(0.0541670906808811,0.120503559639096,-0.0956026999960494));
#871=CARTESIAN_POINT('',(0.0584850906828555,0.120503559639096,-0.0956026999960494));
#872=CARTESIAN_POINT('',(0.0541670906808811,0.120503559639096,-0.0978026999980238));
#873=CARTESIAN_POINT('',(0.04676735963712,0.127903290682857,-0.0956026999960491));
#874=CARTESIAN_POINT('',(0.04676735963712,0.127903290682857,-0.0956026999960491));
#875=CARTESIAN_POINT('',(0.0510853596390945,0.127903290682857,-0.0956026999960491));
#876=CARTESIAN_POINT('',(0.04676735963712,0.127903290682857,-0.0978026999980236));
#877=CARTESIAN_POINT('',(0.06096,0.1092962,0.00543560000000074));
#878=CARTESIAN_POINT('',(0.06096,0.1092962,0.00543560000000074));
#879=CARTESIAN_POINT('',(0.0629793,0.1092962,0.00543560000000074));
#880=CARTESIAN_POINT('',(0.06096,0.1092962,0.00422228214876452));
#881=CARTESIAN_POINT('',(0.06096,0.1092962,0.01905));
#882=CARTESIAN_POINT('',(0.0101599999999994,0.1092962,0.0054356000000007));
#883=CARTESIAN_POINT('',(0.0101599999999994,0.1092962,0.0054356000000007));
#884=CARTESIAN_POINT('',(0.0121792999999994,0.1092962,0.0054356000000007));
#885=CARTESIAN_POINT('',(0.0101599999999994,0.1092962,0.00422228214876448));
#886=CARTESIAN_POINT('',(0.0101599999999994,0.1092962,0.01905));
#887=CARTESIAN_POINT('',(0.03556,0.1092962,0.0220979999999996));
#888=CARTESIAN_POINT('',(0.03556,0.1092962,0.05436));
#889=CARTESIAN_POINT('',(0.03556,0.1092962,-0.094554799999998));
#890=CARTESIAN_POINT('',(0.03556,0.1092962,0.01805));
#891=CARTESIAN_POINT('',(0.03556,0.1092962,-0.099317299999998));
#892=MECHANICAL_DESIGN_GEOMETRIC_PRESENTATION_REPRESENTATION('',(#426,#23,
#24,#25,#26,#27,#28,#29,#30,#31,#32,#33,#34,#35,#36,#37,#38,#39,#40,#41,
#42,#43,#44),#893);
#893=(
GEOMETRIC_REPRESENTATION_CONTEXT(3)
GLOBAL_UNCERTAINTY_ASSIGNED_CONTEXT((#894))
GLOBAL_UNIT_ASSIGNED_CONTEXT((#897,#896,#895))
REPRESENTATION_CONTEXT('CIM Motor','TOP_LEVEL_ASSEMBLY_PART')
);
#894=UNCERTAINTY_MEASURE_WITH_UNIT(LENGTH_MEASURE(2.E-5),#897,
'DISTANCE_ACCURACY_VALUE','Maximum Tolerance applied to model');
#895=(
NAMED_UNIT(*)
SI_UNIT($,.STERADIAN.)
SOLID_ANGLE_UNIT()
);
#896=(
NAMED_UNIT(*)
PLANE_ANGLE_UNIT()
SI_UNIT($,.RADIAN.)
);
#897=(
LENGTH_UNIT()
NAMED_UNIT(*)
SI_UNIT($,.METRE.)
);
#898=PRODUCT_DEFINITION_SHAPE('','',#899);
#899=PRODUCT_DEFINITION('','',#901,#900);
#900=PRODUCT_DEFINITION_CONTEXT('',#907,'design');
#901=PRODUCT_DEFINITION_FORMATION_WITH_SPECIFIED_SOURCE('','',#903,
 .NOT_KNOWN.);
#902=PRODUCT_RELATED_PRODUCT_CATEGORY('','',(#903));
#903=PRODUCT('CIM Motor','CIM Motor','CIM Motor',(#905));
#904=PRODUCT_CATEGORY('','');
#905=PRODUCT_CONTEXT('',#907,'mechanical');
#906=APPLICATION_PROTOCOL_DEFINITION('international standard',
'ap242_managed_model_based_3d_engineering',2020,#907);
#907=APPLICATION_CONTEXT('managed model based 3d engineering');
ENDSEC;
END-ISO-10303-21;
