ISO-10303-21;
HEADER;
/* Generated by software containing ST-Developer
 * from STEP Tools, Inc. (www.steptools.com) 
 */
/* OPTION: using custom renumber hook */

FILE_DESCRIPTION(
/* description */ ('STEP AP242 Edition 2',
'CAx-IF Rec.Pracs.---Representation and Presentation of Product Manufa
cturing Information (PMI)---4.0---2014-10-13',
'CAx-IF Rec.Pracs.---3D Tessellated Geometry---0.4---2014-09-14','2;1',
'CAx-IF Rec.Pracs.---User Defined Attributes---1.5---2016-08-15'),
/* implementation_level */ '2;1');

FILE_NAME(
/* name */ 'Main - Connecting Arm',
/* time_stamp */ '2026-05-15T18:25:36Z',
/* author */ (''),
/* organization */ (''),
/* preprocessor_version */ 'ST-DEVELOPER v20',
/* originating_system */ 'ONSHAPE BY PTC INC, 1.215',
/* authorisation */ '  ');

FILE_SCHEMA (('AP242_MANAGED_MODEL_BASED_3D_ENGINEERING_MIM_LF { 1 0 10303 442 3 1 4 }'));
ENDSEC;

DATA;
#10=SHAPE_REPRESENTATION_RELATIONSHIP('','',#359,#11);
#11=ADVANCED_BREP_SHAPE_REPRESENTATION('',(#357),#597);
#12=LINE('',#505,#42);
#13=LINE('',#508,#43);
#14=LINE('',#510,#44);
#15=LINE('',#512,#45);
#16=LINE('',#516,#46);
#17=LINE('',#522,#47);
#18=LINE('',#528,#48);
#19=LINE('',#532,#49);
#20=LINE('',#534,#50);
#21=LINE('',#536,#51);
#22=LINE('',#540,#52);
#23=LINE('',#546,#53);
#24=LINE('',#559,#54);
#25=LINE('',#562,#55);
#26=LINE('',#564,#56);
#27=LINE('',#566,#57);
#28=LINE('',#568,#58);
#29=LINE('',#570,#59);
#30=LINE('',#572,#60);
#31=LINE('',#574,#61);
#32=LINE('',#576,#62);
#33=LINE('',#578,#63);
#34=LINE('',#580,#64);
#35=LINE('',#582,#65);
#36=LINE('',#584,#66);
#37=LINE('',#586,#67);
#38=LINE('',#588,#68);
#39=LINE('',#590,#69);
#40=LINE('',#592,#70);
#41=LINE('',#594,#71);
#42=VECTOR('',#406,1.);
#43=VECTOR('',#407,1.);
#44=VECTOR('',#408,1.);
#45=VECTOR('',#409,1.);
#46=VECTOR('',#414,1.);
#47=VECTOR('',#421,1.);
#48=VECTOR('',#428,1.);
#49=VECTOR('',#433,1.);
#50=VECTOR('',#434,1.);
#51=VECTOR('',#435,1.);
#52=VECTOR('',#440,1.);
#53=VECTOR('',#447,1.);
#54=VECTOR('',#466,1.);
#55=VECTOR('',#467,1.);
#56=VECTOR('',#468,1.);
#57=VECTOR('',#469,1.);
#58=VECTOR('',#470,1.);
#59=VECTOR('',#471,1.);
#60=VECTOR('',#474,1.);
#61=VECTOR('',#475,1.);
#62=VECTOR('',#476,1.);
#63=VECTOR('',#479,1.);
#64=VECTOR('',#480,1.);
#65=VECTOR('',#483,1.);
#66=VECTOR('',#484,1.);
#67=VECTOR('',#487,1.);
#68=VECTOR('',#488,1.);
#69=VECTOR('',#491,1.);
#70=VECTOR('',#492,1.);
#71=VECTOR('',#495,1.);
#72=PLANE('',#364);
#73=PLANE('',#374);
#74=PLANE('',#387);
#75=PLANE('',#388);
#76=PLANE('',#389);
#77=PLANE('',#390);
#78=PLANE('',#391);
#79=PLANE('',#392);
#80=PLANE('',#393);
#81=PLANE('',#394);
#82=PLANE('',#395);
#83=ORIENTED_EDGE('',*,*,#175,.T.);
#84=ORIENTED_EDGE('',*,*,#176,.F.);
#85=ORIENTED_EDGE('',*,*,#177,.F.);
#86=ORIENTED_EDGE('',*,*,#178,.F.);
#87=ORIENTED_EDGE('',*,*,#179,.T.);
#88=ORIENTED_EDGE('',*,*,#180,.T.);
#89=ORIENTED_EDGE('',*,*,#181,.T.);
#90=ORIENTED_EDGE('',*,*,#182,.F.);
#91=ORIENTED_EDGE('',*,*,#183,.F.);
#92=ORIENTED_EDGE('',*,*,#178,.T.);
#93=ORIENTED_EDGE('',*,*,#184,.F.);
#94=ORIENTED_EDGE('',*,*,#185,.F.);
#95=ORIENTED_EDGE('',*,*,#186,.T.);
#96=ORIENTED_EDGE('',*,*,#182,.T.);
#97=ORIENTED_EDGE('',*,*,#187,.F.);
#98=ORIENTED_EDGE('',*,*,#188,.F.);
#99=ORIENTED_EDGE('',*,*,#189,.T.);
#100=ORIENTED_EDGE('',*,*,#185,.T.);
#101=ORIENTED_EDGE('',*,*,#190,.T.);
#102=ORIENTED_EDGE('',*,*,#191,.F.);
#103=ORIENTED_EDGE('',*,*,#192,.F.);
#104=ORIENTED_EDGE('',*,*,#188,.T.);
#105=ORIENTED_EDGE('',*,*,#193,.T.);
#106=ORIENTED_EDGE('',*,*,#194,.F.);
#107=ORIENTED_EDGE('',*,*,#195,.F.);
#108=ORIENTED_EDGE('',*,*,#191,.T.);
#109=ORIENTED_EDGE('',*,*,#196,.F.);
#110=ORIENTED_EDGE('',*,*,#197,.F.);
#111=ORIENTED_EDGE('',*,*,#198,.T.);
#112=ORIENTED_EDGE('',*,*,#194,.T.);
#113=ORIENTED_EDGE('',*,*,#199,.T.);
#114=ORIENTED_EDGE('',*,*,#200,.F.);
#115=ORIENTED_EDGE('',*,*,#201,.F.);
#116=ORIENTED_EDGE('',*,*,#180,.F.);
#117=ORIENTED_EDGE('',*,*,#202,.T.);
#118=ORIENTED_EDGE('',*,*,#197,.T.);
#119=ORIENTED_EDGE('',*,*,#175,.F.);
#120=ORIENTED_EDGE('',*,*,#199,.F.);
#121=ORIENTED_EDGE('',*,*,#179,.F.);
#122=ORIENTED_EDGE('',*,*,#183,.T.);
#123=ORIENTED_EDGE('',*,*,#186,.F.);
#124=ORIENTED_EDGE('',*,*,#189,.F.);
#125=ORIENTED_EDGE('',*,*,#192,.T.);
#126=ORIENTED_EDGE('',*,*,#195,.T.);
#127=ORIENTED_EDGE('',*,*,#198,.F.);
#128=ORIENTED_EDGE('',*,*,#202,.F.);
#129=ORIENTED_EDGE('',*,*,#203,.F.);
#130=ORIENTED_EDGE('',*,*,#204,.F.);
#131=ORIENTED_EDGE('',*,*,#205,.F.);
#132=ORIENTED_EDGE('',*,*,#206,.F.);
#133=ORIENTED_EDGE('',*,*,#207,.F.);
#134=ORIENTED_EDGE('',*,*,#208,.F.);
#135=ORIENTED_EDGE('',*,*,#200,.T.);
#136=ORIENTED_EDGE('',*,*,#177,.T.);
#137=ORIENTED_EDGE('',*,*,#201,.T.);
#138=ORIENTED_EDGE('',*,*,#196,.T.);
#139=ORIENTED_EDGE('',*,*,#193,.F.);
#140=ORIENTED_EDGE('',*,*,#190,.F.);
#141=ORIENTED_EDGE('',*,*,#187,.T.);
#142=ORIENTED_EDGE('',*,*,#184,.T.);
#143=ORIENTED_EDGE('',*,*,#181,.F.);
#144=ORIENTED_EDGE('',*,*,#204,.T.);
#145=ORIENTED_EDGE('',*,*,#209,.F.);
#146=ORIENTED_EDGE('',*,*,#210,.F.);
#147=ORIENTED_EDGE('',*,*,#211,.T.);
#148=ORIENTED_EDGE('',*,*,#203,.T.);
#149=ORIENTED_EDGE('',*,*,#212,.F.);
#150=ORIENTED_EDGE('',*,*,#213,.F.);
#151=ORIENTED_EDGE('',*,*,#209,.T.);
#152=ORIENTED_EDGE('',*,*,#208,.T.);
#153=ORIENTED_EDGE('',*,*,#214,.F.);
#154=ORIENTED_EDGE('',*,*,#215,.F.);
#155=ORIENTED_EDGE('',*,*,#212,.T.);
#156=ORIENTED_EDGE('',*,*,#207,.T.);
#157=ORIENTED_EDGE('',*,*,#216,.F.);
#158=ORIENTED_EDGE('',*,*,#217,.F.);
#159=ORIENTED_EDGE('',*,*,#214,.T.);
#160=ORIENTED_EDGE('',*,*,#206,.T.);
#161=ORIENTED_EDGE('',*,*,#218,.F.);
#162=ORIENTED_EDGE('',*,*,#219,.F.);
#163=ORIENTED_EDGE('',*,*,#216,.T.);
#164=ORIENTED_EDGE('',*,*,#205,.T.);
#165=ORIENTED_EDGE('',*,*,#211,.F.);
#166=ORIENTED_EDGE('',*,*,#220,.F.);
#167=ORIENTED_EDGE('',*,*,#218,.T.);
#168=ORIENTED_EDGE('',*,*,#176,.T.);
#169=ORIENTED_EDGE('',*,*,#210,.T.);
#170=ORIENTED_EDGE('',*,*,#213,.T.);
#171=ORIENTED_EDGE('',*,*,#215,.T.);
#172=ORIENTED_EDGE('',*,*,#217,.T.);
#173=ORIENTED_EDGE('',*,*,#219,.T.);
#174=ORIENTED_EDGE('',*,*,#220,.T.);
#175=EDGE_CURVE('',#221,#221,#253,.T.);
#176=EDGE_CURVE('',#222,#222,#254,.T.);
#177=EDGE_CURVE('',#223,#224,#12,.T.);
#178=EDGE_CURVE('',#225,#223,#13,.T.);
#179=EDGE_CURVE('',#225,#226,#14,.T.);
#180=EDGE_CURVE('',#226,#224,#15,.T.);
#181=EDGE_CURVE('',#223,#227,#255,.T.);
#182=EDGE_CURVE('',#228,#227,#16,.T.);
#183=EDGE_CURVE('',#225,#228,#256,.T.);
#184=EDGE_CURVE('',#229,#227,#257,.T.);
#185=EDGE_CURVE('',#230,#229,#17,.T.);
#186=EDGE_CURVE('',#230,#228,#258,.T.);
#187=EDGE_CURVE('',#231,#229,#259,.T.);
#188=EDGE_CURVE('',#232,#231,#18,.T.);
#189=EDGE_CURVE('',#232,#230,#260,.T.);
#190=EDGE_CURVE('',#231,#233,#19,.T.);
#191=EDGE_CURVE('',#234,#233,#20,.T.);
#192=EDGE_CURVE('',#232,#234,#21,.T.);
#193=EDGE_CURVE('',#233,#235,#261,.T.);
#194=EDGE_CURVE('',#236,#235,#22,.T.);
#195=EDGE_CURVE('',#234,#236,#262,.T.);
#196=EDGE_CURVE('',#237,#235,#263,.T.);
#197=EDGE_CURVE('',#238,#237,#23,.T.);
#198=EDGE_CURVE('',#238,#236,#264,.T.);
#199=EDGE_CURVE('',#239,#239,#265,.T.);
#200=EDGE_CURVE('',#240,#240,#266,.T.);
#201=EDGE_CURVE('',#224,#237,#267,.T.);
#202=EDGE_CURVE('',#226,#238,#268,.T.);
#203=EDGE_CURVE('',#241,#242,#24,.T.);
#204=EDGE_CURVE('',#243,#241,#25,.T.);
#205=EDGE_CURVE('',#244,#243,#26,.T.);
#206=EDGE_CURVE('',#245,#244,#27,.T.);
#207=EDGE_CURVE('',#246,#245,#28,.T.);
#208=EDGE_CURVE('',#242,#246,#29,.T.);
#209=EDGE_CURVE('',#247,#241,#30,.T.);
#210=EDGE_CURVE('',#248,#247,#31,.T.);
#211=EDGE_CURVE('',#248,#243,#32,.T.);
#212=EDGE_CURVE('',#249,#242,#33,.T.);
#213=EDGE_CURVE('',#247,#249,#34,.T.);
#214=EDGE_CURVE('',#250,#246,#35,.T.);
#215=EDGE_CURVE('',#249,#250,#36,.T.);
#216=EDGE_CURVE('',#251,#245,#37,.T.);
#217=EDGE_CURVE('',#250,#251,#38,.T.);
#218=EDGE_CURVE('',#252,#244,#39,.T.);
#219=EDGE_CURVE('',#251,#252,#40,.T.);
#220=EDGE_CURVE('',#252,#248,#41,.T.);
#221=VERTEX_POINT('',#501);
#222=VERTEX_POINT('',#503);
#223=VERTEX_POINT('',#506);
#224=VERTEX_POINT('',#507);
#225=VERTEX_POINT('',#509);
#226=VERTEX_POINT('',#511);
#227=VERTEX_POINT('',#515);
#228=VERTEX_POINT('',#517);
#229=VERTEX_POINT('',#521);
#230=VERTEX_POINT('',#523);
#231=VERTEX_POINT('',#527);
#232=VERTEX_POINT('',#529);
#233=VERTEX_POINT('',#533);
#234=VERTEX_POINT('',#535);
#235=VERTEX_POINT('',#539);
#236=VERTEX_POINT('',#541);
#237=VERTEX_POINT('',#545);
#238=VERTEX_POINT('',#547);
#239=VERTEX_POINT('',#551);
#240=VERTEX_POINT('',#553);
#241=VERTEX_POINT('',#560);
#242=VERTEX_POINT('',#561);
#243=VERTEX_POINT('',#563);
#244=VERTEX_POINT('',#565);
#245=VERTEX_POINT('',#567);
#246=VERTEX_POINT('',#569);
#247=VERTEX_POINT('',#573);
#248=VERTEX_POINT('',#575);
#249=VERTEX_POINT('',#579);
#250=VERTEX_POINT('',#583);
#251=VERTEX_POINT('',#587);
#252=VERTEX_POINT('',#591);
#253=CIRCLE('',#362,0.00254);
#254=CIRCLE('',#363,0.00254);
#255=CIRCLE('',#366,0.0565912);
#256=CIRCLE('',#367,0.0565912);
#257=CIRCLE('',#369,0.0127);
#258=CIRCLE('',#370,0.0127);
#259=CIRCLE('',#372,0.0565912);
#260=CIRCLE('',#373,0.0565912);
#261=CIRCLE('',#376,0.0565912);
#262=CIRCLE('',#377,0.0565912);
#263=CIRCLE('',#379,0.0127);
#264=CIRCLE('',#380,0.0127);
#265=CIRCLE('',#382,0.00254);
#266=CIRCLE('',#383,0.00254);
#267=CIRCLE('',#385,0.0565912);
#268=CIRCLE('',#386,0.0565912);
#269=EDGE_LOOP('',(#83));
#270=EDGE_LOOP('',(#84));
#271=EDGE_LOOP('',(#85,#86,#87,#88));
#272=EDGE_LOOP('',(#89,#90,#91,#92));
#273=EDGE_LOOP('',(#93,#94,#95,#96));
#274=EDGE_LOOP('',(#97,#98,#99,#100));
#275=EDGE_LOOP('',(#101,#102,#103,#104));
#276=EDGE_LOOP('',(#105,#106,#107,#108));
#277=EDGE_LOOP('',(#109,#110,#111,#112));
#278=EDGE_LOOP('',(#113));
#279=EDGE_LOOP('',(#114));
#280=EDGE_LOOP('',(#115,#116,#117,#118));
#281=EDGE_LOOP('',(#119));
#282=EDGE_LOOP('',(#120));
#283=EDGE_LOOP('',(#121,#122,#123,#124,#125,#126,#127,#128));
#284=EDGE_LOOP('',(#129,#130,#131,#132,#133,#134));
#285=EDGE_LOOP('',(#135));
#286=EDGE_LOOP('',(#136,#137,#138,#139,#140,#141,#142,#143));
#287=EDGE_LOOP('',(#144,#145,#146,#147));
#288=EDGE_LOOP('',(#148,#149,#150,#151));
#289=EDGE_LOOP('',(#152,#153,#154,#155));
#290=EDGE_LOOP('',(#156,#157,#158,#159));
#291=EDGE_LOOP('',(#160,#161,#162,#163));
#292=EDGE_LOOP('',(#164,#165,#166,#167));
#293=EDGE_LOOP('',(#168));
#294=EDGE_LOOP('',(#169,#170,#171,#172,#173,#174));
#295=FACE_BOUND('',#269,.T.);
#296=FACE_BOUND('',#270,.T.);
#297=FACE_BOUND('',#271,.T.);
#298=FACE_BOUND('',#272,.T.);
#299=FACE_BOUND('',#273,.T.);
#300=FACE_BOUND('',#274,.T.);
#301=FACE_BOUND('',#275,.T.);
#302=FACE_BOUND('',#276,.T.);
#303=FACE_BOUND('',#277,.T.);
#304=FACE_BOUND('',#278,.T.);
#305=FACE_BOUND('',#279,.T.);
#306=FACE_BOUND('',#280,.T.);
#307=FACE_BOUND('',#281,.T.);
#308=FACE_BOUND('',#282,.T.);
#309=FACE_BOUND('',#283,.T.);
#310=FACE_BOUND('',#284,.T.);
#311=FACE_BOUND('',#285,.T.);
#312=FACE_BOUND('',#286,.T.);
#313=FACE_BOUND('',#287,.T.);
#314=FACE_BOUND('',#288,.T.);
#315=FACE_BOUND('',#289,.T.);
#316=FACE_BOUND('',#290,.T.);
#317=FACE_BOUND('',#291,.T.);
#318=FACE_BOUND('',#292,.T.);
#319=FACE_BOUND('',#293,.T.);
#320=FACE_BOUND('',#294,.T.);
#321=CYLINDRICAL_SURFACE('',#361,0.00254);
#322=CYLINDRICAL_SURFACE('',#365,0.0565912);
#323=CYLINDRICAL_SURFACE('',#368,0.0127);
#324=CYLINDRICAL_SURFACE('',#371,0.0565912);
#325=CYLINDRICAL_SURFACE('',#375,0.0565912);
#326=CYLINDRICAL_SURFACE('',#378,0.0127);
#327=CYLINDRICAL_SURFACE('',#381,0.00254);
#328=CYLINDRICAL_SURFACE('',#384,0.0565912);
#329=ADVANCED_FACE('',(#295,#296),#321,.F.);
#330=ADVANCED_FACE('',(#297),#72,.T.);
#331=ADVANCED_FACE('',(#298),#322,.F.);
#332=ADVANCED_FACE('',(#299),#323,.T.);
#333=ADVANCED_FACE('',(#300),#324,.F.);
#334=ADVANCED_FACE('',(#301),#73,.F.);
#335=ADVANCED_FACE('',(#302),#325,.F.);
#336=ADVANCED_FACE('',(#303),#326,.T.);
#337=ADVANCED_FACE('',(#304,#305),#327,.F.);
#338=ADVANCED_FACE('',(#306),#328,.F.);
#339=ADVANCED_FACE('',(#307,#308,#309),#74,.T.);
#340=ADVANCED_FACE('',(#310,#311,#312),#75,.F.);
#341=ADVANCED_FACE('',(#313),#76,.F.);
#342=ADVANCED_FACE('',(#314),#77,.F.);
#343=ADVANCED_FACE('',(#315),#78,.F.);
#344=ADVANCED_FACE('',(#316),#79,.F.);
#345=ADVANCED_FACE('',(#317),#80,.F.);
#346=ADVANCED_FACE('',(#318),#81,.F.);
#347=ADVANCED_FACE('',(#319,#320),#82,.T.);
#348=CLOSED_SHELL('',(#329,#330,#331,#332,#333,#334,#335,#336,#337,#338,
#339,#340,#341,#342,#343,#344,#345,#346,#347));
#349=STYLED_ITEM('',(#350),#357);
#350=PRESENTATION_STYLE_ASSIGNMENT((#351));
#351=SURFACE_STYLE_USAGE(.BOTH.,#352);
#352=SURFACE_SIDE_STYLE('',(#353));
#353=SURFACE_STYLE_FILL_AREA(#354);
#354=FILL_AREA_STYLE('',(#355));
#355=FILL_AREA_STYLE_COLOUR('',#356);
#356=COLOUR_RGB('',0.223529411764706,0.223529411764706,0.223529411764706);
#357=MANIFOLD_SOLID_BREP('Connecting Arm',#348);
#358=SHAPE_DEFINITION_REPRESENTATION(#602,#359);
#359=SHAPE_REPRESENTATION('Connecting Arm',(#360),#597);
#360=AXIS2_PLACEMENT_3D('',#498,#396,#397);
#361=AXIS2_PLACEMENT_3D('',#499,#398,#399);
#362=AXIS2_PLACEMENT_3D('',#500,#400,#401);
#363=AXIS2_PLACEMENT_3D('',#502,#402,#403);
#364=AXIS2_PLACEMENT_3D('',#504,#404,#405);
#365=AXIS2_PLACEMENT_3D('',#513,#410,#411);
#366=AXIS2_PLACEMENT_3D('',#514,#412,#413);
#367=AXIS2_PLACEMENT_3D('',#518,#415,#416);
#368=AXIS2_PLACEMENT_3D('',#519,#417,#418);
#369=AXIS2_PLACEMENT_3D('',#520,#419,#420);
#370=AXIS2_PLACEMENT_3D('',#524,#422,#423);
#371=AXIS2_PLACEMENT_3D('',#525,#424,#425);
#372=AXIS2_PLACEMENT_3D('',#526,#426,#427);
#373=AXIS2_PLACEMENT_3D('',#530,#429,#430);
#374=AXIS2_PLACEMENT_3D('',#531,#431,#432);
#375=AXIS2_PLACEMENT_3D('',#537,#436,#437);
#376=AXIS2_PLACEMENT_3D('',#538,#438,#439);
#377=AXIS2_PLACEMENT_3D('',#542,#441,#442);
#378=AXIS2_PLACEMENT_3D('',#543,#443,#444);
#379=AXIS2_PLACEMENT_3D('',#544,#445,#446);
#380=AXIS2_PLACEMENT_3D('',#548,#448,#449);
#381=AXIS2_PLACEMENT_3D('',#549,#450,#451);
#382=AXIS2_PLACEMENT_3D('',#550,#452,#453);
#383=AXIS2_PLACEMENT_3D('',#552,#454,#455);
#384=AXIS2_PLACEMENT_3D('',#554,#456,#457);
#385=AXIS2_PLACEMENT_3D('',#555,#458,#459);
#386=AXIS2_PLACEMENT_3D('',#556,#460,#461);
#387=AXIS2_PLACEMENT_3D('',#557,#462,#463);
#388=AXIS2_PLACEMENT_3D('',#558,#464,#465);
#389=AXIS2_PLACEMENT_3D('',#571,#472,#473);
#390=AXIS2_PLACEMENT_3D('',#577,#477,#478);
#391=AXIS2_PLACEMENT_3D('',#581,#481,#482);
#392=AXIS2_PLACEMENT_3D('',#585,#485,#486);
#393=AXIS2_PLACEMENT_3D('',#589,#489,#490);
#394=AXIS2_PLACEMENT_3D('',#593,#493,#494);
#395=AXIS2_PLACEMENT_3D('',#595,#496,#497);
#396=DIRECTION('',(0.,0.,1.));
#397=DIRECTION('',(1.,0.,0.));
#398=DIRECTION('',(0.,1.,0.));
#399=DIRECTION('',(0.,0.,1.));
#400=DIRECTION('',(0.,-1.,0.));
#401=DIRECTION('',(0.,0.,-1.));
#402=DIRECTION('',(0.,-1.,0.));
#403=DIRECTION('',(0.,0.,-1.));
#404=DIRECTION('',(-1.,0.,0.));
#405=DIRECTION('',(0.,0.,1.));
#406=DIRECTION('',(0.,0.,1.));
#407=DIRECTION('',(0.,1.,0.));
#408=DIRECTION('',(0.,0.,1.));
#409=DIRECTION('',(0.,1.,0.));
#410=DIRECTION('',(0.,1.,0.));
#411=DIRECTION('',(0.,0.,1.));
#412=DIRECTION('',(0.,1.,0.));
#413=DIRECTION('',(0.,0.,-1.));
#414=DIRECTION('',(0.,1.,0.));
#415=DIRECTION('',(0.,1.,0.));
#416=DIRECTION('',(0.,0.,-1.));
#417=DIRECTION('',(0.,1.,0.));
#418=DIRECTION('',(0.,0.,1.));
#419=DIRECTION('',(0.,1.,0.));
#420=DIRECTION('',(0.,0.,-1.));
#421=DIRECTION('',(0.,1.,0.));
#422=DIRECTION('',(0.,1.,0.));
#423=DIRECTION('',(0.,0.,-1.));
#424=DIRECTION('',(0.,1.,0.));
#425=DIRECTION('',(0.,0.,1.));
#426=DIRECTION('',(0.,-1.,0.));
#427=DIRECTION('',(0.,0.,-1.));
#428=DIRECTION('',(0.,1.,0.));
#429=DIRECTION('',(0.,-1.,0.));
#430=DIRECTION('',(0.,0.,-1.));
#431=DIRECTION('',(-1.,0.,0.));
#432=DIRECTION('',(0.,0.,1.));
#433=DIRECTION('',(0.,0.,1.));
#434=DIRECTION('',(0.,1.,0.));
#435=DIRECTION('',(0.,0.,1.));
#436=DIRECTION('',(0.,1.,0.));
#437=DIRECTION('',(0.,0.,1.));
#438=DIRECTION('',(0.,1.,0.));
#439=DIRECTION('',(0.,0.,-1.));
#440=DIRECTION('',(0.,1.,0.));
#441=DIRECTION('',(0.,1.,0.));
#442=DIRECTION('',(0.,0.,-1.));
#443=DIRECTION('',(0.,1.,0.));
#444=DIRECTION('',(0.,0.,1.));
#445=DIRECTION('',(0.,1.,0.));
#446=DIRECTION('',(0.,0.,-1.));
#447=DIRECTION('',(0.,1.,0.));
#448=DIRECTION('',(0.,1.,0.));
#449=DIRECTION('',(0.,0.,-1.));
#450=DIRECTION('',(0.,1.,0.));
#451=DIRECTION('',(0.,0.,1.));
#452=DIRECTION('',(0.,-1.,0.));
#453=DIRECTION('',(0.,0.,-1.));
#454=DIRECTION('',(0.,-1.,0.));
#455=DIRECTION('',(0.,0.,-1.));
#456=DIRECTION('',(0.,1.,0.));
#457=DIRECTION('',(0.,0.,1.));
#458=DIRECTION('',(0.,-1.,0.));
#459=DIRECTION('',(0.,0.,-1.));
#460=DIRECTION('',(0.,-1.,0.));
#461=DIRECTION('',(0.,0.,-1.));
#462=DIRECTION('',(0.,-1.,0.));
#463=DIRECTION('',(1.,0.,0.));
#464=DIRECTION('',(0.,-1.,0.));
#465=DIRECTION('',(1.,0.,0.));
#466=DIRECTION('',(0.5,0.,0.866025403784439));
#467=DIRECTION('',(-0.5,0.,0.866025403784439));
#468=DIRECTION('',(-1.,0.,0.));
#469=DIRECTION('',(-0.5,0.,-0.866025403784439));
#470=DIRECTION('',(0.5,0.,-0.866025403784439));
#471=DIRECTION('',(1.,0.,0.));
#472=DIRECTION('',(-0.866025403784439,0.,-0.5));
#473=DIRECTION('',(-0.5,0.,0.866025403784439));
#474=DIRECTION('',(0.,1.,0.));
#475=DIRECTION('',(-0.5,0.,0.866025403784439));
#476=DIRECTION('',(0.,1.,0.));
#477=DIRECTION('',(-0.866025403784439,0.,0.5));
#478=DIRECTION('',(0.5,0.,0.866025403784439));
#479=DIRECTION('',(0.,1.,0.));
#480=DIRECTION('',(0.5,0.,0.866025403784439));
#481=DIRECTION('',(0.,0.,1.));
#482=DIRECTION('',(1.,0.,0.));
#483=DIRECTION('',(0.,1.,0.));
#484=DIRECTION('',(1.,0.,0.));
#485=DIRECTION('',(0.866025403784439,0.,0.5));
#486=DIRECTION('',(0.5,0.,-0.866025403784439));
#487=DIRECTION('',(0.,1.,0.));
#488=DIRECTION('',(0.5,0.,-0.866025403784439));
#489=DIRECTION('',(0.866025403784439,0.,-0.5));
#490=DIRECTION('',(-0.5,0.,-0.866025403784439));
#491=DIRECTION('',(0.,1.,0.));
#492=DIRECTION('',(-0.5,0.,-0.866025403784439));
#493=DIRECTION('',(0.,0.,-1.));
#494=DIRECTION('',(-1.,0.,0.));
#495=DIRECTION('',(-1.,0.,0.));
#496=DIRECTION('',(0.,1.,0.));
#497=DIRECTION('',(-1.,0.,0.));
#498=CARTESIAN_POINT('',(0.,0.,0.));
#499=CARTESIAN_POINT('',(4.33680868994202E-18,-0.003175,-0.03683));
#500=CARTESIAN_POINT('',(4.33680868994202E-18,-0.003175,-0.03683));
#501=CARTESIAN_POINT('',(4.33680868994202E-18,-0.003175,-0.03937));
#502=CARTESIAN_POINT('',(4.33680868994202E-18,-0.000127,-0.03683));
#503=CARTESIAN_POINT('',(4.33680868994202E-18,-0.000127,-0.03937));
#504=CARTESIAN_POINT('',(-0.00635,-0.003175,-0.003926420532019));
#505=CARTESIAN_POINT('',(-0.00635,0.003175,-0.003926420532019));
#506=CARTESIAN_POINT('',(-0.00635,0.003175,-0.007852841064038));
#507=CARTESIAN_POINT('',(-0.00635,0.003175,0.00785284106403801));
#508=CARTESIAN_POINT('',(-0.00635,-0.003175,-0.007852841064038));
#509=CARTESIAN_POINT('',(-0.00635,-0.003175,-0.007852841064038));
#510=CARTESIAN_POINT('',(-0.00635,-0.003175,-0.003926420532019));
#511=CARTESIAN_POINT('',(-0.00635,-0.003175,0.00785284106403801));
#512=CARTESIAN_POINT('',(-0.00635,-0.003175,0.00785284106403801));
#513=CARTESIAN_POINT('',(-0.0629412,-0.003175,-0.00785284106403804));
#514=CARTESIAN_POINT('',(-0.0629412,0.003175,-0.00785284106403804));
#515=CARTESIAN_POINT('',(-0.0115361436950147,0.003175,-0.0315189371451682));
#516=CARTESIAN_POINT('',(-0.0115361436950147,-0.003175,-0.0315189371451682));
#517=CARTESIAN_POINT('',(-0.0115361436950147,-0.003175,-0.0315189371451682));
#518=CARTESIAN_POINT('',(-0.0629412,-0.003175,-0.00785284106403804));
#519=CARTESIAN_POINT('',(4.51865427208439E-18,-0.003175,-0.03683));
#520=CARTESIAN_POINT('',(4.51865427208439E-18,0.003175,-0.03683));
#521=CARTESIAN_POINT('',(0.0115361436950147,0.003175,-0.0315189371451682));
#522=CARTESIAN_POINT('',(0.0115361436950147,-0.003175,-0.0315189371451682));
#523=CARTESIAN_POINT('',(0.0115361436950147,-0.003175,-0.0315189371451682));
#524=CARTESIAN_POINT('',(4.51865427208439E-18,-0.003175,-0.03683));
#525=CARTESIAN_POINT('',(0.0629412,-0.003175,-0.00785284106403802));
#526=CARTESIAN_POINT('',(0.0629412,0.003175,-0.00785284106403802));
#527=CARTESIAN_POINT('',(0.00635,0.003175,-0.007852841064038));
#528=CARTESIAN_POINT('',(0.00635,-0.003175,-0.007852841064038));
#529=CARTESIAN_POINT('',(0.00635,-0.003175,-0.007852841064038));
#530=CARTESIAN_POINT('',(0.0629412,-0.003175,-0.00785284106403802));
#531=CARTESIAN_POINT('',(0.00635,-0.003175,-0.003926420532019));
#532=CARTESIAN_POINT('',(0.00635,0.003175,-0.003926420532019));
#533=CARTESIAN_POINT('',(0.00635,0.003175,0.00785284106403803));
#534=CARTESIAN_POINT('',(0.00635,-0.003175,0.00785284106403803));
#535=CARTESIAN_POINT('',(0.00635,-0.003175,0.00785284106403803));
#536=CARTESIAN_POINT('',(0.00635,-0.003175,-0.003926420532019));
#537=CARTESIAN_POINT('',(0.0629412,-0.003175,0.00785284106403802));
#538=CARTESIAN_POINT('',(0.0629412,0.003175,0.00785284106403802));
#539=CARTESIAN_POINT('',(0.0115361436950146,0.003175,0.0315189371451682));
#540=CARTESIAN_POINT('',(0.0115361436950146,-0.003175,0.0315189371451682));
#541=CARTESIAN_POINT('',(0.0115361436950146,-0.003175,0.0315189371451682));
#542=CARTESIAN_POINT('',(0.0629412,-0.003175,0.00785284106403802));
#543=CARTESIAN_POINT('',(-1.78625873177132E-17,-0.003175,0.03683));
#544=CARTESIAN_POINT('',(-1.78625873177132E-17,0.003175,0.03683));
#545=CARTESIAN_POINT('',(-0.0115361436950147,0.003175,0.0315189371451682));
#546=CARTESIAN_POINT('',(-0.0115361436950147,-0.003175,0.0315189371451682));
#547=CARTESIAN_POINT('',(-0.0115361436950147,-0.003175,0.0315189371451682));
#548=CARTESIAN_POINT('',(-1.78625873177132E-17,-0.003175,0.03683));
#549=CARTESIAN_POINT('',(-1.34441069388203E-17,-0.003175,0.03683));
#550=CARTESIAN_POINT('',(-1.34441069388203E-17,-0.003175,0.03683));
#551=CARTESIAN_POINT('',(-1.34441069388203E-17,-0.003175,0.03429));
#552=CARTESIAN_POINT('',(-1.34441069388203E-17,0.003175,0.03683));
#553=CARTESIAN_POINT('',(-1.34441069388203E-17,0.003175,0.03429));
#554=CARTESIAN_POINT('',(-0.0629412,-0.003175,0.007852841064038));
#555=CARTESIAN_POINT('',(-0.0629412,0.003175,0.007852841064038));
#556=CARTESIAN_POINT('',(-0.0629412,-0.003175,0.007852841064038));
#557=CARTESIAN_POINT('',(-3.46944695195361E-18,-0.003175,0.));
#558=CARTESIAN_POINT('',(-3.46944695195361E-18,0.003175,0.));
#559=CARTESIAN_POINT('',(-0.00417943859866369,0.003175,-0.034417));
#560=CARTESIAN_POINT('',(-0.00557258479821826,0.003175,-0.03683));
#561=CARTESIAN_POINT('',(-0.00278629239910913,0.003175,-0.032004));
#562=CARTESIAN_POINT('',(-0.00417943859866369,0.003175,-0.039243));
#563=CARTESIAN_POINT('',(-0.00278629239910913,0.003175,-0.041656));
#564=CARTESIAN_POINT('',(6.93889390390723E-18,0.003175,-0.041656));
#565=CARTESIAN_POINT('',(0.00278629239910914,0.003175,-0.041656));
#566=CARTESIAN_POINT('',(0.00417943859866371,0.003175,-0.039243));
#567=CARTESIAN_POINT('',(0.00557258479821827,0.003175,-0.03683));
#568=CARTESIAN_POINT('',(0.00417943859866371,0.003175,-0.034417));
#569=CARTESIAN_POINT('',(0.00278629239910914,0.003175,-0.032004));
#570=CARTESIAN_POINT('',(3.46944695195361E-18,0.003175,-0.032004));
#571=CARTESIAN_POINT('',(-0.00417943859866369,-0.000127,-0.039243));
#572=CARTESIAN_POINT('',(-0.00557258479821826,-0.000127,-0.03683));
#573=CARTESIAN_POINT('',(-0.00557258479821826,-0.000127,-0.03683));
#574=CARTESIAN_POINT('',(-0.00417943859866369,-0.000127,-0.039243));
#575=CARTESIAN_POINT('',(-0.00278629239910913,-0.000127,-0.041656));
#576=CARTESIAN_POINT('',(-0.00278629239910913,-0.000127,-0.041656));
#577=CARTESIAN_POINT('',(-0.00417943859866369,-0.000127,-0.034417));
#578=CARTESIAN_POINT('',(-0.00278629239910913,-0.000127,-0.032004));
#579=CARTESIAN_POINT('',(-0.00278629239910913,-0.000127,-0.032004));
#580=CARTESIAN_POINT('',(-0.00417943859866369,-0.000127,-0.034417));
#581=CARTESIAN_POINT('',(3.46944695195361E-18,-0.000127,-0.032004));
#582=CARTESIAN_POINT('',(0.00278629239910914,-0.000127,-0.032004));
#583=CARTESIAN_POINT('',(0.00278629239910914,-0.000127,-0.032004));
#584=CARTESIAN_POINT('',(3.46944695195361E-18,-0.000127,-0.032004));
#585=CARTESIAN_POINT('',(0.00417943859866371,-0.000127,-0.034417));
#586=CARTESIAN_POINT('',(0.00557258479821827,-0.000127,-0.03683));
#587=CARTESIAN_POINT('',(0.00557258479821827,-0.000127,-0.03683));
#588=CARTESIAN_POINT('',(0.00417943859866371,-0.000127,-0.034417));
#589=CARTESIAN_POINT('',(0.00417943859866371,-0.000127,-0.039243));
#590=CARTESIAN_POINT('',(0.00278629239910914,-0.000127,-0.041656));
#591=CARTESIAN_POINT('',(0.00278629239910914,-0.000127,-0.041656));
#592=CARTESIAN_POINT('',(0.00417943859866371,-0.000127,-0.039243));
#593=CARTESIAN_POINT('',(6.93889390390723E-18,-0.000127,-0.041656));
#594=CARTESIAN_POINT('',(6.93889390390723E-18,-0.000127,-0.041656));
#595=CARTESIAN_POINT('',(1.7347234759768E-18,-0.000127,6.93889390390723E-18));
#596=MECHANICAL_DESIGN_GEOMETRIC_PRESENTATION_REPRESENTATION('',(#349),
#597);
#597=(
GEOMETRIC_REPRESENTATION_CONTEXT(3)
GLOBAL_UNCERTAINTY_ASSIGNED_CONTEXT((#598))
GLOBAL_UNIT_ASSIGNED_CONTEXT((#601,#600,#599))
REPRESENTATION_CONTEXT('Connecting Arm','TOP_LEVEL_ASSEMBLY_PART')
);
#598=UNCERTAINTY_MEASURE_WITH_UNIT(LENGTH_MEASURE(1.E-8),#601,
'DISTANCE_ACCURACY_VALUE','Maximum Tolerance applied to model');
#599=(
NAMED_UNIT(*)
SI_UNIT($,.STERADIAN.)
SOLID_ANGLE_UNIT()
);
#600=(
NAMED_UNIT(*)
PLANE_ANGLE_UNIT()
SI_UNIT($,.RADIAN.)
);
#601=(
LENGTH_UNIT()
NAMED_UNIT(*)
SI_UNIT($,.METRE.)
);
#602=PRODUCT_DEFINITION_SHAPE('','',#603);
#603=PRODUCT_DEFINITION('','',#605,#604);
#604=PRODUCT_DEFINITION_CONTEXT('',#611,'design');
#605=PRODUCT_DEFINITION_FORMATION_WITH_SPECIFIED_SOURCE('','',#607,
 .NOT_KNOWN.);
#606=PRODUCT_RELATED_PRODUCT_CATEGORY('','',(#607));
#607=PRODUCT('Connecting Arm','Connecting Arm','Connecting Arm',(#609));
#608=PRODUCT_CATEGORY('','');
#609=PRODUCT_CONTEXT('',#611,'mechanical');
#610=APPLICATION_PROTOCOL_DEFINITION('international standard',
'ap242_managed_model_based_3d_engineering',2020,#611);
#611=APPLICATION_CONTEXT('managed model based 3d engineering');
ENDSEC;
END-ISO-10303-21;
