ISO-10303-21;
HEADER;
/* Generated by software containing ST-Developer
 * from STEP Tools, Inc. (www.steptools.com) 
 */
/* OPTION: using custom renumber hook */

FILE_DESCRIPTION(
/* description */ ('STEP AP242 Edition 2',
'CAx-IF Rec.Pracs.---Representation and Presentation of Product Manufa
cturing Information (PMI)---4.0---2014-10-13',
'CAx-IF Rec.Pracs.---3D Tessellated Geometry---0.4---2014-09-14','2;1',
'CAx-IF Rec.Pracs.---User Defined Attributes---1.5---2016-08-15'),
/* implementation_level */ '2;1');

FILE_NAME(
/* name */ 'Main - Motor Stand Top',
/* time_stamp */ '2026-05-15T18:25:37Z',
/* author */ (''),
/* organization */ (''),
/* preprocessor_version */ 'ST-DEVELOPER v20',
/* originating_system */ 'ONSHAPE BY PTC INC, 1.215',
/* authorisation */ '  ');

FILE_SCHEMA (('AP242_MANAGED_MODEL_BASED_3D_ENGINEERING_MIM_LF { 1 0 10303 442 3 1 4 }'));
ENDSEC;

DATA;
#10=SHAPE_REPRESENTATION_RELATIONSHIP('','',#515,#11);
#11=ADVANCED_BREP_SHAPE_REPRESENTATION('',(#513),#851);
#12=CIRCLE('',#519,0.0254);
#13=CIRCLE('',#520,0.0254);
#14=CIRCLE('',#522,0.0254);
#15=CIRCLE('',#523,0.0254);
#16=CIRCLE('',#525,0.009652);
#17=CIRCLE('',#526,0.00635);
#18=CIRCLE('',#527,0.00635);
#19=CIRCLE('',#528,0.0254);
#20=CIRCLE('',#529,0.0254);
#21=CIRCLE('',#530,0.0253999999999996);
#22=CIRCLE('',#532,0.00254);
#23=CIRCLE('',#533,0.00254);
#24=CIRCLE('',#534,0.009652);
#25=CIRCLE('',#535,0.0253999999999996);
#26=CIRCLE('',#536,0.0254);
#27=CIRCLE('',#537,0.0254);
#28=CIRCLE('',#539,0.00254);
#29=CIRCLE('',#541,0.00254);
#30=CIRCLE('',#551,0.00635);
#31=CIRCLE('',#554,0.00635);
#32=CYLINDRICAL_SURFACE('',#518,0.0254);
#33=CYLINDRICAL_SURFACE('',#521,0.0254);
#34=CYLINDRICAL_SURFACE('',#538,0.00254);
#35=CYLINDRICAL_SURFACE('',#540,0.00254);
#36=CYLINDRICAL_SURFACE('',#543,0.0254);
#37=CYLINDRICAL_SURFACE('',#545,0.0253999999999996);
#38=CYLINDRICAL_SURFACE('',#548,0.0254);
#39=CYLINDRICAL_SURFACE('',#549,0.009652);
#40=CYLINDRICAL_SURFACE('',#550,0.00635);
#41=CYLINDRICAL_SURFACE('',#553,0.00635);
#42=ORIENTED_EDGE('',*,*,#170,.F.);
#43=ORIENTED_EDGE('',*,*,#171,.T.);
#44=ORIENTED_EDGE('',*,*,#172,.T.);
#45=ORIENTED_EDGE('',*,*,#173,.F.);
#46=ORIENTED_EDGE('',*,*,#174,.F.);
#47=ORIENTED_EDGE('',*,*,#175,.T.);
#48=ORIENTED_EDGE('',*,*,#176,.T.);
#49=ORIENTED_EDGE('',*,*,#177,.F.);
#50=ORIENTED_EDGE('',*,*,#178,.F.);
#51=ORIENTED_EDGE('',*,*,#179,.T.);
#52=ORIENTED_EDGE('',*,*,#180,.T.);
#53=ORIENTED_EDGE('',*,*,#181,.F.);
#54=ORIENTED_EDGE('',*,*,#171,.F.);
#55=ORIENTED_EDGE('',*,*,#182,.F.);
#56=ORIENTED_EDGE('',*,*,#183,.T.);
#57=ORIENTED_EDGE('',*,*,#184,.T.);
#58=ORIENTED_EDGE('',*,*,#185,.T.);
#59=ORIENTED_EDGE('',*,*,#173,.T.);
#60=ORIENTED_EDGE('',*,*,#186,.F.);
#61=ORIENTED_EDGE('',*,*,#187,.F.);
#62=ORIENTED_EDGE('',*,*,#188,.F.);
#63=ORIENTED_EDGE('',*,*,#189,.F.);
#64=ORIENTED_EDGE('',*,*,#190,.F.);
#65=ORIENTED_EDGE('',*,*,#182,.T.);
#66=ORIENTED_EDGE('',*,*,#170,.T.);
#67=ORIENTED_EDGE('',*,*,#185,.F.);
#68=ORIENTED_EDGE('',*,*,#191,.T.);
#69=ORIENTED_EDGE('',*,*,#192,.T.);
#70=ORIENTED_EDGE('',*,*,#193,.T.);
#71=ORIENTED_EDGE('',*,*,#194,.T.);
#72=ORIENTED_EDGE('',*,*,#195,.T.);
#73=ORIENTED_EDGE('',*,*,#196,.T.);
#74=ORIENTED_EDGE('',*,*,#197,.F.);
#75=ORIENTED_EDGE('',*,*,#198,.T.);
#76=ORIENTED_EDGE('',*,*,#199,.T.);
#77=ORIENTED_EDGE('',*,*,#200,.T.);
#78=ORIENTED_EDGE('',*,*,#172,.F.);
#79=ORIENTED_EDGE('',*,*,#184,.F.);
#80=ORIENTED_EDGE('',*,*,#201,.T.);
#81=ORIENTED_EDGE('',*,*,#202,.F.);
#82=ORIENTED_EDGE('',*,*,#203,.F.);
#83=ORIENTED_EDGE('',*,*,#204,.F.);
#84=ORIENTED_EDGE('',*,*,#205,.F.);
#85=ORIENTED_EDGE('',*,*,#206,.F.);
#86=ORIENTED_EDGE('',*,*,#207,.F.);
#87=ORIENTED_EDGE('',*,*,#186,.T.);
#88=ORIENTED_EDGE('',*,*,#199,.F.);
#89=ORIENTED_EDGE('',*,*,#208,.T.);
#90=ORIENTED_EDGE('',*,*,#198,.F.);
#91=ORIENTED_EDGE('',*,*,#209,.T.);
#92=ORIENTED_EDGE('',*,*,#205,.T.);
#93=ORIENTED_EDGE('',*,*,#210,.F.);
#94=ORIENTED_EDGE('',*,*,#193,.F.);
#95=ORIENTED_EDGE('',*,*,#211,.T.);
#96=ORIENTED_EDGE('',*,*,#204,.T.);
#97=ORIENTED_EDGE('',*,*,#212,.F.);
#98=ORIENTED_EDGE('',*,*,#194,.F.);
#99=ORIENTED_EDGE('',*,*,#210,.T.);
#100=ORIENTED_EDGE('',*,*,#203,.T.);
#101=ORIENTED_EDGE('',*,*,#213,.F.);
#102=ORIENTED_EDGE('',*,*,#195,.F.);
#103=ORIENTED_EDGE('',*,*,#212,.T.);
#104=ORIENTED_EDGE('',*,*,#202,.T.);
#105=ORIENTED_EDGE('',*,*,#214,.F.);
#106=ORIENTED_EDGE('',*,*,#196,.F.);
#107=ORIENTED_EDGE('',*,*,#213,.T.);
#108=ORIENTED_EDGE('',*,*,#201,.F.);
#109=ORIENTED_EDGE('',*,*,#183,.F.);
#110=ORIENTED_EDGE('',*,*,#197,.T.);
#111=ORIENTED_EDGE('',*,*,#214,.T.);
#112=ORIENTED_EDGE('',*,*,#207,.T.);
#113=ORIENTED_EDGE('',*,*,#215,.F.);
#114=ORIENTED_EDGE('',*,*,#191,.F.);
#115=ORIENTED_EDGE('',*,*,#187,.T.);
#116=ORIENTED_EDGE('',*,*,#206,.T.);
#117=ORIENTED_EDGE('',*,*,#211,.F.);
#118=ORIENTED_EDGE('',*,*,#192,.F.);
#119=ORIENTED_EDGE('',*,*,#215,.T.);
#120=ORIENTED_EDGE('',*,*,#188,.T.);
#121=ORIENTED_EDGE('',*,*,#200,.F.);
#122=ORIENTED_EDGE('',*,*,#216,.F.);
#123=ORIENTED_EDGE('',*,*,#189,.T.);
#124=ORIENTED_EDGE('',*,*,#209,.F.);
#125=ORIENTED_EDGE('',*,*,#216,.T.);
#126=ORIENTED_EDGE('',*,*,#217,.F.);
#127=ORIENTED_EDGE('',*,*,#190,.T.);
#128=ORIENTED_EDGE('',*,*,#208,.F.);
#129=ORIENTED_EDGE('',*,*,#217,.T.);
#130=ORIENTED_EDGE('',*,*,#175,.F.);
#131=ORIENTED_EDGE('',*,*,#218,.F.);
#132=ORIENTED_EDGE('',*,*,#219,.T.);
#133=ORIENTED_EDGE('',*,*,#220,.T.);
#134=ORIENTED_EDGE('',*,*,#174,.T.);
#135=ORIENTED_EDGE('',*,*,#221,.F.);
#136=ORIENTED_EDGE('',*,*,#222,.F.);
#137=ORIENTED_EDGE('',*,*,#218,.T.);
#138=ORIENTED_EDGE('',*,*,#177,.T.);
#139=ORIENTED_EDGE('',*,*,#223,.F.);
#140=ORIENTED_EDGE('',*,*,#224,.F.);
#141=ORIENTED_EDGE('',*,*,#221,.T.);
#142=ORIENTED_EDGE('',*,*,#176,.F.);
#143=ORIENTED_EDGE('',*,*,#220,.F.);
#144=ORIENTED_EDGE('',*,*,#225,.T.);
#145=ORIENTED_EDGE('',*,*,#223,.T.);
#146=ORIENTED_EDGE('',*,*,#219,.F.);
#147=ORIENTED_EDGE('',*,*,#222,.T.);
#148=ORIENTED_EDGE('',*,*,#224,.T.);
#149=ORIENTED_EDGE('',*,*,#225,.F.);
#150=ORIENTED_EDGE('',*,*,#179,.F.);
#151=ORIENTED_EDGE('',*,*,#226,.F.);
#152=ORIENTED_EDGE('',*,*,#227,.T.);
#153=ORIENTED_EDGE('',*,*,#228,.T.);
#154=ORIENTED_EDGE('',*,*,#178,.T.);
#155=ORIENTED_EDGE('',*,*,#229,.F.);
#156=ORIENTED_EDGE('',*,*,#230,.F.);
#157=ORIENTED_EDGE('',*,*,#226,.T.);
#158=ORIENTED_EDGE('',*,*,#181,.T.);
#159=ORIENTED_EDGE('',*,*,#231,.F.);
#160=ORIENTED_EDGE('',*,*,#232,.F.);
#161=ORIENTED_EDGE('',*,*,#229,.T.);
#162=ORIENTED_EDGE('',*,*,#180,.F.);
#163=ORIENTED_EDGE('',*,*,#228,.F.);
#164=ORIENTED_EDGE('',*,*,#233,.T.);
#165=ORIENTED_EDGE('',*,*,#231,.T.);
#166=ORIENTED_EDGE('',*,*,#227,.F.);
#167=ORIENTED_EDGE('',*,*,#230,.T.);
#168=ORIENTED_EDGE('',*,*,#232,.T.);
#169=ORIENTED_EDGE('',*,*,#233,.F.);
#170=EDGE_CURVE('',#234,#235,#280,.T.);
#171=EDGE_CURVE('',#234,#236,#281,.T.);
#172=EDGE_CURVE('',#236,#237,#282,.T.);
#173=EDGE_CURVE('',#235,#237,#283,.T.);
#174=EDGE_CURVE('',#238,#239,#284,.T.);
#175=EDGE_CURVE('',#238,#240,#285,.T.);
#176=EDGE_CURVE('',#240,#241,#286,.T.);
#177=EDGE_CURVE('',#239,#241,#287,.T.);
#178=EDGE_CURVE('',#242,#243,#288,.T.);
#179=EDGE_CURVE('',#242,#244,#289,.T.);
#180=EDGE_CURVE('',#244,#245,#290,.T.);
#181=EDGE_CURVE('',#243,#245,#291,.T.);
#182=EDGE_CURVE('',#246,#234,#12,.T.);
#183=EDGE_CURVE('',#246,#247,#292,.T.);
#184=EDGE_CURVE('',#247,#236,#13,.T.);
#185=EDGE_CURVE('',#248,#235,#14,.T.);
#186=EDGE_CURVE('',#249,#237,#15,.T.);
#187=EDGE_CURVE('',#248,#249,#293,.T.);
#188=EDGE_CURVE('',#250,#250,#16,.T.);
#189=EDGE_CURVE('',#251,#251,#17,.T.);
#190=EDGE_CURVE('',#252,#252,#18,.T.);
#191=EDGE_CURVE('',#248,#253,#294,.T.);
#192=EDGE_CURVE('',#253,#254,#19,.T.);
#193=EDGE_CURVE('',#254,#255,#295,.T.);
#194=EDGE_CURVE('',#255,#256,#20,.T.);
#195=EDGE_CURVE('',#256,#257,#296,.T.);
#196=EDGE_CURVE('',#257,#258,#21,.T.);
#197=EDGE_CURVE('',#246,#258,#297,.T.);
#198=EDGE_CURVE('',#259,#259,#22,.T.);
#199=EDGE_CURVE('',#260,#260,#23,.T.);
#200=EDGE_CURVE('',#261,#261,#24,.T.);
#201=EDGE_CURVE('',#247,#262,#298,.T.);
#202=EDGE_CURVE('',#263,#262,#25,.T.);
#203=EDGE_CURVE('',#264,#263,#299,.T.);
#204=EDGE_CURVE('',#265,#264,#26,.T.);
#205=EDGE_CURVE('',#266,#265,#300,.T.);
#206=EDGE_CURVE('',#267,#266,#27,.T.);
#207=EDGE_CURVE('',#249,#267,#301,.T.);
#208=EDGE_CURVE('',#268,#268,#28,.T.);
#209=EDGE_CURVE('',#269,#269,#29,.T.);
#210=EDGE_CURVE('',#255,#265,#302,.T.);
#211=EDGE_CURVE('',#254,#266,#303,.T.);
#212=EDGE_CURVE('',#256,#264,#304,.T.);
#213=EDGE_CURVE('',#257,#263,#305,.T.);
#214=EDGE_CURVE('',#258,#262,#306,.T.);
#215=EDGE_CURVE('',#253,#267,#307,.T.);
#216=EDGE_CURVE('',#270,#270,#30,.T.);
#217=EDGE_CURVE('',#271,#271,#31,.T.);
#218=EDGE_CURVE('',#272,#238,#308,.T.);
#219=EDGE_CURVE('',#272,#273,#309,.T.);
#220=EDGE_CURVE('',#273,#240,#310,.T.);
#221=EDGE_CURVE('',#274,#239,#311,.T.);
#222=EDGE_CURVE('',#272,#274,#312,.T.);
#223=EDGE_CURVE('',#275,#241,#313,.T.);
#224=EDGE_CURVE('',#274,#275,#314,.T.);
#225=EDGE_CURVE('',#273,#275,#315,.T.);
#226=EDGE_CURVE('',#276,#242,#316,.T.);
#227=EDGE_CURVE('',#276,#277,#317,.T.);
#228=EDGE_CURVE('',#277,#244,#318,.T.);
#229=EDGE_CURVE('',#278,#243,#319,.T.);
#230=EDGE_CURVE('',#276,#278,#320,.T.);
#231=EDGE_CURVE('',#279,#245,#321,.T.);
#232=EDGE_CURVE('',#278,#279,#322,.T.);
#233=EDGE_CURVE('',#277,#279,#323,.T.);
#234=VERTEX_POINT('',#713);
#235=VERTEX_POINT('',#714);
#236=VERTEX_POINT('',#716);
#237=VERTEX_POINT('',#718);
#238=VERTEX_POINT('',#721);
#239=VERTEX_POINT('',#722);
#240=VERTEX_POINT('',#724);
#241=VERTEX_POINT('',#726);
#242=VERTEX_POINT('',#729);
#243=VERTEX_POINT('',#730);
#244=VERTEX_POINT('',#732);
#245=VERTEX_POINT('',#734);
#246=VERTEX_POINT('',#738);
#247=VERTEX_POINT('',#740);
#248=VERTEX_POINT('',#744);
#249=VERTEX_POINT('',#746);
#250=VERTEX_POINT('',#750);
#251=VERTEX_POINT('',#752);
#252=VERTEX_POINT('',#754);
#253=VERTEX_POINT('',#756);
#254=VERTEX_POINT('',#758);
#255=VERTEX_POINT('',#760);
#256=VERTEX_POINT('',#762);
#257=VERTEX_POINT('',#764);
#258=VERTEX_POINT('',#766);
#259=VERTEX_POINT('',#770);
#260=VERTEX_POINT('',#772);
#261=VERTEX_POINT('',#774);
#262=VERTEX_POINT('',#776);
#263=VERTEX_POINT('',#778);
#264=VERTEX_POINT('',#780);
#265=VERTEX_POINT('',#782);
#266=VERTEX_POINT('',#784);
#267=VERTEX_POINT('',#786);
#268=VERTEX_POINT('',#790);
#269=VERTEX_POINT('',#793);
#270=VERTEX_POINT('',#810);
#271=VERTEX_POINT('',#814);
#272=VERTEX_POINT('',#818);
#273=VERTEX_POINT('',#820);
#274=VERTEX_POINT('',#824);
#275=VERTEX_POINT('',#828);
#276=VERTEX_POINT('',#835);
#277=VERTEX_POINT('',#837);
#278=VERTEX_POINT('',#841);
#279=VERTEX_POINT('',#845);
#280=LINE('',#712,#324);
#281=LINE('',#715,#325);
#282=LINE('',#717,#326);
#283=LINE('',#719,#327);
#284=LINE('',#720,#328);
#285=LINE('',#723,#329);
#286=LINE('',#725,#330);
#287=LINE('',#727,#331);
#288=LINE('',#728,#332);
#289=LINE('',#731,#333);
#290=LINE('',#733,#334);
#291=LINE('',#735,#335);
#292=LINE('',#739,#336);
#293=LINE('',#747,#337);
#294=LINE('',#755,#338);
#295=LINE('',#759,#339);
#296=LINE('',#763,#340);
#297=LINE('',#767,#341);
#298=LINE('',#775,#342);
#299=LINE('',#779,#343);
#300=LINE('',#783,#344);
#301=LINE('',#787,#345);
#302=LINE('',#795,#346);
#303=LINE('',#796,#347);
#304=LINE('',#798,#348);
#305=LINE('',#800,#349);
#306=LINE('',#802,#350);
#307=LINE('',#805,#351);
#308=LINE('',#817,#352);
#309=LINE('',#819,#353);
#310=LINE('',#821,#354);
#311=LINE('',#823,#355);
#312=LINE('',#825,#356);
#313=LINE('',#827,#357);
#314=LINE('',#829,#358);
#315=LINE('',#831,#359);
#316=LINE('',#834,#360);
#317=LINE('',#836,#361);
#318=LINE('',#838,#362);
#319=LINE('',#840,#363);
#320=LINE('',#842,#364);
#321=LINE('',#844,#365);
#322=LINE('',#846,#366);
#323=LINE('',#848,#367);
#324=VECTOR('',#570,1.);
#325=VECTOR('',#571,1.);
#326=VECTOR('',#572,1.);
#327=VECTOR('',#573,1.);
#328=VECTOR('',#574,1.);
#329=VECTOR('',#575,1.);
#330=VECTOR('',#576,1.);
#331=VECTOR('',#577,1.);
#332=VECTOR('',#578,1.);
#333=VECTOR('',#579,1.);
#334=VECTOR('',#580,1.);
#335=VECTOR('',#581,1.);
#336=VECTOR('',#586,1.);
#337=VECTOR('',#595,1.);
#338=VECTOR('',#604,1.);
#339=VECTOR('',#607,1.);
#340=VECTOR('',#610,1.);
#341=VECTOR('',#613,1.);
#342=VECTOR('',#622,1.);
#343=VECTOR('',#625,1.);
#344=VECTOR('',#628,1.);
#345=VECTOR('',#631,1.);
#346=VECTOR('',#642,1.);
#347=VECTOR('',#643,1.);
#348=VECTOR('',#646,1.);
#349=VECTOR('',#649,1.);
#350=VECTOR('',#652,1.);
#351=VECTOR('',#657,1.);
#352=VECTOR('',#676,1.);
#353=VECTOR('',#677,1.);
#354=VECTOR('',#678,1.);
#355=VECTOR('',#681,1.);
#356=VECTOR('',#682,1.);
#357=VECTOR('',#685,1.);
#358=VECTOR('',#686,1.);
#359=VECTOR('',#689,1.);
#360=VECTOR('',#694,1.);
#361=VECTOR('',#695,1.);
#362=VECTOR('',#696,1.);
#363=VECTOR('',#699,1.);
#364=VECTOR('',#700,1.);
#365=VECTOR('',#703,1.);
#366=VECTOR('',#704,1.);
#367=VECTOR('',#707,1.);
#368=EDGE_LOOP('',(#42,#43,#44,#45));
#369=EDGE_LOOP('',(#46,#47,#48,#49));
#370=EDGE_LOOP('',(#50,#51,#52,#53));
#371=EDGE_LOOP('',(#54,#55,#56,#57));
#372=EDGE_LOOP('',(#58,#59,#60,#61));
#373=EDGE_LOOP('',(#62));
#374=EDGE_LOOP('',(#63));
#375=EDGE_LOOP('',(#64));
#376=EDGE_LOOP('',(#65,#66,#67,#68,#69,#70,#71,#72,#73,#74));
#377=EDGE_LOOP('',(#75));
#378=EDGE_LOOP('',(#76));
#379=EDGE_LOOP('',(#77));
#380=EDGE_LOOP('',(#78,#79,#80,#81,#82,#83,#84,#85,#86,#87));
#381=EDGE_LOOP('',(#88));
#382=EDGE_LOOP('',(#89));
#383=EDGE_LOOP('',(#90));
#384=EDGE_LOOP('',(#91));
#385=EDGE_LOOP('',(#92,#93,#94,#95));
#386=EDGE_LOOP('',(#96,#97,#98,#99));
#387=EDGE_LOOP('',(#100,#101,#102,#103));
#388=EDGE_LOOP('',(#104,#105,#106,#107));
#389=EDGE_LOOP('',(#108,#109,#110,#111));
#390=EDGE_LOOP('',(#112,#113,#114,#115));
#391=EDGE_LOOP('',(#116,#117,#118,#119));
#392=EDGE_LOOP('',(#120));
#393=EDGE_LOOP('',(#121));
#394=EDGE_LOOP('',(#122));
#395=EDGE_LOOP('',(#123));
#396=EDGE_LOOP('',(#124));
#397=EDGE_LOOP('',(#125));
#398=EDGE_LOOP('',(#126));
#399=EDGE_LOOP('',(#127));
#400=EDGE_LOOP('',(#128));
#401=EDGE_LOOP('',(#129));
#402=EDGE_LOOP('',(#130,#131,#132,#133));
#403=EDGE_LOOP('',(#134,#135,#136,#137));
#404=EDGE_LOOP('',(#138,#139,#140,#141));
#405=EDGE_LOOP('',(#142,#143,#144,#145));
#406=EDGE_LOOP('',(#146,#147,#148,#149));
#407=EDGE_LOOP('',(#150,#151,#152,#153));
#408=EDGE_LOOP('',(#154,#155,#156,#157));
#409=EDGE_LOOP('',(#158,#159,#160,#161));
#410=EDGE_LOOP('',(#162,#163,#164,#165));
#411=EDGE_LOOP('',(#166,#167,#168,#169));
#412=FACE_BOUND('',#368,.T.);
#413=FACE_BOUND('',#369,.T.);
#414=FACE_BOUND('',#370,.T.);
#415=FACE_BOUND('',#371,.T.);
#416=FACE_BOUND('',#372,.T.);
#417=FACE_BOUND('',#373,.T.);
#418=FACE_BOUND('',#374,.T.);
#419=FACE_BOUND('',#375,.T.);
#420=FACE_BOUND('',#376,.T.);
#421=FACE_BOUND('',#377,.T.);
#422=FACE_BOUND('',#378,.T.);
#423=FACE_BOUND('',#379,.T.);
#424=FACE_BOUND('',#380,.T.);
#425=FACE_BOUND('',#381,.T.);
#426=FACE_BOUND('',#382,.T.);
#427=FACE_BOUND('',#383,.T.);
#428=FACE_BOUND('',#384,.T.);
#429=FACE_BOUND('',#385,.T.);
#430=FACE_BOUND('',#386,.T.);
#431=FACE_BOUND('',#387,.T.);
#432=FACE_BOUND('',#388,.T.);
#433=FACE_BOUND('',#389,.T.);
#434=FACE_BOUND('',#390,.T.);
#435=FACE_BOUND('',#391,.T.);
#436=FACE_BOUND('',#392,.T.);
#437=FACE_BOUND('',#393,.T.);
#438=FACE_BOUND('',#394,.T.);
#439=FACE_BOUND('',#395,.T.);
#440=FACE_BOUND('',#396,.T.);
#441=FACE_BOUND('',#397,.T.);
#442=FACE_BOUND('',#398,.T.);
#443=FACE_BOUND('',#399,.T.);
#444=FACE_BOUND('',#400,.T.);
#445=FACE_BOUND('',#401,.T.);
#446=FACE_BOUND('',#402,.T.);
#447=FACE_BOUND('',#403,.T.);
#448=FACE_BOUND('',#404,.T.);
#449=FACE_BOUND('',#405,.T.);
#450=FACE_BOUND('',#406,.T.);
#451=FACE_BOUND('',#407,.T.);
#452=FACE_BOUND('',#408,.T.);
#453=FACE_BOUND('',#409,.T.);
#454=FACE_BOUND('',#410,.T.);
#455=FACE_BOUND('',#411,.T.);
#456=PLANE('',#517);
#457=PLANE('',#524);
#458=PLANE('',#531);
#459=PLANE('',#542);
#460=PLANE('',#544);
#461=PLANE('',#546);
#462=PLANE('',#547);
#463=PLANE('',#552);
#464=PLANE('',#555);
#465=PLANE('',#556);
#466=PLANE('',#557);
#467=PLANE('',#558);
#468=PLANE('',#559);
#469=PLANE('',#560);
#470=PLANE('',#561);
#471=PLANE('',#562);
#472=PLANE('',#563);
#473=PLANE('',#564);
#474=PLANE('',#565);
#475=ADVANCED_FACE('',(#412,#413,#414),#456,.T.);
#476=ADVANCED_FACE('',(#415),#32,.T.);
#477=ADVANCED_FACE('',(#416),#33,.F.);
#478=ADVANCED_FACE('',(#417,#418,#419,#420),#457,.T.);
#479=ADVANCED_FACE('',(#421,#422,#423,#424),#458,.F.);
#480=ADVANCED_FACE('',(#425,#426),#34,.F.);
#481=ADVANCED_FACE('',(#427,#428),#35,.F.);
#482=ADVANCED_FACE('',(#429),#459,.F.);
#483=ADVANCED_FACE('',(#430),#36,.T.);
#484=ADVANCED_FACE('',(#431),#460,.F.);
#485=ADVANCED_FACE('',(#432),#37,.T.);
#486=ADVANCED_FACE('',(#433),#461,.T.);
#487=ADVANCED_FACE('',(#434),#462,.F.);
#488=ADVANCED_FACE('',(#435),#38,.T.);
#489=ADVANCED_FACE('',(#436,#437),#39,.F.);
#490=ADVANCED_FACE('',(#438,#439),#40,.F.);
#491=ADVANCED_FACE('',(#440,#441),#463,.T.);
#492=ADVANCED_FACE('',(#442,#443),#41,.F.);
#493=ADVANCED_FACE('',(#444,#445),#464,.T.);
#494=ADVANCED_FACE('',(#446),#465,.T.);
#495=ADVANCED_FACE('',(#447),#466,.F.);
#496=ADVANCED_FACE('',(#448),#467,.F.);
#497=ADVANCED_FACE('',(#449),#468,.T.);
#498=ADVANCED_FACE('',(#450),#469,.T.);
#499=ADVANCED_FACE('',(#451),#470,.T.);
#500=ADVANCED_FACE('',(#452),#471,.F.);
#501=ADVANCED_FACE('',(#453),#472,.F.);
#502=ADVANCED_FACE('',(#454),#473,.T.);
#503=ADVANCED_FACE('',(#455),#474,.T.);
#504=CLOSED_SHELL('',(#475,#476,#477,#478,#479,#480,#481,#482,#483,#484,
#485,#486,#487,#488,#489,#490,#491,#492,#493,#494,#495,#496,#497,#498,#499,
#500,#501,#502,#503));
#505=STYLED_ITEM('',(#506),#513);
#506=PRESENTATION_STYLE_ASSIGNMENT((#507));
#507=SURFACE_STYLE_USAGE(.BOTH.,#508);
#508=SURFACE_SIDE_STYLE('',(#509));
#509=SURFACE_STYLE_FILL_AREA(#510);
#510=FILL_AREA_STYLE('',(#511));
#511=FILL_AREA_STYLE_COLOUR('',#512);
#512=COLOUR_RGB('',0.223529411764706,0.223529411764706,0.223529411764706);
#513=MANIFOLD_SOLID_BREP('Motor Stand Top',#504);
#514=SHAPE_DEFINITION_REPRESENTATION(#856,#515);
#515=SHAPE_REPRESENTATION('Motor Stand Top',(#516),#851);
#516=AXIS2_PLACEMENT_3D('',#710,#566,#567);
#517=AXIS2_PLACEMENT_3D('',#711,#568,#569);
#518=AXIS2_PLACEMENT_3D('',#736,#582,#583);
#519=AXIS2_PLACEMENT_3D('',#737,#584,#585);
#520=AXIS2_PLACEMENT_3D('',#741,#587,#588);
#521=AXIS2_PLACEMENT_3D('',#742,#589,#590);
#522=AXIS2_PLACEMENT_3D('',#743,#591,#592);
#523=AXIS2_PLACEMENT_3D('',#745,#593,#594);
#524=AXIS2_PLACEMENT_3D('',#748,#596,#597);
#525=AXIS2_PLACEMENT_3D('',#749,#598,#599);
#526=AXIS2_PLACEMENT_3D('',#751,#600,#601);
#527=AXIS2_PLACEMENT_3D('',#753,#602,#603);
#528=AXIS2_PLACEMENT_3D('',#757,#605,#606);
#529=AXIS2_PLACEMENT_3D('',#761,#608,#609);
#530=AXIS2_PLACEMENT_3D('',#765,#611,#612);
#531=AXIS2_PLACEMENT_3D('',#768,#614,#615);
#532=AXIS2_PLACEMENT_3D('',#769,#616,#617);
#533=AXIS2_PLACEMENT_3D('',#771,#618,#619);
#534=AXIS2_PLACEMENT_3D('',#773,#620,#621);
#535=AXIS2_PLACEMENT_3D('',#777,#623,#624);
#536=AXIS2_PLACEMENT_3D('',#781,#626,#627);
#537=AXIS2_PLACEMENT_3D('',#785,#629,#630);
#538=AXIS2_PLACEMENT_3D('',#788,#632,#633);
#539=AXIS2_PLACEMENT_3D('',#789,#634,#635);
#540=AXIS2_PLACEMENT_3D('',#791,#636,#637);
#541=AXIS2_PLACEMENT_3D('',#792,#638,#639);
#542=AXIS2_PLACEMENT_3D('',#794,#640,#641);
#543=AXIS2_PLACEMENT_3D('',#797,#644,#645);
#544=AXIS2_PLACEMENT_3D('',#799,#647,#648);
#545=AXIS2_PLACEMENT_3D('',#801,#650,#651);
#546=AXIS2_PLACEMENT_3D('',#803,#653,#654);
#547=AXIS2_PLACEMENT_3D('',#804,#655,#656);
#548=AXIS2_PLACEMENT_3D('',#806,#658,#659);
#549=AXIS2_PLACEMENT_3D('',#807,#660,#661);
#550=AXIS2_PLACEMENT_3D('',#808,#662,#663);
#551=AXIS2_PLACEMENT_3D('',#809,#664,#665);
#552=AXIS2_PLACEMENT_3D('',#811,#666,#667);
#553=AXIS2_PLACEMENT_3D('',#812,#668,#669);
#554=AXIS2_PLACEMENT_3D('',#813,#670,#671);
#555=AXIS2_PLACEMENT_3D('',#815,#672,#673);
#556=AXIS2_PLACEMENT_3D('',#816,#674,#675);
#557=AXIS2_PLACEMENT_3D('',#822,#679,#680);
#558=AXIS2_PLACEMENT_3D('',#826,#683,#684);
#559=AXIS2_PLACEMENT_3D('',#830,#687,#688);
#560=AXIS2_PLACEMENT_3D('',#832,#690,#691);
#561=AXIS2_PLACEMENT_3D('',#833,#692,#693);
#562=AXIS2_PLACEMENT_3D('',#839,#697,#698);
#563=AXIS2_PLACEMENT_3D('',#843,#701,#702);
#564=AXIS2_PLACEMENT_3D('',#847,#705,#706);
#565=AXIS2_PLACEMENT_3D('',#849,#708,#709);
#566=DIRECTION('',(0.,0.,1.));
#567=DIRECTION('',(1.,0.,0.));
#568=DIRECTION('',(0.,0.,-1.));
#569=DIRECTION('',(1.,0.,0.));
#570=DIRECTION('',(1.,0.,0.));
#571=DIRECTION('',(0.,1.,0.));
#572=DIRECTION('',(1.,0.,0.));
#573=DIRECTION('',(0.,1.,0.));
#574=DIRECTION('',(0.,1.,0.));
#575=DIRECTION('',(1.,0.,0.));
#576=DIRECTION('',(0.,1.,0.));
#577=DIRECTION('',(1.,0.,0.));
#578=DIRECTION('',(0.,1.,0.));
#579=DIRECTION('',(1.,0.,0.));
#580=DIRECTION('',(0.,1.,0.));
#581=DIRECTION('',(1.,0.,0.));
#582=DIRECTION('',(0.,1.,0.));
#583=DIRECTION('',(0.,0.,1.));
#584=DIRECTION('',(0.,-1.,0.));
#585=DIRECTION('',(0.,0.,-1.));
#586=DIRECTION('',(0.,1.,0.));
#587=DIRECTION('',(0.,-1.,0.));
#588=DIRECTION('',(0.,0.,-1.));
#589=DIRECTION('',(0.,1.,0.));
#590=DIRECTION('',(0.,0.,1.));
#591=DIRECTION('',(0.,-1.,0.));
#592=DIRECTION('',(0.,0.,-1.));
#593=DIRECTION('',(0.,-1.,0.));
#594=DIRECTION('',(0.,0.,-1.));
#595=DIRECTION('',(0.,1.,0.));
#596=DIRECTION('',(0.,-1.,0.));
#597=DIRECTION('',(1.,0.,0.));
#598=DIRECTION('',(0.,-1.,0.));
#599=DIRECTION('',(0.,0.,-1.));
#600=DIRECTION('',(0.,-1.,0.));
#601=DIRECTION('',(0.,0.,-1.));
#602=DIRECTION('',(0.,-1.,0.));
#603=DIRECTION('',(0.,0.,-1.));
#604=DIRECTION('',(1.,0.,0.));
#605=DIRECTION('',(0.,-1.,0.));
#606=DIRECTION('',(0.,0.,-1.));
#607=DIRECTION('',(0.,0.,1.));
#608=DIRECTION('',(0.,-1.,0.));
#609=DIRECTION('',(0.,0.,-1.));
#610=DIRECTION('',(-1.,0.,0.));
#611=DIRECTION('',(0.,-1.,0.));
#612=DIRECTION('',(0.,0.,-1.));
#613=DIRECTION('',(0.804072068442829,0.,0.594531839980056));
#614=DIRECTION('',(0.,-1.,0.));
#615=DIRECTION('',(1.,0.,0.));
#616=DIRECTION('',(0.,-1.,0.));
#617=DIRECTION('',(0.,0.,-1.));
#618=DIRECTION('',(0.,-1.,0.));
#619=DIRECTION('',(0.,0.,-1.));
#620=DIRECTION('',(0.,-1.,0.));
#621=DIRECTION('',(0.,0.,-1.));
#622=DIRECTION('',(0.804072068442829,0.,0.594531839980056));
#623=DIRECTION('',(0.,-1.,0.));
#624=DIRECTION('',(0.,0.,-1.));
#625=DIRECTION('',(-1.,0.,0.));
#626=DIRECTION('',(0.,-1.,0.));
#627=DIRECTION('',(0.,0.,-1.));
#628=DIRECTION('',(0.,0.,1.));
#629=DIRECTION('',(0.,-1.,0.));
#630=DIRECTION('',(0.,0.,-1.));
#631=DIRECTION('',(1.,0.,0.));
#632=DIRECTION('',(0.,1.,0.));
#633=DIRECTION('',(0.,0.,1.));
#634=DIRECTION('',(0.,-1.,0.));
#635=DIRECTION('',(0.,0.,-1.));
#636=DIRECTION('',(0.,1.,0.));
#637=DIRECTION('',(0.,0.,1.));
#638=DIRECTION('',(0.,-1.,0.));
#639=DIRECTION('',(0.,0.,-1.));
#640=DIRECTION('',(-1.,0.,0.));
#641=DIRECTION('',(0.,0.,1.));
#642=DIRECTION('',(0.,1.,0.));
#643=DIRECTION('',(0.,1.,0.));
#644=DIRECTION('',(0.,1.,0.));
#645=DIRECTION('',(0.,0.,1.));
#646=DIRECTION('',(0.,1.,0.));
#647=DIRECTION('',(0.,0.,-1.));
#648=DIRECTION('',(-1.,0.,0.));
#649=DIRECTION('',(0.,1.,0.));
#650=DIRECTION('',(0.,1.,0.));
#651=DIRECTION('',(0.,0.,1.));
#652=DIRECTION('',(0.,1.,0.));
#653=DIRECTION('',(-0.594531839980056,0.,0.804072068442829));
#654=DIRECTION('',(0.804072068442829,0.,0.594531839980056));
#655=DIRECTION('',(0.,0.,1.));
#656=DIRECTION('',(1.,0.,0.));
#657=DIRECTION('',(0.,1.,0.));
#658=DIRECTION('',(0.,1.,0.));
#659=DIRECTION('',(0.,0.,1.));
#660=DIRECTION('',(0.,1.,0.));
#661=DIRECTION('',(0.,0.,1.));
#662=DIRECTION('',(0.,-1.,0.));
#663=DIRECTION('',(0.,0.,-1.));
#664=DIRECTION('',(0.,-1.,0.));
#665=DIRECTION('',(0.,0.,-1.));
#666=DIRECTION('',(0.,-1.,0.));
#667=DIRECTION('',(1.,0.,0.));
#668=DIRECTION('',(0.,-1.,0.));
#669=DIRECTION('',(0.,0.,-1.));
#670=DIRECTION('',(0.,-1.,0.));
#671=DIRECTION('',(0.,0.,-1.));
#672=DIRECTION('',(0.,-1.,0.));
#673=DIRECTION('',(1.,0.,0.));
#674=DIRECTION('',(0.,-1.,0.));
#675=DIRECTION('',(0.,0.,-1.));
#676=DIRECTION('',(0.,0.,1.));
#677=DIRECTION('',(1.,0.,0.));
#678=DIRECTION('',(0.,0.,1.));
#679=DIRECTION('',(1.,0.,0.));
#680=DIRECTION('',(0.,0.,-1.));
#681=DIRECTION('',(0.,0.,1.));
#682=DIRECTION('',(0.,1.,0.));
#683=DIRECTION('',(0.,-1.,0.));
#684=DIRECTION('',(0.,0.,-1.));
#685=DIRECTION('',(0.,0.,1.));
#686=DIRECTION('',(1.,0.,0.));
#687=DIRECTION('',(1.,0.,0.));
#688=DIRECTION('',(0.,0.,-1.));
#689=DIRECTION('',(0.,1.,0.));
#690=DIRECTION('',(0.,0.,-1.));
#691=DIRECTION('',(1.,0.,0.));
#692=DIRECTION('',(0.,-1.,0.));
#693=DIRECTION('',(0.,0.,-1.));
#694=DIRECTION('',(0.,0.,1.));
#695=DIRECTION('',(1.,0.,0.));
#696=DIRECTION('',(0.,0.,1.));
#697=DIRECTION('',(1.,0.,0.));
#698=DIRECTION('',(0.,0.,-1.));
#699=DIRECTION('',(0.,0.,1.));
#700=DIRECTION('',(0.,1.,0.));
#701=DIRECTION('',(0.,-1.,0.));
#702=DIRECTION('',(0.,0.,-1.));
#703=DIRECTION('',(0.,0.,1.));
#704=DIRECTION('',(1.,0.,0.));
#705=DIRECTION('',(1.,0.,0.));
#706=DIRECTION('',(0.,0.,-1.));
#707=DIRECTION('',(0.,1.,0.));
#708=DIRECTION('',(0.,0.,-1.));
#709=DIRECTION('',(1.,0.,0.));
#710=CARTESIAN_POINT('',(0.,0.,0.));
#711=CARTESIAN_POINT('',(0.0742114366192608,-0.0127,0.14224));
#712=CARTESIAN_POINT('',(0.119996484345567,-0.0127,0.14224));
#713=CARTESIAN_POINT('',(0.00875110873549342,-0.0127,0.14224));
#714=CARTESIAN_POINT('',(0.139671764503028,-0.0127,0.14224));
#715=CARTESIAN_POINT('',(0.00875110873549342,-0.0127,0.14224));
#716=CARTESIAN_POINT('',(0.00875110873549342,0.0127,0.14224));
#717=CARTESIAN_POINT('',(0.119996484345567,0.0127,0.14224));
#718=CARTESIAN_POINT('',(0.139671764503028,0.0127,0.14224));
#719=CARTESIAN_POINT('',(0.139671764503028,-0.0127,0.14224));
#720=CARTESIAN_POINT('',(0.0932614366192608,-1.04083408558608E-17,0.14224));
#721=CARTESIAN_POINT('',(0.0932614366192608,-0.00635,0.14224));
#722=CARTESIAN_POINT('',(0.0932614366192608,0.00635,0.14224));
#723=CARTESIAN_POINT('',(0.112311436619261,-0.00635,0.14224));
#724=CARTESIAN_POINT('',(0.131361436619261,-0.00635,0.14224));
#725=CARTESIAN_POINT('',(0.131361436619261,-1.38777878078145E-17,0.14224));
#726=CARTESIAN_POINT('',(0.131361436619261,0.00635,0.14224));
#727=CARTESIAN_POINT('',(0.112311436619261,0.00635,0.14224));
#728=CARTESIAN_POINT('',(0.0170614366192609,-1.38777878078145E-17,0.14224));
#729=CARTESIAN_POINT('',(0.0170614366192609,-0.00635,0.14224));
#730=CARTESIAN_POINT('',(0.0170614366192609,0.00635,0.14224));
#731=CARTESIAN_POINT('',(0.0361114366192608,-0.00635,0.14224));
#732=CARTESIAN_POINT('',(0.0551614366192608,-0.00635,0.14224));
#733=CARTESIAN_POINT('',(0.0551614366192608,-1.04083408558608E-17,0.14224));
#734=CARTESIAN_POINT('',(0.0551614366192608,0.00635,0.14224));
#735=CARTESIAN_POINT('',(0.0361114366192608,0.00635,0.14224));
#736=CARTESIAN_POINT('',(0.0341511087354935,-0.0127,0.14224));
#737=CARTESIAN_POINT('',(0.0341511087354935,-0.0127,0.14224));
#738=CARTESIAN_POINT('',(0.01905,-0.0127,0.162663430538448));
#739=CARTESIAN_POINT('',(0.01905,-0.0127,0.162663430538448));
#740=CARTESIAN_POINT('',(0.01905,0.0127,0.162663430538448));
#741=CARTESIAN_POINT('',(0.0341511087354935,0.0127,0.14224));
#742=CARTESIAN_POINT('',(0.161668809759153,-0.0127,0.12954));
#743=CARTESIAN_POINT('',(0.161668809759153,-0.0127,0.12954));
#744=CARTESIAN_POINT('',(0.161668809759153,-0.0127,0.15494));
#745=CARTESIAN_POINT('',(0.161668809759153,0.0127,0.12954));
#746=CARTESIAN_POINT('',(0.161668809759153,0.0127,0.15494));
#747=CARTESIAN_POINT('',(0.161668809759153,-0.0127,0.15494));
#748=CARTESIAN_POINT('',(0.119996484345567,-0.0127,0.12827));
#749=CARTESIAN_POINT('',(0.188298252915541,-0.0127,0.20574));
#750=CARTESIAN_POINT('',(0.188298252915541,-0.0127,0.196088));
#751=CARTESIAN_POINT('',(0.213698252915541,-0.0127,0.20574));
#752=CARTESIAN_POINT('',(0.213698252915541,-0.0127,0.19939));
#753=CARTESIAN_POINT('',(0.162898252915541,-0.0127,0.20574));
#754=CARTESIAN_POINT('',(0.162898252915541,-0.0127,0.19939));
#755=CARTESIAN_POINT('',(0.191940889225144,-0.0127,0.15494));
#756=CARTESIAN_POINT('',(0.222212968691135,-0.0127,0.15494));
#757=CARTESIAN_POINT('',(0.222212968691135,-0.0127,0.18034));
#758=CARTESIAN_POINT('',(0.247612968691134,-0.0127,0.18034));
#759=CARTESIAN_POINT('',(0.247612968691134,-0.0127,0.20574));
#760=CARTESIAN_POINT('',(0.247612968691134,-0.0127,0.23114));
#761=CARTESIAN_POINT('',(0.222212968691135,-0.0127,0.23114));
#762=CARTESIAN_POINT('',(0.222212968691135,-0.0127,0.25654));
#763=CARTESIAN_POINT('',(0.188298252915541,-0.0127,0.25654));
#764=CARTESIAN_POINT('',(0.154383537139948,-0.0127,0.25654));
#765=CARTESIAN_POINT('',(0.154383537139948,-0.0127,0.23114));
#766=CARTESIAN_POINT('',(0.139282428404454,-0.0127,0.251563430538448));
#767=CARTESIAN_POINT('',(0.0791662142022281,-0.0127,0.207113430538446));
#768=CARTESIAN_POINT('',(0.119996484345567,0.0127,0.12827));
#769=CARTESIAN_POINT('',(0.213698252915541,0.0127,0.20574));
#770=CARTESIAN_POINT('',(0.213698252915541,0.0127,0.2032));
#771=CARTESIAN_POINT('',(0.162898252915541,0.0127,0.20574));
#772=CARTESIAN_POINT('',(0.162898252915541,0.0127,0.2032));
#773=CARTESIAN_POINT('',(0.188298252915541,0.0127,0.20574));
#774=CARTESIAN_POINT('',(0.188298252915541,0.0127,0.196088));
#775=CARTESIAN_POINT('',(0.0791662142022281,0.0127,0.207113430538446));
#776=CARTESIAN_POINT('',(0.139282428404454,0.0127,0.251563430538448));
#777=CARTESIAN_POINT('',(0.154383537139948,0.0127,0.23114));
#778=CARTESIAN_POINT('',(0.154383537139948,0.0127,0.25654));
#779=CARTESIAN_POINT('',(0.188298252915541,0.0127,0.25654));
#780=CARTESIAN_POINT('',(0.222212968691135,0.0127,0.25654));
#781=CARTESIAN_POINT('',(0.222212968691135,0.0127,0.23114));
#782=CARTESIAN_POINT('',(0.247612968691134,0.0127,0.23114));
#783=CARTESIAN_POINT('',(0.247612968691134,0.0127,0.20574));
#784=CARTESIAN_POINT('',(0.247612968691134,0.0127,0.18034));
#785=CARTESIAN_POINT('',(0.222212968691135,0.0127,0.18034));
#786=CARTESIAN_POINT('',(0.222212968691135,0.0127,0.15494));
#787=CARTESIAN_POINT('',(0.191940889225144,0.0127,0.15494));
#788=CARTESIAN_POINT('',(0.162898252915541,-0.0127,0.20574));
#789=CARTESIAN_POINT('',(0.162898252915541,-0.00635,0.20574));
#790=CARTESIAN_POINT('',(0.162898252915541,-0.00635,0.2032));
#791=CARTESIAN_POINT('',(0.213698252915541,-0.0127,0.20574));
#792=CARTESIAN_POINT('',(0.213698252915541,-0.00635,0.20574));
#793=CARTESIAN_POINT('',(0.213698252915541,-0.00635,0.2032));
#794=CARTESIAN_POINT('',(0.247612968691134,-0.0127,0.20574));
#795=CARTESIAN_POINT('',(0.247612968691134,-0.0127,0.23114));
#796=CARTESIAN_POINT('',(0.247612968691134,-0.0127,0.18034));
#797=CARTESIAN_POINT('',(0.222212968691135,-0.0127,0.23114));
#798=CARTESIAN_POINT('',(0.222212968691135,-0.0127,0.25654));
#799=CARTESIAN_POINT('',(0.188298252915541,-0.0127,0.25654));
#800=CARTESIAN_POINT('',(0.154383537139948,-0.0127,0.25654));
#801=CARTESIAN_POINT('',(0.154383537139948,-0.0127,0.23114));
#802=CARTESIAN_POINT('',(0.139282428404454,-0.0127,0.251563430538448));
#803=CARTESIAN_POINT('',(0.0791662142022281,-0.0127,0.207113430538446));
#804=CARTESIAN_POINT('',(0.191940889225144,-0.0127,0.15494));
#805=CARTESIAN_POINT('',(0.222212968691135,-0.0127,0.15494));
#806=CARTESIAN_POINT('',(0.222212968691135,-0.0127,0.18034));
#807=CARTESIAN_POINT('',(0.188298252915541,-0.0127,0.20574));
#808=CARTESIAN_POINT('',(0.213698252915541,-0.00635,0.20574));
#809=CARTESIAN_POINT('',(0.213698252915541,-0.00635,0.20574));
#810=CARTESIAN_POINT('',(0.213698252915541,-0.00635,0.19939));
#811=CARTESIAN_POINT('',(0.119996484345567,-0.00635,0.12827));
#812=CARTESIAN_POINT('',(0.162898252915541,-0.00635,0.20574));
#813=CARTESIAN_POINT('',(0.162898252915541,-0.00635,0.20574));
#814=CARTESIAN_POINT('',(0.162898252915541,-0.00635,0.19939));
#815=CARTESIAN_POINT('',(0.119996484345567,-0.00635,0.12827));
#816=CARTESIAN_POINT('',(0.112311436619261,-0.00635,0.12954));
#817=CARTESIAN_POINT('',(0.0932614366192608,-0.00635,0.12954));
#818=CARTESIAN_POINT('',(0.0932614366192608,-0.00635,0.12954));
#819=CARTESIAN_POINT('',(0.112311436619261,-0.00635,0.12954));
#820=CARTESIAN_POINT('',(0.131361436619261,-0.00635,0.12954));
#821=CARTESIAN_POINT('',(0.131361436619261,-0.00635,0.12954));
#822=CARTESIAN_POINT('',(0.0932614366192608,-1.04083408558608E-17,0.12954));
#823=CARTESIAN_POINT('',(0.0932614366192608,0.00635,0.12954));
#824=CARTESIAN_POINT('',(0.0932614366192608,0.00635,0.12954));
#825=CARTESIAN_POINT('',(0.0932614366192608,-1.04083408558608E-17,0.12954));
#826=CARTESIAN_POINT('',(0.112311436619261,0.00635,0.12954));
#827=CARTESIAN_POINT('',(0.131361436619261,0.00635,0.12954));
#828=CARTESIAN_POINT('',(0.131361436619261,0.00635,0.12954));
#829=CARTESIAN_POINT('',(0.112311436619261,0.00635,0.12954));
#830=CARTESIAN_POINT('',(0.131361436619261,-1.38777878078145E-17,0.12954));
#831=CARTESIAN_POINT('',(0.131361436619261,-1.38777878078145E-17,0.12954));
#832=CARTESIAN_POINT('',(0.0742114366192608,0.,0.12954));
#833=CARTESIAN_POINT('',(0.0361114366192608,-0.00635,0.12954));
#834=CARTESIAN_POINT('',(0.0170614366192609,-0.00635,0.12954));
#835=CARTESIAN_POINT('',(0.0170614366192609,-0.00635,0.12954));
#836=CARTESIAN_POINT('',(0.0361114366192608,-0.00635,0.12954));
#837=CARTESIAN_POINT('',(0.0551614366192608,-0.00635,0.12954));
#838=CARTESIAN_POINT('',(0.0551614366192608,-0.00635,0.12954));
#839=CARTESIAN_POINT('',(0.0170614366192609,-1.38777878078145E-17,0.12954));
#840=CARTESIAN_POINT('',(0.0170614366192609,0.00635,0.12954));
#841=CARTESIAN_POINT('',(0.0170614366192609,0.00635,0.12954));
#842=CARTESIAN_POINT('',(0.0170614366192609,-1.38777878078145E-17,0.12954));
#843=CARTESIAN_POINT('',(0.0361114366192608,0.00635,0.12954));
#844=CARTESIAN_POINT('',(0.0551614366192608,0.00635,0.12954));
#845=CARTESIAN_POINT('',(0.0551614366192608,0.00635,0.12954));
#846=CARTESIAN_POINT('',(0.0361114366192608,0.00635,0.12954));
#847=CARTESIAN_POINT('',(0.0551614366192608,-1.04083408558608E-17,0.12954));
#848=CARTESIAN_POINT('',(0.0551614366192608,-1.04083408558608E-17,0.12954));
#849=CARTESIAN_POINT('',(0.0742114366192608,0.,0.12954));
#850=MECHANICAL_DESIGN_GEOMETRIC_PRESENTATION_REPRESENTATION('',(#505),
#851);
#851=(
GEOMETRIC_REPRESENTATION_CONTEXT(3)
GLOBAL_UNCERTAINTY_ASSIGNED_CONTEXT((#852))
GLOBAL_UNIT_ASSIGNED_CONTEXT((#855,#854,#853))
REPRESENTATION_CONTEXT('Motor Stand Top','TOP_LEVEL_ASSEMBLY_PART')
);
#852=UNCERTAINTY_MEASURE_WITH_UNIT(LENGTH_MEASURE(1.E-8),#855,
'DISTANCE_ACCURACY_VALUE','Maximum Tolerance applied to model');
#853=(
NAMED_UNIT(*)
SI_UNIT($,.STERADIAN.)
SOLID_ANGLE_UNIT()
);
#854=(
NAMED_UNIT(*)
PLANE_ANGLE_UNIT()
SI_UNIT($,.RADIAN.)
);
#855=(
LENGTH_UNIT()
NAMED_UNIT(*)
SI_UNIT($,.METRE.)
);
#856=PRODUCT_DEFINITION_SHAPE('','',#857);
#857=PRODUCT_DEFINITION('','',#859,#858);
#858=PRODUCT_DEFINITION_CONTEXT('',#865,'design');
#859=PRODUCT_DEFINITION_FORMATION_WITH_SPECIFIED_SOURCE('','',#861,
 .NOT_KNOWN.);
#860=PRODUCT_RELATED_PRODUCT_CATEGORY('','',(#861));
#861=PRODUCT('Motor Stand Top','Motor Stand Top','Motor Stand Top',(#863));
#862=PRODUCT_CATEGORY('','');
#863=PRODUCT_CONTEXT('',#865,'mechanical');
#864=APPLICATION_PROTOCOL_DEFINITION('international standard',
'ap242_managed_model_based_3d_engineering',2020,#865);
#865=APPLICATION_CONTEXT('managed model based 3d engineering');
ENDSEC;
END-ISO-10303-21;
