ISO-10303-21;
HEADER;
/* Generated by software containing ST-Developer
 * from STEP Tools, Inc. (www.steptools.com) 
 */
/* OPTION: using custom renumber hook */

FILE_DESCRIPTION(
/* description */ ('STEP AP242 Edition 2',
'CAx-IF Rec.Pracs.---Representation and Presentation of Product Manufa
cturing Information (PMI)---4.0---2014-10-13',
'CAx-IF Rec.Pracs.---3D Tessellated Geometry---0.4---2014-09-14','2;1',
'CAx-IF Rec.Pracs.---User Defined Attributes---1.5---2016-08-15'),
/* implementation_level */ '2;1');

FILE_NAME(
/* name */ 'Main - Motor Adapter',
/* time_stamp */ '2026-05-15T18:25:37Z',
/* author */ (''),
/* organization */ (''),
/* preprocessor_version */ 'ST-DEVELOPER v20',
/* originating_system */ 'ONSHAPE BY PTC INC, 1.215',
/* authorisation */ '  ');

FILE_SCHEMA (('AP242_MANAGED_MODEL_BASED_3D_ENGINEERING_MIM_LF { 1 0 10303 442 3 1 4 }'));
ENDSEC;

DATA;
#10=SHAPE_REPRESENTATION_RELATIONSHIP('','',#1131,#11);
#11=ADVANCED_BREP_SHAPE_REPRESENTATION('',(#1129),#1795);
#12=LINE('',#1518,#144);
#13=LINE('',#1521,#145);
#14=LINE('',#1523,#146);
#15=LINE('',#1525,#147);
#16=LINE('',#1527,#148);
#17=LINE('',#1529,#149);
#18=LINE('',#1530,#150);
#19=LINE('',#1533,#151);
#20=LINE('',#1535,#152);
#21=LINE('',#1537,#153);
#22=LINE('',#1538,#154);
#23=LINE('',#1541,#155);
#24=LINE('',#1543,#156);
#25=LINE('',#1545,#157);
#26=LINE('',#1547,#158);
#27=LINE('',#1549,#159);
#28=LINE('',#1550,#160);
#29=LINE('',#1553,#161);
#30=LINE('',#1555,#162);
#31=LINE('',#1557,#163);
#32=LINE('',#1559,#164);
#33=LINE('',#1561,#165);
#34=LINE('',#1563,#166);
#35=LINE('',#1566,#167);
#36=LINE('',#1568,#168);
#37=LINE('',#1570,#169);
#38=LINE('',#1572,#170);
#39=LINE('',#1573,#171);
#40=LINE('',#1575,#172);
#41=LINE('',#1577,#173);
#42=LINE('',#1579,#174);
#43=LINE('',#1581,#175);
#44=LINE('',#1584,#176);
#45=LINE('',#1586,#177);
#46=LINE('',#1588,#178);
#47=LINE('',#1589,#179);
#48=LINE('',#1591,#180);
#49=LINE('',#1593,#181);
#50=LINE('',#1594,#182);
#51=LINE('',#1598,#183);
#52=LINE('',#1599,#184);
#53=LINE('',#1605,#185);
#54=LINE('',#1607,#186);
#55=LINE('',#1610,#187);
#56=LINE('',#1612,#188);
#57=LINE('',#1614,#189);
#58=LINE('',#1616,#190);
#59=LINE('',#1618,#191);
#60=LINE('',#1619,#192);
#61=LINE('',#1622,#193);
#62=LINE('',#1624,#194);
#63=LINE('',#1626,#195);
#64=LINE('',#1628,#196);
#65=LINE('',#1630,#197);
#66=LINE('',#1631,#198);
#67=LINE('',#1634,#199);
#68=LINE('',#1636,#200);
#69=LINE('',#1638,#201);
#70=LINE('',#1640,#202);
#71=LINE('',#1642,#203);
#72=LINE('',#1645,#204);
#73=LINE('',#1647,#205);
#74=LINE('',#1649,#206);
#75=LINE('',#1651,#207);
#76=LINE('',#1653,#208);
#77=LINE('',#1655,#209);
#78=LINE('',#1657,#210);
#79=LINE('',#1659,#211);
#80=LINE('',#1661,#212);
#81=LINE('',#1663,#213);
#82=LINE('',#1665,#214);
#83=LINE('',#1667,#215);
#84=LINE('',#1670,#216);
#85=LINE('',#1672,#217);
#86=LINE('',#1674,#218);
#87=LINE('',#1676,#219);
#88=LINE('',#1678,#220);
#89=LINE('',#1680,#221);
#90=LINE('',#1682,#222);
#91=LINE('',#1684,#223);
#92=LINE('',#1686,#224);
#93=LINE('',#1688,#225);
#94=LINE('',#1690,#226);
#95=LINE('',#1692,#227);
#96=LINE('',#1695,#228);
#97=LINE('',#1697,#229);
#98=LINE('',#1699,#230);
#99=LINE('',#1701,#231);
#100=LINE('',#1703,#232);
#101=LINE('',#1705,#233);
#102=LINE('',#1707,#234);
#103=LINE('',#1709,#235);
#104=LINE('',#1711,#236);
#105=LINE('',#1713,#237);
#106=LINE('',#1715,#238);
#107=LINE('',#1717,#239);
#108=LINE('',#1720,#240);
#109=LINE('',#1722,#241);
#110=LINE('',#1724,#242);
#111=LINE('',#1726,#243);
#112=LINE('',#1728,#244);
#113=LINE('',#1730,#245);
#114=LINE('',#1732,#246);
#115=LINE('',#1734,#247);
#116=LINE('',#1736,#248);
#117=LINE('',#1738,#249);
#118=LINE('',#1740,#250);
#119=LINE('',#1742,#251);
#120=LINE('',#1745,#252);
#121=LINE('',#1747,#253);
#122=LINE('',#1749,#254);
#123=LINE('',#1751,#255);
#124=LINE('',#1753,#256);
#125=LINE('',#1755,#257);
#126=LINE('',#1757,#258);
#127=LINE('',#1759,#259);
#128=LINE('',#1761,#260);
#129=LINE('',#1763,#261);
#130=LINE('',#1765,#262);
#131=LINE('',#1767,#263);
#132=LINE('',#1770,#264);
#133=LINE('',#1772,#265);
#134=LINE('',#1774,#266);
#135=LINE('',#1776,#267);
#136=LINE('',#1778,#268);
#137=LINE('',#1780,#269);
#138=LINE('',#1782,#270);
#139=LINE('',#1784,#271);
#140=LINE('',#1786,#272);
#141=LINE('',#1788,#273);
#142=LINE('',#1790,#274);
#143=LINE('',#1792,#275);
#144=VECTOR('',#1246,1.);
#145=VECTOR('',#1247,1.);
#146=VECTOR('',#1248,1.);
#147=VECTOR('',#1249,1.);
#148=VECTOR('',#1250,1.);
#149=VECTOR('',#1251,1.);
#150=VECTOR('',#1252,1.);
#151=VECTOR('',#1253,1.);
#152=VECTOR('',#1254,1.);
#153=VECTOR('',#1255,1.);
#154=VECTOR('',#1256,1.);
#155=VECTOR('',#1257,1.);
#156=VECTOR('',#1258,1.);
#157=VECTOR('',#1259,1.);
#158=VECTOR('',#1260,1.);
#159=VECTOR('',#1261,1.);
#160=VECTOR('',#1262,1.);
#161=VECTOR('',#1263,1.);
#162=VECTOR('',#1264,1.);
#163=VECTOR('',#1265,1.);
#164=VECTOR('',#1266,1.);
#165=VECTOR('',#1267,1.);
#166=VECTOR('',#1270,1.);
#167=VECTOR('',#1271,1.);
#168=VECTOR('',#1272,1.);
#169=VECTOR('',#1273,1.);
#170=VECTOR('',#1274,1.);
#171=VECTOR('',#1275,1.);
#172=VECTOR('',#1276,1.);
#173=VECTOR('',#1279,1.);
#174=VECTOR('',#1280,1.);
#175=VECTOR('',#1283,1.);
#176=VECTOR('',#1284,1.);
#177=VECTOR('',#1285,1.);
#178=VECTOR('',#1286,1.);
#179=VECTOR('',#1287,1.);
#180=VECTOR('',#1288,1.);
#181=VECTOR('',#1291,1.);
#182=VECTOR('',#1292,1.);
#183=VECTOR('',#1297,1.);
#184=VECTOR('',#1298,1.);
#185=VECTOR('',#1307,1.);
#186=VECTOR('',#1310,1.);
#187=VECTOR('',#1311,1.);
#188=VECTOR('',#1312,1.);
#189=VECTOR('',#1313,1.);
#190=VECTOR('',#1314,1.);
#191=VECTOR('',#1315,1.);
#192=VECTOR('',#1316,1.);
#193=VECTOR('',#1317,1.);
#194=VECTOR('',#1318,1.);
#195=VECTOR('',#1319,1.);
#196=VECTOR('',#1320,1.);
#197=VECTOR('',#1321,1.);
#198=VECTOR('',#1322,1.);
#199=VECTOR('',#1323,1.);
#200=VECTOR('',#1324,1.);
#201=VECTOR('',#1325,1.);
#202=VECTOR('',#1326,1.);
#203=VECTOR('',#1327,1.);
#204=VECTOR('',#1332,1.);
#205=VECTOR('',#1333,1.);
#206=VECTOR('',#1334,1.);
#207=VECTOR('',#1337,1.);
#208=VECTOR('',#1338,1.);
#209=VECTOR('',#1341,1.);
#210=VECTOR('',#1342,1.);
#211=VECTOR('',#1345,1.);
#212=VECTOR('',#1346,1.);
#213=VECTOR('',#1349,1.);
#214=VECTOR('',#1350,1.);
#215=VECTOR('',#1353,1.);
#216=VECTOR('',#1358,1.);
#217=VECTOR('',#1359,1.);
#218=VECTOR('',#1360,1.);
#219=VECTOR('',#1363,1.);
#220=VECTOR('',#1364,1.);
#221=VECTOR('',#1367,1.);
#222=VECTOR('',#1368,1.);
#223=VECTOR('',#1371,1.);
#224=VECTOR('',#1372,1.);
#225=VECTOR('',#1375,1.);
#226=VECTOR('',#1376,1.);
#227=VECTOR('',#1379,1.);
#228=VECTOR('',#1384,1.);
#229=VECTOR('',#1385,1.);
#230=VECTOR('',#1386,1.);
#231=VECTOR('',#1389,1.);
#232=VECTOR('',#1390,1.);
#233=VECTOR('',#1393,1.);
#234=VECTOR('',#1394,1.);
#235=VECTOR('',#1397,1.);
#236=VECTOR('',#1398,1.);
#237=VECTOR('',#1401,1.);
#238=VECTOR('',#1402,1.);
#239=VECTOR('',#1405,1.);
#240=VECTOR('',#1410,1.);
#241=VECTOR('',#1411,1.);
#242=VECTOR('',#1412,1.);
#243=VECTOR('',#1415,1.);
#244=VECTOR('',#1416,1.);
#245=VECTOR('',#1419,1.);
#246=VECTOR('',#1420,1.);
#247=VECTOR('',#1423,1.);
#248=VECTOR('',#1424,1.);
#249=VECTOR('',#1427,1.);
#250=VECTOR('',#1428,1.);
#251=VECTOR('',#1431,1.);
#252=VECTOR('',#1436,1.);
#253=VECTOR('',#1437,1.);
#254=VECTOR('',#1438,1.);
#255=VECTOR('',#1441,1.);
#256=VECTOR('',#1442,1.);
#257=VECTOR('',#1445,1.);
#258=VECTOR('',#1446,1.);
#259=VECTOR('',#1449,1.);
#260=VECTOR('',#1450,1.);
#261=VECTOR('',#1453,1.);
#262=VECTOR('',#1454,1.);
#263=VECTOR('',#1457,1.);
#264=VECTOR('',#1462,1.);
#265=VECTOR('',#1463,1.);
#266=VECTOR('',#1464,1.);
#267=VECTOR('',#1467,1.);
#268=VECTOR('',#1468,1.);
#269=VECTOR('',#1471,1.);
#270=VECTOR('',#1472,1.);
#271=VECTOR('',#1475,1.);
#272=VECTOR('',#1476,1.);
#273=VECTOR('',#1479,1.);
#274=VECTOR('',#1480,1.);
#275=VECTOR('',#1483,1.);
#276=PLANE('',#1151);
#277=PLANE('',#1152);
#278=PLANE('',#1153);
#279=PLANE('',#1154);
#280=PLANE('',#1155);
#281=PLANE('',#1156);
#282=PLANE('',#1160);
#283=PLANE('',#1161);
#284=PLANE('',#1162);
#285=PLANE('',#1163);
#286=PLANE('',#1164);
#287=PLANE('',#1165);
#288=PLANE('',#1166);
#289=PLANE('',#1167);
#290=PLANE('',#1168);
#291=PLANE('',#1169);
#292=PLANE('',#1170);
#293=PLANE('',#1171);
#294=PLANE('',#1172);
#295=PLANE('',#1173);
#296=PLANE('',#1174);
#297=PLANE('',#1175);
#298=PLANE('',#1176);
#299=PLANE('',#1177);
#300=PLANE('',#1178);
#301=PLANE('',#1179);
#302=PLANE('',#1180);
#303=PLANE('',#1181);
#304=PLANE('',#1182);
#305=PLANE('',#1183);
#306=PLANE('',#1184);
#307=PLANE('',#1185);
#308=PLANE('',#1186);
#309=PLANE('',#1187);
#310=PLANE('',#1188);
#311=PLANE('',#1189);
#312=PLANE('',#1190);
#313=PLANE('',#1191);
#314=PLANE('',#1192);
#315=PLANE('',#1193);
#316=PLANE('',#1194);
#317=PLANE('',#1195);
#318=PLANE('',#1196);
#319=PLANE('',#1197);
#320=PLANE('',#1198);
#321=PLANE('',#1199);
#322=PLANE('',#1200);
#323=PLANE('',#1201);
#324=PLANE('',#1202);
#325=PLANE('',#1203);
#326=PLANE('',#1204);
#327=PLANE('',#1205);
#328=ORIENTED_EDGE('',*,*,#620,.F.);
#329=ORIENTED_EDGE('',*,*,#621,.T.);
#330=ORIENTED_EDGE('',*,*,#622,.F.);
#331=ORIENTED_EDGE('',*,*,#623,.T.);
#332=ORIENTED_EDGE('',*,*,#624,.F.);
#333=ORIENTED_EDGE('',*,*,#625,.T.);
#334=ORIENTED_EDGE('',*,*,#626,.F.);
#335=ORIENTED_EDGE('',*,*,#627,.T.);
#336=ORIENTED_EDGE('',*,*,#628,.F.);
#337=ORIENTED_EDGE('',*,*,#629,.T.);
#338=ORIENTED_EDGE('',*,*,#630,.F.);
#339=ORIENTED_EDGE('',*,*,#631,.T.);
#340=ORIENTED_EDGE('',*,*,#632,.T.);
#341=ORIENTED_EDGE('',*,*,#633,.T.);
#342=ORIENTED_EDGE('',*,*,#634,.T.);
#343=ORIENTED_EDGE('',*,*,#635,.T.);
#344=ORIENTED_EDGE('',*,*,#636,.T.);
#345=ORIENTED_EDGE('',*,*,#637,.T.);
#346=ORIENTED_EDGE('',*,*,#638,.T.);
#347=ORIENTED_EDGE('',*,*,#639,.T.);
#348=ORIENTED_EDGE('',*,*,#640,.F.);
#349=ORIENTED_EDGE('',*,*,#641,.T.);
#350=ORIENTED_EDGE('',*,*,#642,.T.);
#351=ORIENTED_EDGE('',*,*,#643,.T.);
#352=ORIENTED_EDGE('',*,*,#644,.T.);
#353=ORIENTED_EDGE('',*,*,#645,.T.);
#354=ORIENTED_EDGE('',*,*,#646,.T.);
#355=ORIENTED_EDGE('',*,*,#647,.T.);
#356=ORIENTED_EDGE('',*,*,#648,.T.);
#357=ORIENTED_EDGE('',*,*,#649,.T.);
#358=ORIENTED_EDGE('',*,*,#650,.T.);
#359=ORIENTED_EDGE('',*,*,#651,.T.);
#360=ORIENTED_EDGE('',*,*,#652,.T.);
#361=ORIENTED_EDGE('',*,*,#653,.T.);
#362=ORIENTED_EDGE('',*,*,#654,.F.);
#363=ORIENTED_EDGE('',*,*,#655,.T.);
#364=ORIENTED_EDGE('',*,*,#656,.T.);
#365=ORIENTED_EDGE('',*,*,#657,.F.);
#366=ORIENTED_EDGE('',*,*,#658,.F.);
#367=ORIENTED_EDGE('',*,*,#640,.T.);
#368=ORIENTED_EDGE('',*,*,#659,.T.);
#369=ORIENTED_EDGE('',*,*,#660,.T.);
#370=ORIENTED_EDGE('',*,*,#641,.F.);
#371=ORIENTED_EDGE('',*,*,#658,.T.);
#372=ORIENTED_EDGE('',*,*,#661,.T.);
#373=ORIENTED_EDGE('',*,*,#662,.F.);
#374=ORIENTED_EDGE('',*,*,#663,.F.);
#375=ORIENTED_EDGE('',*,*,#664,.T.);
#376=ORIENTED_EDGE('',*,*,#665,.F.);
#377=ORIENTED_EDGE('',*,*,#666,.F.);
#378=ORIENTED_EDGE('',*,*,#638,.F.);
#379=ORIENTED_EDGE('',*,*,#662,.T.);
#380=ORIENTED_EDGE('',*,*,#667,.T.);
#381=ORIENTED_EDGE('',*,*,#668,.F.);
#382=ORIENTED_EDGE('',*,*,#656,.F.);
#383=ORIENTED_EDGE('',*,*,#669,.T.);
#384=ORIENTED_EDGE('',*,*,#668,.T.);
#385=ORIENTED_EDGE('',*,*,#670,.F.);
#386=ORIENTED_EDGE('',*,*,#671,.F.);
#387=ORIENTED_EDGE('',*,*,#665,.T.);
#388=ORIENTED_EDGE('',*,*,#672,.T.);
#389=ORIENTED_EDGE('',*,*,#660,.F.);
#390=ORIENTED_EDGE('',*,*,#673,.F.);
#391=ORIENTED_EDGE('',*,*,#671,.T.);
#392=ORIENTED_EDGE('',*,*,#674,.F.);
#393=ORIENTED_EDGE('',*,*,#657,.T.);
#394=ORIENTED_EDGE('',*,*,#670,.T.);
#395=ORIENTED_EDGE('',*,*,#667,.F.);
#396=ORIENTED_EDGE('',*,*,#661,.F.);
#397=ORIENTED_EDGE('',*,*,#674,.T.);
#398=ORIENTED_EDGE('',*,*,#628,.T.);
#399=ORIENTED_EDGE('',*,*,#626,.T.);
#400=ORIENTED_EDGE('',*,*,#624,.T.);
#401=ORIENTED_EDGE('',*,*,#622,.T.);
#402=ORIENTED_EDGE('',*,*,#620,.T.);
#403=ORIENTED_EDGE('',*,*,#630,.T.);
#404=ORIENTED_EDGE('',*,*,#672,.F.);
#405=ORIENTED_EDGE('',*,*,#664,.F.);
#406=ORIENTED_EDGE('',*,*,#675,.T.);
#407=ORIENTED_EDGE('',*,*,#654,.T.);
#408=ORIENTED_EDGE('',*,*,#676,.F.);
#409=ORIENTED_EDGE('',*,*,#677,.F.);
#410=ORIENTED_EDGE('',*,*,#678,.F.);
#411=ORIENTED_EDGE('',*,*,#679,.F.);
#412=ORIENTED_EDGE('',*,*,#680,.F.);
#413=ORIENTED_EDGE('',*,*,#681,.F.);
#414=ORIENTED_EDGE('',*,*,#682,.F.);
#415=ORIENTED_EDGE('',*,*,#683,.F.);
#416=ORIENTED_EDGE('',*,*,#684,.F.);
#417=ORIENTED_EDGE('',*,*,#685,.F.);
#418=ORIENTED_EDGE('',*,*,#686,.F.);
#419=ORIENTED_EDGE('',*,*,#687,.F.);
#420=ORIENTED_EDGE('',*,*,#688,.F.);
#421=ORIENTED_EDGE('',*,*,#689,.F.);
#422=ORIENTED_EDGE('',*,*,#690,.F.);
#423=ORIENTED_EDGE('',*,*,#691,.F.);
#424=ORIENTED_EDGE('',*,*,#692,.F.);
#425=ORIENTED_EDGE('',*,*,#693,.F.);
#426=ORIENTED_EDGE('',*,*,#675,.F.);
#427=ORIENTED_EDGE('',*,*,#663,.T.);
#428=ORIENTED_EDGE('',*,*,#669,.F.);
#429=ORIENTED_EDGE('',*,*,#655,.F.);
#430=ORIENTED_EDGE('',*,*,#673,.T.);
#431=ORIENTED_EDGE('',*,*,#659,.F.);
#432=ORIENTED_EDGE('',*,*,#639,.F.);
#433=ORIENTED_EDGE('',*,*,#666,.T.);
#434=ORIENTED_EDGE('',*,*,#643,.F.);
#435=ORIENTED_EDGE('',*,*,#694,.F.);
#436=ORIENTED_EDGE('',*,*,#695,.T.);
#437=ORIENTED_EDGE('',*,*,#696,.T.);
#438=ORIENTED_EDGE('',*,*,#642,.F.);
#439=ORIENTED_EDGE('',*,*,#697,.F.);
#440=ORIENTED_EDGE('',*,*,#698,.T.);
#441=ORIENTED_EDGE('',*,*,#694,.T.);
#442=ORIENTED_EDGE('',*,*,#647,.F.);
#443=ORIENTED_EDGE('',*,*,#699,.F.);
#444=ORIENTED_EDGE('',*,*,#700,.T.);
#445=ORIENTED_EDGE('',*,*,#697,.T.);
#446=ORIENTED_EDGE('',*,*,#646,.F.);
#447=ORIENTED_EDGE('',*,*,#701,.F.);
#448=ORIENTED_EDGE('',*,*,#702,.T.);
#449=ORIENTED_EDGE('',*,*,#699,.T.);
#450=ORIENTED_EDGE('',*,*,#645,.F.);
#451=ORIENTED_EDGE('',*,*,#703,.F.);
#452=ORIENTED_EDGE('',*,*,#704,.T.);
#453=ORIENTED_EDGE('',*,*,#701,.T.);
#454=ORIENTED_EDGE('',*,*,#644,.F.);
#455=ORIENTED_EDGE('',*,*,#696,.F.);
#456=ORIENTED_EDGE('',*,*,#705,.T.);
#457=ORIENTED_EDGE('',*,*,#703,.T.);
#458=ORIENTED_EDGE('',*,*,#695,.F.);
#459=ORIENTED_EDGE('',*,*,#698,.F.);
#460=ORIENTED_EDGE('',*,*,#700,.F.);
#461=ORIENTED_EDGE('',*,*,#702,.F.);
#462=ORIENTED_EDGE('',*,*,#704,.F.);
#463=ORIENTED_EDGE('',*,*,#705,.F.);
#464=ORIENTED_EDGE('',*,*,#625,.F.);
#465=ORIENTED_EDGE('',*,*,#633,.F.);
#466=ORIENTED_EDGE('',*,*,#706,.F.);
#467=ORIENTED_EDGE('',*,*,#707,.T.);
#468=ORIENTED_EDGE('',*,*,#708,.T.);
#469=ORIENTED_EDGE('',*,*,#632,.F.);
#470=ORIENTED_EDGE('',*,*,#709,.F.);
#471=ORIENTED_EDGE('',*,*,#710,.T.);
#472=ORIENTED_EDGE('',*,*,#706,.T.);
#473=ORIENTED_EDGE('',*,*,#637,.F.);
#474=ORIENTED_EDGE('',*,*,#711,.F.);
#475=ORIENTED_EDGE('',*,*,#712,.T.);
#476=ORIENTED_EDGE('',*,*,#709,.T.);
#477=ORIENTED_EDGE('',*,*,#636,.F.);
#478=ORIENTED_EDGE('',*,*,#713,.F.);
#479=ORIENTED_EDGE('',*,*,#714,.T.);
#480=ORIENTED_EDGE('',*,*,#711,.T.);
#481=ORIENTED_EDGE('',*,*,#635,.F.);
#482=ORIENTED_EDGE('',*,*,#715,.F.);
#483=ORIENTED_EDGE('',*,*,#716,.T.);
#484=ORIENTED_EDGE('',*,*,#713,.T.);
#485=ORIENTED_EDGE('',*,*,#634,.F.);
#486=ORIENTED_EDGE('',*,*,#708,.F.);
#487=ORIENTED_EDGE('',*,*,#717,.T.);
#488=ORIENTED_EDGE('',*,*,#715,.T.);
#489=ORIENTED_EDGE('',*,*,#707,.F.);
#490=ORIENTED_EDGE('',*,*,#710,.F.);
#491=ORIENTED_EDGE('',*,*,#712,.F.);
#492=ORIENTED_EDGE('',*,*,#714,.F.);
#493=ORIENTED_EDGE('',*,*,#716,.F.);
#494=ORIENTED_EDGE('',*,*,#717,.F.);
#495=ORIENTED_EDGE('',*,*,#629,.F.);
#496=ORIENTED_EDGE('',*,*,#649,.F.);
#497=ORIENTED_EDGE('',*,*,#718,.F.);
#498=ORIENTED_EDGE('',*,*,#719,.T.);
#499=ORIENTED_EDGE('',*,*,#720,.T.);
#500=ORIENTED_EDGE('',*,*,#648,.F.);
#501=ORIENTED_EDGE('',*,*,#721,.F.);
#502=ORIENTED_EDGE('',*,*,#722,.T.);
#503=ORIENTED_EDGE('',*,*,#718,.T.);
#504=ORIENTED_EDGE('',*,*,#653,.F.);
#505=ORIENTED_EDGE('',*,*,#723,.F.);
#506=ORIENTED_EDGE('',*,*,#724,.T.);
#507=ORIENTED_EDGE('',*,*,#721,.T.);
#508=ORIENTED_EDGE('',*,*,#652,.F.);
#509=ORIENTED_EDGE('',*,*,#725,.F.);
#510=ORIENTED_EDGE('',*,*,#726,.T.);
#511=ORIENTED_EDGE('',*,*,#723,.T.);
#512=ORIENTED_EDGE('',*,*,#651,.F.);
#513=ORIENTED_EDGE('',*,*,#727,.F.);
#514=ORIENTED_EDGE('',*,*,#728,.T.);
#515=ORIENTED_EDGE('',*,*,#725,.T.);
#516=ORIENTED_EDGE('',*,*,#650,.F.);
#517=ORIENTED_EDGE('',*,*,#720,.F.);
#518=ORIENTED_EDGE('',*,*,#729,.T.);
#519=ORIENTED_EDGE('',*,*,#727,.T.);
#520=ORIENTED_EDGE('',*,*,#719,.F.);
#521=ORIENTED_EDGE('',*,*,#722,.F.);
#522=ORIENTED_EDGE('',*,*,#724,.F.);
#523=ORIENTED_EDGE('',*,*,#726,.F.);
#524=ORIENTED_EDGE('',*,*,#728,.F.);
#525=ORIENTED_EDGE('',*,*,#729,.F.);
#526=ORIENTED_EDGE('',*,*,#627,.F.);
#527=ORIENTED_EDGE('',*,*,#688,.T.);
#528=ORIENTED_EDGE('',*,*,#730,.F.);
#529=ORIENTED_EDGE('',*,*,#731,.F.);
#530=ORIENTED_EDGE('',*,*,#732,.T.);
#531=ORIENTED_EDGE('',*,*,#693,.T.);
#532=ORIENTED_EDGE('',*,*,#733,.F.);
#533=ORIENTED_EDGE('',*,*,#734,.F.);
#534=ORIENTED_EDGE('',*,*,#730,.T.);
#535=ORIENTED_EDGE('',*,*,#692,.T.);
#536=ORIENTED_EDGE('',*,*,#735,.F.);
#537=ORIENTED_EDGE('',*,*,#736,.F.);
#538=ORIENTED_EDGE('',*,*,#733,.T.);
#539=ORIENTED_EDGE('',*,*,#691,.T.);
#540=ORIENTED_EDGE('',*,*,#737,.F.);
#541=ORIENTED_EDGE('',*,*,#738,.F.);
#542=ORIENTED_EDGE('',*,*,#735,.T.);
#543=ORIENTED_EDGE('',*,*,#690,.T.);
#544=ORIENTED_EDGE('',*,*,#739,.F.);
#545=ORIENTED_EDGE('',*,*,#740,.F.);
#546=ORIENTED_EDGE('',*,*,#737,.T.);
#547=ORIENTED_EDGE('',*,*,#689,.T.);
#548=ORIENTED_EDGE('',*,*,#732,.F.);
#549=ORIENTED_EDGE('',*,*,#741,.F.);
#550=ORIENTED_EDGE('',*,*,#739,.T.);
#551=ORIENTED_EDGE('',*,*,#631,.F.);
#552=ORIENTED_EDGE('',*,*,#731,.T.);
#553=ORIENTED_EDGE('',*,*,#734,.T.);
#554=ORIENTED_EDGE('',*,*,#736,.T.);
#555=ORIENTED_EDGE('',*,*,#738,.T.);
#556=ORIENTED_EDGE('',*,*,#740,.T.);
#557=ORIENTED_EDGE('',*,*,#741,.T.);
#558=ORIENTED_EDGE('',*,*,#682,.T.);
#559=ORIENTED_EDGE('',*,*,#742,.F.);
#560=ORIENTED_EDGE('',*,*,#743,.F.);
#561=ORIENTED_EDGE('',*,*,#744,.T.);
#562=ORIENTED_EDGE('',*,*,#687,.T.);
#563=ORIENTED_EDGE('',*,*,#745,.F.);
#564=ORIENTED_EDGE('',*,*,#746,.F.);
#565=ORIENTED_EDGE('',*,*,#742,.T.);
#566=ORIENTED_EDGE('',*,*,#686,.T.);
#567=ORIENTED_EDGE('',*,*,#747,.F.);
#568=ORIENTED_EDGE('',*,*,#748,.F.);
#569=ORIENTED_EDGE('',*,*,#745,.T.);
#570=ORIENTED_EDGE('',*,*,#685,.T.);
#571=ORIENTED_EDGE('',*,*,#749,.F.);
#572=ORIENTED_EDGE('',*,*,#750,.F.);
#573=ORIENTED_EDGE('',*,*,#747,.T.);
#574=ORIENTED_EDGE('',*,*,#684,.T.);
#575=ORIENTED_EDGE('',*,*,#751,.F.);
#576=ORIENTED_EDGE('',*,*,#752,.F.);
#577=ORIENTED_EDGE('',*,*,#749,.T.);
#578=ORIENTED_EDGE('',*,*,#683,.T.);
#579=ORIENTED_EDGE('',*,*,#744,.F.);
#580=ORIENTED_EDGE('',*,*,#753,.F.);
#581=ORIENTED_EDGE('',*,*,#751,.T.);
#582=ORIENTED_EDGE('',*,*,#621,.F.);
#583=ORIENTED_EDGE('',*,*,#743,.T.);
#584=ORIENTED_EDGE('',*,*,#746,.T.);
#585=ORIENTED_EDGE('',*,*,#748,.T.);
#586=ORIENTED_EDGE('',*,*,#750,.T.);
#587=ORIENTED_EDGE('',*,*,#752,.T.);
#588=ORIENTED_EDGE('',*,*,#753,.T.);
#589=ORIENTED_EDGE('',*,*,#676,.T.);
#590=ORIENTED_EDGE('',*,*,#754,.F.);
#591=ORIENTED_EDGE('',*,*,#755,.F.);
#592=ORIENTED_EDGE('',*,*,#756,.T.);
#593=ORIENTED_EDGE('',*,*,#681,.T.);
#594=ORIENTED_EDGE('',*,*,#757,.F.);
#595=ORIENTED_EDGE('',*,*,#758,.F.);
#596=ORIENTED_EDGE('',*,*,#754,.T.);
#597=ORIENTED_EDGE('',*,*,#680,.T.);
#598=ORIENTED_EDGE('',*,*,#759,.F.);
#599=ORIENTED_EDGE('',*,*,#760,.F.);
#600=ORIENTED_EDGE('',*,*,#757,.T.);
#601=ORIENTED_EDGE('',*,*,#679,.T.);
#602=ORIENTED_EDGE('',*,*,#761,.F.);
#603=ORIENTED_EDGE('',*,*,#762,.F.);
#604=ORIENTED_EDGE('',*,*,#759,.T.);
#605=ORIENTED_EDGE('',*,*,#678,.T.);
#606=ORIENTED_EDGE('',*,*,#763,.F.);
#607=ORIENTED_EDGE('',*,*,#764,.F.);
#608=ORIENTED_EDGE('',*,*,#761,.T.);
#609=ORIENTED_EDGE('',*,*,#677,.T.);
#610=ORIENTED_EDGE('',*,*,#756,.F.);
#611=ORIENTED_EDGE('',*,*,#765,.F.);
#612=ORIENTED_EDGE('',*,*,#763,.T.);
#613=ORIENTED_EDGE('',*,*,#623,.F.);
#614=ORIENTED_EDGE('',*,*,#755,.T.);
#615=ORIENTED_EDGE('',*,*,#758,.T.);
#616=ORIENTED_EDGE('',*,*,#760,.T.);
#617=ORIENTED_EDGE('',*,*,#762,.T.);
#618=ORIENTED_EDGE('',*,*,#764,.T.);
#619=ORIENTED_EDGE('',*,*,#765,.T.);
#620=EDGE_CURVE('',#766,#766,#868,.T.);
#621=EDGE_CURVE('',#767,#767,#869,.T.);
#622=EDGE_CURVE('',#768,#768,#870,.T.);
#623=EDGE_CURVE('',#769,#769,#871,.T.);
#624=EDGE_CURVE('',#770,#770,#872,.T.);
#625=EDGE_CURVE('',#771,#771,#873,.T.);
#626=EDGE_CURVE('',#772,#772,#874,.T.);
#627=EDGE_CURVE('',#773,#773,#875,.T.);
#628=EDGE_CURVE('',#774,#774,#876,.T.);
#629=EDGE_CURVE('',#775,#775,#877,.T.);
#630=EDGE_CURVE('',#776,#776,#878,.T.);
#631=EDGE_CURVE('',#777,#777,#879,.T.);
#632=EDGE_CURVE('',#778,#779,#12,.T.);
#633=EDGE_CURVE('',#779,#780,#13,.T.);
#634=EDGE_CURVE('',#780,#781,#14,.T.);
#635=EDGE_CURVE('',#781,#782,#15,.T.);
#636=EDGE_CURVE('',#782,#783,#16,.T.);
#637=EDGE_CURVE('',#783,#778,#17,.T.);
#638=EDGE_CURVE('',#784,#785,#18,.T.);
#639=EDGE_CURVE('',#785,#786,#19,.T.);
#640=EDGE_CURVE('',#787,#786,#20,.T.);
#641=EDGE_CURVE('',#787,#784,#21,.T.);
#642=EDGE_CURVE('',#788,#789,#22,.T.);
#643=EDGE_CURVE('',#789,#790,#23,.T.);
#644=EDGE_CURVE('',#790,#791,#24,.T.);
#645=EDGE_CURVE('',#791,#792,#25,.T.);
#646=EDGE_CURVE('',#792,#793,#26,.T.);
#647=EDGE_CURVE('',#793,#788,#27,.T.);
#648=EDGE_CURVE('',#794,#795,#28,.T.);
#649=EDGE_CURVE('',#795,#796,#29,.T.);
#650=EDGE_CURVE('',#796,#797,#30,.T.);
#651=EDGE_CURVE('',#797,#798,#31,.T.);
#652=EDGE_CURVE('',#798,#799,#32,.T.);
#653=EDGE_CURVE('',#799,#794,#33,.T.);
#654=EDGE_CURVE('',#800,#801,#34,.T.);
#655=EDGE_CURVE('',#800,#802,#35,.T.);
#656=EDGE_CURVE('',#802,#803,#36,.T.);
#657=EDGE_CURVE('',#804,#803,#37,.T.);
#658=EDGE_CURVE('',#787,#804,#38,.T.);
#659=EDGE_CURVE('',#786,#805,#39,.T.);
#660=EDGE_CURVE('',#805,#801,#40,.T.);
#661=EDGE_CURVE('',#804,#806,#41,.T.);
#662=EDGE_CURVE('',#784,#806,#42,.T.);
#663=EDGE_CURVE('',#807,#808,#43,.T.);
#664=EDGE_CURVE('',#807,#809,#44,.T.);
#665=EDGE_CURVE('',#810,#809,#45,.T.);
#666=EDGE_CURVE('',#785,#810,#46,.T.);
#667=EDGE_CURVE('',#806,#811,#47,.T.);
#668=EDGE_CURVE('',#808,#811,#48,.T.);
#669=EDGE_CURVE('',#802,#808,#49,.T.);
#670=EDGE_CURVE('',#803,#811,#50,.T.);
#671=EDGE_CURVE('',#812,#812,#880,.T.);
#672=EDGE_CURVE('',#809,#801,#51,.T.);
#673=EDGE_CURVE('',#810,#805,#52,.T.);
#674=EDGE_CURVE('',#813,#813,#881,.T.);
#675=EDGE_CURVE('',#807,#800,#53,.T.);
#676=EDGE_CURVE('',#814,#815,#54,.T.);
#677=EDGE_CURVE('',#816,#814,#55,.T.);
#678=EDGE_CURVE('',#817,#816,#56,.T.);
#679=EDGE_CURVE('',#818,#817,#57,.T.);
#680=EDGE_CURVE('',#819,#818,#58,.T.);
#681=EDGE_CURVE('',#815,#819,#59,.T.);
#682=EDGE_CURVE('',#820,#821,#60,.T.);
#683=EDGE_CURVE('',#822,#820,#61,.T.);
#684=EDGE_CURVE('',#823,#822,#62,.T.);
#685=EDGE_CURVE('',#824,#823,#63,.T.);
#686=EDGE_CURVE('',#825,#824,#64,.T.);
#687=EDGE_CURVE('',#821,#825,#65,.T.);
#688=EDGE_CURVE('',#826,#827,#66,.T.);
#689=EDGE_CURVE('',#828,#826,#67,.T.);
#690=EDGE_CURVE('',#829,#828,#68,.T.);
#691=EDGE_CURVE('',#830,#829,#69,.T.);
#692=EDGE_CURVE('',#831,#830,#70,.T.);
#693=EDGE_CURVE('',#827,#831,#71,.T.);
#694=EDGE_CURVE('',#832,#789,#72,.T.);
#695=EDGE_CURVE('',#832,#833,#73,.T.);
#696=EDGE_CURVE('',#833,#790,#74,.T.);
#697=EDGE_CURVE('',#834,#788,#75,.T.);
#698=EDGE_CURVE('',#834,#832,#76,.T.);
#699=EDGE_CURVE('',#835,#793,#77,.T.);
#700=EDGE_CURVE('',#835,#834,#78,.T.);
#701=EDGE_CURVE('',#836,#792,#79,.T.);
#702=EDGE_CURVE('',#836,#835,#80,.T.);
#703=EDGE_CURVE('',#837,#791,#81,.T.);
#704=EDGE_CURVE('',#837,#836,#82,.T.);
#705=EDGE_CURVE('',#833,#837,#83,.T.);
#706=EDGE_CURVE('',#838,#779,#84,.T.);
#707=EDGE_CURVE('',#838,#839,#85,.T.);
#708=EDGE_CURVE('',#839,#780,#86,.T.);
#709=EDGE_CURVE('',#840,#778,#87,.T.);
#710=EDGE_CURVE('',#840,#838,#88,.T.);
#711=EDGE_CURVE('',#841,#783,#89,.T.);
#712=EDGE_CURVE('',#841,#840,#90,.T.);
#713=EDGE_CURVE('',#842,#782,#91,.T.);
#714=EDGE_CURVE('',#842,#841,#92,.T.);
#715=EDGE_CURVE('',#843,#781,#93,.T.);
#716=EDGE_CURVE('',#843,#842,#94,.T.);
#717=EDGE_CURVE('',#839,#843,#95,.T.);
#718=EDGE_CURVE('',#844,#795,#96,.T.);
#719=EDGE_CURVE('',#844,#845,#97,.T.);
#720=EDGE_CURVE('',#845,#796,#98,.T.);
#721=EDGE_CURVE('',#846,#794,#99,.T.);
#722=EDGE_CURVE('',#846,#844,#100,.T.);
#723=EDGE_CURVE('',#847,#799,#101,.T.);
#724=EDGE_CURVE('',#847,#846,#102,.T.);
#725=EDGE_CURVE('',#848,#798,#103,.T.);
#726=EDGE_CURVE('',#848,#847,#104,.T.);
#727=EDGE_CURVE('',#849,#797,#105,.T.);
#728=EDGE_CURVE('',#849,#848,#106,.T.);
#729=EDGE_CURVE('',#845,#849,#107,.T.);
#730=EDGE_CURVE('',#850,#827,#108,.T.);
#731=EDGE_CURVE('',#851,#850,#109,.T.);
#732=EDGE_CURVE('',#851,#826,#110,.T.);
#733=EDGE_CURVE('',#852,#831,#111,.T.);
#734=EDGE_CURVE('',#850,#852,#112,.T.);
#735=EDGE_CURVE('',#853,#830,#113,.T.);
#736=EDGE_CURVE('',#852,#853,#114,.T.);
#737=EDGE_CURVE('',#854,#829,#115,.T.);
#738=EDGE_CURVE('',#853,#854,#116,.T.);
#739=EDGE_CURVE('',#855,#828,#117,.T.);
#740=EDGE_CURVE('',#854,#855,#118,.T.);
#741=EDGE_CURVE('',#855,#851,#119,.T.);
#742=EDGE_CURVE('',#856,#821,#120,.T.);
#743=EDGE_CURVE('',#857,#856,#121,.T.);
#744=EDGE_CURVE('',#857,#820,#122,.T.);
#745=EDGE_CURVE('',#858,#825,#123,.T.);
#746=EDGE_CURVE('',#856,#858,#124,.T.);
#747=EDGE_CURVE('',#859,#824,#125,.T.);
#748=EDGE_CURVE('',#858,#859,#126,.T.);
#749=EDGE_CURVE('',#860,#823,#127,.T.);
#750=EDGE_CURVE('',#859,#860,#128,.T.);
#751=EDGE_CURVE('',#861,#822,#129,.T.);
#752=EDGE_CURVE('',#860,#861,#130,.T.);
#753=EDGE_CURVE('',#861,#857,#131,.T.);
#754=EDGE_CURVE('',#862,#815,#132,.T.);
#755=EDGE_CURVE('',#863,#862,#133,.T.);
#756=EDGE_CURVE('',#863,#814,#134,.T.);
#757=EDGE_CURVE('',#864,#819,#135,.T.);
#758=EDGE_CURVE('',#862,#864,#136,.T.);
#759=EDGE_CURVE('',#865,#818,#137,.T.);
#760=EDGE_CURVE('',#864,#865,#138,.T.);
#761=EDGE_CURVE('',#866,#817,#139,.T.);
#762=EDGE_CURVE('',#865,#866,#140,.T.);
#763=EDGE_CURVE('',#867,#816,#141,.T.);
#764=EDGE_CURVE('',#866,#867,#142,.T.);
#765=EDGE_CURVE('',#867,#863,#143,.T.);
#766=VERTEX_POINT('',#1489);
#767=VERTEX_POINT('',#1491);
#768=VERTEX_POINT('',#1494);
#769=VERTEX_POINT('',#1496);
#770=VERTEX_POINT('',#1499);
#771=VERTEX_POINT('',#1501);
#772=VERTEX_POINT('',#1504);
#773=VERTEX_POINT('',#1506);
#774=VERTEX_POINT('',#1509);
#775=VERTEX_POINT('',#1511);
#776=VERTEX_POINT('',#1514);
#777=VERTEX_POINT('',#1516);
#778=VERTEX_POINT('',#1519);
#779=VERTEX_POINT('',#1520);
#780=VERTEX_POINT('',#1522);
#781=VERTEX_POINT('',#1524);
#782=VERTEX_POINT('',#1526);
#783=VERTEX_POINT('',#1528);
#784=VERTEX_POINT('',#1531);
#785=VERTEX_POINT('',#1532);
#786=VERTEX_POINT('',#1534);
#787=VERTEX_POINT('',#1536);
#788=VERTEX_POINT('',#1539);
#789=VERTEX_POINT('',#1540);
#790=VERTEX_POINT('',#1542);
#791=VERTEX_POINT('',#1544);
#792=VERTEX_POINT('',#1546);
#793=VERTEX_POINT('',#1548);
#794=VERTEX_POINT('',#1551);
#795=VERTEX_POINT('',#1552);
#796=VERTEX_POINT('',#1554);
#797=VERTEX_POINT('',#1556);
#798=VERTEX_POINT('',#1558);
#799=VERTEX_POINT('',#1560);
#800=VERTEX_POINT('',#1564);
#801=VERTEX_POINT('',#1565);
#802=VERTEX_POINT('',#1567);
#803=VERTEX_POINT('',#1569);
#804=VERTEX_POINT('',#1571);
#805=VERTEX_POINT('',#1574);
#806=VERTEX_POINT('',#1578);
#807=VERTEX_POINT('',#1582);
#808=VERTEX_POINT('',#1583);
#809=VERTEX_POINT('',#1585);
#810=VERTEX_POINT('',#1587);
#811=VERTEX_POINT('',#1590);
#812=VERTEX_POINT('',#1597);
#813=VERTEX_POINT('',#1602);
#814=VERTEX_POINT('',#1608);
#815=VERTEX_POINT('',#1609);
#816=VERTEX_POINT('',#1611);
#817=VERTEX_POINT('',#1613);
#818=VERTEX_POINT('',#1615);
#819=VERTEX_POINT('',#1617);
#820=VERTEX_POINT('',#1620);
#821=VERTEX_POINT('',#1621);
#822=VERTEX_POINT('',#1623);
#823=VERTEX_POINT('',#1625);
#824=VERTEX_POINT('',#1627);
#825=VERTEX_POINT('',#1629);
#826=VERTEX_POINT('',#1632);
#827=VERTEX_POINT('',#1633);
#828=VERTEX_POINT('',#1635);
#829=VERTEX_POINT('',#1637);
#830=VERTEX_POINT('',#1639);
#831=VERTEX_POINT('',#1641);
#832=VERTEX_POINT('',#1646);
#833=VERTEX_POINT('',#1648);
#834=VERTEX_POINT('',#1652);
#835=VERTEX_POINT('',#1656);
#836=VERTEX_POINT('',#1660);
#837=VERTEX_POINT('',#1664);
#838=VERTEX_POINT('',#1671);
#839=VERTEX_POINT('',#1673);
#840=VERTEX_POINT('',#1677);
#841=VERTEX_POINT('',#1681);
#842=VERTEX_POINT('',#1685);
#843=VERTEX_POINT('',#1689);
#844=VERTEX_POINT('',#1696);
#845=VERTEX_POINT('',#1698);
#846=VERTEX_POINT('',#1702);
#847=VERTEX_POINT('',#1706);
#848=VERTEX_POINT('',#1710);
#849=VERTEX_POINT('',#1714);
#850=VERTEX_POINT('',#1721);
#851=VERTEX_POINT('',#1723);
#852=VERTEX_POINT('',#1727);
#853=VERTEX_POINT('',#1731);
#854=VERTEX_POINT('',#1735);
#855=VERTEX_POINT('',#1739);
#856=VERTEX_POINT('',#1746);
#857=VERTEX_POINT('',#1748);
#858=VERTEX_POINT('',#1752);
#859=VERTEX_POINT('',#1756);
#860=VERTEX_POINT('',#1760);
#861=VERTEX_POINT('',#1764);
#862=VERTEX_POINT('',#1771);
#863=VERTEX_POINT('',#1773);
#864=VERTEX_POINT('',#1777);
#865=VERTEX_POINT('',#1781);
#866=VERTEX_POINT('',#1785);
#867=VERTEX_POINT('',#1789);
#868=CIRCLE('',#1134,0.00254);
#869=CIRCLE('',#1135,0.00254);
#870=CIRCLE('',#1137,0.00254);
#871=CIRCLE('',#1138,0.00254);
#872=CIRCLE('',#1140,0.00254);
#873=CIRCLE('',#1141,0.00254);
#874=CIRCLE('',#1143,0.00254);
#875=CIRCLE('',#1144,0.00254);
#876=CIRCLE('',#1146,0.00254);
#877=CIRCLE('',#1147,0.00254);
#878=CIRCLE('',#1149,0.00254);
#879=CIRCLE('',#1150,0.00254);
#880=CIRCLE('',#1157,0.0040505);
#881=CIRCLE('',#1159,0.0040505);
#882=EDGE_LOOP('',(#328));
#883=EDGE_LOOP('',(#329));
#884=EDGE_LOOP('',(#330));
#885=EDGE_LOOP('',(#331));
#886=EDGE_LOOP('',(#332));
#887=EDGE_LOOP('',(#333));
#888=EDGE_LOOP('',(#334));
#889=EDGE_LOOP('',(#335));
#890=EDGE_LOOP('',(#336));
#891=EDGE_LOOP('',(#337));
#892=EDGE_LOOP('',(#338));
#893=EDGE_LOOP('',(#339));
#894=EDGE_LOOP('',(#340,#341,#342,#343,#344,#345));
#895=EDGE_LOOP('',(#346,#347,#348,#349));
#896=EDGE_LOOP('',(#350,#351,#352,#353,#354,#355));
#897=EDGE_LOOP('',(#356,#357,#358,#359,#360,#361));
#898=EDGE_LOOP('',(#362,#363,#364,#365,#366,#367,#368,#369));
#899=EDGE_LOOP('',(#370,#371,#372,#373));
#900=EDGE_LOOP('',(#374,#375,#376,#377,#378,#379,#380,#381));
#901=EDGE_LOOP('',(#382,#383,#384,#385));
#902=EDGE_LOOP('',(#386));
#903=EDGE_LOOP('',(#387,#388,#389,#390));
#904=EDGE_LOOP('',(#391));
#905=EDGE_LOOP('',(#392));
#906=EDGE_LOOP('',(#393,#394,#395,#396));
#907=EDGE_LOOP('',(#397));
#908=EDGE_LOOP('',(#398));
#909=EDGE_LOOP('',(#399));
#910=EDGE_LOOP('',(#400));
#911=EDGE_LOOP('',(#401));
#912=EDGE_LOOP('',(#402));
#913=EDGE_LOOP('',(#403));
#914=EDGE_LOOP('',(#404,#405,#406,#407));
#915=EDGE_LOOP('',(#408,#409,#410,#411,#412,#413));
#916=EDGE_LOOP('',(#414,#415,#416,#417,#418,#419));
#917=EDGE_LOOP('',(#420,#421,#422,#423,#424,#425));
#918=EDGE_LOOP('',(#426,#427,#428,#429));
#919=EDGE_LOOP('',(#430,#431,#432,#433));
#920=EDGE_LOOP('',(#434,#435,#436,#437));
#921=EDGE_LOOP('',(#438,#439,#440,#441));
#922=EDGE_LOOP('',(#442,#443,#444,#445));
#923=EDGE_LOOP('',(#446,#447,#448,#449));
#924=EDGE_LOOP('',(#450,#451,#452,#453));
#925=EDGE_LOOP('',(#454,#455,#456,#457));
#926=EDGE_LOOP('',(#458,#459,#460,#461,#462,#463));
#927=EDGE_LOOP('',(#464));
#928=EDGE_LOOP('',(#465,#466,#467,#468));
#929=EDGE_LOOP('',(#469,#470,#471,#472));
#930=EDGE_LOOP('',(#473,#474,#475,#476));
#931=EDGE_LOOP('',(#477,#478,#479,#480));
#932=EDGE_LOOP('',(#481,#482,#483,#484));
#933=EDGE_LOOP('',(#485,#486,#487,#488));
#934=EDGE_LOOP('',(#489,#490,#491,#492,#493,#494));
#935=EDGE_LOOP('',(#495));
#936=EDGE_LOOP('',(#496,#497,#498,#499));
#937=EDGE_LOOP('',(#500,#501,#502,#503));
#938=EDGE_LOOP('',(#504,#505,#506,#507));
#939=EDGE_LOOP('',(#508,#509,#510,#511));
#940=EDGE_LOOP('',(#512,#513,#514,#515));
#941=EDGE_LOOP('',(#516,#517,#518,#519));
#942=EDGE_LOOP('',(#520,#521,#522,#523,#524,#525));
#943=EDGE_LOOP('',(#526));
#944=EDGE_LOOP('',(#527,#528,#529,#530));
#945=EDGE_LOOP('',(#531,#532,#533,#534));
#946=EDGE_LOOP('',(#535,#536,#537,#538));
#947=EDGE_LOOP('',(#539,#540,#541,#542));
#948=EDGE_LOOP('',(#543,#544,#545,#546));
#949=EDGE_LOOP('',(#547,#548,#549,#550));
#950=EDGE_LOOP('',(#551));
#951=EDGE_LOOP('',(#552,#553,#554,#555,#556,#557));
#952=EDGE_LOOP('',(#558,#559,#560,#561));
#953=EDGE_LOOP('',(#562,#563,#564,#565));
#954=EDGE_LOOP('',(#566,#567,#568,#569));
#955=EDGE_LOOP('',(#570,#571,#572,#573));
#956=EDGE_LOOP('',(#574,#575,#576,#577));
#957=EDGE_LOOP('',(#578,#579,#580,#581));
#958=EDGE_LOOP('',(#582));
#959=EDGE_LOOP('',(#583,#584,#585,#586,#587,#588));
#960=EDGE_LOOP('',(#589,#590,#591,#592));
#961=EDGE_LOOP('',(#593,#594,#595,#596));
#962=EDGE_LOOP('',(#597,#598,#599,#600));
#963=EDGE_LOOP('',(#601,#602,#603,#604));
#964=EDGE_LOOP('',(#605,#606,#607,#608));
#965=EDGE_LOOP('',(#609,#610,#611,#612));
#966=EDGE_LOOP('',(#613));
#967=EDGE_LOOP('',(#614,#615,#616,#617,#618,#619));
#968=FACE_BOUND('',#882,.T.);
#969=FACE_BOUND('',#883,.T.);
#970=FACE_BOUND('',#884,.T.);
#971=FACE_BOUND('',#885,.T.);
#972=FACE_BOUND('',#886,.T.);
#973=FACE_BOUND('',#887,.T.);
#974=FACE_BOUND('',#888,.T.);
#975=FACE_BOUND('',#889,.T.);
#976=FACE_BOUND('',#890,.T.);
#977=FACE_BOUND('',#891,.T.);
#978=FACE_BOUND('',#892,.T.);
#979=FACE_BOUND('',#893,.T.);
#980=FACE_BOUND('',#894,.T.);
#981=FACE_BOUND('',#895,.T.);
#982=FACE_BOUND('',#896,.T.);
#983=FACE_BOUND('',#897,.T.);
#984=FACE_BOUND('',#898,.T.);
#985=FACE_BOUND('',#899,.T.);
#986=FACE_BOUND('',#900,.T.);
#987=FACE_BOUND('',#901,.T.);
#988=FACE_BOUND('',#902,.T.);
#989=FACE_BOUND('',#903,.T.);
#990=FACE_BOUND('',#904,.T.);
#991=FACE_BOUND('',#905,.T.);
#992=FACE_BOUND('',#906,.T.);
#993=FACE_BOUND('',#907,.T.);
#994=FACE_BOUND('',#908,.T.);
#995=FACE_BOUND('',#909,.T.);
#996=FACE_BOUND('',#910,.T.);
#997=FACE_BOUND('',#911,.T.);
#998=FACE_BOUND('',#912,.T.);
#999=FACE_BOUND('',#913,.T.);
#1000=FACE_BOUND('',#914,.T.);
#1001=FACE_BOUND('',#915,.T.);
#1002=FACE_BOUND('',#916,.T.);
#1003=FACE_BOUND('',#917,.T.);
#1004=FACE_BOUND('',#918,.T.);
#1005=FACE_BOUND('',#919,.T.);
#1006=FACE_BOUND('',#920,.T.);
#1007=FACE_BOUND('',#921,.T.);
#1008=FACE_BOUND('',#922,.T.);
#1009=FACE_BOUND('',#923,.T.);
#1010=FACE_BOUND('',#924,.T.);
#1011=FACE_BOUND('',#925,.T.);
#1012=FACE_BOUND('',#926,.T.);
#1013=FACE_BOUND('',#927,.T.);
#1014=FACE_BOUND('',#928,.T.);
#1015=FACE_BOUND('',#929,.T.);
#1016=FACE_BOUND('',#930,.T.);
#1017=FACE_BOUND('',#931,.T.);
#1018=FACE_BOUND('',#932,.T.);
#1019=FACE_BOUND('',#933,.T.);
#1020=FACE_BOUND('',#934,.T.);
#1021=FACE_BOUND('',#935,.T.);
#1022=FACE_BOUND('',#936,.T.);
#1023=FACE_BOUND('',#937,.T.);
#1024=FACE_BOUND('',#938,.T.);
#1025=FACE_BOUND('',#939,.T.);
#1026=FACE_BOUND('',#940,.T.);
#1027=FACE_BOUND('',#941,.T.);
#1028=FACE_BOUND('',#942,.T.);
#1029=FACE_BOUND('',#943,.T.);
#1030=FACE_BOUND('',#944,.T.);
#1031=FACE_BOUND('',#945,.T.);
#1032=FACE_BOUND('',#946,.T.);
#1033=FACE_BOUND('',#947,.T.);
#1034=FACE_BOUND('',#948,.T.);
#1035=FACE_BOUND('',#949,.T.);
#1036=FACE_BOUND('',#950,.T.);
#1037=FACE_BOUND('',#951,.T.);
#1038=FACE_BOUND('',#952,.T.);
#1039=FACE_BOUND('',#953,.T.);
#1040=FACE_BOUND('',#954,.T.);
#1041=FACE_BOUND('',#955,.T.);
#1042=FACE_BOUND('',#956,.T.);
#1043=FACE_BOUND('',#957,.T.);
#1044=FACE_BOUND('',#958,.T.);
#1045=FACE_BOUND('',#959,.T.);
#1046=FACE_BOUND('',#960,.T.);
#1047=FACE_BOUND('',#961,.T.);
#1048=FACE_BOUND('',#962,.T.);
#1049=FACE_BOUND('',#963,.T.);
#1050=FACE_BOUND('',#964,.T.);
#1051=FACE_BOUND('',#965,.T.);
#1052=FACE_BOUND('',#966,.T.);
#1053=FACE_BOUND('',#967,.T.);
#1054=CYLINDRICAL_SURFACE('',#1133,0.00254);
#1055=CYLINDRICAL_SURFACE('',#1136,0.00254);
#1056=CYLINDRICAL_SURFACE('',#1139,0.00254);
#1057=CYLINDRICAL_SURFACE('',#1142,0.00254);
#1058=CYLINDRICAL_SURFACE('',#1145,0.00254);
#1059=CYLINDRICAL_SURFACE('',#1148,0.00254);
#1060=CYLINDRICAL_SURFACE('',#1158,0.0040505);
#1061=ADVANCED_FACE('',(#968,#969),#1054,.F.);
#1062=ADVANCED_FACE('',(#970,#971),#1055,.F.);
#1063=ADVANCED_FACE('',(#972,#973),#1056,.F.);
#1064=ADVANCED_FACE('',(#974,#975),#1057,.F.);
#1065=ADVANCED_FACE('',(#976,#977),#1058,.F.);
#1066=ADVANCED_FACE('',(#978,#979),#1059,.F.);
#1067=ADVANCED_FACE('',(#980,#981,#982,#983),#276,.T.);
#1068=ADVANCED_FACE('',(#984),#277,.T.);
#1069=ADVANCED_FACE('',(#985),#278,.F.);
#1070=ADVANCED_FACE('',(#986),#279,.F.);
#1071=ADVANCED_FACE('',(#987),#280,.T.);
#1072=ADVANCED_FACE('',(#988,#989),#281,.T.);
#1073=ADVANCED_FACE('',(#990,#991),#1060,.F.);
#1074=ADVANCED_FACE('',(#992,#993,#994,#995,#996,#997,#998,#999),#282,.F.);
#1075=ADVANCED_FACE('',(#1000),#283,.T.);
#1076=ADVANCED_FACE('',(#1001,#1002,#1003,#1004),#284,.T.);
#1077=ADVANCED_FACE('',(#1005),#285,.F.);
#1078=ADVANCED_FACE('',(#1006),#286,.T.);
#1079=ADVANCED_FACE('',(#1007),#287,.T.);
#1080=ADVANCED_FACE('',(#1008),#288,.T.);
#1081=ADVANCED_FACE('',(#1009),#289,.T.);
#1082=ADVANCED_FACE('',(#1010),#290,.T.);
#1083=ADVANCED_FACE('',(#1011),#291,.T.);
#1084=ADVANCED_FACE('',(#1012,#1013),#292,.T.);
#1085=ADVANCED_FACE('',(#1014),#293,.T.);
#1086=ADVANCED_FACE('',(#1015),#294,.T.);
#1087=ADVANCED_FACE('',(#1016),#295,.T.);
#1088=ADVANCED_FACE('',(#1017),#296,.T.);
#1089=ADVANCED_FACE('',(#1018),#297,.T.);
#1090=ADVANCED_FACE('',(#1019),#298,.T.);
#1091=ADVANCED_FACE('',(#1020,#1021),#299,.T.);
#1092=ADVANCED_FACE('',(#1022),#300,.T.);
#1093=ADVANCED_FACE('',(#1023),#301,.T.);
#1094=ADVANCED_FACE('',(#1024),#302,.T.);
#1095=ADVANCED_FACE('',(#1025),#303,.T.);
#1096=ADVANCED_FACE('',(#1026),#304,.T.);
#1097=ADVANCED_FACE('',(#1027),#305,.T.);
#1098=ADVANCED_FACE('',(#1028,#1029),#306,.T.);
#1099=ADVANCED_FACE('',(#1030),#307,.F.);
#1100=ADVANCED_FACE('',(#1031),#308,.F.);
#1101=ADVANCED_FACE('',(#1032),#309,.F.);
#1102=ADVANCED_FACE('',(#1033),#310,.F.);
#1103=ADVANCED_FACE('',(#1034),#311,.F.);
#1104=ADVANCED_FACE('',(#1035),#312,.F.);
#1105=ADVANCED_FACE('',(#1036,#1037),#313,.T.);
#1106=ADVANCED_FACE('',(#1038),#314,.F.);
#1107=ADVANCED_FACE('',(#1039),#315,.F.);
#1108=ADVANCED_FACE('',(#1040),#316,.F.);
#1109=ADVANCED_FACE('',(#1041),#317,.F.);
#1110=ADVANCED_FACE('',(#1042),#318,.F.);
#1111=ADVANCED_FACE('',(#1043),#319,.F.);
#1112=ADVANCED_FACE('',(#1044,#1045),#320,.T.);
#1113=ADVANCED_FACE('',(#1046),#321,.F.);
#1114=ADVANCED_FACE('',(#1047),#322,.F.);
#1115=ADVANCED_FACE('',(#1048),#323,.F.);
#1116=ADVANCED_FACE('',(#1049),#324,.F.);
#1117=ADVANCED_FACE('',(#1050),#325,.F.);
#1118=ADVANCED_FACE('',(#1051),#326,.F.);
#1119=ADVANCED_FACE('',(#1052,#1053),#327,.T.);
#1120=CLOSED_SHELL('',(#1061,#1062,#1063,#1064,#1065,#1066,#1067,#1068,
#1069,#1070,#1071,#1072,#1073,#1074,#1075,#1076,#1077,#1078,#1079,#1080,
#1081,#1082,#1083,#1084,#1085,#1086,#1087,#1088,#1089,#1090,#1091,#1092,
#1093,#1094,#1095,#1096,#1097,#1098,#1099,#1100,#1101,#1102,#1103,#1104,
#1105,#1106,#1107,#1108,#1109,#1110,#1111,#1112,#1113,#1114,#1115,#1116,
#1117,#1118,#1119));
#1121=STYLED_ITEM('',(#1122),#1129);
#1122=PRESENTATION_STYLE_ASSIGNMENT((#1123));
#1123=SURFACE_STYLE_USAGE(.BOTH.,#1124);
#1124=SURFACE_SIDE_STYLE('',(#1125));
#1125=SURFACE_STYLE_FILL_AREA(#1126);
#1126=FILL_AREA_STYLE('',(#1127));
#1127=FILL_AREA_STYLE_COLOUR('',#1128);
#1128=COLOUR_RGB('',0.223529411764706,0.223529411764706,0.223529411764706);
#1129=MANIFOLD_SOLID_BREP('Motor Adapter',#1120);
#1130=SHAPE_DEFINITION_REPRESENTATION(#1800,#1131);
#1131=SHAPE_REPRESENTATION('Motor Adapter',(#1132),#1795);
#1132=AXIS2_PLACEMENT_3D('',#1486,#1206,#1207);
#1133=AXIS2_PLACEMENT_3D('',#1487,#1208,#1209);
#1134=AXIS2_PLACEMENT_3D('',#1488,#1210,#1211);
#1135=AXIS2_PLACEMENT_3D('',#1490,#1212,#1213);
#1136=AXIS2_PLACEMENT_3D('',#1492,#1214,#1215);
#1137=AXIS2_PLACEMENT_3D('',#1493,#1216,#1217);
#1138=AXIS2_PLACEMENT_3D('',#1495,#1218,#1219);
#1139=AXIS2_PLACEMENT_3D('',#1497,#1220,#1221);
#1140=AXIS2_PLACEMENT_3D('',#1498,#1222,#1223);
#1141=AXIS2_PLACEMENT_3D('',#1500,#1224,#1225);
#1142=AXIS2_PLACEMENT_3D('',#1502,#1226,#1227);
#1143=AXIS2_PLACEMENT_3D('',#1503,#1228,#1229);
#1144=AXIS2_PLACEMENT_3D('',#1505,#1230,#1231);
#1145=AXIS2_PLACEMENT_3D('',#1507,#1232,#1233);
#1146=AXIS2_PLACEMENT_3D('',#1508,#1234,#1235);
#1147=AXIS2_PLACEMENT_3D('',#1510,#1236,#1237);
#1148=AXIS2_PLACEMENT_3D('',#1512,#1238,#1239);
#1149=AXIS2_PLACEMENT_3D('',#1513,#1240,#1241);
#1150=AXIS2_PLACEMENT_3D('',#1515,#1242,#1243);
#1151=AXIS2_PLACEMENT_3D('',#1517,#1244,#1245);
#1152=AXIS2_PLACEMENT_3D('',#1562,#1268,#1269);
#1153=AXIS2_PLACEMENT_3D('',#1576,#1277,#1278);
#1154=AXIS2_PLACEMENT_3D('',#1580,#1281,#1282);
#1155=AXIS2_PLACEMENT_3D('',#1592,#1289,#1290);
#1156=AXIS2_PLACEMENT_3D('',#1595,#1293,#1294);
#1157=AXIS2_PLACEMENT_3D('',#1596,#1295,#1296);
#1158=AXIS2_PLACEMENT_3D('',#1600,#1299,#1300);
#1159=AXIS2_PLACEMENT_3D('',#1601,#1301,#1302);
#1160=AXIS2_PLACEMENT_3D('',#1603,#1303,#1304);
#1161=AXIS2_PLACEMENT_3D('',#1604,#1305,#1306);
#1162=AXIS2_PLACEMENT_3D('',#1606,#1308,#1309);
#1163=AXIS2_PLACEMENT_3D('',#1643,#1328,#1329);
#1164=AXIS2_PLACEMENT_3D('',#1644,#1330,#1331);
#1165=AXIS2_PLACEMENT_3D('',#1650,#1335,#1336);
#1166=AXIS2_PLACEMENT_3D('',#1654,#1339,#1340);
#1167=AXIS2_PLACEMENT_3D('',#1658,#1343,#1344);
#1168=AXIS2_PLACEMENT_3D('',#1662,#1347,#1348);
#1169=AXIS2_PLACEMENT_3D('',#1666,#1351,#1352);
#1170=AXIS2_PLACEMENT_3D('',#1668,#1354,#1355);
#1171=AXIS2_PLACEMENT_3D('',#1669,#1356,#1357);
#1172=AXIS2_PLACEMENT_3D('',#1675,#1361,#1362);
#1173=AXIS2_PLACEMENT_3D('',#1679,#1365,#1366);
#1174=AXIS2_PLACEMENT_3D('',#1683,#1369,#1370);
#1175=AXIS2_PLACEMENT_3D('',#1687,#1373,#1374);
#1176=AXIS2_PLACEMENT_3D('',#1691,#1377,#1378);
#1177=AXIS2_PLACEMENT_3D('',#1693,#1380,#1381);
#1178=AXIS2_PLACEMENT_3D('',#1694,#1382,#1383);
#1179=AXIS2_PLACEMENT_3D('',#1700,#1387,#1388);
#1180=AXIS2_PLACEMENT_3D('',#1704,#1391,#1392);
#1181=AXIS2_PLACEMENT_3D('',#1708,#1395,#1396);
#1182=AXIS2_PLACEMENT_3D('',#1712,#1399,#1400);
#1183=AXIS2_PLACEMENT_3D('',#1716,#1403,#1404);
#1184=AXIS2_PLACEMENT_3D('',#1718,#1406,#1407);
#1185=AXIS2_PLACEMENT_3D('',#1719,#1408,#1409);
#1186=AXIS2_PLACEMENT_3D('',#1725,#1413,#1414);
#1187=AXIS2_PLACEMENT_3D('',#1729,#1417,#1418);
#1188=AXIS2_PLACEMENT_3D('',#1733,#1421,#1422);
#1189=AXIS2_PLACEMENT_3D('',#1737,#1425,#1426);
#1190=AXIS2_PLACEMENT_3D('',#1741,#1429,#1430);
#1191=AXIS2_PLACEMENT_3D('',#1743,#1432,#1433);
#1192=AXIS2_PLACEMENT_3D('',#1744,#1434,#1435);
#1193=AXIS2_PLACEMENT_3D('',#1750,#1439,#1440);
#1194=AXIS2_PLACEMENT_3D('',#1754,#1443,#1444);
#1195=AXIS2_PLACEMENT_3D('',#1758,#1447,#1448);
#1196=AXIS2_PLACEMENT_3D('',#1762,#1451,#1452);
#1197=AXIS2_PLACEMENT_3D('',#1766,#1455,#1456);
#1198=AXIS2_PLACEMENT_3D('',#1768,#1458,#1459);
#1199=AXIS2_PLACEMENT_3D('',#1769,#1460,#1461);
#1200=AXIS2_PLACEMENT_3D('',#1775,#1465,#1466);
#1201=AXIS2_PLACEMENT_3D('',#1779,#1469,#1470);
#1202=AXIS2_PLACEMENT_3D('',#1783,#1473,#1474);
#1203=AXIS2_PLACEMENT_3D('',#1787,#1477,#1478);
#1204=AXIS2_PLACEMENT_3D('',#1791,#1481,#1482);
#1205=AXIS2_PLACEMENT_3D('',#1793,#1484,#1485);
#1206=DIRECTION('',(0.,0.,1.));
#1207=DIRECTION('',(1.,0.,0.));
#1208=DIRECTION('',(0.,0.,-1.));
#1209=DIRECTION('',(-1.,0.,0.));
#1210=DIRECTION('',(0.,0.,1.));
#1211=DIRECTION('',(1.,0.,0.));
#1212=DIRECTION('',(0.,0.,1.));
#1213=DIRECTION('',(1.,0.,0.));
#1214=DIRECTION('',(0.,0.,-1.));
#1215=DIRECTION('',(-1.,0.,0.));
#1216=DIRECTION('',(0.,0.,1.));
#1217=DIRECTION('',(1.,0.,0.));
#1218=DIRECTION('',(0.,0.,1.));
#1219=DIRECTION('',(1.,0.,0.));
#1220=DIRECTION('',(0.,0.,-1.));
#1221=DIRECTION('',(-1.,0.,0.));
#1222=DIRECTION('',(0.,0.,1.));
#1223=DIRECTION('',(1.,0.,0.));
#1224=DIRECTION('',(0.,0.,1.));
#1225=DIRECTION('',(1.,0.,0.));
#1226=DIRECTION('',(0.,0.,-1.));
#1227=DIRECTION('',(-1.,0.,0.));
#1228=DIRECTION('',(0.,0.,1.));
#1229=DIRECTION('',(1.,0.,0.));
#1230=DIRECTION('',(0.,0.,1.));
#1231=DIRECTION('',(1.,0.,0.));
#1232=DIRECTION('',(0.,0.,-1.));
#1233=DIRECTION('',(-1.,0.,0.));
#1234=DIRECTION('',(0.,0.,1.));
#1235=DIRECTION('',(1.,0.,0.));
#1236=DIRECTION('',(0.,0.,1.));
#1237=DIRECTION('',(1.,0.,0.));
#1238=DIRECTION('',(0.,0.,-1.));
#1239=DIRECTION('',(-1.,0.,0.));
#1240=DIRECTION('',(0.,0.,1.));
#1241=DIRECTION('',(1.,0.,0.));
#1242=DIRECTION('',(0.,0.,1.));
#1243=DIRECTION('',(1.,0.,0.));
#1244=DIRECTION('',(0.,0.,1.));
#1245=DIRECTION('',(1.,0.,0.));
#1246=DIRECTION('',(1.,0.,0.));
#1247=DIRECTION('',(0.5,-0.866025403784439,0.));
#1248=DIRECTION('',(-0.5,-0.866025403784439,0.));
#1249=DIRECTION('',(-1.,0.,0.));
#1250=DIRECTION('',(-0.5,0.866025403784439,0.));
#1251=DIRECTION('',(0.5,0.866025403784439,0.));
#1252=DIRECTION('',(6.07077331925392E-17,-1.,0.));
#1253=DIRECTION('',(1.,0.,0.));
#1254=DIRECTION('',(6.07077331925392E-17,-1.,0.));
#1255=DIRECTION('',(-1.,0.,0.));
#1256=DIRECTION('',(0.5,-0.866025403784439,0.));
#1257=DIRECTION('',(-0.5,-0.866025403784439,0.));
#1258=DIRECTION('',(-1.,3.11296021288263E-16,0.));
#1259=DIRECTION('',(-0.5,0.866025403784439,0.));
#1260=DIRECTION('',(0.5,0.866025403784439,0.));
#1261=DIRECTION('',(1.,0.,0.));
#1262=DIRECTION('',(-0.5,-0.866025403784438,0.));
#1263=DIRECTION('',(-1.,0.,0.));
#1264=DIRECTION('',(-0.5,0.866025403784439,0.));
#1265=DIRECTION('',(0.5,0.866025403784439,0.));
#1266=DIRECTION('',(1.,0.,0.));
#1267=DIRECTION('',(0.5,-0.866025403784439,0.));
#1268=DIRECTION('',(1.,6.07077331925392E-17,0.));
#1269=DIRECTION('',(-6.07077331925392E-17,1.,0.));
#1270=DIRECTION('',(0.,0.,1.));
#1271=DIRECTION('',(6.07077331925392E-17,-1.,0.));
#1272=DIRECTION('',(0.,0.,-1.));
#1273=DIRECTION('',(6.07077331925392E-17,-1.,0.));
#1274=DIRECTION('',(0.,0.,-1.));
#1275=DIRECTION('',(0.,0.,1.));
#1276=DIRECTION('',(6.07077331925392E-17,-1.,0.));
#1277=DIRECTION('',(0.,-1.,0.));
#1278=DIRECTION('',(0.,0.,-1.));
#1279=DIRECTION('',(-1.,0.,0.));
#1280=DIRECTION('',(0.,0.,-1.));
#1281=DIRECTION('',(1.,6.07077331925392E-17,0.));
#1282=DIRECTION('',(-6.07077331925392E-17,1.,0.));
#1283=DIRECTION('',(6.07077331925392E-17,-1.,0.));
#1284=DIRECTION('',(0.,0.,1.));
#1285=DIRECTION('',(6.07077331925392E-17,-1.,0.));
#1286=DIRECTION('',(0.,0.,1.));
#1287=DIRECTION('',(6.07077331925392E-17,-1.,0.));
#1288=DIRECTION('',(0.,0.,-1.));
#1289=DIRECTION('',(0.,-1.,0.));
#1290=DIRECTION('',(0.,0.,-1.));
#1291=DIRECTION('',(-1.,0.,0.));
#1292=DIRECTION('',(-1.,0.,0.));
#1293=DIRECTION('',(0.,0.,1.));
#1294=DIRECTION('',(1.,0.,0.));
#1295=DIRECTION('',(0.,0.,1.));
#1296=DIRECTION('',(1.,0.,0.));
#1297=DIRECTION('',(1.,0.,0.));
#1298=DIRECTION('',(1.,0.,0.));
#1299=DIRECTION('',(0.,0.,-1.));
#1300=DIRECTION('',(-1.,0.,0.));
#1301=DIRECTION('',(0.,0.,1.));
#1302=DIRECTION('',(1.,0.,0.));
#1303=DIRECTION('',(0.,0.,1.));
#1304=DIRECTION('',(1.,0.,0.));
#1305=DIRECTION('',(0.,-1.,0.));
#1306=DIRECTION('',(0.,0.,-1.));
#1307=DIRECTION('',(1.,0.,0.));
#1308=DIRECTION('',(0.,0.,1.));
#1309=DIRECTION('',(1.,0.,0.));
#1310=DIRECTION('',(1.,0.,0.));
#1311=DIRECTION('',(0.5,-0.866025403784439,0.));
#1312=DIRECTION('',(-0.5,-0.866025403784439,0.));
#1313=DIRECTION('',(-1.,0.,0.));
#1314=DIRECTION('',(-0.5,0.866025403784438,0.));
#1315=DIRECTION('',(0.5,0.866025403784439,0.));
#1316=DIRECTION('',(1.,0.,0.));
#1317=DIRECTION('',(0.5,-0.866025403784439,0.));
#1318=DIRECTION('',(-0.5,-0.866025403784439,0.));
#1319=DIRECTION('',(-1.,0.,0.));
#1320=DIRECTION('',(-0.5,0.866025403784439,0.));
#1321=DIRECTION('',(0.5,0.866025403784439,0.));
#1322=DIRECTION('',(0.5,0.866025403784439,0.));
#1323=DIRECTION('',(1.,0.,0.));
#1324=DIRECTION('',(0.5,-0.866025403784439,0.));
#1325=DIRECTION('',(-0.5,-0.866025403784439,0.));
#1326=DIRECTION('',(-1.,-3.11296021288263E-16,0.));
#1327=DIRECTION('',(-0.5,0.866025403784439,0.));
#1328=DIRECTION('',(0.,-1.,0.));
#1329=DIRECTION('',(0.,0.,-1.));
#1330=DIRECTION('',(-0.866025403784439,0.5,0.));
#1331=DIRECTION('',(-0.5,-0.866025403784439,0.));
#1332=DIRECTION('',(0.,0.,1.));
#1333=DIRECTION('',(-0.5,-0.866025403784439,0.));
#1334=DIRECTION('',(0.,0.,1.));
#1335=DIRECTION('',(-0.866025403784439,-0.5,0.));
#1336=DIRECTION('',(0.5,-0.866025403784439,0.));
#1337=DIRECTION('',(0.,0.,1.));
#1338=DIRECTION('',(0.5,-0.866025403784439,0.));
#1339=DIRECTION('',(0.,-1.,0.));
#1340=DIRECTION('',(0.,0.,-1.));
#1341=DIRECTION('',(0.,0.,1.));
#1342=DIRECTION('',(1.,0.,0.));
#1343=DIRECTION('',(0.866025403784439,-0.5,0.));
#1344=DIRECTION('',(0.5,0.866025403784439,0.));
#1345=DIRECTION('',(0.,0.,1.));
#1346=DIRECTION('',(0.5,0.866025403784439,0.));
#1347=DIRECTION('',(0.866025403784439,0.5,0.));
#1348=DIRECTION('',(-0.5,0.866025403784439,0.));
#1349=DIRECTION('',(0.,0.,1.));
#1350=DIRECTION('',(-0.5,0.866025403784439,0.));
#1351=DIRECTION('',(3.11296021288264E-16,1.,0.));
#1352=DIRECTION('',(-1.,3.11296021288264E-16,0.));
#1353=DIRECTION('',(-1.,3.11296021288263E-16,0.));
#1354=DIRECTION('',(0.,0.,1.));
#1355=DIRECTION('',(1.,0.,0.));
#1356=DIRECTION('',(-0.866025403784439,-0.5,0.));
#1357=DIRECTION('',(0.5,-0.866025403784439,0.));
#1358=DIRECTION('',(0.,0.,1.));
#1359=DIRECTION('',(0.5,-0.866025403784439,0.));
#1360=DIRECTION('',(0.,0.,1.));
#1361=DIRECTION('',(0.,-1.,0.));
#1362=DIRECTION('',(0.,0.,-1.));
#1363=DIRECTION('',(0.,0.,1.));
#1364=DIRECTION('',(1.,0.,0.));
#1365=DIRECTION('',(0.866025403784439,-0.5,0.));
#1366=DIRECTION('',(0.5,0.866025403784439,0.));
#1367=DIRECTION('',(0.,0.,1.));
#1368=DIRECTION('',(0.5,0.866025403784439,0.));
#1369=DIRECTION('',(0.866025403784439,0.5,0.));
#1370=DIRECTION('',(-0.5,0.866025403784439,0.));
#1371=DIRECTION('',(0.,0.,1.));
#1372=DIRECTION('',(-0.5,0.866025403784439,0.));
#1373=DIRECTION('',(0.,1.,0.));
#1374=DIRECTION('',(0.,0.,1.));
#1375=DIRECTION('',(0.,0.,1.));
#1376=DIRECTION('',(-1.,0.,0.));
#1377=DIRECTION('',(-0.866025403784439,0.5,0.));
#1378=DIRECTION('',(-0.5,-0.866025403784439,0.));
#1379=DIRECTION('',(-0.5,-0.866025403784439,0.));
#1380=DIRECTION('',(0.,0.,1.));
#1381=DIRECTION('',(1.,0.,0.));
#1382=DIRECTION('',(0.,1.,0.));
#1383=DIRECTION('',(0.,0.,1.));
#1384=DIRECTION('',(0.,0.,1.));
#1385=DIRECTION('',(-1.,0.,0.));
#1386=DIRECTION('',(0.,0.,1.));
#1387=DIRECTION('',(-0.866025403784439,0.5,0.));
#1388=DIRECTION('',(-0.5,-0.866025403784439,0.));
#1389=DIRECTION('',(0.,0.,1.));
#1390=DIRECTION('',(-0.5,-0.866025403784438,0.));
#1391=DIRECTION('',(-0.866025403784439,-0.5,0.));
#1392=DIRECTION('',(0.5,-0.866025403784439,0.));
#1393=DIRECTION('',(0.,0.,1.));
#1394=DIRECTION('',(0.5,-0.866025403784439,0.));
#1395=DIRECTION('',(0.,-1.,0.));
#1396=DIRECTION('',(0.,0.,-1.));
#1397=DIRECTION('',(0.,0.,1.));
#1398=DIRECTION('',(1.,0.,0.));
#1399=DIRECTION('',(0.866025403784439,-0.5,0.));
#1400=DIRECTION('',(0.5,0.866025403784439,0.));
#1401=DIRECTION('',(0.,0.,1.));
#1402=DIRECTION('',(0.5,0.866025403784439,0.));
#1403=DIRECTION('',(0.866025403784439,0.5,0.));
#1404=DIRECTION('',(-0.5,0.866025403784439,0.));
#1405=DIRECTION('',(-0.5,0.866025403784439,0.));
#1406=DIRECTION('',(0.,0.,1.));
#1407=DIRECTION('',(1.,0.,0.));
#1408=DIRECTION('',(0.866025403784439,-0.5,0.));
#1409=DIRECTION('',(0.5,0.866025403784439,0.));
#1410=DIRECTION('',(0.,0.,1.));
#1411=DIRECTION('',(0.5,0.866025403784439,0.));
#1412=DIRECTION('',(0.,0.,1.));
#1413=DIRECTION('',(0.866025403784439,0.5,0.));
#1414=DIRECTION('',(-0.5,0.866025403784439,0.));
#1415=DIRECTION('',(0.,0.,1.));
#1416=DIRECTION('',(-0.5,0.866025403784439,0.));
#1417=DIRECTION('',(-3.11296021288264E-16,1.,0.));
#1418=DIRECTION('',(-1.,-3.11296021288264E-16,0.));
#1419=DIRECTION('',(0.,0.,1.));
#1420=DIRECTION('',(-1.,-3.11296021288263E-16,0.));
#1421=DIRECTION('',(-0.866025403784439,0.5,0.));
#1422=DIRECTION('',(-0.5,-0.866025403784439,0.));
#1423=DIRECTION('',(0.,0.,1.));
#1424=DIRECTION('',(-0.5,-0.866025403784439,0.));
#1425=DIRECTION('',(-0.866025403784439,-0.5,0.));
#1426=DIRECTION('',(0.5,-0.866025403784439,0.));
#1427=DIRECTION('',(0.,0.,1.));
#1428=DIRECTION('',(0.5,-0.866025403784439,0.));
#1429=DIRECTION('',(0.,-1.,0.));
#1430=DIRECTION('',(0.,0.,-1.));
#1431=DIRECTION('',(1.,0.,0.));
#1432=DIRECTION('',(0.,0.,1.));
#1433=DIRECTION('',(1.,0.,0.));
#1434=DIRECTION('',(0.,-1.,0.));
#1435=DIRECTION('',(0.,0.,-1.));
#1436=DIRECTION('',(0.,0.,1.));
#1437=DIRECTION('',(1.,0.,0.));
#1438=DIRECTION('',(0.,0.,1.));
#1439=DIRECTION('',(0.866025403784439,-0.5,0.));
#1440=DIRECTION('',(0.5,0.866025403784439,0.));
#1441=DIRECTION('',(0.,0.,1.));
#1442=DIRECTION('',(0.5,0.866025403784439,0.));
#1443=DIRECTION('',(0.866025403784439,0.5,0.));
#1444=DIRECTION('',(-0.5,0.866025403784439,0.));
#1445=DIRECTION('',(0.,0.,1.));
#1446=DIRECTION('',(-0.5,0.866025403784439,0.));
#1447=DIRECTION('',(0.,1.,0.));
#1448=DIRECTION('',(0.,0.,1.));
#1449=DIRECTION('',(0.,0.,1.));
#1450=DIRECTION('',(-1.,0.,0.));
#1451=DIRECTION('',(-0.866025403784439,0.5,0.));
#1452=DIRECTION('',(-0.5,-0.866025403784439,0.));
#1453=DIRECTION('',(0.,0.,1.));
#1454=DIRECTION('',(-0.5,-0.866025403784439,0.));
#1455=DIRECTION('',(-0.866025403784439,-0.5,0.));
#1456=DIRECTION('',(0.5,-0.866025403784439,0.));
#1457=DIRECTION('',(0.5,-0.866025403784439,0.));
#1458=DIRECTION('',(0.,0.,1.));
#1459=DIRECTION('',(1.,0.,0.));
#1460=DIRECTION('',(0.,-1.,0.));
#1461=DIRECTION('',(0.,0.,-1.));
#1462=DIRECTION('',(0.,0.,1.));
#1463=DIRECTION('',(1.,0.,0.));
#1464=DIRECTION('',(0.,0.,1.));
#1465=DIRECTION('',(0.866025403784439,-0.5,0.));
#1466=DIRECTION('',(0.5,0.866025403784439,0.));
#1467=DIRECTION('',(0.,0.,1.));
#1468=DIRECTION('',(0.5,0.866025403784439,0.));
#1469=DIRECTION('',(0.866025403784439,0.5,0.));
#1470=DIRECTION('',(-0.5,0.866025403784439,0.));
#1471=DIRECTION('',(0.,0.,1.));
#1472=DIRECTION('',(-0.5,0.866025403784438,0.));
#1473=DIRECTION('',(0.,1.,0.));
#1474=DIRECTION('',(0.,0.,1.));
#1475=DIRECTION('',(0.,0.,1.));
#1476=DIRECTION('',(-1.,0.,0.));
#1477=DIRECTION('',(-0.866025403784439,0.5,0.));
#1478=DIRECTION('',(-0.5,-0.866025403784439,0.));
#1479=DIRECTION('',(0.,0.,1.));
#1480=DIRECTION('',(-0.5,-0.866025403784439,0.));
#1481=DIRECTION('',(-0.866025403784439,-0.5,0.));
#1482=DIRECTION('',(0.5,-0.866025403784439,0.));
#1483=DIRECTION('',(0.5,-0.866025403784439,0.));
#1484=DIRECTION('',(0.,0.,1.));
#1485=DIRECTION('',(1.,0.,0.));
#1486=CARTESIAN_POINT('',(0.,0.,0.));
#1487=CARTESIAN_POINT('',(7.80625564189563E-18,-0.03175,0.031496));
#1488=CARTESIAN_POINT('',(7.80625564189563E-18,-0.03175,0.));
#1489=CARTESIAN_POINT('',(0.00254000000000001,-0.03175,0.));
#1490=CARTESIAN_POINT('',(7.80625564189563E-18,-0.03175,0.003048));
#1491=CARTESIAN_POINT('',(0.00254000000000001,-0.03175,0.003048));
#1492=CARTESIAN_POINT('',(9.97465998686664E-18,-0.04826,0.031496));
#1493=CARTESIAN_POINT('',(9.97465998686664E-18,-0.04826,0.));
#1494=CARTESIAN_POINT('',(0.00254000000000001,-0.04826,0.));
#1495=CARTESIAN_POINT('',(9.97465998686664E-18,-0.04826,0.003048));
#1496=CARTESIAN_POINT('',(0.00254000000000001,-0.04826,0.003048));
#1497=CARTESIAN_POINT('',(6.07153216591882E-18,0.01524,0.031496));
#1498=CARTESIAN_POINT('',(6.07153216591882E-18,0.01524,0.));
#1499=CARTESIAN_POINT('',(0.00254000000000001,0.01524,0.));
#1500=CARTESIAN_POINT('',(6.07153216591882E-18,0.01524,0.003048));
#1501=CARTESIAN_POINT('',(0.00254000000000001,0.01524,0.003048));
#1502=CARTESIAN_POINT('',(9.97465998686664E-18,0.04826,0.031496));
#1503=CARTESIAN_POINT('',(9.97465998686664E-18,0.04826,0.));
#1504=CARTESIAN_POINT('',(0.00254000000000001,0.04826,0.));
#1505=CARTESIAN_POINT('',(9.97465998686664E-18,0.04826,0.003048));
#1506=CARTESIAN_POINT('',(0.00254000000000001,0.04826,0.003048));
#1507=CARTESIAN_POINT('',(7.80625564189563E-18,0.03175,0.031496));
#1508=CARTESIAN_POINT('',(7.80625564189563E-18,0.03175,0.));
#1509=CARTESIAN_POINT('',(0.00254000000000001,0.03175,0.));
#1510=CARTESIAN_POINT('',(7.80625564189563E-18,0.03175,0.003048));
#1511=CARTESIAN_POINT('',(0.00254000000000001,0.03175,0.003048));
#1512=CARTESIAN_POINT('',(6.07153216591882E-18,-0.01524,0.031496));
#1513=CARTESIAN_POINT('',(6.07153216591882E-18,-0.01524,0.));
#1514=CARTESIAN_POINT('',(0.00254000000000001,-0.01524,0.));
#1515=CARTESIAN_POINT('',(6.07153216591882E-18,-0.01524,0.003048));
#1516=CARTESIAN_POINT('',(0.00254000000000001,-0.01524,0.003048));
#1517=CARTESIAN_POINT('',(0.,0.,0.00635));
#1518=CARTESIAN_POINT('',(2.60208521396521E-18,0.036576,0.00635));
#1519=CARTESIAN_POINT('',(-0.00278629239910913,0.036576,0.00635));
#1520=CARTESIAN_POINT('',(0.00278629239910913,0.036576,0.00635));
#1521=CARTESIAN_POINT('',(0.00417943859866371,0.034163,0.00635));
#1522=CARTESIAN_POINT('',(0.00557258479821828,0.03175,0.00635));
#1523=CARTESIAN_POINT('',(0.00417943859866371,0.029337,0.00635));
#1524=CARTESIAN_POINT('',(0.00278629239910914,0.026924,0.00635));
#1525=CARTESIAN_POINT('',(9.75781955236954E-18,0.026924,0.00635));
#1526=CARTESIAN_POINT('',(-0.00278629239910912,0.026924,0.00635));
#1527=CARTESIAN_POINT('',(-0.00417943859866369,0.029337,0.00635));
#1528=CARTESIAN_POINT('',(-0.00557258479821826,0.03175,0.00635));
#1529=CARTESIAN_POINT('',(-0.0041794385986637,0.034163,0.00635));
#1530=CARTESIAN_POINT('',(-0.00635,0.,0.00635));
#1531=CARTESIAN_POINT('',(-0.00635,0.05715,0.00635));
#1532=CARTESIAN_POINT('',(-0.00635,0.00635,0.00635));
#1533=CARTESIAN_POINT('',(-3.46944695195361E-18,0.00635,0.00635));
#1534=CARTESIAN_POINT('',(0.00635,0.00635,0.00635));
#1535=CARTESIAN_POINT('',(0.00635,0.,0.00635));
#1536=CARTESIAN_POINT('',(0.00635,0.05715,0.00635));
#1537=CARTESIAN_POINT('',(-3.03576608295941E-18,0.05715,0.00635));
#1538=CARTESIAN_POINT('',(0.00417943859866371,0.017653,0.00635));
#1539=CARTESIAN_POINT('',(0.00278629239910913,0.020066,0.00635));
#1540=CARTESIAN_POINT('',(0.00557258479821828,0.01524,0.00635));
#1541=CARTESIAN_POINT('',(0.00417943859866371,0.012827,0.00635));
#1542=CARTESIAN_POINT('',(0.00278629239910914,0.010414,0.00635));
#1543=CARTESIAN_POINT('',(7.80625564189563E-18,0.010414,0.00635));
#1544=CARTESIAN_POINT('',(-0.00278629239910912,0.010414,0.00635));
#1545=CARTESIAN_POINT('',(-0.00417943859866369,0.012827,0.00635));
#1546=CARTESIAN_POINT('',(-0.00557258479821826,0.01524,0.00635));
#1547=CARTESIAN_POINT('',(-0.00417943859866369,0.017653,0.00635));
#1548=CARTESIAN_POINT('',(-0.00278629239910913,0.020066,0.00635));
#1549=CARTESIAN_POINT('',(0.,0.020066,0.00635));
#1550=CARTESIAN_POINT('',(0.00417943859866371,0.045847,0.00635));
#1551=CARTESIAN_POINT('',(0.00557258479821828,0.04826,0.00635));
#1552=CARTESIAN_POINT('',(0.00278629239910914,0.043434,0.00635));
#1553=CARTESIAN_POINT('',(1.14925430283463E-17,0.043434,0.00635));
#1554=CARTESIAN_POINT('',(-0.00278629239910912,0.043434,0.00635));
#1555=CARTESIAN_POINT('',(-0.00417943859866369,0.045847,0.00635));
#1556=CARTESIAN_POINT('',(-0.00557258479821825,0.04826,0.00635));
#1557=CARTESIAN_POINT('',(-0.00417943859866369,0.050673,0.00635));
#1558=CARTESIAN_POINT('',(-0.00278629239910913,0.053086,0.00635));
#1559=CARTESIAN_POINT('',(4.33680868994202E-18,0.053086,0.00635));
#1560=CARTESIAN_POINT('',(0.00278629239910914,0.053086,0.00635));
#1561=CARTESIAN_POINT('',(0.00417943859866371,0.050673,0.00635));
#1562=CARTESIAN_POINT('',(0.00635,0.,0.031496));
#1563=CARTESIAN_POINT('',(0.00635,-0.00635,0.00635));
#1564=CARTESIAN_POINT('',(0.00635,-0.00635,0.00635));
#1565=CARTESIAN_POINT('',(0.00635,-0.00635,0.031496));
#1566=CARTESIAN_POINT('',(0.00635,0.,0.00635));
#1567=CARTESIAN_POINT('',(0.00635,-0.05715,0.00635));
#1568=CARTESIAN_POINT('',(0.00635,-0.05715,0.031496));
#1569=CARTESIAN_POINT('',(0.00635,-0.05715,0.));
#1570=CARTESIAN_POINT('',(0.00635,0.,0.));
#1571=CARTESIAN_POINT('',(0.00635,0.05715,0.));
#1572=CARTESIAN_POINT('',(0.00635,0.05715,0.031496));
#1573=CARTESIAN_POINT('',(0.00635,0.00635,0.00635));
#1574=CARTESIAN_POINT('',(0.00635,0.00635,0.031496));
#1575=CARTESIAN_POINT('',(0.00635,0.,0.031496));
#1576=CARTESIAN_POINT('',(-3.03576608295941E-18,0.05715,0.031496));
#1577=CARTESIAN_POINT('',(-3.03576608295941E-18,0.05715,0.));
#1578=CARTESIAN_POINT('',(-0.00635,0.05715,0.));
#1579=CARTESIAN_POINT('',(-0.00635,0.05715,0.031496));
#1580=CARTESIAN_POINT('',(-0.00635,0.,0.031496));
#1581=CARTESIAN_POINT('',(-0.00635,0.,0.00635));
#1582=CARTESIAN_POINT('',(-0.00635,-0.00635,0.00635));
#1583=CARTESIAN_POINT('',(-0.00635,-0.05715,0.00635));
#1584=CARTESIAN_POINT('',(-0.00635,-0.00635,0.00635));
#1585=CARTESIAN_POINT('',(-0.00635,-0.00635,0.031496));
#1586=CARTESIAN_POINT('',(-0.00635,0.,0.031496));
#1587=CARTESIAN_POINT('',(-0.00635,0.00635,0.031496));
#1588=CARTESIAN_POINT('',(-0.00635,0.00635,0.00635));
#1589=CARTESIAN_POINT('',(-0.00635,0.,0.));
#1590=CARTESIAN_POINT('',(-0.00635,-0.05715,0.));
#1591=CARTESIAN_POINT('',(-0.00635,-0.05715,0.031496));
#1592=CARTESIAN_POINT('',(-2.60208521396521E-18,-0.05715,0.031496));
#1593=CARTESIAN_POINT('',(-2.60208521396521E-18,-0.05715,0.00635));
#1594=CARTESIAN_POINT('',(-2.60208521396521E-18,-0.05715,0.));
#1595=CARTESIAN_POINT('',(-3.46944695195361E-18,0.,0.031496));
#1596=CARTESIAN_POINT('',(0.,2.48021592997318E-19,0.031496));
#1597=CARTESIAN_POINT('',(0.0040505,2.48021592997318E-19,0.031496));
#1598=CARTESIAN_POINT('',(8.67361737988404E-19,-0.00635,0.031496));
#1599=CARTESIAN_POINT('',(-3.46944695195361E-18,0.00635,0.031496));
#1600=CARTESIAN_POINT('',(0.,2.48021592997318E-19,0.031496));
#1601=CARTESIAN_POINT('',(0.,2.48021592997318E-19,0.));
#1602=CARTESIAN_POINT('',(0.0040505,2.48021592997318E-19,0.));
#1603=CARTESIAN_POINT('',(-3.46944695195361E-18,0.,0.));
#1604=CARTESIAN_POINT('',(8.67361737988404E-19,-0.00635,0.00635));
#1605=CARTESIAN_POINT('',(8.67361737988404E-19,-0.00635,0.00635));
#1606=CARTESIAN_POINT('',(0.,0.,0.00635));
#1607=CARTESIAN_POINT('',(4.33680868994202E-18,-0.053086,0.00635));
#1608=CARTESIAN_POINT('',(-0.00278629239910913,-0.053086,0.00635));
#1609=CARTESIAN_POINT('',(0.00278629239910914,-0.053086,0.00635));
#1610=CARTESIAN_POINT('',(-0.00417943859866369,-0.050673,0.00635));
#1611=CARTESIAN_POINT('',(-0.00557258479821827,-0.04826,0.00635));
#1612=CARTESIAN_POINT('',(-0.00417943859866369,-0.045847,0.00635));
#1613=CARTESIAN_POINT('',(-0.00278629239910912,-0.043434,0.00635));
#1614=CARTESIAN_POINT('',(1.14925430283463E-17,-0.043434,0.00635));
#1615=CARTESIAN_POINT('',(0.00278629239910914,-0.043434,0.00635));
#1616=CARTESIAN_POINT('',(0.00417943859866371,-0.045847,0.00635));
#1617=CARTESIAN_POINT('',(0.00557258479821828,-0.04826,0.00635));
#1618=CARTESIAN_POINT('',(0.00417943859866371,-0.050673,0.00635));
#1619=CARTESIAN_POINT('',(2.60208521396521E-18,-0.036576,0.00635));
#1620=CARTESIAN_POINT('',(-0.00278629239910913,-0.036576,0.00635));
#1621=CARTESIAN_POINT('',(0.00278629239910913,-0.036576,0.00635));
#1622=CARTESIAN_POINT('',(-0.0041794385986637,-0.034163,0.00635));
#1623=CARTESIAN_POINT('',(-0.00557258479821827,-0.03175,0.00635));
#1624=CARTESIAN_POINT('',(-0.00417943859866369,-0.029337,0.00635));
#1625=CARTESIAN_POINT('',(-0.00278629239910912,-0.026924,0.00635));
#1626=CARTESIAN_POINT('',(9.75781955236954E-18,-0.026924,0.00635));
#1627=CARTESIAN_POINT('',(0.00278629239910914,-0.026924,0.00635));
#1628=CARTESIAN_POINT('',(0.00417943859866371,-0.029337,0.00635));
#1629=CARTESIAN_POINT('',(0.00557258479821828,-0.03175,0.00635));
#1630=CARTESIAN_POINT('',(0.00417943859866371,-0.034163,0.00635));
#1631=CARTESIAN_POINT('',(0.00417943859866371,-0.017653,0.00635));
#1632=CARTESIAN_POINT('',(0.00278629239910914,-0.020066,0.00635));
#1633=CARTESIAN_POINT('',(0.00557258479821828,-0.01524,0.00635));
#1634=CARTESIAN_POINT('',(0.,-0.020066,0.00635));
#1635=CARTESIAN_POINT('',(-0.00278629239910913,-0.020066,0.00635));
#1636=CARTESIAN_POINT('',(-0.00417943859866369,-0.017653,0.00635));
#1637=CARTESIAN_POINT('',(-0.00557258479821826,-0.01524,0.00635));
#1638=CARTESIAN_POINT('',(-0.00417943859866369,-0.012827,0.00635));
#1639=CARTESIAN_POINT('',(-0.00278629239910912,-0.010414,0.00635));
#1640=CARTESIAN_POINT('',(7.80625564189563E-18,-0.010414,0.00635));
#1641=CARTESIAN_POINT('',(0.00278629239910914,-0.010414,0.00635));
#1642=CARTESIAN_POINT('',(0.00417943859866371,-0.012827,0.00635));
#1643=CARTESIAN_POINT('',(-3.46944695195361E-18,0.00635,0.00635));
#1644=CARTESIAN_POINT('',(0.00417943859866371,0.012827,0.003048));
#1645=CARTESIAN_POINT('',(0.00557258479821828,0.01524,0.003048));
#1646=CARTESIAN_POINT('',(0.00557258479821828,0.01524,0.003048));
#1647=CARTESIAN_POINT('',(0.00417943859866371,0.012827,0.003048));
#1648=CARTESIAN_POINT('',(0.00278629239910914,0.010414,0.003048));
#1649=CARTESIAN_POINT('',(0.00278629239910914,0.010414,0.003048));
#1650=CARTESIAN_POINT('',(0.00417943859866371,0.017653,0.003048));
#1651=CARTESIAN_POINT('',(0.00278629239910913,0.020066,0.003048));
#1652=CARTESIAN_POINT('',(0.00278629239910913,0.020066,0.003048));
#1653=CARTESIAN_POINT('',(0.00417943859866371,0.017653,0.003048));
#1654=CARTESIAN_POINT('',(0.,0.020066,0.003048));
#1655=CARTESIAN_POINT('',(-0.00278629239910913,0.020066,0.003048));
#1656=CARTESIAN_POINT('',(-0.00278629239910913,0.020066,0.003048));
#1657=CARTESIAN_POINT('',(0.,0.020066,0.003048));
#1658=CARTESIAN_POINT('',(-0.00417943859866369,0.017653,0.003048));
#1659=CARTESIAN_POINT('',(-0.00557258479821826,0.01524,0.003048));
#1660=CARTESIAN_POINT('',(-0.00557258479821826,0.01524,0.003048));
#1661=CARTESIAN_POINT('',(-0.00417943859866369,0.017653,0.003048));
#1662=CARTESIAN_POINT('',(-0.00417943859866369,0.012827,0.003048));
#1663=CARTESIAN_POINT('',(-0.00278629239910912,0.010414,0.003048));
#1664=CARTESIAN_POINT('',(-0.00278629239910912,0.010414,0.003048));
#1665=CARTESIAN_POINT('',(-0.00417943859866369,0.012827,0.003048));
#1666=CARTESIAN_POINT('',(7.80625564189563E-18,0.010414,0.003048));
#1667=CARTESIAN_POINT('',(7.80625564189563E-18,0.010414,0.003048));
#1668=CARTESIAN_POINT('',(-3.46944695195361E-18,0.,0.003048));
#1669=CARTESIAN_POINT('',(0.00417943859866371,0.034163,0.003048));
#1670=CARTESIAN_POINT('',(0.00278629239910913,0.036576,0.003048));
#1671=CARTESIAN_POINT('',(0.00278629239910913,0.036576,0.003048));
#1672=CARTESIAN_POINT('',(0.00417943859866371,0.034163,0.003048));
#1673=CARTESIAN_POINT('',(0.00557258479821828,0.03175,0.003048));
#1674=CARTESIAN_POINT('',(0.00557258479821828,0.03175,0.003048));
#1675=CARTESIAN_POINT('',(2.60208521396521E-18,0.036576,0.003048));
#1676=CARTESIAN_POINT('',(-0.00278629239910913,0.036576,0.003048));
#1677=CARTESIAN_POINT('',(-0.00278629239910913,0.036576,0.003048));
#1678=CARTESIAN_POINT('',(2.60208521396521E-18,0.036576,0.003048));
#1679=CARTESIAN_POINT('',(-0.0041794385986637,0.034163,0.003048));
#1680=CARTESIAN_POINT('',(-0.00557258479821826,0.03175,0.003048));
#1681=CARTESIAN_POINT('',(-0.00557258479821826,0.03175,0.003048));
#1682=CARTESIAN_POINT('',(-0.0041794385986637,0.034163,0.003048));
#1683=CARTESIAN_POINT('',(-0.00417943859866369,0.029337,0.003048));
#1684=CARTESIAN_POINT('',(-0.00278629239910912,0.026924,0.003048));
#1685=CARTESIAN_POINT('',(-0.00278629239910912,0.026924,0.003048));
#1686=CARTESIAN_POINT('',(-0.00417943859866369,0.029337,0.003048));
#1687=CARTESIAN_POINT('',(9.75781955236954E-18,0.026924,0.003048));
#1688=CARTESIAN_POINT('',(0.00278629239910914,0.026924,0.003048));
#1689=CARTESIAN_POINT('',(0.00278629239910914,0.026924,0.003048));
#1690=CARTESIAN_POINT('',(9.75781955236954E-18,0.026924,0.003048));
#1691=CARTESIAN_POINT('',(0.00417943859866371,0.029337,0.003048));
#1692=CARTESIAN_POINT('',(0.00417943859866371,0.029337,0.003048));
#1693=CARTESIAN_POINT('',(-3.46944695195361E-18,0.,0.003048));
#1694=CARTESIAN_POINT('',(1.14925430283463E-17,0.043434,0.003048));
#1695=CARTESIAN_POINT('',(0.00278629239910914,0.043434,0.003048));
#1696=CARTESIAN_POINT('',(0.00278629239910914,0.043434,0.003048));
#1697=CARTESIAN_POINT('',(1.14925430283463E-17,0.043434,0.003048));
#1698=CARTESIAN_POINT('',(-0.00278629239910912,0.043434,0.003048));
#1699=CARTESIAN_POINT('',(-0.00278629239910912,0.043434,0.003048));
#1700=CARTESIAN_POINT('',(0.00417943859866371,0.045847,0.003048));
#1701=CARTESIAN_POINT('',(0.00557258479821828,0.04826,0.003048));
#1702=CARTESIAN_POINT('',(0.00557258479821828,0.04826,0.003048));
#1703=CARTESIAN_POINT('',(0.00417943859866371,0.045847,0.003048));
#1704=CARTESIAN_POINT('',(0.00417943859866371,0.050673,0.003048));
#1705=CARTESIAN_POINT('',(0.00278629239910914,0.053086,0.003048));
#1706=CARTESIAN_POINT('',(0.00278629239910914,0.053086,0.003048));
#1707=CARTESIAN_POINT('',(0.00417943859866371,0.050673,0.003048));
#1708=CARTESIAN_POINT('',(4.33680868994202E-18,0.053086,0.003048));
#1709=CARTESIAN_POINT('',(-0.00278629239910913,0.053086,0.003048));
#1710=CARTESIAN_POINT('',(-0.00278629239910913,0.053086,0.003048));
#1711=CARTESIAN_POINT('',(4.33680868994202E-18,0.053086,0.003048));
#1712=CARTESIAN_POINT('',(-0.00417943859866369,0.050673,0.003048));
#1713=CARTESIAN_POINT('',(-0.00557258479821826,0.04826,0.003048));
#1714=CARTESIAN_POINT('',(-0.00557258479821826,0.04826,0.003048));
#1715=CARTESIAN_POINT('',(-0.00417943859866369,0.050673,0.003048));
#1716=CARTESIAN_POINT('',(-0.00417943859866369,0.045847,0.003048));
#1717=CARTESIAN_POINT('',(-0.00417943859866369,0.045847,0.003048));
#1718=CARTESIAN_POINT('',(-3.46944695195361E-18,0.,0.003048));
#1719=CARTESIAN_POINT('',(0.00417943859866371,-0.017653,0.003048));
#1720=CARTESIAN_POINT('',(0.00557258479821828,-0.01524,0.003048));
#1721=CARTESIAN_POINT('',(0.00557258479821828,-0.01524,0.003048));
#1722=CARTESIAN_POINT('',(0.00417943859866371,-0.017653,0.003048));
#1723=CARTESIAN_POINT('',(0.00278629239910914,-0.020066,0.003048));
#1724=CARTESIAN_POINT('',(0.00278629239910914,-0.020066,0.003048));
#1725=CARTESIAN_POINT('',(0.00417943859866371,-0.012827,0.003048));
#1726=CARTESIAN_POINT('',(0.00278629239910914,-0.010414,0.003048));
#1727=CARTESIAN_POINT('',(0.00278629239910914,-0.010414,0.003048));
#1728=CARTESIAN_POINT('',(0.00417943859866371,-0.012827,0.003048));
#1729=CARTESIAN_POINT('',(7.80625564189563E-18,-0.010414,0.003048));
#1730=CARTESIAN_POINT('',(-0.00278629239910912,-0.010414,0.003048));
#1731=CARTESIAN_POINT('',(-0.00278629239910912,-0.010414,0.003048));
#1732=CARTESIAN_POINT('',(7.80625564189563E-18,-0.010414,0.003048));
#1733=CARTESIAN_POINT('',(-0.00417943859866369,-0.012827,0.003048));
#1734=CARTESIAN_POINT('',(-0.00557258479821826,-0.01524,0.003048));
#1735=CARTESIAN_POINT('',(-0.00557258479821826,-0.01524,0.003048));
#1736=CARTESIAN_POINT('',(-0.00417943859866369,-0.012827,0.003048));
#1737=CARTESIAN_POINT('',(-0.00417943859866369,-0.017653,0.003048));
#1738=CARTESIAN_POINT('',(-0.00278629239910913,-0.020066,0.003048));
#1739=CARTESIAN_POINT('',(-0.00278629239910913,-0.020066,0.003048));
#1740=CARTESIAN_POINT('',(-0.00417943859866369,-0.017653,0.003048));
#1741=CARTESIAN_POINT('',(0.,-0.020066,0.003048));
#1742=CARTESIAN_POINT('',(0.,-0.020066,0.003048));
#1743=CARTESIAN_POINT('',(-3.46944695195361E-18,0.,0.003048));
#1744=CARTESIAN_POINT('',(2.60208521396521E-18,-0.036576,0.003048));
#1745=CARTESIAN_POINT('',(0.00278629239910913,-0.036576,0.003048));
#1746=CARTESIAN_POINT('',(0.00278629239910913,-0.036576,0.003048));
#1747=CARTESIAN_POINT('',(2.60208521396521E-18,-0.036576,0.003048));
#1748=CARTESIAN_POINT('',(-0.00278629239910913,-0.036576,0.003048));
#1749=CARTESIAN_POINT('',(-0.00278629239910913,-0.036576,0.003048));
#1750=CARTESIAN_POINT('',(0.00417943859866371,-0.034163,0.003048));
#1751=CARTESIAN_POINT('',(0.00557258479821828,-0.03175,0.003048));
#1752=CARTESIAN_POINT('',(0.00557258479821828,-0.03175,0.003048));
#1753=CARTESIAN_POINT('',(0.00417943859866371,-0.034163,0.003048));
#1754=CARTESIAN_POINT('',(0.00417943859866371,-0.029337,0.003048));
#1755=CARTESIAN_POINT('',(0.00278629239910914,-0.026924,0.003048));
#1756=CARTESIAN_POINT('',(0.00278629239910914,-0.026924,0.003048));
#1757=CARTESIAN_POINT('',(0.00417943859866371,-0.029337,0.003048));
#1758=CARTESIAN_POINT('',(9.75781955236954E-18,-0.026924,0.003048));
#1759=CARTESIAN_POINT('',(-0.00278629239910912,-0.026924,0.003048));
#1760=CARTESIAN_POINT('',(-0.00278629239910912,-0.026924,0.003048));
#1761=CARTESIAN_POINT('',(9.75781955236954E-18,-0.026924,0.003048));
#1762=CARTESIAN_POINT('',(-0.00417943859866369,-0.029337,0.003048));
#1763=CARTESIAN_POINT('',(-0.00557258479821826,-0.03175,0.003048));
#1764=CARTESIAN_POINT('',(-0.00557258479821826,-0.03175,0.003048));
#1765=CARTESIAN_POINT('',(-0.00417943859866369,-0.029337,0.003048));
#1766=CARTESIAN_POINT('',(-0.0041794385986637,-0.034163,0.003048));
#1767=CARTESIAN_POINT('',(-0.0041794385986637,-0.034163,0.003048));
#1768=CARTESIAN_POINT('',(-3.46944695195361E-18,0.,0.003048));
#1769=CARTESIAN_POINT('',(4.33680868994202E-18,-0.053086,0.003048));
#1770=CARTESIAN_POINT('',(0.00278629239910914,-0.053086,0.003048));
#1771=CARTESIAN_POINT('',(0.00278629239910914,-0.053086,0.003048));
#1772=CARTESIAN_POINT('',(4.33680868994202E-18,-0.053086,0.003048));
#1773=CARTESIAN_POINT('',(-0.00278629239910913,-0.053086,0.003048));
#1774=CARTESIAN_POINT('',(-0.00278629239910913,-0.053086,0.003048));
#1775=CARTESIAN_POINT('',(0.00417943859866371,-0.050673,0.003048));
#1776=CARTESIAN_POINT('',(0.00557258479821828,-0.04826,0.003048));
#1777=CARTESIAN_POINT('',(0.00557258479821828,-0.04826,0.003048));
#1778=CARTESIAN_POINT('',(0.00417943859866371,-0.050673,0.003048));
#1779=CARTESIAN_POINT('',(0.00417943859866371,-0.045847,0.003048));
#1780=CARTESIAN_POINT('',(0.00278629239910914,-0.043434,0.003048));
#1781=CARTESIAN_POINT('',(0.00278629239910914,-0.043434,0.003048));
#1782=CARTESIAN_POINT('',(0.00417943859866371,-0.045847,0.003048));
#1783=CARTESIAN_POINT('',(1.14925430283463E-17,-0.043434,0.003048));
#1784=CARTESIAN_POINT('',(-0.00278629239910912,-0.043434,0.003048));
#1785=CARTESIAN_POINT('',(-0.00278629239910912,-0.043434,0.003048));
#1786=CARTESIAN_POINT('',(1.14925430283463E-17,-0.043434,0.003048));
#1787=CARTESIAN_POINT('',(-0.00417943859866369,-0.045847,0.003048));
#1788=CARTESIAN_POINT('',(-0.00557258479821825,-0.04826,0.003048));
#1789=CARTESIAN_POINT('',(-0.00557258479821825,-0.04826,0.003048));
#1790=CARTESIAN_POINT('',(-0.00417943859866369,-0.045847,0.003048));
#1791=CARTESIAN_POINT('',(-0.00417943859866369,-0.050673,0.003048));
#1792=CARTESIAN_POINT('',(-0.00417943859866369,-0.050673,0.003048));
#1793=CARTESIAN_POINT('',(-3.46944695195361E-18,0.,0.003048));
#1794=MECHANICAL_DESIGN_GEOMETRIC_PRESENTATION_REPRESENTATION('',(#1121),
#1795);
#1795=(
GEOMETRIC_REPRESENTATION_CONTEXT(3)
GLOBAL_UNCERTAINTY_ASSIGNED_CONTEXT((#1796))
GLOBAL_UNIT_ASSIGNED_CONTEXT((#1799,#1798,#1797))
REPRESENTATION_CONTEXT('Motor Adapter','TOP_LEVEL_ASSEMBLY_PART')
);
#1796=UNCERTAINTY_MEASURE_WITH_UNIT(LENGTH_MEASURE(1.E-8),#1799,
'DISTANCE_ACCURACY_VALUE','Maximum Tolerance applied to model');
#1797=(
NAMED_UNIT(*)
SI_UNIT($,.STERADIAN.)
SOLID_ANGLE_UNIT()
);
#1798=(
NAMED_UNIT(*)
PLANE_ANGLE_UNIT()
SI_UNIT($,.RADIAN.)
);
#1799=(
LENGTH_UNIT()
NAMED_UNIT(*)
SI_UNIT($,.METRE.)
);
#1800=PRODUCT_DEFINITION_SHAPE('','',#1801);
#1801=PRODUCT_DEFINITION('','',#1803,#1802);
#1802=PRODUCT_DEFINITION_CONTEXT('',#1809,'design');
#1803=PRODUCT_DEFINITION_FORMATION_WITH_SPECIFIED_SOURCE('','',#1805,
 .NOT_KNOWN.);
#1804=PRODUCT_RELATED_PRODUCT_CATEGORY('','',(#1805));
#1805=PRODUCT('Motor Adapter','Motor Adapter','Motor Adapter',(#1807));
#1806=PRODUCT_CATEGORY('','');
#1807=PRODUCT_CONTEXT('',#1809,'mechanical');
#1808=APPLICATION_PROTOCOL_DEFINITION('international standard',
'ap242_managed_model_based_3d_engineering',2020,#1809);
#1809=APPLICATION_CONTEXT('managed model based 3d engineering');
ENDSEC;
END-ISO-10303-21;
