ISO-10303-21;
HEADER;
/* Generated by software containing ST-Developer
 * from STEP Tools, Inc. (www.steptools.com) 
 */
/* OPTION: using custom renumber hook */

FILE_DESCRIPTION(
/* description */ ('STEP AP242 Edition 2',
'CAx-IF Rec.Pracs.---Representation and Presentation of Product Manufa
cturing Information (PMI)---4.0---2014-10-13',
'CAx-IF Rec.Pracs.---3D Tessellated Geometry---0.4---2014-09-14','2;1',
'CAx-IF Rec.Pracs.---User Defined Attributes---1.5---2016-08-15'),
/* implementation_level */ '2;1');

FILE_NAME(
/* name */ 'Main - Motor Stand Bottom',
/* time_stamp */ '2026-05-15T18:25:37Z',
/* author */ (''),
/* organization */ (''),
/* preprocessor_version */ 'ST-DEVELOPER v20',
/* originating_system */ 'ONSHAPE BY PTC INC, 1.215',
/* authorisation */ '  ');

FILE_SCHEMA (('AP242_MANAGED_MODEL_BASED_3D_ENGINEERING_MIM_LF { 1 0 10303 442 3 1 4 }'));
ENDSEC;

DATA;
#10=SHAPE_REPRESENTATION_RELATIONSHIP('','',#474,#11);
#11=ADVANCED_BREP_SHAPE_REPRESENTATION('',(#472),#780);
#12=B_SPLINE_CURVE_WITH_KNOTS('',3,(#698,#699,#700,#701),.UNSPECIFIED.,
 .F.,.F.,(4,4),(0.,0.854196912916705),.PIECEWISE_BEZIER_KNOTS.);
#13=B_SPLINE_CURVE_WITH_KNOTS('',3,(#705,#706,#707,#708),.UNSPECIFIED.,
 .F.,.F.,(4,4),(0.,0.854196912916705),.PIECEWISE_BEZIER_KNOTS.);
#14=B_SPLINE_SURFACE_WITH_KNOTS('',3,1,((#690,#691),(#692,#693),(#694,#695),
(#696,#697)),.SURF_OF_LINEAR_EXTRUSION.,.F.,.F.,.F.,(4,4),(2,2),(0.,0.854196912916705),
(0.,1.),.PIECEWISE_BEZIER_KNOTS.);
#15=LINE('',#661,#58);
#16=LINE('',#665,#59);
#17=LINE('',#667,#60);
#18=LINE('',#669,#61);
#19=LINE('',#671,#62);
#20=LINE('',#673,#63);
#21=LINE('',#675,#64);
#22=LINE('',#677,#65);
#23=LINE('',#679,#66);
#24=LINE('',#681,#67);
#25=LINE('',#683,#68);
#26=LINE('',#685,#69);
#27=LINE('',#687,#70);
#28=LINE('',#689,#71);
#29=LINE('',#703,#72);
#30=LINE('',#715,#73);
#31=LINE('',#719,#74);
#32=LINE('',#725,#75);
#33=LINE('',#727,#76);
#34=LINE('',#729,#77);
#35=LINE('',#732,#78);
#36=LINE('',#734,#79);
#37=LINE('',#736,#80);
#38=LINE('',#737,#81);
#39=LINE('',#740,#82);
#40=LINE('',#742,#83);
#41=LINE('',#744,#84);
#42=LINE('',#746,#85);
#43=LINE('',#749,#86);
#44=LINE('',#751,#87);
#45=LINE('',#753,#88);
#46=LINE('',#755,#89);
#47=LINE('',#756,#90);
#48=LINE('',#758,#91);
#49=LINE('',#760,#92);
#50=LINE('',#763,#93);
#51=LINE('',#765,#94);
#52=LINE('',#767,#95);
#53=LINE('',#769,#96);
#54=LINE('',#771,#97);
#55=LINE('',#773,#98);
#56=LINE('',#775,#99);
#57=LINE('',#777,#100);
#58=VECTOR('',#543,1.);
#59=VECTOR('',#546,1.);
#60=VECTOR('',#549,1.);
#61=VECTOR('',#550,1.);
#62=VECTOR('',#551,1.);
#63=VECTOR('',#554,1.);
#64=VECTOR('',#555,1.);
#65=VECTOR('',#556,1.);
#66=VECTOR('',#559,1.);
#67=VECTOR('',#560,1.);
#68=VECTOR('',#561,1.);
#69=VECTOR('',#564,1.);
#70=VECTOR('',#565,1.);
#71=VECTOR('',#566,1.);
#72=VECTOR('',#567,1.);
#73=VECTOR('',#576,1.);
#74=VECTOR('',#581,1.);
#75=VECTOR('',#588,1.);
#76=VECTOR('',#591,1.);
#77=VECTOR('',#594,1.);
#78=VECTOR('',#595,1.);
#79=VECTOR('',#596,1.);
#80=VECTOR('',#597,1.);
#81=VECTOR('',#598,1.);
#82=VECTOR('',#599,1.);
#83=VECTOR('',#600,1.);
#84=VECTOR('',#601,1.);
#85=VECTOR('',#604,1.);
#86=VECTOR('',#605,1.);
#87=VECTOR('',#606,1.);
#88=VECTOR('',#607,1.);
#89=VECTOR('',#610,1.);
#90=VECTOR('',#611,1.);
#91=VECTOR('',#614,1.);
#92=VECTOR('',#617,1.);
#93=VECTOR('',#622,1.);
#94=VECTOR('',#623,1.);
#95=VECTOR('',#624,1.);
#96=VECTOR('',#627,1.);
#97=VECTOR('',#628,1.);
#98=VECTOR('',#631,1.);
#99=VECTOR('',#632,1.);
#100=VECTOR('',#635,1.);
#101=PLANE('',#482);
#102=PLANE('',#490);
#103=PLANE('',#491);
#104=PLANE('',#492);
#105=PLANE('',#493);
#106=PLANE('',#496);
#107=PLANE('',#499);
#108=PLANE('',#504);
#109=PLANE('',#505);
#110=PLANE('',#506);
#111=PLANE('',#507);
#112=PLANE('',#508);
#113=PLANE('',#509);
#114=PLANE('',#510);
#115=PLANE('',#511);
#116=PLANE('',#512);
#117=PLANE('',#513);
#118=PLANE('',#514);
#119=ORIENTED_EDGE('',*,*,#237,.T.);
#120=ORIENTED_EDGE('',*,*,#238,.T.);
#121=ORIENTED_EDGE('',*,*,#239,.T.);
#122=ORIENTED_EDGE('',*,*,#240,.T.);
#123=ORIENTED_EDGE('',*,*,#241,.F.);
#124=ORIENTED_EDGE('',*,*,#242,.T.);
#125=ORIENTED_EDGE('',*,*,#243,.T.);
#126=ORIENTED_EDGE('',*,*,#241,.T.);
#127=ORIENTED_EDGE('',*,*,#244,.F.);
#128=ORIENTED_EDGE('',*,*,#245,.F.);
#129=ORIENTED_EDGE('',*,*,#246,.T.);
#130=ORIENTED_EDGE('',*,*,#247,.T.);
#131=ORIENTED_EDGE('',*,*,#240,.F.);
#132=ORIENTED_EDGE('',*,*,#238,.F.);
#133=ORIENTED_EDGE('',*,*,#248,.F.);
#134=ORIENTED_EDGE('',*,*,#249,.F.);
#135=ORIENTED_EDGE('',*,*,#250,.T.);
#136=ORIENTED_EDGE('',*,*,#245,.T.);
#137=ORIENTED_EDGE('',*,*,#251,.T.);
#138=ORIENTED_EDGE('',*,*,#252,.F.);
#139=ORIENTED_EDGE('',*,*,#253,.F.);
#140=ORIENTED_EDGE('',*,*,#249,.T.);
#141=ORIENTED_EDGE('',*,*,#239,.F.);
#142=ORIENTED_EDGE('',*,*,#237,.F.);
#143=ORIENTED_EDGE('',*,*,#254,.T.);
#144=ORIENTED_EDGE('',*,*,#255,.F.);
#145=ORIENTED_EDGE('',*,*,#256,.F.);
#146=ORIENTED_EDGE('',*,*,#252,.T.);
#147=ORIENTED_EDGE('',*,*,#257,.T.);
#148=ORIENTED_EDGE('',*,*,#258,.F.);
#149=ORIENTED_EDGE('',*,*,#259,.F.);
#150=ORIENTED_EDGE('',*,*,#255,.T.);
#151=ORIENTED_EDGE('',*,*,#260,.T.);
#152=ORIENTED_EDGE('',*,*,#261,.F.);
#153=ORIENTED_EDGE('',*,*,#262,.F.);
#154=ORIENTED_EDGE('',*,*,#258,.T.);
#155=ORIENTED_EDGE('',*,*,#242,.F.);
#156=ORIENTED_EDGE('',*,*,#263,.T.);
#157=ORIENTED_EDGE('',*,*,#263,.F.);
#158=ORIENTED_EDGE('',*,*,#264,.F.);
#159=ORIENTED_EDGE('',*,*,#265,.T.);
#160=ORIENTED_EDGE('',*,*,#266,.T.);
#161=ORIENTED_EDGE('',*,*,#260,.F.);
#162=ORIENTED_EDGE('',*,*,#257,.F.);
#163=ORIENTED_EDGE('',*,*,#254,.F.);
#164=ORIENTED_EDGE('',*,*,#251,.F.);
#165=ORIENTED_EDGE('',*,*,#248,.T.);
#166=ORIENTED_EDGE('',*,*,#244,.T.);
#167=ORIENTED_EDGE('',*,*,#267,.F.);
#168=ORIENTED_EDGE('',*,*,#268,.T.);
#169=ORIENTED_EDGE('',*,*,#246,.F.);
#170=ORIENTED_EDGE('',*,*,#250,.F.);
#171=ORIENTED_EDGE('',*,*,#253,.T.);
#172=ORIENTED_EDGE('',*,*,#256,.T.);
#173=ORIENTED_EDGE('',*,*,#259,.T.);
#174=ORIENTED_EDGE('',*,*,#262,.T.);
#175=ORIENTED_EDGE('',*,*,#269,.F.);
#176=ORIENTED_EDGE('',*,*,#243,.F.);
#177=ORIENTED_EDGE('',*,*,#270,.F.);
#178=ORIENTED_EDGE('',*,*,#269,.T.);
#179=ORIENTED_EDGE('',*,*,#261,.T.);
#180=ORIENTED_EDGE('',*,*,#266,.F.);
#181=ORIENTED_EDGE('',*,*,#268,.F.);
#182=ORIENTED_EDGE('',*,*,#271,.T.);
#183=ORIENTED_EDGE('',*,*,#264,.T.);
#184=ORIENTED_EDGE('',*,*,#247,.F.);
#185=ORIENTED_EDGE('',*,*,#272,.F.);
#186=ORIENTED_EDGE('',*,*,#273,.F.);
#187=ORIENTED_EDGE('',*,*,#274,.T.);
#188=ORIENTED_EDGE('',*,*,#275,.T.);
#189=ORIENTED_EDGE('',*,*,#276,.F.);
#190=ORIENTED_EDGE('',*,*,#277,.F.);
#191=ORIENTED_EDGE('',*,*,#278,.T.);
#192=ORIENTED_EDGE('',*,*,#279,.T.);
#193=ORIENTED_EDGE('',*,*,#267,.T.);
#194=ORIENTED_EDGE('',*,*,#270,.T.);
#195=ORIENTED_EDGE('',*,*,#265,.F.);
#196=ORIENTED_EDGE('',*,*,#271,.F.);
#197=ORIENTED_EDGE('',*,*,#280,.T.);
#198=ORIENTED_EDGE('',*,*,#281,.T.);
#199=ORIENTED_EDGE('',*,*,#282,.F.);
#200=ORIENTED_EDGE('',*,*,#283,.F.);
#201=ORIENTED_EDGE('',*,*,#276,.T.);
#202=ORIENTED_EDGE('',*,*,#284,.F.);
#203=ORIENTED_EDGE('',*,*,#281,.F.);
#204=ORIENTED_EDGE('',*,*,#285,.T.);
#205=ORIENTED_EDGE('',*,*,#279,.F.);
#206=ORIENTED_EDGE('',*,*,#286,.F.);
#207=ORIENTED_EDGE('',*,*,#282,.T.);
#208=ORIENTED_EDGE('',*,*,#284,.T.);
#209=ORIENTED_EDGE('',*,*,#278,.F.);
#210=ORIENTED_EDGE('',*,*,#287,.F.);
#211=ORIENTED_EDGE('',*,*,#283,.T.);
#212=ORIENTED_EDGE('',*,*,#286,.T.);
#213=ORIENTED_EDGE('',*,*,#277,.T.);
#214=ORIENTED_EDGE('',*,*,#285,.F.);
#215=ORIENTED_EDGE('',*,*,#280,.F.);
#216=ORIENTED_EDGE('',*,*,#287,.T.);
#217=ORIENTED_EDGE('',*,*,#273,.T.);
#218=ORIENTED_EDGE('',*,*,#288,.F.);
#219=ORIENTED_EDGE('',*,*,#289,.F.);
#220=ORIENTED_EDGE('',*,*,#290,.T.);
#221=ORIENTED_EDGE('',*,*,#274,.F.);
#222=ORIENTED_EDGE('',*,*,#290,.F.);
#223=ORIENTED_EDGE('',*,*,#291,.T.);
#224=ORIENTED_EDGE('',*,*,#292,.T.);
#225=ORIENTED_EDGE('',*,*,#275,.F.);
#226=ORIENTED_EDGE('',*,*,#292,.F.);
#227=ORIENTED_EDGE('',*,*,#293,.T.);
#228=ORIENTED_EDGE('',*,*,#294,.T.);
#229=ORIENTED_EDGE('',*,*,#272,.T.);
#230=ORIENTED_EDGE('',*,*,#294,.F.);
#231=ORIENTED_EDGE('',*,*,#295,.F.);
#232=ORIENTED_EDGE('',*,*,#288,.T.);
#233=ORIENTED_EDGE('',*,*,#289,.T.);
#234=ORIENTED_EDGE('',*,*,#295,.T.);
#235=ORIENTED_EDGE('',*,*,#293,.F.);
#236=ORIENTED_EDGE('',*,*,#291,.F.);
#237=EDGE_CURVE('',#296,#296,#338,.F.);
#238=EDGE_CURVE('',#297,#297,#339,.T.);
#239=EDGE_CURVE('',#298,#298,#340,.F.);
#240=EDGE_CURVE('',#299,#299,#341,.T.);
#241=EDGE_CURVE('',#300,#300,#342,.T.);
#242=EDGE_CURVE('',#301,#301,#343,.T.);
#243=EDGE_CURVE('',#302,#302,#344,.T.);
#244=EDGE_CURVE('',#303,#304,#345,.T.);
#245=EDGE_CURVE('',#305,#303,#15,.T.);
#246=EDGE_CURVE('',#305,#306,#346,.T.);
#247=EDGE_CURVE('',#306,#304,#16,.T.);
#248=EDGE_CURVE('',#307,#303,#17,.T.);
#249=EDGE_CURVE('',#308,#307,#18,.T.);
#250=EDGE_CURVE('',#308,#305,#19,.T.);
#251=EDGE_CURVE('',#307,#309,#20,.T.);
#252=EDGE_CURVE('',#310,#309,#21,.T.);
#253=EDGE_CURVE('',#308,#310,#22,.T.);
#254=EDGE_CURVE('',#309,#311,#23,.T.);
#255=EDGE_CURVE('',#312,#311,#24,.T.);
#256=EDGE_CURVE('',#310,#312,#25,.T.);
#257=EDGE_CURVE('',#311,#313,#26,.T.);
#258=EDGE_CURVE('',#314,#313,#27,.T.);
#259=EDGE_CURVE('',#312,#314,#28,.T.);
#260=EDGE_CURVE('',#313,#315,#12,.T.);
#261=EDGE_CURVE('',#316,#315,#29,.T.);
#262=EDGE_CURVE('',#314,#316,#13,.T.);
#263=EDGE_CURVE('',#317,#317,#347,.T.);
#264=EDGE_CURVE('',#318,#304,#348,.T.);
#265=EDGE_CURVE('',#318,#319,#30,.T.);
#266=EDGE_CURVE('',#319,#315,#349,.T.);
#267=EDGE_CURVE('',#320,#321,#31,.T.);
#268=EDGE_CURVE('',#320,#306,#350,.T.);
#269=EDGE_CURVE('',#321,#316,#351,.T.);
#270=EDGE_CURVE('',#321,#319,#32,.T.);
#271=EDGE_CURVE('',#320,#318,#33,.T.);
#272=EDGE_CURVE('',#322,#323,#34,.T.);
#273=EDGE_CURVE('',#324,#322,#35,.T.);
#274=EDGE_CURVE('',#324,#325,#36,.T.);
#275=EDGE_CURVE('',#325,#323,#37,.T.);
#276=EDGE_CURVE('',#326,#327,#38,.T.);
#277=EDGE_CURVE('',#328,#326,#39,.T.);
#278=EDGE_CURVE('',#328,#329,#40,.T.);
#279=EDGE_CURVE('',#329,#327,#41,.T.);
#280=EDGE_CURVE('',#330,#331,#42,.T.);
#281=EDGE_CURVE('',#331,#332,#43,.T.);
#282=EDGE_CURVE('',#333,#332,#44,.T.);
#283=EDGE_CURVE('',#330,#333,#45,.T.);
#284=EDGE_CURVE('',#332,#327,#46,.T.);
#285=EDGE_CURVE('',#331,#326,#47,.T.);
#286=EDGE_CURVE('',#333,#329,#48,.T.);
#287=EDGE_CURVE('',#330,#328,#49,.T.);
#288=EDGE_CURVE('',#334,#322,#50,.T.);
#289=EDGE_CURVE('',#335,#334,#51,.T.);
#290=EDGE_CURVE('',#335,#324,#52,.T.);
#291=EDGE_CURVE('',#335,#336,#53,.T.);
#292=EDGE_CURVE('',#336,#325,#54,.T.);
#293=EDGE_CURVE('',#336,#337,#55,.T.);
#294=EDGE_CURVE('',#337,#323,#56,.T.);
#295=EDGE_CURVE('',#334,#337,#57,.T.);
#296=VERTEX_POINT('',#641);
#297=VERTEX_POINT('',#643);
#298=VERTEX_POINT('',#646);
#299=VERTEX_POINT('',#648);
#300=VERTEX_POINT('',#651);
#301=VERTEX_POINT('',#653);
#302=VERTEX_POINT('',#656);
#303=VERTEX_POINT('',#659);
#304=VERTEX_POINT('',#660);
#305=VERTEX_POINT('',#662);
#306=VERTEX_POINT('',#664);
#307=VERTEX_POINT('',#668);
#308=VERTEX_POINT('',#670);
#309=VERTEX_POINT('',#674);
#310=VERTEX_POINT('',#676);
#311=VERTEX_POINT('',#680);
#312=VERTEX_POINT('',#682);
#313=VERTEX_POINT('',#686);
#314=VERTEX_POINT('',#688);
#315=VERTEX_POINT('',#702);
#316=VERTEX_POINT('',#704);
#317=VERTEX_POINT('',#711);
#318=VERTEX_POINT('',#714);
#319=VERTEX_POINT('',#716);
#320=VERTEX_POINT('',#720);
#321=VERTEX_POINT('',#721);
#322=VERTEX_POINT('',#730);
#323=VERTEX_POINT('',#731);
#324=VERTEX_POINT('',#733);
#325=VERTEX_POINT('',#735);
#326=VERTEX_POINT('',#738);
#327=VERTEX_POINT('',#739);
#328=VERTEX_POINT('',#741);
#329=VERTEX_POINT('',#743);
#330=VERTEX_POINT('',#747);
#331=VERTEX_POINT('',#748);
#332=VERTEX_POINT('',#750);
#333=VERTEX_POINT('',#752);
#334=VERTEX_POINT('',#764);
#335=VERTEX_POINT('',#766);
#336=VERTEX_POINT('',#770);
#337=VERTEX_POINT('',#774);
#338=CIRCLE('',#477,0.00254);
#339=CIRCLE('',#478,0.00254);
#340=CIRCLE('',#480,0.00254);
#341=CIRCLE('',#481,0.00254);
#342=CIRCLE('',#483,0.00254);
#343=CIRCLE('',#484,0.00635);
#344=CIRCLE('',#486,0.00254);
#345=CIRCLE('',#488,0.0802842989698555);
#346=CIRCLE('',#489,0.0802842989698555);
#347=CIRCLE('',#495,0.00635);
#348=CIRCLE('',#497,0.0254);
#349=CIRCLE('',#498,0.0254);
#350=CIRCLE('',#500,0.0254);
#351=CIRCLE('',#501,0.0254);
#352=EDGE_LOOP('',(#119));
#353=EDGE_LOOP('',(#120));
#354=EDGE_LOOP('',(#121));
#355=EDGE_LOOP('',(#122));
#356=EDGE_LOOP('',(#123));
#357=EDGE_LOOP('',(#124));
#358=EDGE_LOOP('',(#125));
#359=EDGE_LOOP('',(#126));
#360=EDGE_LOOP('',(#127,#128,#129,#130));
#361=EDGE_LOOP('',(#131));
#362=EDGE_LOOP('',(#132));
#363=EDGE_LOOP('',(#133,#134,#135,#136));
#364=EDGE_LOOP('',(#137,#138,#139,#140));
#365=EDGE_LOOP('',(#141));
#366=EDGE_LOOP('',(#142));
#367=EDGE_LOOP('',(#143,#144,#145,#146));
#368=EDGE_LOOP('',(#147,#148,#149,#150));
#369=EDGE_LOOP('',(#151,#152,#153,#154));
#370=EDGE_LOOP('',(#155));
#371=EDGE_LOOP('',(#156));
#372=EDGE_LOOP('',(#157));
#373=EDGE_LOOP('',(#158,#159,#160,#161,#162,#163,#164,#165,#166));
#374=EDGE_LOOP('',(#167,#168,#169,#170,#171,#172,#173,#174,#175));
#375=EDGE_LOOP('',(#176));
#376=EDGE_LOOP('',(#177,#178,#179,#180));
#377=EDGE_LOOP('',(#181,#182,#183,#184));
#378=EDGE_LOOP('',(#185,#186,#187,#188));
#379=EDGE_LOOP('',(#189,#190,#191,#192));
#380=EDGE_LOOP('',(#193,#194,#195,#196));
#381=EDGE_LOOP('',(#197,#198,#199,#200));
#382=EDGE_LOOP('',(#201,#202,#203,#204));
#383=EDGE_LOOP('',(#205,#206,#207,#208));
#384=EDGE_LOOP('',(#209,#210,#211,#212));
#385=EDGE_LOOP('',(#213,#214,#215,#216));
#386=EDGE_LOOP('',(#217,#218,#219,#220));
#387=EDGE_LOOP('',(#221,#222,#223,#224));
#388=EDGE_LOOP('',(#225,#226,#227,#228));
#389=EDGE_LOOP('',(#229,#230,#231,#232));
#390=EDGE_LOOP('',(#233,#234,#235,#236));
#391=FACE_BOUND('',#352,.T.);
#392=FACE_BOUND('',#353,.T.);
#393=FACE_BOUND('',#354,.T.);
#394=FACE_BOUND('',#355,.T.);
#395=FACE_BOUND('',#356,.T.);
#396=FACE_BOUND('',#357,.T.);
#397=FACE_BOUND('',#358,.T.);
#398=FACE_BOUND('',#359,.T.);
#399=FACE_BOUND('',#360,.T.);
#400=FACE_BOUND('',#361,.T.);
#401=FACE_BOUND('',#362,.T.);
#402=FACE_BOUND('',#363,.T.);
#403=FACE_BOUND('',#364,.T.);
#404=FACE_BOUND('',#365,.T.);
#405=FACE_BOUND('',#366,.T.);
#406=FACE_BOUND('',#367,.T.);
#407=FACE_BOUND('',#368,.T.);
#408=FACE_BOUND('',#369,.T.);
#409=FACE_BOUND('',#370,.T.);
#410=FACE_BOUND('',#371,.T.);
#411=FACE_BOUND('',#372,.T.);
#412=FACE_BOUND('',#373,.T.);
#413=FACE_BOUND('',#374,.T.);
#414=FACE_BOUND('',#375,.T.);
#415=FACE_BOUND('',#376,.T.);
#416=FACE_BOUND('',#377,.T.);
#417=FACE_BOUND('',#378,.T.);
#418=FACE_BOUND('',#379,.T.);
#419=FACE_BOUND('',#380,.T.);
#420=FACE_BOUND('',#381,.T.);
#421=FACE_BOUND('',#382,.T.);
#422=FACE_BOUND('',#383,.T.);
#423=FACE_BOUND('',#384,.T.);
#424=FACE_BOUND('',#385,.T.);
#425=FACE_BOUND('',#386,.T.);
#426=FACE_BOUND('',#387,.T.);
#427=FACE_BOUND('',#388,.T.);
#428=FACE_BOUND('',#389,.T.);
#429=FACE_BOUND('',#390,.T.);
#430=CYLINDRICAL_SURFACE('',#476,0.00254);
#431=CYLINDRICAL_SURFACE('',#479,0.00254);
#432=CYLINDRICAL_SURFACE('',#485,0.00254);
#433=CYLINDRICAL_SURFACE('',#487,0.0802842989698555);
#434=CYLINDRICAL_SURFACE('',#494,0.00635);
#435=CYLINDRICAL_SURFACE('',#502,0.0254);
#436=CYLINDRICAL_SURFACE('',#503,0.0254);
#437=ADVANCED_FACE('',(#391,#392),#430,.F.);
#438=ADVANCED_FACE('',(#393,#394),#431,.F.);
#439=ADVANCED_FACE('',(#395,#396),#101,.T.);
#440=ADVANCED_FACE('',(#397,#398),#432,.F.);
#441=ADVANCED_FACE('',(#399),#433,.F.);
#442=ADVANCED_FACE('',(#400,#401,#402),#102,.T.);
#443=ADVANCED_FACE('',(#403),#103,.F.);
#444=ADVANCED_FACE('',(#404,#405,#406),#104,.F.);
#445=ADVANCED_FACE('',(#407),#105,.F.);
#446=ADVANCED_FACE('',(#408),#14,.F.);
#447=ADVANCED_FACE('',(#409,#410),#434,.F.);
#448=ADVANCED_FACE('',(#411,#412),#106,.F.);
#449=ADVANCED_FACE('',(#413,#414),#107,.T.);
#450=ADVANCED_FACE('',(#415),#435,.F.);
#451=ADVANCED_FACE('',(#416),#436,.T.);
#452=ADVANCED_FACE('',(#417,#418,#419),#108,.F.);
#453=ADVANCED_FACE('',(#420),#109,.F.);
#454=ADVANCED_FACE('',(#421),#110,.F.);
#455=ADVANCED_FACE('',(#422),#111,.T.);
#456=ADVANCED_FACE('',(#423),#112,.T.);
#457=ADVANCED_FACE('',(#424),#113,.F.);
#458=ADVANCED_FACE('',(#425),#114,.F.);
#459=ADVANCED_FACE('',(#426),#115,.T.);
#460=ADVANCED_FACE('',(#427),#116,.T.);
#461=ADVANCED_FACE('',(#428),#117,.F.);
#462=ADVANCED_FACE('',(#429),#118,.F.);
#463=CLOSED_SHELL('',(#437,#438,#439,#440,#441,#442,#443,#444,#445,#446,
#447,#448,#449,#450,#451,#452,#453,#454,#455,#456,#457,#458,#459,#460,#461,
#462));
#464=STYLED_ITEM('',(#465),#472);
#465=PRESENTATION_STYLE_ASSIGNMENT((#466));
#466=SURFACE_STYLE_USAGE(.BOTH.,#467);
#467=SURFACE_SIDE_STYLE('',(#468));
#468=SURFACE_STYLE_FILL_AREA(#469);
#469=FILL_AREA_STYLE('',(#470));
#470=FILL_AREA_STYLE_COLOUR('',#471);
#471=COLOUR_RGB('',0.223529411764706,0.223529411764706,0.223529411764706);
#472=MANIFOLD_SOLID_BREP('Motor Stand Bottom',#463);
#473=SHAPE_DEFINITION_REPRESENTATION(#785,#474);
#474=SHAPE_REPRESENTATION('Motor Stand Bottom',(#475),#780);
#475=AXIS2_PLACEMENT_3D('',#638,#515,#516);
#476=AXIS2_PLACEMENT_3D('',#639,#517,#518);
#477=AXIS2_PLACEMENT_3D('',#640,#519,#520);
#478=AXIS2_PLACEMENT_3D('',#642,#521,#522);
#479=AXIS2_PLACEMENT_3D('',#644,#523,#524);
#480=AXIS2_PLACEMENT_3D('',#645,#525,#526);
#481=AXIS2_PLACEMENT_3D('',#647,#527,#528);
#482=AXIS2_PLACEMENT_3D('',#649,#529,#530);
#483=AXIS2_PLACEMENT_3D('',#650,#531,#532);
#484=AXIS2_PLACEMENT_3D('',#652,#533,#534);
#485=AXIS2_PLACEMENT_3D('',#654,#535,#536);
#486=AXIS2_PLACEMENT_3D('',#655,#537,#538);
#487=AXIS2_PLACEMENT_3D('',#657,#539,#540);
#488=AXIS2_PLACEMENT_3D('',#658,#541,#542);
#489=AXIS2_PLACEMENT_3D('',#663,#544,#545);
#490=AXIS2_PLACEMENT_3D('',#666,#547,#548);
#491=AXIS2_PLACEMENT_3D('',#672,#552,#553);
#492=AXIS2_PLACEMENT_3D('',#678,#557,#558);
#493=AXIS2_PLACEMENT_3D('',#684,#562,#563);
#494=AXIS2_PLACEMENT_3D('',#709,#568,#569);
#495=AXIS2_PLACEMENT_3D('',#710,#570,#571);
#496=AXIS2_PLACEMENT_3D('',#712,#572,#573);
#497=AXIS2_PLACEMENT_3D('',#713,#574,#575);
#498=AXIS2_PLACEMENT_3D('',#717,#577,#578);
#499=AXIS2_PLACEMENT_3D('',#718,#579,#580);
#500=AXIS2_PLACEMENT_3D('',#722,#582,#583);
#501=AXIS2_PLACEMENT_3D('',#723,#584,#585);
#502=AXIS2_PLACEMENT_3D('',#724,#586,#587);
#503=AXIS2_PLACEMENT_3D('',#726,#589,#590);
#504=AXIS2_PLACEMENT_3D('',#728,#592,#593);
#505=AXIS2_PLACEMENT_3D('',#745,#602,#603);
#506=AXIS2_PLACEMENT_3D('',#754,#608,#609);
#507=AXIS2_PLACEMENT_3D('',#757,#612,#613);
#508=AXIS2_PLACEMENT_3D('',#759,#615,#616);
#509=AXIS2_PLACEMENT_3D('',#761,#618,#619);
#510=AXIS2_PLACEMENT_3D('',#762,#620,#621);
#511=AXIS2_PLACEMENT_3D('',#768,#625,#626);
#512=AXIS2_PLACEMENT_3D('',#772,#629,#630);
#513=AXIS2_PLACEMENT_3D('',#776,#633,#634);
#514=AXIS2_PLACEMENT_3D('',#778,#636,#637);
#515=DIRECTION('',(0.,0.,1.));
#516=DIRECTION('',(1.,0.,0.));
#517=DIRECTION('',(0.,0.,1.));
#518=DIRECTION('',(1.,0.,0.));
#519=DIRECTION('',(0.,0.,1.));
#520=DIRECTION('',(1.,0.,0.));
#521=DIRECTION('',(0.,0.,1.));
#522=DIRECTION('',(1.,0.,0.));
#523=DIRECTION('',(0.,0.,1.));
#524=DIRECTION('',(1.,0.,0.));
#525=DIRECTION('',(0.,0.,1.));
#526=DIRECTION('',(1.,0.,0.));
#527=DIRECTION('',(0.,0.,1.));
#528=DIRECTION('',(1.,0.,0.));
#529=DIRECTION('',(0.,1.,0.));
#530=DIRECTION('',(-1.,0.,0.));
#531=DIRECTION('',(0.,1.,0.));
#532=DIRECTION('',(0.,0.,1.));
#533=DIRECTION('',(0.,1.,0.));
#534=DIRECTION('',(0.,0.,1.));
#535=DIRECTION('',(0.,1.,0.));
#536=DIRECTION('',(0.,0.,1.));
#537=DIRECTION('',(0.,-1.,0.));
#538=DIRECTION('',(0.,0.,-1.));
#539=DIRECTION('',(0.,1.,0.));
#540=DIRECTION('',(0.,0.,1.));
#541=DIRECTION('',(0.,-1.,0.));
#542=DIRECTION('',(0.,0.,-1.));
#543=DIRECTION('',(0.,1.,0.));
#544=DIRECTION('',(0.,-1.,0.));
#545=DIRECTION('',(0.,0.,-1.));
#546=DIRECTION('',(0.,1.,0.));
#547=DIRECTION('',(0.,0.,1.));
#548=DIRECTION('',(1.,0.,0.));
#549=DIRECTION('',(1.,0.,0.));
#550=DIRECTION('',(0.,1.,0.));
#551=DIRECTION('',(1.,0.,0.));
#552=DIRECTION('',(1.,0.,0.));
#553=DIRECTION('',(0.,0.,-1.));
#554=DIRECTION('',(0.,0.,-1.));
#555=DIRECTION('',(0.,1.,0.));
#556=DIRECTION('',(0.,0.,-1.));
#557=DIRECTION('',(0.,0.,1.));
#558=DIRECTION('',(1.,0.,0.));
#559=DIRECTION('',(1.,0.,0.));
#560=DIRECTION('',(0.,1.,0.));
#561=DIRECTION('',(1.,0.,0.));
#562=DIRECTION('',(-1.,0.,0.));
#563=DIRECTION('',(0.,0.,1.));
#564=DIRECTION('',(0.,0.,1.));
#565=DIRECTION('',(0.,1.,0.));
#566=DIRECTION('',(0.,0.,1.));
#567=DIRECTION('',(0.,1.,0.));
#568=DIRECTION('',(0.,1.,0.));
#569=DIRECTION('',(0.,0.,1.));
#570=DIRECTION('',(0.,1.,0.));
#571=DIRECTION('',(0.,0.,1.));
#572=DIRECTION('',(0.,-1.,0.));
#573=DIRECTION('',(1.,0.,0.));
#574=DIRECTION('',(0.,-1.,0.));
#575=DIRECTION('',(0.,0.,-1.));
#576=DIRECTION('',(1.,0.,0.));
#577=DIRECTION('',(0.,-1.,0.));
#578=DIRECTION('',(0.,0.,-1.));
#579=DIRECTION('',(0.,-1.,0.));
#580=DIRECTION('',(1.,0.,0.));
#581=DIRECTION('',(1.,0.,0.));
#582=DIRECTION('',(0.,-1.,0.));
#583=DIRECTION('',(0.,0.,-1.));
#584=DIRECTION('',(0.,-1.,0.));
#585=DIRECTION('',(0.,0.,-1.));
#586=DIRECTION('',(0.,1.,0.));
#587=DIRECTION('',(0.,0.,1.));
#588=DIRECTION('',(0.,1.,0.));
#589=DIRECTION('',(0.,1.,0.));
#590=DIRECTION('',(0.,0.,1.));
#591=DIRECTION('',(0.,1.,0.));
#592=DIRECTION('',(0.,0.,-1.));
#593=DIRECTION('',(1.,0.,0.));
#594=DIRECTION('',(0.,1.,0.));
#595=DIRECTION('',(1.,0.,0.));
#596=DIRECTION('',(0.,1.,0.));
#597=DIRECTION('',(1.,0.,0.));
#598=DIRECTION('',(0.,1.,0.));
#599=DIRECTION('',(1.,0.,0.));
#600=DIRECTION('',(0.,1.,0.));
#601=DIRECTION('',(1.,0.,0.));
#602=DIRECTION('',(0.,0.,-1.));
#603=DIRECTION('',(1.,0.,0.));
#604=DIRECTION('',(1.,0.,0.));
#605=DIRECTION('',(0.,1.,0.));
#606=DIRECTION('',(1.,0.,0.));
#607=DIRECTION('',(0.,1.,0.));
#608=DIRECTION('',(1.,0.,0.));
#609=DIRECTION('',(0.,0.,-1.));
#610=DIRECTION('',(0.,0.,1.));
#611=DIRECTION('',(0.,0.,1.));
#612=DIRECTION('',(0.,-1.,0.));
#613=DIRECTION('',(0.,0.,-1.));
#614=DIRECTION('',(0.,0.,1.));
#615=DIRECTION('',(1.,0.,0.));
#616=DIRECTION('',(0.,0.,-1.));
#617=DIRECTION('',(0.,0.,1.));
#618=DIRECTION('',(0.,-1.,0.));
#619=DIRECTION('',(0.,0.,-1.));
#620=DIRECTION('',(0.,-1.,0.));
#621=DIRECTION('',(0.,0.,-1.));
#622=DIRECTION('',(0.,0.,1.));
#623=DIRECTION('',(1.,0.,0.));
#624=DIRECTION('',(0.,0.,1.));
#625=DIRECTION('',(1.,0.,0.));
#626=DIRECTION('',(0.,0.,-1.));
#627=DIRECTION('',(0.,1.,0.));
#628=DIRECTION('',(0.,0.,1.));
#629=DIRECTION('',(0.,-1.,0.));
#630=DIRECTION('',(0.,0.,-1.));
#631=DIRECTION('',(1.,0.,0.));
#632=DIRECTION('',(0.,0.,1.));
#633=DIRECTION('',(1.,0.,0.));
#634=DIRECTION('',(0.,0.,-1.));
#635=DIRECTION('',(0.,1.,0.));
#636=DIRECTION('',(0.,0.,-1.));
#637=DIRECTION('',(1.,0.,0.));
#638=CARTESIAN_POINT('',(0.,0.,0.));
#639=CARTESIAN_POINT('',(0.000565554367746709,-0.00635,-2.00000000000027E-6));
#640=CARTESIAN_POINT('',(0.000565554367746709,-0.00635,0.));
#641=CARTESIAN_POINT('',(0.00310555436774671,-0.00635,0.));
#642=CARTESIAN_POINT('',(0.000565554367746709,-0.00635,0.0127));
#643=CARTESIAN_POINT('',(0.00310555436774671,-0.00635,0.0127));
#644=CARTESIAN_POINT('',(0.000565554367746708,0.00635,-2.00000000000027E-6));
#645=CARTESIAN_POINT('',(0.000565554367746708,0.00635,0.));
#646=CARTESIAN_POINT('',(0.00310555436774671,0.00635,0.));
#647=CARTESIAN_POINT('',(0.000565554367746708,0.00635,0.0127));
#648=CARTESIAN_POINT('',(0.00310555436774671,0.00635,0.0127));
#649=CARTESIAN_POINT('',(0.119996484345567,-0.01016,0.12827));
#650=CARTESIAN_POINT('',(0.0540771999301587,-0.01016,0.1134364));
#651=CARTESIAN_POINT('',(0.0540771999301587,-0.01016,0.1159764));
#652=CARTESIAN_POINT('',(0.0540771999301587,-0.01016,0.1134364));
#653=CARTESIAN_POINT('',(0.0540771999301587,-0.01016,0.1197864));
#654=CARTESIAN_POINT('',(0.0540771999301587,-0.0127,0.1134364));
#655=CARTESIAN_POINT('',(0.0540771999301587,-0.0127,0.1134364));
#656=CARTESIAN_POINT('',(0.0540771999301587,-0.0127,0.1108964));
#657=CARTESIAN_POINT('',(-0.0286815719880571,-0.0127,0.057262207125378));
#658=CARTESIAN_POINT('',(-0.0286815719880571,0.0127,0.057262207125378));
#659=CARTESIAN_POINT('',(0.0381,0.0127,0.0127));
#660=CARTESIAN_POINT('',(0.01905,0.0127,0.121816569461552));
#661=CARTESIAN_POINT('',(0.0381,-0.0127,0.0127));
#662=CARTESIAN_POINT('',(0.0381,-0.0127,0.0127));
#663=CARTESIAN_POINT('',(-0.0286815719880571,-0.0127,0.057262207125378));
#664=CARTESIAN_POINT('',(0.01905,-0.0127,0.121816569461552));
#665=CARTESIAN_POINT('',(0.01905,-0.0127,0.121816569461552));
#666=CARTESIAN_POINT('',(0.01905,-0.0127,0.0127));
#667=CARTESIAN_POINT('',(0.01905,0.0127,0.0127));
#668=CARTESIAN_POINT('',(-0.00762,0.0127,0.0127));
#669=CARTESIAN_POINT('',(-0.00762,-0.0127,0.0127));
#670=CARTESIAN_POINT('',(-0.00762,-0.0127,0.0127));
#671=CARTESIAN_POINT('',(0.01905,-0.0127,0.0127));
#672=CARTESIAN_POINT('',(-0.00762,-0.0127,0.00635));
#673=CARTESIAN_POINT('',(-0.00762,0.0127,0.00635));
#674=CARTESIAN_POINT('',(-0.00762,0.0127,0.));
#675=CARTESIAN_POINT('',(-0.00762,-0.0127,0.));
#676=CARTESIAN_POINT('',(-0.00762,-0.0127,0.));
#677=CARTESIAN_POINT('',(-0.00762,-0.0127,0.00635));
#678=CARTESIAN_POINT('',(-0.00381,-0.0127,0.));
#679=CARTESIAN_POINT('',(-0.00381,0.0127,0.));
#680=CARTESIAN_POINT('',(0.127,0.0127,0.));
#681=CARTESIAN_POINT('',(0.127,-0.0127,0.));
#682=CARTESIAN_POINT('',(0.127,-0.0127,0.));
#683=CARTESIAN_POINT('',(-0.00381,-0.0127,0.));
#684=CARTESIAN_POINT('',(0.127,-0.0127,0.0127));
#685=CARTESIAN_POINT('',(0.127,0.0127,0.0127));
#686=CARTESIAN_POINT('',(0.127,0.0127,0.0254));
#687=CARTESIAN_POINT('',(0.127,-0.0127,0.0254));
#688=CARTESIAN_POINT('',(0.127,-0.0127,0.0254));
#689=CARTESIAN_POINT('',(0.127,-0.0127,0.0127));
#690=CARTESIAN_POINT('',(0.127,-0.0127,0.0254));
#691=CARTESIAN_POINT('',(0.127,0.0127,0.0254));
#692=CARTESIAN_POINT('',(0.11970149816961,-0.0127,0.0925301583912486));
#693=CARTESIAN_POINT('',(0.11970149816961,0.0127,0.0925301583912486));
#694=CARTESIAN_POINT('',(0.125902644233192,-0.0127,0.114127170950523));
#695=CARTESIAN_POINT('',(0.125902644233192,0.0127,0.114127170950523));
#696=CARTESIAN_POINT('',(0.138835625035909,-0.0127,0.140666799872121));
#697=CARTESIAN_POINT('',(0.138835625035909,0.0127,0.140666799872121));
#698=CARTESIAN_POINT('',(0.127,0.0127,0.0254));
#699=CARTESIAN_POINT('',(0.11970149816961,0.0127,0.0925301583912486));
#700=CARTESIAN_POINT('',(0.125902644233192,0.0127,0.114127170950523));
#701=CARTESIAN_POINT('',(0.138835625035909,0.0127,0.140666799872121));
#702=CARTESIAN_POINT('',(0.138835625035909,0.0127,0.140666799872121));
#703=CARTESIAN_POINT('',(0.138835625035909,-0.0127,0.140666799872121));
#704=CARTESIAN_POINT('',(0.138835625035909,-0.0127,0.140666799872121));
#705=CARTESIAN_POINT('',(0.127,-0.0127,0.0254));
#706=CARTESIAN_POINT('',(0.11970149816961,-0.0127,0.0925301583912486));
#707=CARTESIAN_POINT('',(0.125902644233192,-0.0127,0.114127170950523));
#708=CARTESIAN_POINT('',(0.138835625035909,-0.0127,0.140666799872121));
#709=CARTESIAN_POINT('',(0.0540771999301587,-0.01016,0.1134364));
#710=CARTESIAN_POINT('',(0.0540771999301587,0.0127,0.1134364));
#711=CARTESIAN_POINT('',(0.0540771999301587,0.0127,0.1197864));
#712=CARTESIAN_POINT('',(0.119996484345567,0.0127,0.12827));
#713=CARTESIAN_POINT('',(0.0341511087354935,0.0127,0.14224));
#714=CARTESIAN_POINT('',(0.00875110873549342,0.0127,0.14224));
#715=CARTESIAN_POINT('',(0.119996484345567,0.0127,0.14224));
#716=CARTESIAN_POINT('',(0.139671764503028,0.0127,0.14224));
#717=CARTESIAN_POINT('',(0.161668809759153,0.0127,0.12954));
#718=CARTESIAN_POINT('',(0.119996484345567,-0.0127,0.12827));
#719=CARTESIAN_POINT('',(0.119996484345567,-0.0127,0.14224));
#720=CARTESIAN_POINT('',(0.00875110873549342,-0.0127,0.14224));
#721=CARTESIAN_POINT('',(0.139671764503028,-0.0127,0.14224));
#722=CARTESIAN_POINT('',(0.0341511087354935,-0.0127,0.14224));
#723=CARTESIAN_POINT('',(0.161668809759153,-0.0127,0.12954));
#724=CARTESIAN_POINT('',(0.161668809759153,-0.0127,0.12954));
#725=CARTESIAN_POINT('',(0.139671764503028,-0.0127,0.14224));
#726=CARTESIAN_POINT('',(0.0341511087354935,-0.0127,0.14224));
#727=CARTESIAN_POINT('',(0.00875110873549342,-0.0127,0.14224));
#728=CARTESIAN_POINT('',(0.0742114366192608,-0.0127,0.14224));
#729=CARTESIAN_POINT('',(0.131666236619261,-1.38777878078145E-17,0.14224));
#730=CARTESIAN_POINT('',(0.131666236619261,-0.0066548,0.14224));
#731=CARTESIAN_POINT('',(0.131666236619261,0.0066548,0.14224));
#732=CARTESIAN_POINT('',(0.112311436619261,-0.0066548,0.14224));
#733=CARTESIAN_POINT('',(0.0929566366192608,-0.0066548,0.14224));
#734=CARTESIAN_POINT('',(0.0929566366192608,-1.04083408558608E-17,0.14224));
#735=CARTESIAN_POINT('',(0.0929566366192608,0.0066548,0.14224));
#736=CARTESIAN_POINT('',(0.112311436619261,0.0066548,0.14224));
#737=CARTESIAN_POINT('',(0.0554662366192608,-1.04083408558608E-17,0.14224));
#738=CARTESIAN_POINT('',(0.0554662366192608,-0.0066548,0.14224));
#739=CARTESIAN_POINT('',(0.0554662366192608,0.0066548,0.14224));
#740=CARTESIAN_POINT('',(0.0361114366192608,-0.0066548,0.14224));
#741=CARTESIAN_POINT('',(0.0167566366192608,-0.0066548,0.14224));
#742=CARTESIAN_POINT('',(0.0167566366192608,-1.38777878078145E-17,0.14224));
#743=CARTESIAN_POINT('',(0.0167566366192608,0.0066548,0.14224));
#744=CARTESIAN_POINT('',(0.0361114366192608,0.0066548,0.14224));
#745=CARTESIAN_POINT('',(0.0742114366192608,0.,0.12954));
#746=CARTESIAN_POINT('',(0.0361114366192608,-0.0066548,0.12954));
#747=CARTESIAN_POINT('',(0.0167566366192608,-0.0066548,0.12954));
#748=CARTESIAN_POINT('',(0.0554662366192608,-0.0066548,0.12954));
#749=CARTESIAN_POINT('',(0.0554662366192608,-1.04083408558608E-17,0.12954));
#750=CARTESIAN_POINT('',(0.0554662366192608,0.0066548,0.12954));
#751=CARTESIAN_POINT('',(0.0361114366192608,0.0066548,0.12954));
#752=CARTESIAN_POINT('',(0.0167566366192608,0.0066548,0.12954));
#753=CARTESIAN_POINT('',(0.0167566366192608,-1.38777878078145E-17,0.12954));
#754=CARTESIAN_POINT('',(0.0554662366192608,-1.04083408558608E-17,0.12954));
#755=CARTESIAN_POINT('',(0.0554662366192608,0.0066548,0.12954));
#756=CARTESIAN_POINT('',(0.0554662366192608,-0.0066548,0.12954));
#757=CARTESIAN_POINT('',(0.0361114366192608,0.0066548,0.12954));
#758=CARTESIAN_POINT('',(0.0167566366192608,0.0066548,0.12954));
#759=CARTESIAN_POINT('',(0.0167566366192608,-1.38777878078145E-17,0.12954));
#760=CARTESIAN_POINT('',(0.0167566366192608,-0.0066548,0.12954));
#761=CARTESIAN_POINT('',(0.0361114366192608,-0.0066548,0.12954));
#762=CARTESIAN_POINT('',(0.112311436619261,-0.0066548,0.12954));
#763=CARTESIAN_POINT('',(0.131666236619261,-0.0066548,0.12954));
#764=CARTESIAN_POINT('',(0.131666236619261,-0.0066548,0.12954));
#765=CARTESIAN_POINT('',(0.112311436619261,-0.0066548,0.12954));
#766=CARTESIAN_POINT('',(0.0929566366192608,-0.0066548,0.12954));
#767=CARTESIAN_POINT('',(0.0929566366192608,-0.0066548,0.12954));
#768=CARTESIAN_POINT('',(0.0929566366192608,-1.04083408558608E-17,0.12954));
#769=CARTESIAN_POINT('',(0.0929566366192608,-1.04083408558608E-17,0.12954));
#770=CARTESIAN_POINT('',(0.0929566366192608,0.0066548,0.12954));
#771=CARTESIAN_POINT('',(0.0929566366192608,0.0066548,0.12954));
#772=CARTESIAN_POINT('',(0.112311436619261,0.0066548,0.12954));
#773=CARTESIAN_POINT('',(0.112311436619261,0.0066548,0.12954));
#774=CARTESIAN_POINT('',(0.131666236619261,0.0066548,0.12954));
#775=CARTESIAN_POINT('',(0.131666236619261,0.0066548,0.12954));
#776=CARTESIAN_POINT('',(0.131666236619261,-1.38777878078145E-17,0.12954));
#777=CARTESIAN_POINT('',(0.131666236619261,-1.38777878078145E-17,0.12954));
#778=CARTESIAN_POINT('',(0.0742114366192608,0.,0.12954));
#779=MECHANICAL_DESIGN_GEOMETRIC_PRESENTATION_REPRESENTATION('',(#464),
#780);
#780=(
GEOMETRIC_REPRESENTATION_CONTEXT(3)
GLOBAL_UNCERTAINTY_ASSIGNED_CONTEXT((#781))
GLOBAL_UNIT_ASSIGNED_CONTEXT((#784,#783,#782))
REPRESENTATION_CONTEXT('Motor Stand Bottom','TOP_LEVEL_ASSEMBLY_PART')
);
#781=UNCERTAINTY_MEASURE_WITH_UNIT(LENGTH_MEASURE(2.E-5),#784,
'DISTANCE_ACCURACY_VALUE','Maximum Tolerance applied to model');
#782=(
NAMED_UNIT(*)
SI_UNIT($,.STERADIAN.)
SOLID_ANGLE_UNIT()
);
#783=(
NAMED_UNIT(*)
PLANE_ANGLE_UNIT()
SI_UNIT($,.RADIAN.)
);
#784=(
LENGTH_UNIT()
NAMED_UNIT(*)
SI_UNIT($,.METRE.)
);
#785=PRODUCT_DEFINITION_SHAPE('','',#786);
#786=PRODUCT_DEFINITION('','',#788,#787);
#787=PRODUCT_DEFINITION_CONTEXT('',#794,'design');
#788=PRODUCT_DEFINITION_FORMATION_WITH_SPECIFIED_SOURCE('','',#790,
 .NOT_KNOWN.);
#789=PRODUCT_RELATED_PRODUCT_CATEGORY('','',(#790));
#790=PRODUCT('Motor Stand Bottom','Motor Stand Bottom',
'Motor Stand Bottom',(#792));
#791=PRODUCT_CATEGORY('','');
#792=PRODUCT_CONTEXT('',#794,'mechanical');
#793=APPLICATION_PROTOCOL_DEFINITION('international standard',
'ap242_managed_model_based_3d_engineering',2020,#794);
#794=APPLICATION_CONTEXT('managed model based 3d engineering');
ENDSEC;
END-ISO-10303-21;
