ISO-10303-21;
HEADER;
/* Generated by software containing ST-Developer
 * from STEP Tools, Inc. (www.steptools.com) 
 */
/* OPTION: using custom renumber hook */

FILE_DESCRIPTION(
/* description */ ('STEP AP242 Edition 2',
'CAx-IF Rec.Pracs.---Representation and Presentation of Product Manufa
cturing Information (PMI)---4.0---2014-10-13',
'CAx-IF Rec.Pracs.---3D Tessellated Geometry---0.4---2014-09-14','2;1',
'CAx-IF Rec.Pracs.---User Defined Attributes---1.5---2016-08-15'),
/* implementation_level */ '2;1');

FILE_NAME(
/* name */ 'Main - Polycarbonate Base',
/* time_stamp */ '2026-05-15T18:25:37Z',
/* author */ (''),
/* organization */ (''),
/* preprocessor_version */ 'ST-DEVELOPER v20',
/* originating_system */ 'ONSHAPE BY PTC INC, 1.215',
/* authorisation */ '  ');

FILE_SCHEMA (('AP242_MANAGED_MODEL_BASED_3D_ENGINEERING_MIM_LF { 1 0 10303 442 3 1 4 }'));
ENDSEC;

DATA;
#10=SHAPE_REPRESENTATION_RELATIONSHIP('','',#217,#11);
#11=ADVANCED_BREP_SHAPE_REPRESENTATION('',(#215),#349);
#12=CYLINDRICAL_SURFACE('',#235,0.00254);
#13=CYLINDRICAL_SURFACE('',#236,0.00254);
#14=CYLINDRICAL_SURFACE('',#237,0.00254);
#15=CYLINDRICAL_SURFACE('',#238,0.00254);
#16=CYLINDRICAL_SURFACE('',#239,0.00254);
#17=CIRCLE('',#224,0.00254);
#18=CIRCLE('',#225,0.00254);
#19=CIRCLE('',#226,0.00254);
#20=CIRCLE('',#227,0.00254);
#21=CIRCLE('',#228,0.00254);
#22=CIRCLE('',#230,0.00254);
#23=CIRCLE('',#231,0.00254);
#24=CIRCLE('',#232,0.00254);
#25=CIRCLE('',#233,0.00254);
#26=CIRCLE('',#234,0.00254);
#27=ORIENTED_EDGE('',*,*,#71,.F.);
#28=ORIENTED_EDGE('',*,*,#72,.F.);
#29=ORIENTED_EDGE('',*,*,#73,.T.);
#30=ORIENTED_EDGE('',*,*,#74,.T.);
#31=ORIENTED_EDGE('',*,*,#75,.T.);
#32=ORIENTED_EDGE('',*,*,#76,.F.);
#33=ORIENTED_EDGE('',*,*,#77,.F.);
#34=ORIENTED_EDGE('',*,*,#72,.T.);
#35=ORIENTED_EDGE('',*,*,#78,.T.);
#36=ORIENTED_EDGE('',*,*,#79,.F.);
#37=ORIENTED_EDGE('',*,*,#80,.F.);
#38=ORIENTED_EDGE('',*,*,#76,.T.);
#39=ORIENTED_EDGE('',*,*,#81,.F.);
#40=ORIENTED_EDGE('',*,*,#74,.F.);
#41=ORIENTED_EDGE('',*,*,#82,.T.);
#42=ORIENTED_EDGE('',*,*,#79,.T.);
#43=ORIENTED_EDGE('',*,*,#83,.F.);
#44=ORIENTED_EDGE('',*,*,#84,.F.);
#45=ORIENTED_EDGE('',*,*,#85,.F.);
#46=ORIENTED_EDGE('',*,*,#86,.F.);
#47=ORIENTED_EDGE('',*,*,#87,.F.);
#48=ORIENTED_EDGE('',*,*,#73,.F.);
#49=ORIENTED_EDGE('',*,*,#77,.T.);
#50=ORIENTED_EDGE('',*,*,#80,.T.);
#51=ORIENTED_EDGE('',*,*,#82,.F.);
#52=ORIENTED_EDGE('',*,*,#88,.F.);
#53=ORIENTED_EDGE('',*,*,#89,.F.);
#54=ORIENTED_EDGE('',*,*,#90,.F.);
#55=ORIENTED_EDGE('',*,*,#91,.F.);
#56=ORIENTED_EDGE('',*,*,#92,.F.);
#57=ORIENTED_EDGE('',*,*,#71,.T.);
#58=ORIENTED_EDGE('',*,*,#81,.T.);
#59=ORIENTED_EDGE('',*,*,#78,.F.);
#60=ORIENTED_EDGE('',*,*,#75,.F.);
#61=ORIENTED_EDGE('',*,*,#92,.T.);
#62=ORIENTED_EDGE('',*,*,#87,.T.);
#63=ORIENTED_EDGE('',*,*,#91,.T.);
#64=ORIENTED_EDGE('',*,*,#86,.T.);
#65=ORIENTED_EDGE('',*,*,#90,.T.);
#66=ORIENTED_EDGE('',*,*,#85,.T.);
#67=ORIENTED_EDGE('',*,*,#89,.T.);
#68=ORIENTED_EDGE('',*,*,#84,.T.);
#69=ORIENTED_EDGE('',*,*,#88,.T.);
#70=ORIENTED_EDGE('',*,*,#83,.T.);
#71=EDGE_CURVE('',#93,#94,#111,.T.);
#72=EDGE_CURVE('',#95,#93,#112,.T.);
#73=EDGE_CURVE('',#95,#96,#113,.T.);
#74=EDGE_CURVE('',#96,#94,#114,.T.);
#75=EDGE_CURVE('',#93,#97,#115,.T.);
#76=EDGE_CURVE('',#98,#97,#116,.T.);
#77=EDGE_CURVE('',#95,#98,#117,.T.);
#78=EDGE_CURVE('',#97,#99,#118,.T.);
#79=EDGE_CURVE('',#100,#99,#119,.T.);
#80=EDGE_CURVE('',#98,#100,#120,.T.);
#81=EDGE_CURVE('',#94,#99,#121,.T.);
#82=EDGE_CURVE('',#96,#100,#122,.T.);
#83=EDGE_CURVE('',#101,#101,#17,.T.);
#84=EDGE_CURVE('',#102,#102,#18,.T.);
#85=EDGE_CURVE('',#103,#103,#19,.T.);
#86=EDGE_CURVE('',#104,#104,#20,.T.);
#87=EDGE_CURVE('',#105,#105,#21,.T.);
#88=EDGE_CURVE('',#106,#106,#22,.F.);
#89=EDGE_CURVE('',#107,#107,#23,.F.);
#90=EDGE_CURVE('',#108,#108,#24,.F.);
#91=EDGE_CURVE('',#109,#109,#25,.F.);
#92=EDGE_CURVE('',#110,#110,#26,.F.);
#93=VERTEX_POINT('',#299);
#94=VERTEX_POINT('',#300);
#95=VERTEX_POINT('',#302);
#96=VERTEX_POINT('',#304);
#97=VERTEX_POINT('',#308);
#98=VERTEX_POINT('',#310);
#99=VERTEX_POINT('',#314);
#100=VERTEX_POINT('',#316);
#101=VERTEX_POINT('',#323);
#102=VERTEX_POINT('',#325);
#103=VERTEX_POINT('',#327);
#104=VERTEX_POINT('',#329);
#105=VERTEX_POINT('',#331);
#106=VERTEX_POINT('',#334);
#107=VERTEX_POINT('',#336);
#108=VERTEX_POINT('',#338);
#109=VERTEX_POINT('',#340);
#110=VERTEX_POINT('',#342);
#111=LINE('',#298,#123);
#112=LINE('',#301,#124);
#113=LINE('',#303,#125);
#114=LINE('',#305,#126);
#115=LINE('',#307,#127);
#116=LINE('',#309,#128);
#117=LINE('',#311,#129);
#118=LINE('',#313,#130);
#119=LINE('',#315,#131);
#120=LINE('',#317,#132);
#121=LINE('',#319,#133);
#122=LINE('',#320,#134);
#123=VECTOR('',#244,1.);
#124=VECTOR('',#245,1.);
#125=VECTOR('',#246,1.);
#126=VECTOR('',#247,1.);
#127=VECTOR('',#250,1.);
#128=VECTOR('',#251,1.);
#129=VECTOR('',#252,1.);
#130=VECTOR('',#255,1.);
#131=VECTOR('',#256,1.);
#132=VECTOR('',#257,1.);
#133=VECTOR('',#260,1.);
#134=VECTOR('',#261,1.);
#135=EDGE_LOOP('',(#27,#28,#29,#30));
#136=EDGE_LOOP('',(#31,#32,#33,#34));
#137=EDGE_LOOP('',(#35,#36,#37,#38));
#138=EDGE_LOOP('',(#39,#40,#41,#42));
#139=EDGE_LOOP('',(#43));
#140=EDGE_LOOP('',(#44));
#141=EDGE_LOOP('',(#45));
#142=EDGE_LOOP('',(#46));
#143=EDGE_LOOP('',(#47));
#144=EDGE_LOOP('',(#48,#49,#50,#51));
#145=EDGE_LOOP('',(#52));
#146=EDGE_LOOP('',(#53));
#147=EDGE_LOOP('',(#54));
#148=EDGE_LOOP('',(#55));
#149=EDGE_LOOP('',(#56));
#150=EDGE_LOOP('',(#57,#58,#59,#60));
#151=EDGE_LOOP('',(#61));
#152=EDGE_LOOP('',(#62));
#153=EDGE_LOOP('',(#63));
#154=EDGE_LOOP('',(#64));
#155=EDGE_LOOP('',(#65));
#156=EDGE_LOOP('',(#66));
#157=EDGE_LOOP('',(#67));
#158=EDGE_LOOP('',(#68));
#159=EDGE_LOOP('',(#69));
#160=EDGE_LOOP('',(#70));
#161=FACE_BOUND('',#135,.T.);
#162=FACE_BOUND('',#136,.T.);
#163=FACE_BOUND('',#137,.T.);
#164=FACE_BOUND('',#138,.T.);
#165=FACE_BOUND('',#139,.T.);
#166=FACE_BOUND('',#140,.T.);
#167=FACE_BOUND('',#141,.T.);
#168=FACE_BOUND('',#142,.T.);
#169=FACE_BOUND('',#143,.T.);
#170=FACE_BOUND('',#144,.T.);
#171=FACE_BOUND('',#145,.T.);
#172=FACE_BOUND('',#146,.T.);
#173=FACE_BOUND('',#147,.T.);
#174=FACE_BOUND('',#148,.T.);
#175=FACE_BOUND('',#149,.T.);
#176=FACE_BOUND('',#150,.T.);
#177=FACE_BOUND('',#151,.T.);
#178=FACE_BOUND('',#152,.T.);
#179=FACE_BOUND('',#153,.T.);
#180=FACE_BOUND('',#154,.T.);
#181=FACE_BOUND('',#155,.T.);
#182=FACE_BOUND('',#156,.T.);
#183=FACE_BOUND('',#157,.T.);
#184=FACE_BOUND('',#158,.T.);
#185=FACE_BOUND('',#159,.T.);
#186=FACE_BOUND('',#160,.T.);
#187=PLANE('',#219);
#188=PLANE('',#220);
#189=PLANE('',#221);
#190=PLANE('',#222);
#191=PLANE('',#223);
#192=PLANE('',#229);
#193=ADVANCED_FACE('',(#161),#187,.T.);
#194=ADVANCED_FACE('',(#162),#188,.F.);
#195=ADVANCED_FACE('',(#163),#189,.F.);
#196=ADVANCED_FACE('',(#164),#190,.T.);
#197=ADVANCED_FACE('',(#165,#166,#167,#168,#169,#170),#191,.T.);
#198=ADVANCED_FACE('',(#171,#172,#173,#174,#175,#176),#192,.F.);
#199=ADVANCED_FACE('',(#177,#178),#12,.F.);
#200=ADVANCED_FACE('',(#179,#180),#13,.F.);
#201=ADVANCED_FACE('',(#181,#182),#14,.F.);
#202=ADVANCED_FACE('',(#183,#184),#15,.F.);
#203=ADVANCED_FACE('',(#185,#186),#16,.F.);
#204=CLOSED_SHELL('',(#193,#194,#195,#196,#197,#198,#199,#200,#201,#202,
#203));
#205=STYLED_ITEM('',(#206),#215);
#206=PRESENTATION_STYLE_ASSIGNMENT((#207));
#207=SURFACE_STYLE_USAGE(.BOTH.,#208);
#208=SURFACE_SIDE_STYLE('',(#211,#209));
#209=SURFACE_STYLE_RENDERING_WITH_PROPERTIES(.CONSTANT_SHADING.,#214,(#210));
#210=SURFACE_STYLE_TRANSPARENT(0.482352941176471);
#211=SURFACE_STYLE_FILL_AREA(#212);
#212=FILL_AREA_STYLE('',(#213));
#213=FILL_AREA_STYLE_COLOUR('',#214);
#214=COLOUR_RGB('',0.917647058823529,0.917647058823529,0.917647058823529);
#215=MANIFOLD_SOLID_BREP('Polycarbonate Base',#204);
#216=SHAPE_DEFINITION_REPRESENTATION(#354,#217);
#217=SHAPE_REPRESENTATION('Polycarbonate Base',(#218),#349);
#218=AXIS2_PLACEMENT_3D('',#296,#240,#241);
#219=AXIS2_PLACEMENT_3D('',#297,#242,#243);
#220=AXIS2_PLACEMENT_3D('',#306,#248,#249);
#221=AXIS2_PLACEMENT_3D('',#312,#253,#254);
#222=AXIS2_PLACEMENT_3D('',#318,#258,#259);
#223=AXIS2_PLACEMENT_3D('',#321,#262,#263);
#224=AXIS2_PLACEMENT_3D('',#322,#264,#265);
#225=AXIS2_PLACEMENT_3D('',#324,#266,#267);
#226=AXIS2_PLACEMENT_3D('',#326,#268,#269);
#227=AXIS2_PLACEMENT_3D('',#328,#270,#271);
#228=AXIS2_PLACEMENT_3D('',#330,#272,#273);
#229=AXIS2_PLACEMENT_3D('',#332,#274,#275);
#230=AXIS2_PLACEMENT_3D('',#333,#276,#277);
#231=AXIS2_PLACEMENT_3D('',#335,#278,#279);
#232=AXIS2_PLACEMENT_3D('',#337,#280,#281);
#233=AXIS2_PLACEMENT_3D('',#339,#282,#283);
#234=AXIS2_PLACEMENT_3D('',#341,#284,#285);
#235=AXIS2_PLACEMENT_3D('',#343,#286,#287);
#236=AXIS2_PLACEMENT_3D('',#344,#288,#289);
#237=AXIS2_PLACEMENT_3D('',#345,#290,#291);
#238=AXIS2_PLACEMENT_3D('',#346,#292,#293);
#239=AXIS2_PLACEMENT_3D('',#347,#294,#295);
#240=DIRECTION('',(0.,0.,1.));
#241=DIRECTION('',(1.,0.,0.));
#242=DIRECTION('',(1.,-4.55307998944044E-17,0.));
#243=DIRECTION('',(4.55307998944044E-17,1.,0.));
#244=DIRECTION('',(-4.55307998944044E-17,-1.,0.));
#245=DIRECTION('',(0.,0.,-1.));
#246=DIRECTION('',(-4.55307998944044E-17,-1.,0.));
#247=DIRECTION('',(0.,0.,-1.));
#248=DIRECTION('',(0.,-1.,0.));
#249=DIRECTION('',(0.,0.,-1.));
#250=DIRECTION('',(-1.,0.,0.));
#251=DIRECTION('',(0.,0.,-1.));
#252=DIRECTION('',(-1.,0.,0.));
#253=DIRECTION('',(1.,-4.55307998944044E-17,0.));
#254=DIRECTION('',(4.55307998944044E-17,1.,0.));
#255=DIRECTION('',(-4.55307998944044E-17,-1.,0.));
#256=DIRECTION('',(0.,0.,-1.));
#257=DIRECTION('',(-4.55307998944044E-17,-1.,0.));
#258=DIRECTION('',(0.,-1.,0.));
#259=DIRECTION('',(0.,0.,-1.));
#260=DIRECTION('',(-1.,0.,0.));
#261=DIRECTION('',(-1.,0.,0.));
#262=DIRECTION('',(0.,0.,1.));
#263=DIRECTION('',(1.,0.,0.));
#264=DIRECTION('',(0.,0.,1.));
#265=DIRECTION('',(1.,0.,0.));
#266=DIRECTION('',(0.,0.,1.));
#267=DIRECTION('',(1.,0.,0.));
#268=DIRECTION('',(0.,0.,1.));
#269=DIRECTION('',(1.,0.,0.));
#270=DIRECTION('',(0.,0.,1.));
#271=DIRECTION('',(1.,0.,0.));
#272=DIRECTION('',(0.,0.,1.));
#273=DIRECTION('',(1.,0.,0.));
#274=DIRECTION('',(0.,0.,1.));
#275=DIRECTION('',(1.,0.,0.));
#276=DIRECTION('',(0.,0.,1.));
#277=DIRECTION('',(1.,0.,0.));
#278=DIRECTION('',(0.,0.,1.));
#279=DIRECTION('',(1.,0.,0.));
#280=DIRECTION('',(0.,0.,1.));
#281=DIRECTION('',(1.,0.,0.));
#282=DIRECTION('',(0.,0.,1.));
#283=DIRECTION('',(1.,0.,0.));
#284=DIRECTION('',(0.,0.,1.));
#285=DIRECTION('',(1.,0.,0.));
#286=DIRECTION('',(0.,0.,1.));
#287=DIRECTION('',(1.,0.,0.));
#288=DIRECTION('',(0.,0.,1.));
#289=DIRECTION('',(1.,0.,0.));
#290=DIRECTION('',(0.,0.,1.));
#291=DIRECTION('',(1.,0.,0.));
#292=DIRECTION('',(0.,0.,1.));
#293=DIRECTION('',(1.,0.,0.));
#294=DIRECTION('',(0.,0.,1.));
#295=DIRECTION('',(1.,0.,0.));
#296=CARTESIAN_POINT('',(0.,0.,0.));
#297=CARTESIAN_POINT('',(0.0714375,0.,0.00079375));
#298=CARTESIAN_POINT('',(0.0714375,0.,-0.00079375));
#299=CARTESIAN_POINT('',(0.0714375,0.1524,-0.00079375));
#300=CARTESIAN_POINT('',(0.0714375,-0.1524,-0.00079375));
#301=CARTESIAN_POINT('',(0.0714375,0.1524,0.00079375));
#302=CARTESIAN_POINT('',(0.0714375,0.1524,0.00079375));
#303=CARTESIAN_POINT('',(0.0714375,0.,0.00079375));
#304=CARTESIAN_POINT('',(0.0714375,-0.1524,0.00079375));
#305=CARTESIAN_POINT('',(0.0714375,-0.1524,0.00079375));
#306=CARTESIAN_POINT('',(1.38777878078145E-17,0.1524,0.00079375));
#307=CARTESIAN_POINT('',(1.38777878078145E-17,0.1524,-0.00079375));
#308=CARTESIAN_POINT('',(-0.0714375,0.1524,-0.00079375));
#309=CARTESIAN_POINT('',(-0.0714375,0.1524,0.00079375));
#310=CARTESIAN_POINT('',(-0.0714375,0.1524,0.00079375));
#311=CARTESIAN_POINT('',(1.38777878078145E-17,0.1524,0.00079375));
#312=CARTESIAN_POINT('',(-0.0714375,0.,0.00079375));
#313=CARTESIAN_POINT('',(-0.0714375,0.,-0.00079375));
#314=CARTESIAN_POINT('',(-0.0714375,-0.1524,-0.00079375));
#315=CARTESIAN_POINT('',(-0.0714375,-0.1524,0.00079375));
#316=CARTESIAN_POINT('',(-0.0714375,-0.1524,0.00079375));
#317=CARTESIAN_POINT('',(-0.0714375,0.,0.00079375));
#318=CARTESIAN_POINT('',(-1.38777878078145E-17,-0.1524,0.00079375));
#319=CARTESIAN_POINT('',(-1.38777878078145E-17,-0.1524,-0.00079375));
#320=CARTESIAN_POINT('',(-1.38777878078145E-17,-0.1524,0.00079375));
#321=CARTESIAN_POINT('',(0.,0.,0.00079375));
#322=CARTESIAN_POINT('',(0.0450064759,-0.120920002,0.00079375));
#323=CARTESIAN_POINT('',(0.0475464759,-0.120920002,0.00079375));
#324=CARTESIAN_POINT('',(-0.0356017957,0.120920002,0.00079375));
#325=CARTESIAN_POINT('',(-0.0330617957,0.120920002,0.00079375));
#326=CARTESIAN_POINT('',(0.0356017957,0.120920002,0.00079375));
#327=CARTESIAN_POINT('',(0.0381417957,0.120920002,0.00079375));
#328=CARTESIAN_POINT('',(-0.0450064759,0.006079998,0.00079375));
#329=CARTESIAN_POINT('',(-0.0424664759,0.006079998,0.00079375));
#330=CARTESIAN_POINT('',(-0.0450064759,-0.120920002,0.00079375));
#331=CARTESIAN_POINT('',(-0.0424664759,-0.120920002,0.00079375));
#332=CARTESIAN_POINT('',(0.,0.,-0.00079375));
#333=CARTESIAN_POINT('',(0.0450064759,-0.120920002,-0.00079375));
#334=CARTESIAN_POINT('',(0.0475464759,-0.120920002,-0.00079375));
#335=CARTESIAN_POINT('',(-0.0356017957,0.120920002,-0.00079375));
#336=CARTESIAN_POINT('',(-0.0330617957,0.120920002,-0.00079375));
#337=CARTESIAN_POINT('',(0.0356017957,0.120920002,-0.00079375));
#338=CARTESIAN_POINT('',(0.0381417957,0.120920002,-0.00079375));
#339=CARTESIAN_POINT('',(-0.0450064759,0.006079998,-0.00079375));
#340=CARTESIAN_POINT('',(-0.0424664759,0.006079998,-0.00079375));
#341=CARTESIAN_POINT('',(-0.0450064759,-0.120920002,-0.00079375));
#342=CARTESIAN_POINT('',(-0.0424664759,-0.120920002,-0.00079375));
#343=CARTESIAN_POINT('',(-0.0450064759,-0.120920002,-0.00079575));
#344=CARTESIAN_POINT('',(-0.0450064759,0.006079998,-0.00079575));
#345=CARTESIAN_POINT('',(0.0356017957,0.120920002,-0.00079575));
#346=CARTESIAN_POINT('',(-0.0356017957,0.120920002,-0.00079575));
#347=CARTESIAN_POINT('',(0.0450064759,-0.120920002,-0.00079575));
#348=MECHANICAL_DESIGN_GEOMETRIC_PRESENTATION_REPRESENTATION('',(#205),
#349);
#349=(
GEOMETRIC_REPRESENTATION_CONTEXT(3)
GLOBAL_UNCERTAINTY_ASSIGNED_CONTEXT((#350))
GLOBAL_UNIT_ASSIGNED_CONTEXT((#353,#352,#351))
REPRESENTATION_CONTEXT('Polycarbonate Base','TOP_LEVEL_ASSEMBLY_PART')
);
#350=UNCERTAINTY_MEASURE_WITH_UNIT(LENGTH_MEASURE(1.E-8),#353,
'DISTANCE_ACCURACY_VALUE','Maximum Tolerance applied to model');
#351=(
NAMED_UNIT(*)
SI_UNIT($,.STERADIAN.)
SOLID_ANGLE_UNIT()
);
#352=(
NAMED_UNIT(*)
PLANE_ANGLE_UNIT()
SI_UNIT($,.RADIAN.)
);
#353=(
LENGTH_UNIT()
NAMED_UNIT(*)
SI_UNIT($,.METRE.)
);
#354=PRODUCT_DEFINITION_SHAPE('','',#355);
#355=PRODUCT_DEFINITION('','',#357,#356);
#356=PRODUCT_DEFINITION_CONTEXT('',#363,'design');
#357=PRODUCT_DEFINITION_FORMATION_WITH_SPECIFIED_SOURCE('','',#359,
 .NOT_KNOWN.);
#358=PRODUCT_RELATED_PRODUCT_CATEGORY('','',(#359));
#359=PRODUCT('Polycarbonate Base','Polycarbonate Base',
'Polycarbonate Base',(#361));
#360=PRODUCT_CATEGORY('','');
#361=PRODUCT_CONTEXT('',#363,'mechanical');
#362=APPLICATION_PROTOCOL_DEFINITION('international standard',
'ap242_managed_model_based_3d_engineering',2020,#363);
#363=APPLICATION_CONTEXT('managed model based 3d engineering');
ENDSEC;
END-ISO-10303-21;
