ISO-10303-21;
HEADER;
/* Generated by software containing ST-Developer
 * from STEP Tools, Inc. (www.steptools.com) 
 */
/* OPTION: using custom renumber hook */

FILE_DESCRIPTION(
/* description */ ('STEP AP242 Edition 2',
'CAx-IF Rec.Pracs.---Representation and Presentation of Product Manufa
cturing Information (PMI)---4.0---2014-10-13',
'CAx-IF Rec.Pracs.---3D Tessellated Geometry---0.4---2014-09-14','2;1',
'CAx-IF Rec.Pracs.---User Defined Attributes---1.5---2016-08-15'),
/* implementation_level */ '2;1');

FILE_NAME(
/* name */ 'Main - Pressing Arm',
/* time_stamp */ '2026-05-15T18:25:37Z',
/* author */ (''),
/* organization */ (''),
/* preprocessor_version */ 'ST-DEVELOPER v20',
/* originating_system */ 'ONSHAPE BY PTC INC, 1.215',
/* authorisation */ '  ');

FILE_SCHEMA (('AP242_MANAGED_MODEL_BASED_3D_ENGINEERING_MIM_LF { 1 0 10303 442 3 1 4 }'));
ENDSEC;

DATA;
#10=SHAPE_REPRESENTATION_RELATIONSHIP('','',#403,#11);
#11=ADVANCED_BREP_SHAPE_REPRESENTATION('',(#401),#669);
#12=TOROIDAL_SURFACE('',#441,0.01016,0.00254);
#13=B_SPLINE_CURVE_WITH_KNOTS('',3,(#603,#604,#605,#606),.UNSPECIFIED.,
 .F.,.F.,(4,4),(1.64962714143743E-19,0.0035332146375198),.UNSPECIFIED.);
#14=B_SPLINE_CURVE_WITH_KNOTS('',3,(#622,#623,#624,#625),.UNSPECIFIED.,
 .F.,.F.,(4,4),(0.,0.00353321463751966),.UNSPECIFIED.);
#15=CIRCLE('',#412,0.0254);
#16=CIRCLE('',#413,0.0254);
#17=CIRCLE('',#416,0.00952619808172143);
#18=CIRCLE('',#417,0.00952619808172147);
#19=CIRCLE('',#420,0.0254);
#20=CIRCLE('',#421,0.0254);
#21=CIRCLE('',#424,0.00508);
#22=CIRCLE('',#425,0.00508);
#23=CIRCLE('',#428,0.00254);
#24=CIRCLE('',#429,0.00254);
#25=CIRCLE('',#431,0.01016);
#26=CIRCLE('',#434,0.00762);
#27=CIRCLE('',#435,0.00762);
#28=CIRCLE('',#437,0.00254);
#29=CIRCLE('',#438,0.00254);
#30=CYLINDRICAL_SURFACE('',#411,0.0254);
#31=CYLINDRICAL_SURFACE('',#415,0.00952619808172143);
#32=CYLINDRICAL_SURFACE('',#419,0.0254);
#33=CYLINDRICAL_SURFACE('',#423,0.00508);
#34=CYLINDRICAL_SURFACE('',#427,0.00254);
#35=CYLINDRICAL_SURFACE('',#433,0.00762);
#36=CYLINDRICAL_SURFACE('',#436,0.00254);
#37=ORIENTED_EDGE('',*,*,#139,.F.);
#38=ORIENTED_EDGE('',*,*,#140,.T.);
#39=ORIENTED_EDGE('',*,*,#141,.T.);
#40=ORIENTED_EDGE('',*,*,#142,.F.);
#41=ORIENTED_EDGE('',*,*,#143,.F.);
#42=ORIENTED_EDGE('',*,*,#144,.T.);
#43=ORIENTED_EDGE('',*,*,#139,.T.);
#44=ORIENTED_EDGE('',*,*,#145,.F.);
#45=ORIENTED_EDGE('',*,*,#146,.F.);
#46=ORIENTED_EDGE('',*,*,#147,.T.);
#47=ORIENTED_EDGE('',*,*,#143,.T.);
#48=ORIENTED_EDGE('',*,*,#148,.F.);
#49=ORIENTED_EDGE('',*,*,#149,.F.);
#50=ORIENTED_EDGE('',*,*,#150,.T.);
#51=ORIENTED_EDGE('',*,*,#146,.T.);
#52=ORIENTED_EDGE('',*,*,#151,.F.);
#53=ORIENTED_EDGE('',*,*,#152,.F.);
#54=ORIENTED_EDGE('',*,*,#153,.T.);
#55=ORIENTED_EDGE('',*,*,#149,.T.);
#56=ORIENTED_EDGE('',*,*,#154,.F.);
#57=ORIENTED_EDGE('',*,*,#141,.F.);
#58=ORIENTED_EDGE('',*,*,#155,.T.);
#59=ORIENTED_EDGE('',*,*,#152,.T.);
#60=ORIENTED_EDGE('',*,*,#156,.F.);
#61=ORIENTED_EDGE('',*,*,#157,.F.);
#62=ORIENTED_EDGE('',*,*,#158,.F.);
#63=ORIENTED_EDGE('',*,*,#159,.T.);
#64=ORIENTED_EDGE('',*,*,#160,.T.);
#65=ORIENTED_EDGE('',*,*,#161,.F.);
#66=ORIENTED_EDGE('',*,*,#162,.F.);
#67=ORIENTED_EDGE('',*,*,#163,.T.);
#68=ORIENTED_EDGE('',*,*,#164,.T.);
#69=ORIENTED_EDGE('',*,*,#158,.T.);
#70=ORIENTED_EDGE('',*,*,#165,.T.);
#71=ORIENTED_EDGE('',*,*,#166,.F.);
#72=ORIENTED_EDGE('',*,*,#167,.T.);
#73=ORIENTED_EDGE('',*,*,#162,.T.);
#74=ORIENTED_EDGE('',*,*,#168,.T.);
#75=ORIENTED_EDGE('',*,*,#169,.F.);
#76=ORIENTED_EDGE('',*,*,#170,.F.);
#77=ORIENTED_EDGE('',*,*,#171,.T.);
#78=ORIENTED_EDGE('',*,*,#166,.T.);
#79=ORIENTED_EDGE('',*,*,#172,.T.);
#80=ORIENTED_EDGE('',*,*,#173,.F.);
#81=ORIENTED_EDGE('',*,*,#174,.F.);
#82=ORIENTED_EDGE('',*,*,#169,.T.);
#83=ORIENTED_EDGE('',*,*,#175,.T.);
#84=ORIENTED_EDGE('',*,*,#176,.F.);
#85=ORIENTED_EDGE('',*,*,#177,.F.);
#86=ORIENTED_EDGE('',*,*,#173,.T.);
#87=ORIENTED_EDGE('',*,*,#178,.T.);
#88=ORIENTED_EDGE('',*,*,#179,.F.);
#89=ORIENTED_EDGE('',*,*,#180,.F.);
#90=ORIENTED_EDGE('',*,*,#176,.T.);
#91=ORIENTED_EDGE('',*,*,#181,.F.);
#92=ORIENTED_EDGE('',*,*,#160,.F.);
#93=ORIENTED_EDGE('',*,*,#182,.T.);
#94=ORIENTED_EDGE('',*,*,#179,.T.);
#95=ORIENTED_EDGE('',*,*,#183,.T.);
#96=ORIENTED_EDGE('',*,*,#184,.F.);
#97=ORIENTED_EDGE('',*,*,#164,.F.);
#98=ORIENTED_EDGE('',*,*,#185,.T.);
#99=ORIENTED_EDGE('',*,*,#170,.T.);
#100=ORIENTED_EDGE('',*,*,#174,.T.);
#101=ORIENTED_EDGE('',*,*,#177,.T.);
#102=ORIENTED_EDGE('',*,*,#180,.T.);
#103=ORIENTED_EDGE('',*,*,#182,.F.);
#104=ORIENTED_EDGE('',*,*,#159,.F.);
#105=ORIENTED_EDGE('',*,*,#183,.F.);
#106=ORIENTED_EDGE('',*,*,#157,.T.);
#107=ORIENTED_EDGE('',*,*,#181,.T.);
#108=ORIENTED_EDGE('',*,*,#178,.F.);
#109=ORIENTED_EDGE('',*,*,#175,.F.);
#110=ORIENTED_EDGE('',*,*,#172,.F.);
#111=ORIENTED_EDGE('',*,*,#168,.F.);
#112=ORIENTED_EDGE('',*,*,#165,.F.);
#113=ORIENTED_EDGE('',*,*,#161,.T.);
#114=ORIENTED_EDGE('',*,*,#142,.T.);
#115=ORIENTED_EDGE('',*,*,#156,.T.);
#116=ORIENTED_EDGE('',*,*,#154,.T.);
#117=ORIENTED_EDGE('',*,*,#151,.T.);
#118=ORIENTED_EDGE('',*,*,#148,.T.);
#119=ORIENTED_EDGE('',*,*,#145,.T.);
#120=ORIENTED_EDGE('',*,*,#184,.T.);
#121=ORIENTED_EDGE('',*,*,#186,.T.);
#122=ORIENTED_EDGE('',*,*,#187,.F.);
#123=ORIENTED_EDGE('',*,*,#188,.T.);
#124=ORIENTED_EDGE('',*,*,#189,.F.);
#125=ORIENTED_EDGE('',*,*,#187,.T.);
#126=ORIENTED_EDGE('',*,*,#188,.F.);
#127=ORIENTED_EDGE('',*,*,#140,.F.);
#128=ORIENTED_EDGE('',*,*,#144,.F.);
#129=ORIENTED_EDGE('',*,*,#147,.F.);
#130=ORIENTED_EDGE('',*,*,#150,.F.);
#131=ORIENTED_EDGE('',*,*,#153,.F.);
#132=ORIENTED_EDGE('',*,*,#155,.F.);
#133=ORIENTED_EDGE('',*,*,#189,.T.);
#134=ORIENTED_EDGE('',*,*,#186,.F.);
#135=ORIENTED_EDGE('',*,*,#171,.F.);
#136=ORIENTED_EDGE('',*,*,#185,.F.);
#137=ORIENTED_EDGE('',*,*,#163,.F.);
#138=ORIENTED_EDGE('',*,*,#167,.F.);
#139=EDGE_CURVE('',#190,#191,#226,.T.);
#140=EDGE_CURVE('',#190,#192,#227,.T.);
#141=EDGE_CURVE('',#192,#193,#228,.T.);
#142=EDGE_CURVE('',#191,#193,#229,.T.);
#143=EDGE_CURVE('',#194,#195,#230,.T.);
#144=EDGE_CURVE('',#194,#190,#231,.T.);
#145=EDGE_CURVE('',#195,#191,#232,.T.);
#146=EDGE_CURVE('',#196,#197,#233,.T.);
#147=EDGE_CURVE('',#196,#194,#234,.T.);
#148=EDGE_CURVE('',#197,#195,#235,.T.);
#149=EDGE_CURVE('',#198,#199,#236,.T.);
#150=EDGE_CURVE('',#198,#196,#237,.T.);
#151=EDGE_CURVE('',#199,#197,#238,.T.);
#152=EDGE_CURVE('',#200,#201,#239,.T.);
#153=EDGE_CURVE('',#200,#198,#240,.T.);
#154=EDGE_CURVE('',#201,#199,#241,.T.);
#155=EDGE_CURVE('',#192,#200,#242,.T.);
#156=EDGE_CURVE('',#193,#201,#243,.T.);
#157=EDGE_CURVE('',#202,#203,#15,.T.);
#158=EDGE_CURVE('',#204,#202,#244,.T.);
#159=EDGE_CURVE('',#204,#205,#16,.T.);
#160=EDGE_CURVE('',#205,#203,#245,.T.);
#161=EDGE_CURVE('',#206,#202,#246,.T.);
#162=EDGE_CURVE('',#207,#206,#247,.T.);
#163=EDGE_CURVE('',#207,#208,#13,.T.);
#164=EDGE_CURVE('',#208,#204,#248,.T.);
#165=EDGE_CURVE('',#206,#209,#17,.T.);
#166=EDGE_CURVE('',#210,#209,#249,.T.);
#167=EDGE_CURVE('',#210,#207,#18,.F.);
#168=EDGE_CURVE('',#209,#211,#250,.T.);
#169=EDGE_CURVE('',#212,#211,#251,.T.);
#170=EDGE_CURVE('',#213,#212,#252,.T.);
#171=EDGE_CURVE('',#213,#210,#14,.T.);
#172=EDGE_CURVE('',#211,#214,#19,.T.);
#173=EDGE_CURVE('',#215,#214,#253,.T.);
#174=EDGE_CURVE('',#212,#215,#20,.T.);
#175=EDGE_CURVE('',#214,#216,#254,.T.);
#176=EDGE_CURVE('',#217,#216,#255,.T.);
#177=EDGE_CURVE('',#215,#217,#256,.T.);
#178=EDGE_CURVE('',#216,#218,#21,.T.);
#179=EDGE_CURVE('',#219,#218,#257,.T.);
#180=EDGE_CURVE('',#217,#219,#22,.T.);
#181=EDGE_CURVE('',#203,#218,#258,.T.);
#182=EDGE_CURVE('',#205,#219,#259,.T.);
#183=EDGE_CURVE('',#220,#220,#23,.T.);
#184=EDGE_CURVE('',#221,#221,#24,.T.);
#185=EDGE_CURVE('',#208,#213,#25,.F.);
#186=EDGE_CURVE('',#222,#222,#26,.T.);
#187=EDGE_CURVE('',#223,#223,#27,.T.);
#188=EDGE_CURVE('',#224,#224,#28,.T.);
#189=EDGE_CURVE('',#225,#225,#29,.T.);
#190=VERTEX_POINT('',#555);
#191=VERTEX_POINT('',#556);
#192=VERTEX_POINT('',#558);
#193=VERTEX_POINT('',#560);
#194=VERTEX_POINT('',#564);
#195=VERTEX_POINT('',#565);
#196=VERTEX_POINT('',#570);
#197=VERTEX_POINT('',#571);
#198=VERTEX_POINT('',#576);
#199=VERTEX_POINT('',#577);
#200=VERTEX_POINT('',#582);
#201=VERTEX_POINT('',#583);
#202=VERTEX_POINT('',#591);
#203=VERTEX_POINT('',#592);
#204=VERTEX_POINT('',#594);
#205=VERTEX_POINT('',#596);
#206=VERTEX_POINT('',#600);
#207=VERTEX_POINT('',#602);
#208=VERTEX_POINT('',#607);
#209=VERTEX_POINT('',#611);
#210=VERTEX_POINT('',#613);
#211=VERTEX_POINT('',#617);
#212=VERTEX_POINT('',#619);
#213=VERTEX_POINT('',#621);
#214=VERTEX_POINT('',#628);
#215=VERTEX_POINT('',#630);
#216=VERTEX_POINT('',#634);
#217=VERTEX_POINT('',#636);
#218=VERTEX_POINT('',#640);
#219=VERTEX_POINT('',#642);
#220=VERTEX_POINT('',#649);
#221=VERTEX_POINT('',#651);
#222=VERTEX_POINT('',#657);
#223=VERTEX_POINT('',#659);
#224=VERTEX_POINT('',#662);
#225=VERTEX_POINT('',#664);
#226=LINE('',#554,#260);
#227=LINE('',#557,#261);
#228=LINE('',#559,#262);
#229=LINE('',#561,#263);
#230=LINE('',#563,#264);
#231=LINE('',#566,#265);
#232=LINE('',#567,#266);
#233=LINE('',#569,#267);
#234=LINE('',#572,#268);
#235=LINE('',#573,#269);
#236=LINE('',#575,#270);
#237=LINE('',#578,#271);
#238=LINE('',#579,#272);
#239=LINE('',#581,#273);
#240=LINE('',#584,#274);
#241=LINE('',#585,#275);
#242=LINE('',#587,#276);
#243=LINE('',#588,#277);
#244=LINE('',#593,#278);
#245=LINE('',#597,#279);
#246=LINE('',#599,#280);
#247=LINE('',#601,#281);
#248=LINE('',#608,#282);
#249=LINE('',#612,#283);
#250=LINE('',#616,#284);
#251=LINE('',#618,#285);
#252=LINE('',#620,#286);
#253=LINE('',#629,#287);
#254=LINE('',#633,#288);
#255=LINE('',#635,#289);
#256=LINE('',#637,#290);
#257=LINE('',#641,#291);
#258=LINE('',#645,#292);
#259=LINE('',#646,#293);
#260=VECTOR('',#446,1.);
#261=VECTOR('',#447,1.);
#262=VECTOR('',#448,1.);
#263=VECTOR('',#449,1.);
#264=VECTOR('',#452,1.);
#265=VECTOR('',#453,1.);
#266=VECTOR('',#454,1.);
#267=VECTOR('',#457,1.);
#268=VECTOR('',#458,1.);
#269=VECTOR('',#459,1.);
#270=VECTOR('',#462,1.);
#271=VECTOR('',#463,1.);
#272=VECTOR('',#464,1.);
#273=VECTOR('',#467,1.);
#274=VECTOR('',#468,1.);
#275=VECTOR('',#469,1.);
#276=VECTOR('',#472,1.);
#277=VECTOR('',#473,1.);
#278=VECTOR('',#478,1.);
#279=VECTOR('',#481,1.);
#280=VECTOR('',#484,1.);
#281=VECTOR('',#485,1.);
#282=VECTOR('',#486,1.);
#283=VECTOR('',#491,1.);
#284=VECTOR('',#496,1.);
#285=VECTOR('',#497,1.);
#286=VECTOR('',#498,1.);
#287=VECTOR('',#503,1.);
#288=VECTOR('',#508,1.);
#289=VECTOR('',#509,1.);
#290=VECTOR('',#510,1.);
#291=VECTOR('',#515,1.);
#292=VECTOR('',#520,1.);
#293=VECTOR('',#521,1.);
#294=EDGE_LOOP('',(#37,#38,#39,#40));
#295=EDGE_LOOP('',(#41,#42,#43,#44));
#296=EDGE_LOOP('',(#45,#46,#47,#48));
#297=EDGE_LOOP('',(#49,#50,#51,#52));
#298=EDGE_LOOP('',(#53,#54,#55,#56));
#299=EDGE_LOOP('',(#57,#58,#59,#60));
#300=EDGE_LOOP('',(#61,#62,#63,#64));
#301=EDGE_LOOP('',(#65,#66,#67,#68,#69));
#302=EDGE_LOOP('',(#70,#71,#72,#73));
#303=EDGE_LOOP('',(#74,#75,#76,#77,#78));
#304=EDGE_LOOP('',(#79,#80,#81,#82));
#305=EDGE_LOOP('',(#83,#84,#85,#86));
#306=EDGE_LOOP('',(#87,#88,#89,#90));
#307=EDGE_LOOP('',(#91,#92,#93,#94));
#308=EDGE_LOOP('',(#95));
#309=EDGE_LOOP('',(#96));
#310=EDGE_LOOP('',(#97,#98,#99,#100,#101,#102,#103,#104));
#311=EDGE_LOOP('',(#105));
#312=EDGE_LOOP('',(#106,#107,#108,#109,#110,#111,#112,#113));
#313=EDGE_LOOP('',(#114,#115,#116,#117,#118,#119));
#314=EDGE_LOOP('',(#120));
#315=EDGE_LOOP('',(#121));
#316=EDGE_LOOP('',(#122));
#317=EDGE_LOOP('',(#123));
#318=EDGE_LOOP('',(#124));
#319=EDGE_LOOP('',(#125));
#320=EDGE_LOOP('',(#126));
#321=EDGE_LOOP('',(#127,#128,#129,#130,#131,#132));
#322=EDGE_LOOP('',(#133));
#323=EDGE_LOOP('',(#134));
#324=EDGE_LOOP('',(#135,#136,#137,#138));
#325=FACE_BOUND('',#294,.T.);
#326=FACE_BOUND('',#295,.T.);
#327=FACE_BOUND('',#296,.T.);
#328=FACE_BOUND('',#297,.T.);
#329=FACE_BOUND('',#298,.T.);
#330=FACE_BOUND('',#299,.T.);
#331=FACE_BOUND('',#300,.T.);
#332=FACE_BOUND('',#301,.T.);
#333=FACE_BOUND('',#302,.T.);
#334=FACE_BOUND('',#303,.T.);
#335=FACE_BOUND('',#304,.T.);
#336=FACE_BOUND('',#305,.T.);
#337=FACE_BOUND('',#306,.T.);
#338=FACE_BOUND('',#307,.T.);
#339=FACE_BOUND('',#308,.T.);
#340=FACE_BOUND('',#309,.T.);
#341=FACE_BOUND('',#310,.T.);
#342=FACE_BOUND('',#311,.T.);
#343=FACE_BOUND('',#312,.T.);
#344=FACE_BOUND('',#313,.T.);
#345=FACE_BOUND('',#314,.T.);
#346=FACE_BOUND('',#315,.T.);
#347=FACE_BOUND('',#316,.T.);
#348=FACE_BOUND('',#317,.T.);
#349=FACE_BOUND('',#318,.T.);
#350=FACE_BOUND('',#319,.T.);
#351=FACE_BOUND('',#320,.T.);
#352=FACE_BOUND('',#321,.T.);
#353=FACE_BOUND('',#322,.T.);
#354=FACE_BOUND('',#323,.T.);
#355=FACE_BOUND('',#324,.T.);
#356=PLANE('',#405);
#357=PLANE('',#406);
#358=PLANE('',#407);
#359=PLANE('',#408);
#360=PLANE('',#409);
#361=PLANE('',#410);
#362=PLANE('',#414);
#363=PLANE('',#418);
#364=PLANE('',#422);
#365=PLANE('',#426);
#366=PLANE('',#430);
#367=PLANE('',#432);
#368=PLANE('',#439);
#369=PLANE('',#440);
#370=ADVANCED_FACE('',(#325),#356,.T.);
#371=ADVANCED_FACE('',(#326),#357,.T.);
#372=ADVANCED_FACE('',(#327),#358,.T.);
#373=ADVANCED_FACE('',(#328),#359,.T.);
#374=ADVANCED_FACE('',(#329),#360,.T.);
#375=ADVANCED_FACE('',(#330),#361,.T.);
#376=ADVANCED_FACE('',(#331),#30,.F.);
#377=ADVANCED_FACE('',(#332),#362,.T.);
#378=ADVANCED_FACE('',(#333),#31,.T.);
#379=ADVANCED_FACE('',(#334),#363,.F.);
#380=ADVANCED_FACE('',(#335),#32,.T.);
#381=ADVANCED_FACE('',(#336),#364,.F.);
#382=ADVANCED_FACE('',(#337),#33,.T.);
#383=ADVANCED_FACE('',(#338),#365,.T.);
#384=ADVANCED_FACE('',(#339,#340),#34,.F.);
#385=ADVANCED_FACE('',(#341,#342),#366,.T.);
#386=ADVANCED_FACE('',(#343,#344,#345),#367,.F.);
#387=ADVANCED_FACE('',(#346,#347),#35,.T.);
#388=ADVANCED_FACE('',(#348,#349),#36,.F.);
#389=ADVANCED_FACE('',(#350,#351),#368,.T.);
#390=ADVANCED_FACE('',(#352,#353),#369,.F.);
#391=ADVANCED_FACE('',(#354,#355),#12,.F.);
#392=CLOSED_SHELL('',(#370,#371,#372,#373,#374,#375,#376,#377,#378,#379,
#380,#381,#382,#383,#384,#385,#386,#387,#388,#389,#390,#391));
#393=STYLED_ITEM('',(#394),#401);
#394=PRESENTATION_STYLE_ASSIGNMENT((#395));
#395=SURFACE_STYLE_USAGE(.BOTH.,#396);
#396=SURFACE_SIDE_STYLE('',(#397));
#397=SURFACE_STYLE_FILL_AREA(#398);
#398=FILL_AREA_STYLE('',(#399));
#399=FILL_AREA_STYLE_COLOUR('',#400);
#400=COLOUR_RGB('',0.223529411764706,0.223529411764706,0.223529411764706);
#401=MANIFOLD_SOLID_BREP('Pressing Arm',#392);
#402=SHAPE_DEFINITION_REPRESENTATION(#674,#403);
#403=SHAPE_REPRESENTATION('Pressing Arm',(#404),#669);
#404=AXIS2_PLACEMENT_3D('',#552,#442,#443);
#405=AXIS2_PLACEMENT_3D('',#553,#444,#445);
#406=AXIS2_PLACEMENT_3D('',#562,#450,#451);
#407=AXIS2_PLACEMENT_3D('',#568,#455,#456);
#408=AXIS2_PLACEMENT_3D('',#574,#460,#461);
#409=AXIS2_PLACEMENT_3D('',#580,#465,#466);
#410=AXIS2_PLACEMENT_3D('',#586,#470,#471);
#411=AXIS2_PLACEMENT_3D('',#589,#474,#475);
#412=AXIS2_PLACEMENT_3D('',#590,#476,#477);
#413=AXIS2_PLACEMENT_3D('',#595,#479,#480);
#414=AXIS2_PLACEMENT_3D('',#598,#482,#483);
#415=AXIS2_PLACEMENT_3D('',#609,#487,#488);
#416=AXIS2_PLACEMENT_3D('',#610,#489,#490);
#417=AXIS2_PLACEMENT_3D('',#614,#492,#493);
#418=AXIS2_PLACEMENT_3D('',#615,#494,#495);
#419=AXIS2_PLACEMENT_3D('',#626,#499,#500);
#420=AXIS2_PLACEMENT_3D('',#627,#501,#502);
#421=AXIS2_PLACEMENT_3D('',#631,#504,#505);
#422=AXIS2_PLACEMENT_3D('',#632,#506,#507);
#423=AXIS2_PLACEMENT_3D('',#638,#511,#512);
#424=AXIS2_PLACEMENT_3D('',#639,#513,#514);
#425=AXIS2_PLACEMENT_3D('',#643,#516,#517);
#426=AXIS2_PLACEMENT_3D('',#644,#518,#519);
#427=AXIS2_PLACEMENT_3D('',#647,#522,#523);
#428=AXIS2_PLACEMENT_3D('',#648,#524,#525);
#429=AXIS2_PLACEMENT_3D('',#650,#526,#527);
#430=AXIS2_PLACEMENT_3D('',#652,#528,#529);
#431=AXIS2_PLACEMENT_3D('',#653,#530,#531);
#432=AXIS2_PLACEMENT_3D('',#654,#532,#533);
#433=AXIS2_PLACEMENT_3D('',#655,#534,#535);
#434=AXIS2_PLACEMENT_3D('',#656,#536,#537);
#435=AXIS2_PLACEMENT_3D('',#658,#538,#539);
#436=AXIS2_PLACEMENT_3D('',#660,#540,#541);
#437=AXIS2_PLACEMENT_3D('',#661,#542,#543);
#438=AXIS2_PLACEMENT_3D('',#663,#544,#545);
#439=AXIS2_PLACEMENT_3D('',#665,#546,#547);
#440=AXIS2_PLACEMENT_3D('',#666,#548,#549);
#441=AXIS2_PLACEMENT_3D('',#667,#550,#551);
#442=DIRECTION('',(0.,0.,1.));
#443=DIRECTION('',(1.,0.,0.));
#444=DIRECTION('',(0.866025403784438,0.,0.5));
#445=DIRECTION('',(0.5,0.,-0.866025403784438));
#446=DIRECTION('',(0.,1.,0.));
#447=DIRECTION('',(0.5,0.,-0.866025403784438));
#448=DIRECTION('',(0.,1.,0.));
#449=DIRECTION('',(0.5,0.,-0.866025403784438));
#450=DIRECTION('',(0.866025403784439,0.,-0.5));
#451=DIRECTION('',(-0.5,0.,-0.866025403784439));
#452=DIRECTION('',(0.,1.,0.));
#453=DIRECTION('',(-0.5,0.,-0.866025403784439));
#454=DIRECTION('',(-0.5,0.,-0.866025403784439));
#455=DIRECTION('',(0.,0.,-1.));
#456=DIRECTION('',(-1.,0.,0.));
#457=DIRECTION('',(0.,1.,0.));
#458=DIRECTION('',(-1.,0.,0.));
#459=DIRECTION('',(-1.,0.,0.));
#460=DIRECTION('',(-0.866025403784438,0.,-0.5));
#461=DIRECTION('',(-0.5,0.,0.866025403784438));
#462=DIRECTION('',(0.,1.,0.));
#463=DIRECTION('',(-0.5,0.,0.866025403784438));
#464=DIRECTION('',(-0.5,0.,0.866025403784438));
#465=DIRECTION('',(-0.866025403784439,0.,0.5));
#466=DIRECTION('',(0.5,0.,0.866025403784439));
#467=DIRECTION('',(0.,1.,0.));
#468=DIRECTION('',(0.5,0.,0.866025403784439));
#469=DIRECTION('',(0.5,0.,0.866025403784439));
#470=DIRECTION('',(-6.22592042576527E-16,0.,1.));
#471=DIRECTION('',(1.,0.,6.22592042576527E-16));
#472=DIRECTION('',(1.,0.,6.22592042576527E-16));
#473=DIRECTION('',(1.,0.,6.22592042576527E-16));
#474=DIRECTION('',(0.,1.,0.));
#475=DIRECTION('',(0.,0.,1.));
#476=DIRECTION('',(0.,-1.,0.));
#477=DIRECTION('',(0.,0.,-1.));
#478=DIRECTION('',(0.,1.,0.));
#479=DIRECTION('',(0.,-1.,0.));
#480=DIRECTION('',(0.,0.,-1.));
#481=DIRECTION('',(0.,1.,0.));
#482=DIRECTION('',(-0.999874232961444,0.,-0.0158593272166178));
#483=DIRECTION('',(-0.0158593272166178,0.,0.999874232961444));
#484=DIRECTION('',(-0.0158593272166178,0.,0.999874232961444));
#485=DIRECTION('',(0.,1.,0.));
#486=DIRECTION('',(-0.0158593272166178,0.,0.999874232961444));
#487=DIRECTION('',(0.,1.,0.));
#488=DIRECTION('',(0.,0.,1.));
#489=DIRECTION('',(0.,-1.,0.));
#490=DIRECTION('',(0.,0.,-1.));
#491=DIRECTION('',(0.,1.,0.));
#492=DIRECTION('',(0.,-1.,0.));
#493=DIRECTION('',(0.,0.,-1.));
#494=DIRECTION('',(-0.999874232961444,0.,0.0158593272166176));
#495=DIRECTION('',(0.0158593272166176,0.,0.999874232961444));
#496=DIRECTION('',(0.0158593272166176,0.,0.999874232961444));
#497=DIRECTION('',(0.,1.,0.));
#498=DIRECTION('',(0.0158593272166176,0.,0.999874232961444));
#499=DIRECTION('',(0.,1.,0.));
#500=DIRECTION('',(0.,0.,1.));
#501=DIRECTION('',(0.,-1.,0.));
#502=DIRECTION('',(0.,0.,-1.));
#503=DIRECTION('',(0.,1.,0.));
#504=DIRECTION('',(0.,-1.,0.));
#505=DIRECTION('',(0.,0.,-1.));
#506=DIRECTION('',(-0.780036741671415,0.,-0.62573371464437));
#507=DIRECTION('',(-0.62573371464437,0.,0.780036741671415));
#508=DIRECTION('',(-0.62573371464437,0.,0.780036741671415));
#509=DIRECTION('',(0.,1.,0.));
#510=DIRECTION('',(-0.62573371464437,0.,0.780036741671415));
#511=DIRECTION('',(0.,1.,0.));
#512=DIRECTION('',(0.,0.,1.));
#513=DIRECTION('',(0.,-1.,0.));
#514=DIRECTION('',(0.,0.,-1.));
#515=DIRECTION('',(0.,1.,0.));
#516=DIRECTION('',(0.,-1.,0.));
#517=DIRECTION('',(0.,0.,-1.));
#518=DIRECTION('',(-0.934150229060163,0.,-0.356880021221201));
#519=DIRECTION('',(-0.356880021221201,0.,0.934150229060163));
#520=DIRECTION('',(-0.356880021221201,0.,0.934150229060163));
#521=DIRECTION('',(-0.356880021221201,0.,0.934150229060163));
#522=DIRECTION('',(0.,1.,0.));
#523=DIRECTION('',(0.,0.,1.));
#524=DIRECTION('',(0.,-1.,0.));
#525=DIRECTION('',(0.,0.,-1.));
#526=DIRECTION('',(0.,-1.,0.));
#527=DIRECTION('',(0.,0.,-1.));
#528=DIRECTION('',(0.,-1.,0.));
#529=DIRECTION('',(1.,0.,0.));
#530=DIRECTION('',(0.,-1.,0.));
#531=DIRECTION('',(0.,0.,-1.));
#532=DIRECTION('',(0.,-1.,0.));
#533=DIRECTION('',(1.,0.,0.));
#534=DIRECTION('',(0.,1.,0.));
#535=DIRECTION('',(0.,0.,1.));
#536=DIRECTION('',(0.,-1.,0.));
#537=DIRECTION('',(0.,0.,-1.));
#538=DIRECTION('',(0.,-1.,0.));
#539=DIRECTION('',(1.,0.,0.));
#540=DIRECTION('',(0.,1.,0.));
#541=DIRECTION('',(0.,0.,1.));
#542=DIRECTION('',(0.,-1.,0.));
#543=DIRECTION('',(1.,0.,0.));
#544=DIRECTION('',(0.,-1.,0.));
#545=DIRECTION('',(1.,0.,0.));
#546=DIRECTION('',(0.,-1.,0.));
#547=DIRECTION('',(0.,0.,-1.));
#548=DIRECTION('',(0.,-1.,0.));
#549=DIRECTION('',(0.,0.,-1.));
#550=DIRECTION('',(0.,-1.,0.));
#551=DIRECTION('',(0.,0.,-1.));
#552=CARTESIAN_POINT('',(0.,0.,0.));
#553=CARTESIAN_POINT('',(-0.0041794385986637,-0.00381,-0.00226192090749167));
#554=CARTESIAN_POINT('',(-0.00557258479821827,-0.00381,0.000151079092508332));
#555=CARTESIAN_POINT('',(-0.00557258479821827,0.,0.000151079092508332));
#556=CARTESIAN_POINT('',(-0.00557258479821827,0.00381,0.000151079092508332));
#557=CARTESIAN_POINT('',(-0.0041794385986637,0.,-0.00226192090749167));
#558=CARTESIAN_POINT('',(-0.00278629239910913,0.,-0.00467492090749167));
#559=CARTESIAN_POINT('',(-0.00278629239910913,-0.00381,-0.00467492090749167));
#560=CARTESIAN_POINT('',(-0.00278629239910913,0.00381,-0.00467492090749167));
#561=CARTESIAN_POINT('',(-0.0041794385986637,0.00381,-0.00226192090749167));
#562=CARTESIAN_POINT('',(-0.00417943859866371,-0.00381,0.00256407909250834));
#563=CARTESIAN_POINT('',(-0.00278629239910914,-0.00381,0.00497707909250833));
#564=CARTESIAN_POINT('',(-0.00278629239910914,0.,0.00497707909250834));
#565=CARTESIAN_POINT('',(-0.00278629239910914,0.00381,0.00497707909250833));
#566=CARTESIAN_POINT('',(-0.00417943859866371,0.,0.00256407909250834));
#567=CARTESIAN_POINT('',(-0.00417943859866371,0.00381,0.00256407909250834));
#568=CARTESIAN_POINT('',(-2.16840434497101E-18,-0.00381,0.00497707909250834));
#569=CARTESIAN_POINT('',(0.00278629239910913,-0.00381,0.00497707909250834));
#570=CARTESIAN_POINT('',(0.00278629239910913,0.,0.00497707909250834));
#571=CARTESIAN_POINT('',(0.00278629239910913,0.00381,0.00497707909250834));
#572=CARTESIAN_POINT('',(-2.16840434497101E-18,0.,0.00497707909250834));
#573=CARTESIAN_POINT('',(-2.16840434497101E-18,0.00381,0.00497707909250834));
#574=CARTESIAN_POINT('',(0.0041794385986637,-0.00381,0.00256407909250834));
#575=CARTESIAN_POINT('',(0.00557258479821827,-0.00381,0.00015107909250834));
#576=CARTESIAN_POINT('',(0.00557258479821827,0.,0.000151079092508339));
#577=CARTESIAN_POINT('',(0.00557258479821827,0.00381,0.00015107909250834));
#578=CARTESIAN_POINT('',(0.0041794385986637,0.,0.00256407909250834));
#579=CARTESIAN_POINT('',(0.0041794385986637,0.00381,0.00256407909250834));
#580=CARTESIAN_POINT('',(0.00417943859866371,-0.00381,-0.00226192090749166));
#581=CARTESIAN_POINT('',(0.00278629239910913,-0.00381,-0.00467492090749166));
#582=CARTESIAN_POINT('',(0.00278629239910913,0.,-0.00467492090749166));
#583=CARTESIAN_POINT('',(0.00278629239910913,0.00381,-0.00467492090749166));
#584=CARTESIAN_POINT('',(0.00417943859866371,0.,-0.00226192090749166));
#585=CARTESIAN_POINT('',(0.00417943859866371,0.00381,-0.00226192090749166));
#586=CARTESIAN_POINT('',(2.16840434497101E-18,-0.00381,-0.00467492090749167));
#587=CARTESIAN_POINT('',(2.16840434497101E-18,0.,-0.00467492090749167));
#588=CARTESIAN_POINT('',(2.16840434497101E-18,0.00381,-0.00467492090749167));
#589=CARTESIAN_POINT('',(-0.0370097762642026,-0.00381,0.131236310144715));
#590=CARTESIAN_POINT('',(-0.0370097762642026,0.00381,0.131236310144715));
#591=CARTESIAN_POINT('',(-0.011612970746982,0.00381,0.131639137056017));
#592=CARTESIAN_POINT('',(-0.0132823604460745,0.00381,0.140301062683733));
#593=CARTESIAN_POINT('',(-0.011612970746982,-0.00381,0.131639137056017));
#594=CARTESIAN_POINT('',(-0.011612970746982,-0.00381,0.131639137056017));
#595=CARTESIAN_POINT('',(-0.0370097762642026,-0.00381,0.131236310144715));
#596=CARTESIAN_POINT('',(-0.0132823604460745,-0.00381,0.140301062683733));
#597=CARTESIAN_POINT('',(-0.0132823604460745,-0.00381,0.140301062683733));
#598=CARTESIAN_POINT('',(-0.010568985373491,-0.00381,0.0658195685280084));
#599=CARTESIAN_POINT('',(-0.010568985373491,0.00381,0.0658195685280084));
#600=CARTESIAN_POINT('',(-0.009525,0.00381,-2.84603070277445E-18));
#601=CARTESIAN_POINT('',(-0.009525,-0.00381,-2.84603070277445E-18));
#602=CARTESIAN_POINT('',(-0.009525,-0.00389034654303115,-2.84603070277445E-18));
#603=CARTESIAN_POINT('',(-0.00952499999999403,-0.00389034654303115,9.1695536281445E-17));
#604=CARTESIAN_POINT('',(-0.00954368296700785,-0.00389034654303115,0.00117789468980835));
#605=CARTESIAN_POINT('',(-0.00956233694981873,-0.00381,0.0023539620282262));
#606=CARTESIAN_POINT('',(-0.00958101991683255,-0.00381,0.00353185671803446));
#607=CARTESIAN_POINT('',(-0.00958101991683255,-0.00381,0.00353185671803446));
#608=CARTESIAN_POINT('',(-0.010568985373491,-0.00381,0.0658195685280084));
#609=CARTESIAN_POINT('',(5.9613772251943E-15,-0.00381,0.000151079092508336));
#610=CARTESIAN_POINT('',(5.9613772251943E-15,0.00381,0.000151079092508336));
#611=CARTESIAN_POINT('',(0.009525,0.00381,-2.77555756156289E-17));
#612=CARTESIAN_POINT('',(0.009525,-0.00381,-2.77555756156289E-17));
#613=CARTESIAN_POINT('',(0.009525,-0.0038903465430296,-2.77555756156289E-17));
#614=CARTESIAN_POINT('',(-9.69279525625675E-19,-0.0038903465430296,0.000151079092508335));
#615=CARTESIAN_POINT('',(0.0105318977892577,-0.00381,0.0634813281139488));
#616=CARTESIAN_POINT('',(0.0105318977892577,0.00381,0.0634813281139488));
#617=CARTESIAN_POINT('',(0.0115387955785151,0.00381,0.126962656227898));
#618=CARTESIAN_POINT('',(0.0115387955785151,-0.00381,0.126962656227898));
#619=CARTESIAN_POINT('',(0.0115387955785151,-0.00381,0.126962656227898));
#620=CARTESIAN_POINT('',(0.0105318977892577,-0.00381,0.0634813281139488));
#621=CARTESIAN_POINT('',(0.00958101991683259,-0.00381,0.00353185671803433));
#622=CARTESIAN_POINT('',(0.00958101991683259,-0.00381,0.00353185671803433));
#623=CARTESIAN_POINT('',(0.00956233694981877,-0.00381,0.00235396202822613));
#624=CARTESIAN_POINT('',(0.00954368296701382,-0.0038903465430296,0.00117789468980817));
#625=CARTESIAN_POINT('',(0.009525,-0.0038903465430296,-2.8216768031859E-17));
#626=CARTESIAN_POINT('',(-0.0138580099387053,-0.00381,0.1273654831392));
#627=CARTESIAN_POINT('',(-0.0138580099387053,0.00381,0.1273654831392));
#628=CARTESIAN_POINT('',(0.00595492329974846,0.00381,0.143259119491166));
#629=CARTESIAN_POINT('',(0.00595492329974846,-0.00381,0.143259119491166));
#630=CARTESIAN_POINT('',(0.00595492329974846,-0.00381,0.143259119491166));
#631=CARTESIAN_POINT('',(-0.0138580099387053,-0.00381,0.1273654831392));
#632=CARTESIAN_POINT('',(-0.0033550663893412,-0.00381,0.154864909385674));
#633=CARTESIAN_POINT('',(-0.0033550663893412,0.00381,0.154864909385674));
#634=CARTESIAN_POINT('',(-0.012665056078431,0.00381,0.166470699280181));
#635=CARTESIAN_POINT('',(-0.012665056078431,-0.00381,0.166470699280181));
#636=CARTESIAN_POINT('',(-0.012665056078431,-0.00381,0.166470699280181));
#637=CARTESIAN_POINT('',(-0.0033550663893412,-0.00381,0.154864909385674));
#638=CARTESIAN_POINT('',(-0.0166276427261218,-0.00381,0.163291972009788));
#639=CARTESIAN_POINT('',(-0.0166276427261218,0.00381,0.163291972009788));
#640=CARTESIAN_POINT('',(-0.0213731258897474,0.00381,0.161479021501984));
#641=CARTESIAN_POINT('',(-0.0213731258897474,-0.00381,0.161479021501984));
#642=CARTESIAN_POINT('',(-0.0213731258897474,-0.00381,0.161479021501984));
#643=CARTESIAN_POINT('',(-0.0166276427261218,-0.00381,0.163291972009788));
#644=CARTESIAN_POINT('',(-0.017327743167911,-0.00381,0.150890042092859));
#645=CARTESIAN_POINT('',(-0.017327743167911,0.00381,0.150890042092859));
#646=CARTESIAN_POINT('',(-0.017327743167911,-0.00381,0.150890042092859));
#647=CARTESIAN_POINT('',(5.20417042793042E-18,-0.00381,0.136117279092508));
#648=CARTESIAN_POINT('',(5.20417042793042E-18,-0.00381,0.136117279092508));
#649=CARTESIAN_POINT('',(5.20417042793042E-18,-0.00381,0.133577279092508));
#650=CARTESIAN_POINT('',(5.20417042793042E-18,0.00381,0.136117279092508));
#651=CARTESIAN_POINT('',(5.20417042793042E-18,0.00381,0.133577279092508));
#652=CARTESIAN_POINT('',(-0.00501182136306091,-0.00381,0.0794984265102873));
#653=CARTESIAN_POINT('',(-9.69279525625675E-19,-0.00381,0.000151079092508335));
#654=CARTESIAN_POINT('',(-0.00501182136306091,0.00381,0.0794984265102873));
#655=CARTESIAN_POINT('',(-9.69279525625675E-19,-0.02032,0.000151079092508335));
#656=CARTESIAN_POINT('',(-9.69279525625675E-19,-0.00635,0.000151079092508335));
#657=CARTESIAN_POINT('',(-9.69279525625675E-19,-0.00635,-0.00746892090749166));
#658=CARTESIAN_POINT('',(-9.69279525625675E-19,-0.02032,0.000151079092508335));
#659=CARTESIAN_POINT('',(0.00762,-0.02032,0.000151079092508335));
#660=CARTESIAN_POINT('',(-9.69279525625675E-19,-0.02032,0.000151079092508335));
#661=CARTESIAN_POINT('',(-9.69279525625675E-19,-0.02032,0.000151079092508335));
#662=CARTESIAN_POINT('',(0.00254,-0.02032,0.000151079092508335));
#663=CARTESIAN_POINT('',(-9.69279525625675E-19,0.,0.000151079092508335));
#664=CARTESIAN_POINT('',(0.00254,0.,0.000151079092508335));
#665=CARTESIAN_POINT('',(-9.69279525625675E-19,-0.02032,0.000151079092508335));
#666=CARTESIAN_POINT('',(-9.69279525625675E-19,0.,0.000151079092508335));
#667=CARTESIAN_POINT('',(-9.69279525625675E-19,-0.00635,0.000151079092508335));
#668=MECHANICAL_DESIGN_GEOMETRIC_PRESENTATION_REPRESENTATION('',(#393),
#669);
#669=(
GEOMETRIC_REPRESENTATION_CONTEXT(3)
GLOBAL_UNCERTAINTY_ASSIGNED_CONTEXT((#670))
GLOBAL_UNIT_ASSIGNED_CONTEXT((#673,#672,#671))
REPRESENTATION_CONTEXT('Pressing Arm','TOP_LEVEL_ASSEMBLY_PART')
);
#670=UNCERTAINTY_MEASURE_WITH_UNIT(LENGTH_MEASURE(2.E-5),#673,
'DISTANCE_ACCURACY_VALUE','Maximum Tolerance applied to model');
#671=(
NAMED_UNIT(*)
SI_UNIT($,.STERADIAN.)
SOLID_ANGLE_UNIT()
);
#672=(
NAMED_UNIT(*)
PLANE_ANGLE_UNIT()
SI_UNIT($,.RADIAN.)
);
#673=(
LENGTH_UNIT()
NAMED_UNIT(*)
SI_UNIT($,.METRE.)
);
#674=PRODUCT_DEFINITION_SHAPE('','',#675);
#675=PRODUCT_DEFINITION('','',#677,#676);
#676=PRODUCT_DEFINITION_CONTEXT('',#683,'design');
#677=PRODUCT_DEFINITION_FORMATION_WITH_SPECIFIED_SOURCE('','',#679,
 .NOT_KNOWN.);
#678=PRODUCT_RELATED_PRODUCT_CATEGORY('','',(#679));
#679=PRODUCT('Pressing Arm','Pressing Arm','Pressing Arm',(#681));
#680=PRODUCT_CATEGORY('','');
#681=PRODUCT_CONTEXT('',#683,'mechanical');
#682=APPLICATION_PROTOCOL_DEFINITION('international standard',
'ap242_managed_model_based_3d_engineering',2020,#683);
#683=APPLICATION_CONTEXT('managed model based 3d engineering');
ENDSEC;
END-ISO-10303-21;
